<?xml version="1.0" encoding="utf-8"?>
<!-- Generator: Adobe Illustrator 16.0.3, SVG Export Plug-In . SVG Version: 6.00 Build 0)  -->
<!DOCTYPE svg PUBLIC "-//W3C//DTD SVG 1.1//EN" "http://www.w3.org/Graphics/SVG/1.1/DTD/svg11.dtd">
<svg version="1.1" id="Capa_1" xmlns="http://www.w3.org/2000/svg" xmlns:xlink="http://www.w3.org/1999/xlink" x="0px" y="0px"
	 width="800px" height="200px" viewBox="0 0 800 200" enable-background="new 0 0 800 200" xml:space="preserve">
<path fill-rule="evenodd" clip-rule="evenodd" fill="#DB4B87" d="M129.187,76.633c-8.993-6.258-17.984-12.521-26.981-18.774
	c-2.867-1.992-0.347-2.761,0.889-3.648c8.412-6.033,16.875-11.995,25.281-18.035c1.113-0.8,2.658-1.206,3.06-2.809
	c0.639,0,1.277,0,1.915,0c3.951,4.665,9.55,7.184,14.214,10.921c1.356,1.087,2.732,2.152,4.101,3.229
	c-1.643,2.314-3.179,4.714-4.946,6.929C140.842,61.816,136.003,70.006,129.187,76.633z"/>
<path fill-rule="evenodd" clip-rule="evenodd" fill="#111110" d="M234.226,69.588c16.393-5.036,32.837-5.788,48.115,2.8
	c11.448,6.433,16.405,21.845,13.395,36.083c-2.95,13.963-12.355,23.879-26.452,25.196c-11.628,1.085-23.703,3.533-35.059-2.174
	C234.226,110.86,234.226,90.223,234.226,69.588z M247.239,100.103c0,2.778,0,5.558,0,8.337c0,14.444-0.002,14.32,14.751,13.958
	c8.152-0.201,14.806-2.941,18.542-10.421c4.104-8.22,4.185-16.66-0.783-24.631c-4.676-7.506-18.955-12.346-29.394-8.399
	c-6.789,2.567-1.783,10.168-3.044,15.337C246.863,96.12,247.239,98.158,247.239,100.103z"/>
<path fill-rule="evenodd" clip-rule="evenodd" fill="#945BAA" d="M192.139,76.271c2.518,1.657,5.007,3.355,7.561,4.955
	c1.802,1.129,2.462,2.623,2.455,4.771c-0.067,17.84-0.09,35.678,0.024,53.521c0.017,2.621-1.124,4.072-3.088,5.414
	c-8.102,5.544-16.146,11.165-24.223,16.744c-7.015,4.844-7.017,4.83-14.367-0.401c-8.012-5.703-16.033-11.394-24.466-17.385
	c10.507-7.454,20.54-14.74,30.776-21.73c2.854-1.949,3.971-4.05,3.786-7.448c-0.239-4.441,0.046-8.909,0.104-13.364
	c2.347-0.196,3.425-2.018,4.677-3.631C180.941,90.546,186.024,83.007,192.139,76.271z"/>
<path fill-rule="evenodd" clip-rule="evenodd" fill="#DB4B87" d="M74.916,151.226c-0.151-0.049-0.319-0.07-0.451-0.152
	c-11.918-7.537-11.919-7.537-11.923-21.679c-0.004-14.168-0.016-28.334,0.01-42.499c0.004-1.687-0.496-3.544,1.288-4.81
	c9.817-6.971,19.622-13.961,30.335-21.59c0,2.658,0,4.322,0,5.988c-0.005,16.234,0.001,32.47-0.033,48.706
	c-0.005,2.248-0.167,4.478,1.995,5.969c-0.414,2.466-2.12,4.184-3.518,6.073C86.721,135.231,80.818,143.229,74.916,151.226z"/>
<path fill-rule="evenodd" clip-rule="evenodd" fill="#DB4B87" d="M102.575,119.864c-1.824-0.957-3.918-1.729-3.921-4.288
	c-0.02-17.979-0.011-35.959-0.011-55.024c8.754,6.294,16.804,12.045,24.809,17.857c2.009,1.458,3.811,3.208,5.839,4.636
	c1.24,0.872,0.928,1.847,0.713,2.931c-1.354-0.01-2.357,0.472-3.222,1.63C118.747,98.385,110.652,109.119,102.575,119.864z"/>
<path fill-rule="evenodd" clip-rule="evenodd" fill="#BF529C" d="M134.587,118.557c-0.068-10.98-0.126-21.96-0.215-32.939
	c-0.013-1.505,0.216-2.769,1.581-3.729c9.72-6.862,19.411-13.767,29.893-21.214c0,7.748,0,14.628,0,21.508
	c-1.444,0.042-2.134,0.997-2.944,2.074c-7.89,10.509-15.888,20.935-23.771,31.445C137.921,117.314,136.83,118.756,134.587,118.557z"
	/>
<path fill-rule="evenodd" clip-rule="evenodd" fill="#BF529C" d="M74.916,151.226c5.902-7.997,11.805-15.994,17.704-23.994
	c1.397-1.89,3.104-3.607,3.518-6.073c6.709,4.755,13.418,9.507,20.126,14.259c-2.759,6.838-8.078,11.916-12.322,17.715
	c-3.001,4.098-5.251,8.968-10.089,11.494C87.231,160.597,80.996,156.021,74.916,151.226z"/>
<path fill-rule="evenodd" clip-rule="evenodd" fill="#AF56A0" d="M134.587,118.557c2.243,0.199,3.334-1.242,4.543-2.855
	c7.883-10.511,15.881-20.937,23.771-31.445c0.81-1.077,1.5-2.032,2.944-2.074c0.059,10.798,0.061,21.599,0.227,32.397
	c0.034,2.23-0.945,3.481-2.611,4.645c-8.451,5.932-16.848,11.939-25.306,17.854c-0.952,0.667-1.908,2.125-3.265,1.256
	c-1.011-0.651-0.485-2.054-0.481-3.109C134.428,129.669,134.52,124.111,134.587,118.557z"/>
<path fill-rule="evenodd" clip-rule="evenodd" fill="#111110" d="M493.141,134.096c-22.903,0.602-19.848,0.828-19.949-19.3
	c-0.064-12.818,0.206-25.643-0.1-38.457c-0.161-6.776,2.626-9.885,9.28-9.737c8.35,0.183,16.784-0.32,25.03,0.7
	c17.396,2.152,28.223,15.637,28.017,33.758c-0.2,17.693-11.101,30.68-28.102,32.941C502.67,134.62,497.87,134.096,493.141,134.096z
	 M497.007,78.6c-12.825,0.191-10.674-1.589-10.861,11.148c-0.09,6.116-0.017,12.232-0.017,18.348
	c0.002,14.92,0.002,14.92,15.255,14.238c12.813-0.575,20.474-8.373,20.816-21.19C522.607,85.968,514.44,78.658,497.007,78.6z"/>
<path fill-rule="evenodd" clip-rule="evenodd" fill="#111110" d="M457.184,100.359c-0.096,20.914-14.791,35.03-36.271,34.839
	c-20.881-0.186-35.274-14.489-35.287-35.066c-0.015-20.558,15.204-35.705,35.913-35.746
	C441.961,64.345,457.28,79.804,457.184,100.359z M444.568,100.155c0.017-13.126-10.11-23.16-23.299-23.091
	c-12.799,0.069-22.586,9.793-22.817,22.676c-0.239,13.222,9.647,23.373,22.819,23.428
	C434.535,123.224,444.552,113.329,444.568,100.155z"/>
<path fill-rule="evenodd" clip-rule="evenodd" fill="#111110" d="M550.556,100.377c0-8.348,0.146-16.695-0.049-25.036
	c-0.139-5.95,2.438-8.787,8.392-8.754c10.294,0.057,20.586,0.024,30.879,0.016c4.709-0.003,8.721,1.508,8.481,6.851
	c-0.211,4.7-3.906,6.203-8.354,6.134c-6.676-0.103-13.409,0.512-20.015-0.175c-6.638-0.688-6.251,2.992-6.238,7.45
	c0.013,4.433-0.353,8.189,6.229,7.466c5.772-0.634,11.67-0.101,17.511-0.127c4.255-0.019,7.127,1.742,7.144,6.249
	c0.018,4.472-2.785,6.342-7.058,6.336c-5.843-0.006-11.742,0.534-17.51-0.115c-6.621-0.747-6.322,3.007-6.313,7.496
	c0.012,4.416-0.466,8.111,6.223,7.485c7.444-0.696,15.008-0.129,22.519-0.159c4.58-0.019,7.776,2.003,7.796,6.695
	c0.018,4.428-3.387,6.181-7.388,6.222c-11.683,0.117-23.368,0.143-35.051,0.011c-5.172-0.059-7.288-3.139-7.226-8.173
	C550.633,117.625,550.556,109.001,550.556,100.377z"/>
<path fill-rule="evenodd" clip-rule="evenodd" fill="#BF529C" d="M102.575,119.864c8.078-10.745,16.172-21.479,24.208-32.259
	c0.865-1.158,1.868-1.64,3.222-1.63c0.503,12.135,0.449,24.271,0.007,36.405c-2.456-0.275-3.023,2-4.129,3.313
	c-1.902,2.259-3.377,4.88-6.085,6.36C113.771,128.395,108.109,124.221,102.575,119.864z"/>
<path fill-rule="evenodd" clip-rule="evenodd" fill="#111110" d="M692.946,94.985c8.964-8.405,17.706-16.52,26.344-24.745
	c3.175-3.025,6.252-6.097,10.678-2.258c4.961,4.306,1.813,7.818-1.371,11.238c-1.137,1.222-2.296,2.428-3.377,3.7
	c-4.11,4.838-12.345,8.58-11.918,14.13c0.405,5.265,7.189,10.054,11.215,15.021c2.978,3.671,6.023,7.293,9.041,10.934
	c2.788,3.364,4.2,6.894,0,10.068c-3.768,2.849-7.216,2.003-10.108-1.729c-4.941-6.377-9.769-12.863-15.069-18.931
	c-2.078-2.377-3.418-8.216-7.027-6.093c-3.83,2.257-8.324,5.833-8.381,11.638c-0.031,3.061-0.099,6.126,0.003,9.186
	c0.146,4.346-1.88,7.182-6.14,7.345c-4.279,0.165-6.612-2.536-6.619-6.881c-0.026-18.095-0.038-36.188,0.015-54.281
	c0.013-4.257,2.177-7.036,6.565-6.963c4.461,0.075,6.188,3.025,6.164,7.265C692.916,80.811,692.946,87.992,692.946,94.985z"/>
<path fill-rule="evenodd" clip-rule="evenodd" fill="#111110" d="M637.614,136.338c-7.063-0.01-13.817-1.425-19.944-5.045
	c-3.854-2.274-6.993-5.461-4.557-10.188c2.617-5.076,6.559-3.456,10.635-1.233c5.933,3.234,12.318,5.146,19.22,4.021
	c4.823-0.788,8.593-3.313,9.099-8.355c0.467-4.672-3.374-6.728-7.135-8.07c-6.27-2.24-12.745-3.931-18.946-6.331
	c-7.893-3.06-12.965-8.416-12.586-17.609c0.351-8.491,4.975-14.928,13.802-17.871c9.938-3.311,19.788-2.863,28.934,2.635
	c3.159,1.899,5.961,4.633,3.372,8.901c-2.253,3.71-5.315,3.17-8.661,1.448c-5.302-2.727-10.901-4.107-16.912-3.004
	c-4.191,0.77-7.372,2.852-7.964,7.308c-0.585,4.405,2.599,6.636,6.041,7.975c4.646,1.81,9.512,3.047,14.272,4.567
	c14.532,4.643,19.644,10.676,18.482,21.775c-1.125,10.779-10.108,17.979-23.815,19.064
	C639.845,136.414,638.726,136.338,637.614,136.338z"/>
<path fill-rule="evenodd" clip-rule="evenodd" fill="#111110" d="M370.437,92.272c0,6.13,0.368,12.281-0.074,18.378
	c-1.065,14.786-12.187,24.706-28.025,25.443c-15.005,0.7-27.774-8.313-29.964-22.249c-2.125-13.515-0.698-27.241-0.671-40.872
	c0.007-3.693,2.447-6.432,6.36-6.429c4.357,0.003,6.433,2.822,6.451,7.074c0.046,10.866-0.035,21.731,0.064,32.597
	c0.101,11.079,6.214,17.085,17.082,16.996c10.444-0.088,16.018-5.854,16.141-16.964c0.112-10.309,0.103-20.618-0.005-30.924
	c-0.049-4.729,1.175-8.755,6.531-8.73c5.556,0.025,6.308,4.449,6.285,8.964c-0.026,5.57-0.007,11.145-0.007,16.716
	C370.549,92.272,370.492,92.272,370.437,92.272z"/>
<path fill-rule="evenodd" clip-rule="evenodd" fill="#AF56A0" d="M192.139,76.271c-6.115,6.736-11.198,14.275-16.76,21.444
	c-1.252,1.613-2.33,3.435-4.677,3.631c0-13.233,0-26.466,0-40.741C178.312,66.166,185.226,71.218,192.139,76.271z"/>
<path fill-rule="evenodd" clip-rule="evenodd" fill="#BF529C" d="M129.187,76.633c6.816-6.626,11.655-14.817,17.532-22.186
	c1.768-2.215,3.304-4.615,4.946-6.929c3.218,2.169,6.383,4.423,9.67,6.48c2.403,1.503,3.262,2.492,0.253,4.54
	c-8.899,6.052-17.651,12.328-26.353,18.661C132.838,78.944,131.003,78.994,129.187,76.633z"/>
<path fill-rule="evenodd" clip-rule="evenodd" fill="#AF56A0" d="M93.852,164.626c4.838-2.526,7.088-7.396,10.089-11.494
	c4.245-5.799,9.563-10.877,12.322-17.715c3.153,2.147,6.266,4.357,9.473,6.42c2.137,1.372,2.564,2.376,0.144,4.056
	c-9.155,6.351-18.241,12.805-27.259,19.345C96.606,166.701,95.223,166.548,93.852,164.626z"/>
<path fill-rule="evenodd" clip-rule="evenodd" fill="#AF56A0" d="M119.797,132.055c2.708-1.48,4.184-4.102,6.085-6.36
	c1.105-1.313,1.673-3.589,4.129-3.313c0.094,4.919,0.197,9.844,0.271,14.767c0.008,0.581-0.143,1.163-0.292,2.284
	C126.218,136.986,122.742,134.911,119.797,132.055z"/>
</svg>
