<?xml version="1.0" standalone="no"?>
<svg version="1.1" id="Layer_1" xmlns="http://www.w3.org/2000/svg" xmlns:xlink="http://www.w3.org/1999/xlink" x="0px" y="0px" width="595.279px" height="595.281px" viewBox="0 0 595.279 595.281" enable-background="new 0 0 595.279 595.281" xml:space="preserve">
<path id="color_x5F_2" fill="#12b886" d="M355.885,99.083c2.039-3.307,6.48-6.697,11.385-8.746c1.693-0.545,3.388-1.07,4.922-1.533
	c4.563-0.918,8.976-0.311,11.779,2.898c-18.79,0.23-31.949,20.104-32.282,37.969c-0.003,0.09,0.016,0.168,0.043,0.24
	c-0.883,0.146-1.802,0.311-2.741,0.492c0-0.012,0.004-0.021,0.003-0.033C348.505,119.793,350.261,108.202,355.885,99.083z
	 M354.59,129.323c-0.001,0.049-0.014,0.096-0.026,0.141c0.168-0.025,0.337-0.053,0.5-0.076c8.872-1.35,20.769-3.068,29.682,0.211
	l0.074-0.137l0.063,0.193c0.521,0.195,1.033,0.4,1.53,0.631c0.235,0.109,0.392,0.238,0.493,0.379c0.053,0.002,0.1,0.01,0.146,0.016
	l21.749-3.182l0.979-0.186c-0.002-0.012-0.01-0.02-0.012-0.031c-0.981-6.729-2.045-13.922-5.354-19.973
	c-3.854-7.043-10.084-11.191-17.566-13.66C367.442,90.618,354.904,112.545,354.59,129.323z M342.457,109.233
	c-0.066,0.186-0.132,0.379-0.196,0.58c0.771-1.549,1.658-3.041,2.685-4.467C343.904,106.444,342.992,107.735,342.457,109.233z
	 M346.067,130.627c-0.429-9.271,0.705-21.529,6.01-30.275c-0.251,0.291-0.405,0.469-0.405,0.469s-0.301,0.119-0.783,0.346
	c-8.21,8.209-10.253,19.48-10.32,31.348c0,0.057-0.021,0.111-0.054,0.164c1.837-0.682,3.762-1.227,5.661-1.672
	C346.115,130.895,346.073,130.774,346.067,130.627z M337.668,133.29c0.001-0.105,0.005-0.209,0.006-0.314l-0.022,0.09
	c0,0-0.656,0.717-1.507,1.641c0.829-0.484,1.709-0.924,2.621-1.322C338.175,133.465,337.667,133.442,337.668,133.29z
	 M334.634,140.817c0.309-0.141,0.623-0.234,0.864-0.238c12.912-0.174,25.722-3.742,38.152-6.93c2.673-0.686,5.354-1.246,8.043-1.748
	l1.17-0.318c-3.969-1.285-8.555-1.314-12.58-1.264c-6.139,0.08-12.326,0.59-18.353,1.797c-5.35,1.072-11.62,2.322-16.05,5.732
	c-0.772,0.594-1.56,1.213-2.114,2.031C333.271,140.612,333.848,140.801,334.634,140.817z M356.678,94.61
	c-0.058,0.092-0.128,0.197-0.205,0.311c0.381-0.352,0.775-0.686,1.183-1.006C357.142,94.184,356.796,94.422,356.678,94.61z
	 M369.482,184.538c-4.435,1.377-8.26,3.553-10.911,6.971c3.47,4.211,10.241-1.805,15.219-3.787
	c-0.451-1.285-1.034-2.574-1.371-3.896C371.575,184.038,370.54,184.293,369.482,184.538z M412.232,183.805
	c6.8,0.635,18.021,6.256,20.688-1.521c-5.71-1.676-11.722-2.656-17.338-3.404c-1.487,1.354-2.556,3.014-3.323,4.881
	C412.253,183.774,412.239,183.79,412.232,183.805z M418.977,210.719c-0.33,0.158-0.668,0.301-1.002,0.447
	c0.156,0.104,0.271,0.254,0.305,0.461c0.379,2.336,0.128,4.299-0.57,5.967c0.632-0.107,1.245-0.004,1.372,0.441
	c1.295,4.559,5.015,8.025,5.608,12.818c0.137,1.104-2.775,1.764-2.898,0.777c-0.552-4.463-3.826-7.791-5.314-11.916
	c-2.282,2.984-6.239,4.801-10.271,6.146c1.252,3.582,1.688,7.756,3.942,10.73c3.497,4.609,15.784,1.688,17.182-4.047
	c1.857-7.621-4.95-15.49-8.344-21.746C418.972,210.776,418.97,210.747,418.977,210.719z M466.458,263.336
	c0.043-0.008,0.088-0.014,0.134-0.021c-0.049-0.006-0.099-0.014-0.146-0.02C466.448,263.307,466.453,263.321,466.458,263.336z
	 M455.561,193.624c0.012,1.752,0.024,3.504,0.06,5.246c6.683,0.82,14.276,0.949,20.438-1.99c0.403-0.191,0.81-0.209,1.156-0.121
	c-1.206-2.998-2.502-5.955-3.926-8.832c-0.099-0.199-0.121-0.391-0.096-0.57c-0.021-0.068-0.035-0.143-0.037-0.225
	c0-0.002,0-0.004,0-0.006c-3.742,1.563-7.872,2.551-12.003,3.217l-0.727,0.207l-1.355,0.104c-1.188,0.164-2.366,0.309-3.531,0.434
	c0,0.721,0.015,1.436,0.02,2.154C455.597,193.372,455.598,193.5,455.561,193.624z M415.38,212.405
	c-0.011-0.068-0.009-0.135-0.004-0.197c-4.038,1.457-8.26,2.389-12.358,3.789c-0.438,0.15-0.789,0.16-1.042,0.084
	c-0.157,0.064-0.329,0.111-0.515,0.131c-3.376,0.355-1.747,6.977-0.6,8.566c0.382,0.529,1.058,0.5,1.799,0.27
	c-0.033-0.072-0.063-0.156-0.098-0.227c-0.215-0.439,2.172-1.346,2.787-0.9c0.007-0.002,0.013-0.004,0.018-0.006
	C411.274,222.133,416.529,219.475,415.38,212.405z M411.004,176.124l-0.159-0.033c0.015,0.018,0.025,0.033,0.039,0.051
	C410.923,176.135,410.964,176.127,411.004,176.124z M347.122,219.463l-0.123,0.303c0.003,0.008,0.006,0.018,0.009,0.025
	C347.046,219.682,347.084,219.571,347.122,219.463z M482.107,257.231c-0.293,0.383-0.321,0.699-0.194,0.939
	c-1.104,1.645-2.253,2.547-4.655,2.857c-3.689,0.48-6.975,1.207-10.735,0.416c-7.245-1.525-12.903-7.572-17.175-13.217
	c-4.2-5.553-7.448-11.998-9.185-18.738c-1.408-5.469-2.345-10.762-5.972-15.27c-0.711-0.881-3.492,0.182-2.677,1.195
	c5.329,6.619,5.357,15.939,8.9,23.5c3.617,7.721,8.769,14.877,15.592,20.045c2.306,1.744,4.654,2.912,7.077,3.629
	c3.898,13.133,13.361,26.945,11.58,41.135c-0.094,0.746,1.064,0.793,1.946,0.475c0.009,0.092,0.014,0.182,0.021,0.273
	c-0.679,0.137-1.334,0.52-1.374,1.029c-1.358,17.379-3.273,34.713-4.75,52.08c-0.705,8.301-1.333,16.6-1.414,24.932
	c-0.082,8.557,1.525,16.906,2.565,25.369c0.04,0.324,0.319,0.492,0.687,0.545c-4.828,2.1-9.851,3.77-14.938,5.043
	c-8.563,2.146-19.559,3.354-26.731-2.898c-7.198-11.711-11.327-24.174-11.901-38.045c-0.363-8.771,0.252-17.557,0.843-26.342
	c0.563-1.141,0.901-2.279,0.864-3.373c-0.007-0.191-0.267-0.281-0.623-0.293c0.329-5.111,0.604-10.221,0.623-15.328
	c0.002-0.479-2.896-0.063-2.898,0.777c-0.022,6.107-0.371,12.207-0.752,18.305c-0.766,1.422-1.949,2.754-2.771,3.818
	c-2.455,3.18-5.291,6.076-8.132,8.906c-4.503,4.486-9.732,8.248-14.174,12.773c-2.69,2.566-4.896,5.035-5.434,6.646
	c-0.051,0.152-0.097,0.314-0.137,0.484c-3.645,6.576-2.378,12.621,0.568,19.527l-1.044,0.52c-6.273,1.689-13.077,1.826-19.775,0.939
	c-1.249-0.195-2.545-0.404-3.855-0.623c-3.9-0.742-7.725-1.799-11.34-3.066c-3.802-7.482-6.891-15.373-6.952-23.877
	c-0.063-8.945,5.646-15.596,10.415-22.6c3.886-5.703,7.801-11.381,11.811-16.982c1.004-0.113,1.5-1.033,1.203-1.662
	c6.034-8.365,12.299-16.557,19.033-24.404c0.479-0.115,0.915-0.332,1.104-0.631c5.602-8.912,0.407-23.824-2.167-32.869
	c-2.415-8.477-5.358-16.84-8.661-25.049c0.226,0.084,0.608,0.102,1.168-0.025c4.622-1.053,9.21-2.965,10.131-8.113
	c1.041-5.824-2.935-12.443-5.193-17.545c-0.06-0.135-0.214-0.205-0.421-0.229c0.011-0.473,0.016-0.932,0.021-1.375
	c0.007-0.713-2.889-0.229-2.898,0.777c0,0.012-0.001,0.021-0.001,0.035c-4.378,0.693-8.78,1.326-13.039,2.559
	c-0.736-1.91-1.436-3.834-2.087-5.773c-0.416-1.238-3.303-0.43-2.897,0.775c0.63,1.875,1.306,3.732,2.015,5.58
	c-3.048,1.119-5.37,3.93-5.152,7.303c0.249,3.84,7.503,2.521,10.05,2.309c-0.37,0.24-0.584,0.564-0.428,0.912
	c0.783,1.715,1.546,3.439,2.298,5.172c-2.702,5.992-7.313,11.299-11.479,16.258c-1.867,2.223-3.809,4.387-5.819,6.479
	c-5.58,5.809-11.968,3.391-16.709-1.633c-6.081-6.441-10.371-14.504-12.621-23.027c-1.834-6.945-2.568-14.092-4.561-21.008
	c0.241-0.094,0.448-0.227,0.581-0.398c2.845-3.689,8.452-7.521,13.693-7.854c0.358,0.127,0.817,0.113,1.232-0.012
	c1.097,0.053,2.169,0.258,3.18,0.688c0.096,0.041,0.207,0.061,0.325,0.07c1.853,1.215,3.316,3.486,4.51,6.057
	c-6.43,0.613-12.826,3.961-17.247,8.463c-0.744,0.76,2.104,0.49,2.66-0.078c3.801-3.869,9.588-7.068,15.151-7.104
	c1.349,3.213,2.332,6.65,3.17,8.887c2.136,5.705,4.764,11.203,6.739,16.973c0.232,0.68,3.101-0.188,2.897-0.777
	c-2.166-6.324-5.021-12.377-7.362-18.637c-0.107-0.287-0.219-0.594-0.332-0.916c0.437-0.162,0.794-0.402,0.878-0.691
	c0.961-3.301,2.646-6.273,3.653-9.553c1.428-4.646,1.565-9.748,2.757-14.48c0.403-1.607,0.971-3.057,1.676-4.359
	c5.082,4.037,11.918-3.229,17.207-4.791c0.669,0.84,3.063,0.098,2.755-1.049c-0.037-0.139-0.084-0.273-0.124-0.41
	c-0.002-0.078-0.021-0.148-0.064-0.211c-0.394-1.271-0.904-2.504-1.312-3.77c-0.292-0.908-1.103-3.107,0.334-3.045
	c0.131,0.006,0.271-0.008,0.41-0.021c0.267,0.053,0.53,0.107,0.779,0.166c0.186,0.152,0.361,0.316,0.529,0.492
	c-0.26,0.225-0.268,0.406,0.278,0.43c0.034,0,0.064-0.002,0.1,0c1.156,1.422,1.863,3.33,2.378,5.143
	c0.354,1.244,3.249,0.459,2.898-0.777c-0.439-1.547-1.021-3.08-1.826-4.416c0.751,0.102,1.313,0.164,1.313,0.164l0.99-0.473
	c7.774-1.313,13.412-6.006,18.354-12.705c1.905,3.008,4.018,5.893,6.064,8.646c-0.659,0.092-1.354,0.297-1.532,0.631
	c-2.204,4.129-6.294,6.813-10.088,9.346c-1.164,0.777,1.729,0.309,2.195-0.004c3.75-2.502,7.792-5.143,10.221-9.039
	c0.315,0.162,0.787,0.158,1.245,0.041c0.052,0.01,0.095,0.021,0.15,0.029c0.977,0.121,1.979,0.246,2.993,0.373
	c-1.747,1.557-3.032,3.432-3.928,5.609c-0.021,0.053-0.024,0.098-0.018,0.139c-0.555,0.631-0.429,1.547,0.915,1.461
	c8.015-0.506,20.847,7.475,25.179-2.703c6.745,2.283,12.891,5.678,17.193,11.02c0.124,18.469,1.465,36.447,4.389,54.748
	c0.179,1.107,3.088,0.404,2.898-0.775c-2.507-15.691-3.853-31.139-4.256-46.873c7.218,0.791,15.098,0.648,21.689-2.498
	c0.21-0.102,0.37-0.213,0.492-0.332c2.285,5.891,4.192,11.947,5.823,17.986C487.043,228.782,490.642,246.069,482.107,257.231z
	 M421.11,285.92c-2.935-9.547-6.603-18.873-10.37-28.115c-2.951-7.234-6.053-14.408-9.238-21.545
	c-5.428-12.158-12.371-23.951-15.268-37.051c-0.188-0.852-3.098-0.121-2.898,0.777c2.858,12.922,9.668,24.547,15.037,36.533
	c2.953,6.594,5.814,13.227,8.581,19.902c3.688,8.9,7.185,17.893,10.223,27.037c2.246,6.764,5.345,14.834,4.622,22.102
	c-0.1,1.002,2.797,0.416,2.881-0.426C425.316,298.729,422.963,291.948,421.11,285.92z M421.884,210.024
	c-0.16-0.295-0.721-0.287-1.308-0.146c0.121-0.068,0.247-0.123,0.368-0.193c1.696-0.982-0.833-1.52-1.82-0.947
	c-5.063,2.936-10.912,3.813-16.395,5.668c-0.191-0.146-0.505-0.223-0.975-0.174c-4.308,0.455-5.509,3.717-4.989,7.697
	c0.362,2.768,1.784,6.197,5.122,5.246c0.462-0.131,0.933-0.268,1.405-0.404c1.355,4.395,2.234,11.363,6.355,12.715
	c4.648,1.525,10.118-0.146,14.471-1.926C437.289,232.176,426.195,217.973,421.884,210.024z M386.292,301.321l-7.607,10.904
	c1.809-2.227,3.637-4.438,5.512-6.613c0.18-0.209,0.479-0.354,0.812-0.439C385.639,303.979,386.047,302.678,386.292,301.321z
	 M345.161,391.858c0.192,0.98,0.361,1.797,0.482,2.377c0.019,0.006,0.038,0.008,0.055,0.016c0.327,0.139,0.66,0.275,0.992,0.412
	c-0.449-0.928-0.889-1.867-1.313-2.822C345.308,391.85,345.236,391.856,345.161,391.858z M376.576,230.93
	c2.084-1.83,2.615-4.762,2.728-8.186c-4.445,0.703-8.977,1.268-13.273,2.633c-0.457,0.354-1.218,0.541-1.802,0.418
	c-0.041,0.014-0.068,0.031-0.112,0.045c-1.406,0.426-2.802,2.596-2.994,3.959c-0.37,2.619,0.888,3.418,3.309,3.391
	c2.468-0.029,5.066-0.07,7.518-0.391c1.37-0.18,2.475-0.533,3.387-1.023C375.443,231.407,375.984,231.09,376.576,230.93z
	 M332.573,207.493c-0.162,0.037-0.332,0.082-0.511,0.137c0.17-0.025,0.339-0.037,0.508-0.059
	C332.572,207.545,332.572,207.518,332.573,207.493z M372.566,238.739c0.521-0.025,0.915,0.055,0.828,0.264
	c-0.111,0.273-0.236,0.545-0.355,0.816c1.145,2.625,2.254,5.27,3.329,7.93c0.137-0.182,0.483-0.377,1.091-0.516
	c10.895-2.477,7.548-12.193,4.144-19.871c-0.466,1.699-1.288,3.232-2.763,4.275c-0.138,0.098-0.282,0.172-0.422,0.262
	c0.743,2.504,1.589,4.961,2.608,7.367c0.354,0.838-2.491,1.736-2.898,0.777c-0.944-2.232-1.74-4.508-2.443-6.82
	c-1.677,0.58-3.445,0.855-5.249,1.014c0.105,0.08,0.194,0.176,0.251,0.301C371.322,235.932,371.947,237.334,372.566,238.739z"></path>
<path id="color_x5F_1" d="M371.813,143.93c0.13,0.482-1.049,0.799-1.316,0.883c-3.171,0.994-7.3,1.191-9.906-1.188
	c-0.506-0.465,2.128-1.559,2.725-1.014c1.889,1.727,4.544,1.961,6.919,1.215C370.497,143.743,371.688,143.463,371.813,143.93z
	 M355.499,144.477c-1.603,0-3.205,0-4.807,0c-0.659,0-1.521,0.211-1.911,0.799c-0.379,0.57,0.317,0.885,0.794,0.885
	c1.603,0,3.205,0,4.807,0c0.659,0,1.521-0.213,1.911-0.801C356.672,144.792,355.975,144.477,355.499,144.477z M355.069,154.942
	c-0.307-0.186-0.563-1.033-0.706-1.51c-0.1-0.326-0.176-0.656-0.247-0.988c-0.029-0.141-0.053-0.279-0.077-0.42
	c-0.008-0.047-0.047-0.498-0.038-0.229c-0.044-1.436-2.96-0.91-2.924,0.268c0.023,0.789,0.211,1.563,0.438,2.316
	c0.234,0.771,0.571,1.707,1.295,2.148c0.615,0.373,1.513,0.188,2.07-0.207C355.338,156,355.679,155.313,355.069,154.942z
	 M359.693,165.448c-0.001-0.049-0.003-0.096-0.001-0.168c0.012-0.479,0.122-0.961,0.211-1.43c0.204-1.07,0.464-2.127,0.663-3.199
	c0.385-2.072,0.45-4.145-0.494-6.066c-0.594-1.207-3.34-0.109-2.646,1.299c1.319,2.682-0.144,6.191-0.601,8.932
	c-0.359,2.152,0.822,3.365,3,2.771C361.468,167.135,361.139,165.366,359.693,165.448z M369.481,151.606
	c-0.212-0.791-0.442-1.646-0.473-2.471c-0.015-0.408-2.925,0.033-2.897,0.775c0.033,0.898,0.301,1.824,0.529,2.689
	c0.2,0.748,0.442,1.953,1.152,2.408c0.452,0.291,1.417-0.051,1.854-0.205c0.109-0.037,1.288-0.49,0.884-0.75
	C369.874,153.631,369.665,152.297,369.481,151.606z M424.679,305.135c0.638-6.406-1.716-13.188-3.568-19.215
	c-2.935-9.547-6.603-18.873-10.37-28.115c-2.951-7.234-6.053-14.408-9.238-21.545c-5.428-12.158-12.371-23.951-15.268-37.051
	c-0.188-0.852-3.098-0.121-2.898,0.777c2.858,12.922,9.668,24.547,15.037,36.533c2.953,6.594,5.814,13.227,8.581,19.902
	c3.688,8.9,7.185,17.893,10.223,27.037c2.246,6.764,5.345,14.834,4.622,22.102C421.698,306.563,424.595,305.977,424.679,305.135z
	 M424.12,237.559c-4.354,1.779-9.821,3.451-14.471,1.926c-4.121-1.352-5-8.318-6.355-12.715c-0.474,0.139-0.942,0.273-1.405,0.404
	c-3.338,0.951-4.76-2.479-5.122-5.246c-0.52-3.98,0.683-7.242,4.989-7.697c0.469-0.049,0.782,0.027,0.975,0.174
	c5.481-1.855,11.33-2.732,16.395-5.668c0.987-0.57,3.518-0.035,1.82,0.947c-0.121,0.07-0.247,0.125-0.368,0.193
	c0.587-0.141,1.146-0.148,1.308,0.146C426.195,217.973,437.289,232.176,424.12,237.559z M402.66,225.047
	c-0.033-0.072-0.063-0.156-0.098-0.227c-0.215-0.439,2.172-1.346,2.787-0.9c0.007-0.002,0.013-0.004,0.018-0.006
	c5.906-1.781,11.161-4.438,10.013-11.51c-0.011-0.068-0.009-0.135-0.004-0.199c-4.038,1.459-8.26,2.391-12.358,3.791
	c-0.438,0.15-0.789,0.16-1.042,0.082c-0.157,0.066-0.329,0.113-0.515,0.133c-3.376,0.355-1.747,6.977-0.6,8.566
	C401.243,225.307,401.919,225.278,402.66,225.047z M418.986,210.801c-0.015-0.025-0.017-0.053-0.011-0.082
	c-0.329,0.158-0.667,0.301-1.001,0.447c0.156,0.104,0.271,0.254,0.305,0.461c0.379,2.336,0.128,4.299-0.57,5.967
	c0.632-0.107,1.245-0.004,1.372,0.441c1.295,4.559,5.015,8.025,5.608,12.818c0.137,1.104-2.775,1.764-2.898,0.777
	c-0.552-4.463-3.826-7.791-5.314-11.916c-2.282,2.984-6.239,4.801-10.271,6.146c1.252,3.582,1.687,7.756,3.942,10.73
	c3.496,4.609,15.783,1.688,17.182-4.047C429.188,224.926,422.379,217.057,418.986,210.801z M547.605,469.424
	c-23.277,0-46.557,0-69.834,0c0.049,1.668,0.082,3.695,0.108,5.781c0.183,0.158,0.299,0.381,0.304,0.68
	c0.162,11.42,7.073,33.115-11.209,33.023c-1.053-0.006-2.119-0.078-3.18-0.209c-2.224,0.076-4.146-0.176-5.071-0.998
	c-0.127-0.111-0.271-0.236-0.417-0.359c-3.452-1.371-6.372-3.732-7.898-7.377c-0.958-1.264-1.599-2.523-1.599-3.68
	c0-0.76-0.046-2.102-0.109-3.787c-0.147-1.592-0.191-3.199-0.186-4.813c-0.228-6.166-0.426-13.641,0.068-16.613
	c-0.209-0.84-0.432-1.676-0.658-2.508c-12.468,0-24.937,0-37.402,0c1.427,3.363,2.507,6.859,2.332,10.303
	c0.247,1.898,0.012,3.789-1.392,5.25c-0.006,0.012-0.009,0.021-0.015,0.033c-0.059,0.109-0.173,0.207-0.316,0.293
	c-0.002,0.002-0.004,0.004-0.006,0.006c-3.707,3.254-9.312,4.109-14.029,4.635c-10.95,1.221-22.149,0.998-33.151,0.842
	c-6.515-0.094-14.938,0.887-21.211-1.352c-0.099-0.037-0.371-0.133-0.238-0.311c0.18-0.238,0.384-0.451,0.572-0.68
	c0.039-0.813,0.262-3.27,1.463-5.65c-6.839-0.664-13.175-3.258-19.094-7.518c-3.104-2.232-6.13-4.723-9.249-7.072
	c-64.86,0-129.723,0-194.583,0c-0.32,0.266-0.643,0.529-0.964,0.793c-7.451,6.102-14.764,11.23-23.862,14.564
	c-13.421,4.916-39.078,9.611-36.718-12.574c0.123-1.15,3.063-1.637,2.918-0.289c-2.636,24.768,31.13,13.492,43.005,6.643
	c4.475-2.582,8.695-5.795,12.852-9.137c-24.087,0-48.174,0-72.261,0c-1.96,0-0.22-1.93,1.051-1.93c24.53,0,49.061,0,73.591,0
	c13.475-10.988,26.603-22.342,45.715-16.746c0.172,0.051,0.293,0.113,0.39,0.184c3.657-4.025,11.105-5.729,15.688-5.816
	c1.004-0.02,1.359,0.551,1.246,1.119c0.432,0.006,0.738,0.109,0.673,0.352c-0.27,0.988-0.437,2.029-0.557,3.094
	c2.706,0,5.411,0,8.118,0c0.398,0,1.178,0.199,0.756,0.744c-0.412,0.531-1.279,0.764-1.92,0.764c-2.362,0-4.726,0-7.087,0
	c-0.104,1.676-0.102,3.395-0.053,5.1c0.165-0.025,0.329-0.041,0.479-0.041c2.604,0,5.208,0,7.812,0c0.438,0,1.176,0.254,0.774,0.813
	c-0.401,0.561-1.268,0.781-1.915,0.781c-2.366,0-4.732,0-7.099,0c0.051,1.447,0.104,2.871,0.104,4.223
	c0,0.797-2.354,1.23-2.813,0.908c-6.061,0.701-18.359,1.723-16.22-8.293c0.171-0.803,0.479-1.541,0.879-2.23
	c-0.35,0.115-0.703,0.156-0.979,0.076c-16.657-4.875-29.229,5.047-41.265,14.973c63.2,0,126.402,0,189.604,0
	c-4.045-2.844-8.317-5.279-13.17-6.484c-13.889-3.451-27.824,3.188-41.561,4.818c-13.411,1.596-25.865-0.576-35.654-10.48
	c-0.271-0.273-0.21-0.564,0.023-0.818c-5.17,2.029-12.54,0.063-16.851-2.205c-0.587-0.309-0.699-0.734-0.552-1.129
	c-0.569,0.283-1.29,0.391-1.771,0.1c-0.011-0.006-0.021-0.014-0.032-0.02c-0.254-0.152-0.39-0.479-0.361-0.766
	c0.163-1.686,2.73-3.785,3.736-4.973c2.105-2.479,4.247-4.947,6.158-7.584c0.357-0.49,1.077-0.666,1.685-0.578
	c0.443-0.236,0.979-0.34,1.421-0.158c3.486,1.434,8.571,2.85,10.702,6.279c1.852,2.98,1.381,6.594-1.101,9.086
	c-0.522,0.525-1.113,0.951-1.742,1.316c0.527-0.102,1.063-0.057,1.355,0.24c12.334,12.479,28.59,11.281,44.477,7.805
	c10.721-2.346,21.874-5.863,32.777-2.43c5.488,1.73,10.169,4.689,14.681,7.98c18.507,0,37.014,0,55.521,0
	c1.96,0,0.219,1.93-1.051,1.93c-17.294,0-34.588,0-51.882,0c1.681,1.275,3.354,2.572,5.057,3.848
	c6.404,4.793,12.918,8.102,20.351,8.844c0.768-0.938,1.737-1.777,3.001-2.375c5.097-2.414,19.521-6.742,24.482-9.566
	c1.193-1.725,1.448-3.549,0.411-5.869c-1.496-3.35-3.034-6.682-4.572-10.014c-8.564-18.561-16.423-37.998-26.612-55.742
	c-0.12-0.211,0.514-0.59,1.224-0.822c-0.114-0.049-0.231-0.096-0.346-0.145c-1.019-0.434,1.5-1.514,2.291-1.268
	c0.019,0.006,0.038,0.008,0.055,0.016c0.327,0.141,0.66,0.275,0.992,0.412c-0.449-0.926-0.889-1.867-1.313-2.82
	c-0.069,0.01-0.142,0.016-0.216,0.018c-0.013,0-0.024,0.002-0.037,0.002c-2.077,0-4.154,0-6.23,0c-0.676,0-1.046-0.252-1.183-0.578
	c-0.189-0.092-0.35-0.223-0.446-0.412c-8.821-17.316-16.23-35.275-23.987-53.082c-9.19,19.514-18.518,38.984-28.646,58.021
	c-0.377,0.707-3.023,0.861-2.852,0.535c0.08-0.15,0.158-0.305,0.239-0.455c-5.513,0.086-10.984,0.639-16.493,0.758
	c-0.635,0.666-2.006,0.906-2.442,0.088c-0.057-0.105-0.112-0.213-0.169-0.316c-0.172-0.139-0.259-0.314-0.269-0.506
	c-5.55-10.41-11.095-20.822-16.535-31.291c-0.678-1.303-1.547-2.682-2.32-4.086c-0.85,1.639-1.953,3.273-2.533,4.434
	c-5.264,10.523-10.781,20.924-16.315,31.309c-0.009,0.018-0.022,0.031-0.032,0.047c-0.024,0.543-0.619,1.15-1.508,1.15
	c-7.343,0-14.688,0-22.03,0c-0.854,0-1.213-0.373-1.218-0.795c-0.232-0.012-0.413-0.072-0.487-0.211
	c-8.681-16.326-16.67-33.031-24.443-49.822c-7.41,15.92-15.072,31.719-22.633,47.568c-0.485,1.02-3.142,1.166-2.822-0.055
	c-3.99,0.092-7.957,0.457-11.946,0.561c-0.661,0.623-1.958,0.82-2.367,0.021c-0.051-0.1-0.102-0.199-0.153-0.299
	c-0.102-0.104-0.158-0.227-0.183-0.357c-4.353-8.49-8.704-16.982-12.967-25.521c-0.202-0.404-0.72-1.193-1.25-2.09
	c-0.61,1.129-1.292,2.215-1.688,3.035c-4.012,8.32-8.21,16.555-12.424,24.775c-0.012,0.023-0.03,0.043-0.044,0.066
	c-0.089,0.516-0.662,1.051-1.496,1.051c-5.64,0-11.28,0-16.921,0c-0.801,0-1.162-0.33-1.208-0.721
	c-0.193-0.021-0.34-0.084-0.402-0.207c-9.13-17.863-17.262-36.254-25.326-54.617c-4.722-10.748-10.367-21.592-14.075-32.75
	c-0.122-0.367,0.604-0.639,1.355-0.785c0.24-0.141,0.535-0.234,0.878-0.234c8.19,0,16.382,0,24.572,0
	c0.414-0.057,0.769-0.039,0.893,0.09c0.029,0.029,0.048,0.063,0.069,0.096c0.003-0.002,0.007-0.004,0.012-0.004
	c0,0.008,0.003,0.016,0.004,0.023c0.019,0.025,0.042,0.049,0.059,0.078c0.002,0.006-0.001,0.012,0.001,0.018
	c0.259,0.24,0.276,0.594,0.114,0.914c1.02,5.031,4.354,10.572,6.301,15.096c4.861,11.305,10.08,22.447,15.634,33.428
	c2.672-5.289,5.341-10.58,7.979-15.885c0.229-0.461,1.469-2.545,1.977-3.678c-0.093-0.027-0.143-0.068-0.116-0.123
	c0.113-0.236,0.221-0.479,0.351-0.703c0.003-0.006,0.015-0.014,0.019-0.02c0.004-0.553,0.607-1.182,1.513-1.182
	c7.503,0,15.007,0,22.511,0c0.495-0.197,1.123-0.287,1.409-0.32c0.294-0.035,0.539,0.037,0.749,0.176
	c0.021-0.01,0.04-0.018,0.061-0.025c-0.003,0.023,0.006,0.057,0.004,0.08c0.043,0.033,0.085,0.068,0.125,0.105
	c0.983,0.1,1.15,0.771,0.801,1.307c0.089,0.199,0.173,0.395,0.255,0.563c0.049,0.1-0.084,0.236-0.313,0.375
	c0.451,0.799,0.947,1.561,1.161,1.992c2.601,5.285,5.281,10.531,7.968,15.771c6.282-12.475,12.188-25.129,17.688-37.971
	c-2.655-5.873-5.3-11.752-7.913-17.645c-1.615-3.643-4.155-7.686-5.068-11.592c-0.121-0.521,1.83-1.104,2.616-0.928
	c10.385,0,20.771,0,31.155,0c0.643-0.188,1.311-0.236,1.528,0.078c0.03,0.039,0.056,0.082,0.075,0.129
	c0.004,0.006-0.001,0.016,0.001,0.023c0.387,0.27,0.396,0.73,0.131,1.117c0.554,1.518,1.816,4,2.019,4.486
	c2.012,4.887,4.104,9.738,6.261,14.563c6.432,14.385,13.334,28.551,20.688,42.484c3.617-6.885,7.23-13.771,10.805-20.682
	c0.768-1.482,1.909-3.131,2.588-4.768c-0.083-0.027-0.126-0.066-0.102-0.115c0.146-0.293,0.276-0.613,0.457-0.885
	c0.001-0.002,0.005-0.004,0.005-0.006c0.007-0.551,0.609-1.178,1.513-1.178c9.739,0,19.479,0,29.219,0
	c0.597-0.43,1.847-0.674,2.338-0.516c0.229,0.072,0.44,0.27,0.638,0.523c1.152,0.066,1.281,0.875,0.804,1.439
	c0.135,0.297,0.253,0.568,0.351,0.762c0.053,0.104-0.106,0.252-0.372,0.404c0.675,1.219,1.408,2.428,1.579,2.762
	c3.514,6.855,7.131,13.658,10.754,20.457c7.438-14.18,14.479-28.568,21.089-43.152c2.276-5.023,4.523-10.063,6.681-15.139
	c0.604-1.428,2.192-3.893,2.268-5.451c-0.035-0.023-0.053-0.051-0.035-0.084c0.019-0.043,0.041-0.084,0.069-0.121
	c0.259-0.359,2.883-1.242,2.875-0.654c-0.003,0.227-0.035,0.467-0.087,0.715c9.875,0,19.75,0,29.626,0
	c0.354-0.506,3.02-1.119,2.844-0.527c-0.063,0.211-0.144,0.422-0.212,0.633c1.021,0.381,0.513,1.678-0.673,1.861
	c-1.449,3.662-3.53,7.27-5.128,10.748c-1.753,3.818-3.52,7.631-5.283,11.443c6.064,15.232,12.899,30.127,20.307,44.748
	c2.675-5.291,5.345-10.586,7.983-15.895c0.229-0.461,1.469-2.545,1.978-3.678c-0.094-0.027-0.144-0.068-0.116-0.123
	c0.111-0.234,0.219-0.477,0.348-0.699c-0.033-0.627,0.535-1.342,1.495-1.342c1.773,0,3.546,0,5.319,0
	c4.482-6.209,9.098-12.318,13.93-18.268c1.808-2.227,3.636-4.438,5.511-6.613c0.18-0.209,0.479-0.355,0.813-0.439
	c0.632-1.191,1.04-2.494,1.284-3.852c0.604-3.33,0.235-6.982-0.192-10.119c-0.912-6.682-2.565-13.25-4.536-19.695
	c-2.924-9.563-6.376-18.982-10.272-28.205c-3.483,6.154-8.621,11.795-13.203,16.848c-4.313,4.754-10.391,9.961-17.392,7.41
	c-9.045-3.299-15.77-14.803-18.729-23.529c-2.938-8.662-3.556-17.877-6.229-26.619c-0.038-0.125,0.045-0.258,0.2-0.385
	c-0.042-0.025-0.08-0.053-0.109-0.086c-2.92-3.441-7.516-4.094-11.151-6.475c-2.018-1.318-3.457-3.23-4.784-5.229
	c-0.963-1.449-2.938-4.008-1.945-5.85c0.373-0.691,1.134-1.055,1.973-1.234c-0.683-1.262-1.156-2.58-1.229-3.781
	c-0.152-2.508,2.063-3.314,4.235-3.367c-0.188-0.914-0.218-1.816-0.017-2.67c0.627-2.658,2.467-4.092,4.498-3.77
	c0.121-1.244,0.834-2.211,2.504-2.615c5.313-1.285,7.216,4.264,9.349,8.771c0.118-1.496,0.571-2.938,1.52-4.184
	c1.047-1.375,4.681-2.709,5.864-0.734c0.861,1.436,0.957,2.994,1.403,4.572c0.726,2.566,2.058,3.844,3.862,5.65
	c3.607,3.607,3.729,6.781,3.594,11.434c1.503,0.086,2.97,0.395,4.351,0.98c0.232,0.098,0.34,0.223,0.362,0.357
	c2.309,1.266,4.012,4.15,5.339,7.229c0.062,0.004,0.124,0.002,0.187,0.006c0.696,0.041,0.538,0.336,0.092,0.643
	c0.428,1.039,0.813,2.088,1.169,3.092c0.003,0.008,0.006,0.016,0.009,0.023c0.038-0.107,0.076-0.219,0.114-0.328
	c1.361-3.869,2.91-7.48,3.588-11.742c0.753-4.74,1.316-10.021,3.805-14.24c3.789-6.432,10.254-9.316,17.278-10.947
	c0.146-0.033,0.267-0.041,0.392-0.053c-0.02-0.219-0.04-0.438-0.037-0.658c0.016-1.133,0.503-1.914,1.232-2.424
	c-2.594-0.076-5.12,0.488-7.695,0.715c-4.499,0.396-9.36-0.057-12.618-3.598c-4.17-4.535-6.21-11.365-7.636-17.215
	c-1.343-5.506-2.339-11.17-2.182-16.855c-3.603,0.242-9.789,1.939-12.651-0.67c-0.314-0.287-0.468-0.635-0.282-1.053
	c1.139-2.555,3.242-4.506,5.829-6.018c0.829-0.484,1.709-0.924,2.621-1.322c-0.591,0.082-1.099,0.061-1.098-0.094
	c0.001-0.104,0.005-0.209,0.006-0.313c0.073-8.285,1.16-16.281,4.587-23.162c0.771-1.549,1.658-3.041,2.684-4.467
	c2.013-2.797,4.527-5.344,7.691-7.557c0.244-0.17,0.911-0.32,1.519-0.4c0.715-0.883,1.486-1.707,2.318-2.471
	c0.381-0.35,0.775-0.684,1.182-1.006c0.48-0.381,0.974-0.746,1.49-1.086c7.482-4.895,22.088-11.068,28.372-1.207
	c0.035,0.055,0.055,0.109,0.076,0.164c0.174-0.018,0.337-0.01,0.471,0.033c0.257,0.08,0.513,0.168,0.77,0.254
	c0.052,0.018,0.104,0.033,0.154,0.051c6.826,2.291,13.329,5.953,17.132,12.316c4.022,6.732,5.432,14.402,6.552,22.064
	c0.109,0.754-1.109,1.305-2.003,1.297c-0.07,0.154-0.215,0.324-0.41,0.484c0.002,0.008,0.008,0.014,0.01,0.02
	c1.493,5.328,3.162,10.75,2.657,16.359c-0.697,7.768-4.475,13.965-10.136,19.193c-0.023,0.021-0.058,0.041-0.086,0.063
	c2.34,4.295,5.305,8.354,8.143,12.166c0.014,0.02,0.025,0.035,0.039,0.053c0.039-0.008,0.08-0.014,0.12-0.018
	c0.106-0.01,0.214-0.014,0.32,0c13.821,1.703,31.536,3.994,41.938,14.432c0.201-0.104,0.433-0.184,0.67-0.232
	c0.012-0.004,0.025-0.01,0.037-0.014c0.615-4.055-0.099-7.436-2.569-10.748c-1.322-1.777-3.227-3.523-4.103-5.586
	c-2.081-4.896-0.835-11.07-4.386-15.309c-0.006-0.006-0.007-0.014-0.012-0.02c-0.393-0.229-0.555-0.641-0.142-1.223
	c1.233-1.74,2.811-3.223,5.087-2.902c1.926,0.27,3.104,2.396,4.035,3.863c1.013,1.598,2.314,2.799,3.612,3.939
	c3.058-2.656,2.264-8.967,4.1-12.385c1.206-2.246,3.794-4.766,6.597-4.057c0.622,0.158,1.04,0.559,1.307,1.125
	c0.158-0.072,0.315-0.146,0.488-0.193c1.146-0.318,2.594-0.172,3.218,1.01c0.058,0.109,0.1,0.221,0.151,0.332
	c2.598-1.713,6.2-3.016,6.784,1.098c0.022,0.158,0.025,0.316,0.043,0.475c0.22-0.029,0.431-0.025,0.603,0.033
	c5.297,1.82,4.37,8.242,3.049,12.598c-1.008,3.324-2.733,6.336-3.777,9.639c-1.543,4.885-2.11,9.715-1.984,14.828
	c0.001,0.023-0.009,0.045-0.011,0.066c4.984,10.127,8.832,21.133,11.389,32.104c2.759,11.844,5.206,26.793-1.849,37.623
	c-0.006,0.104-0.034,0.215-0.108,0.348c-2.555,4.488-4.734,5.252-9.616,6.029c-3.245,0.52-6.323,0.691-9.281,0.318
	c-0.049-0.006-0.099-0.014-0.146-0.021c0.004,0.016,0.009,0.027,0.014,0.041c4.18,12.854,12.844,26.174,11.104,40.031
	c-0.045,0.357-0.454,0.652-0.951,0.832c-0.883,0.32-2.04,0.271-1.946-0.473c1.781-14.189-7.683-28.004-11.58-41.135
	c-2.423-0.717-4.772-1.885-7.077-3.631c-6.823-5.168-11.975-12.322-15.592-20.043c-3.543-7.561-3.571-16.881-8.9-23.502
	c-0.815-1.014,1.965-2.076,2.676-1.193c3.627,4.506,4.563,9.801,5.973,15.27c1.734,6.74,4.982,13.186,9.185,18.736
	c4.271,5.645,9.93,11.691,17.175,13.217c3.762,0.793,7.046,0.064,10.735-0.414c2.402-0.313,3.551-1.215,4.655-2.859
	c-0.127-0.24-0.1-0.557,0.193-0.938c8.535-11.164,4.938-28.451,1.582-40.869c-1.631-6.039-3.537-12.098-5.822-17.988
	c-0.122,0.119-0.282,0.232-0.492,0.332c-6.593,3.148-14.473,3.289-21.689,2.498c0.403,15.736,1.748,31.184,4.256,46.873
	c0.188,1.184-2.722,1.887-2.898,0.777c-2.924-18.301-4.265-36.279-4.389-54.748c-4.305-5.342-10.448-8.736-17.193-11.02
	c-4.332,10.178-17.164,2.197-25.179,2.703c-1.344,0.084-1.47-0.832-0.915-1.463c-0.008-0.041-0.005-0.086,0.017-0.137
	c0.896-2.178,2.182-4.053,3.929-5.609c-1.016-0.129-2.018-0.254-2.993-0.373c-0.058-0.008-0.101-0.021-0.15-0.029
	c-0.458,0.115-0.93,0.121-1.245-0.041c-2.429,3.896-6.471,6.537-10.221,9.039c-0.468,0.313-3.359,0.779-2.195,0.004
	c3.794-2.531,7.883-5.219,10.088-9.346c0.18-0.334,0.873-0.541,1.532-0.633c-2.048-2.752-4.159-5.637-6.065-8.645
	c-4.94,6.699-10.578,11.393-18.354,12.705c-0.752,0.127-1.528,0.217-2.322,0.279c0.006,0.01,0.012,0.02,0.02,0.029
	c0.807,1.334,1.387,2.869,1.825,4.414c0.352,1.238-2.545,2.021-2.897,0.777c-0.516-1.813-1.222-3.719-2.378-5.143
	c-0.034-0.002-0.065,0-0.101,0c-0.546-0.021-0.537-0.205-0.277-0.43c-0.168-0.174-0.346-0.338-0.529-0.492
	c-0.107-0.09-0.216-0.178-0.329-0.26c-0.149,0.043-0.299,0.078-0.451,0.094c-0.14,0.016-0.278,0.027-0.409,0.021
	c-1.437-0.063-0.626,2.137-0.334,3.045c0.405,1.266,0.918,2.498,1.312,3.77c0.021,0.07,0.043,0.141,0.064,0.213
	c0.04,0.137,0.087,0.27,0.124,0.408c0.308,1.146-2.086,1.889-2.756,1.049c-5.288,1.564-12.125,8.828-17.207,4.791
	c-0.704,1.305-1.271,2.752-1.676,4.359c-1.189,4.734-1.329,9.836-2.756,14.482c-1.007,3.277-2.693,6.252-3.654,9.551
	c-0.084,0.291-0.44,0.529-0.878,0.691c0.114,0.322,0.226,0.631,0.332,0.918c2.344,6.258,5.197,12.313,7.363,18.637
	c0.202,0.59-2.665,1.457-2.898,0.775c-1.976-5.77-4.604-11.266-6.738-16.973c-0.838-2.236-1.821-5.672-3.17-8.885
	c-5.563,0.033-11.353,3.23-15.151,7.102c-0.558,0.568-3.405,0.838-2.66,0.08c4.42-4.502,10.817-7.85,17.247-8.465
	c-1.192-2.57-2.658-4.842-4.51-6.057c-0.118-0.01-0.23-0.029-0.325-0.068c-1.011-0.432-2.083-0.637-3.18-0.688
	c-0.415,0.125-0.874,0.139-1.233,0.01c-5.241,0.334-10.849,4.164-13.692,7.854c-0.134,0.172-0.341,0.307-0.581,0.4
	c1.99,6.914,2.727,14.061,4.561,21.008c2.25,8.521,6.54,16.584,12.621,23.025c4.741,5.021,11.129,7.439,16.709,1.633
	c2.012-2.092,3.952-4.256,5.819-6.479c4.168-4.957,8.776-10.266,11.479-16.258c-0.752-1.73-1.515-3.457-2.298-5.172
	c-0.157-0.346,0.057-0.672,0.427-0.912c-2.546,0.215-9.8,1.533-10.049-2.309c-0.218-3.371,2.104-6.182,5.152-7.303
	c-0.709-1.848-1.386-3.705-2.016-5.578c-0.403-1.207,2.482-2.016,2.898-0.777c0.65,1.941,1.351,3.863,2.087,5.773
	c4.259-1.23,8.661-1.863,13.039-2.559c0-0.012,0.001-0.021,0.001-0.033c0.011-1.008,2.905-1.492,2.897-0.777
	c-0.005,0.441-0.009,0.902-0.02,1.373c0.207,0.023,0.361,0.094,0.421,0.229c2.26,5.104,6.234,11.723,5.193,17.547
	c-0.921,5.146-5.51,7.061-10.132,8.111c-0.559,0.127-0.941,0.109-1.168,0.027c3.304,8.207,6.246,16.572,8.661,25.049
	c2.575,9.043,7.77,23.957,2.167,32.867c-0.188,0.301-0.626,0.516-1.104,0.631c-6.734,7.85-12.999,16.039-19.033,24.406
	c0.297,0.629-0.2,1.547-1.203,1.66c-4.01,5.604-7.925,11.279-11.811,16.982c-4.771,7.004-10.479,13.654-10.415,22.602
	c0.062,8.504,3.149,16.395,6.952,23.877c3.614,1.268,7.438,2.324,11.34,3.064c1.311,0.219,2.605,0.43,3.854,0.623
	c6.699,0.889,13.502,0.748,19.776-0.938c0.378-0.104,0.755-0.207,1.129-0.32c-0.028-0.066-0.056-0.135-0.085-0.201
	c-2.947-6.904-4.213-12.951-0.569-19.525c0.442-0.799,0.94-1.604,1.533-2.418c1.227-1.688,2.591-3.24,4.037-4.713
	c4.44-4.525,9.671-8.289,14.173-12.773c2.841-2.832,5.677-5.729,8.132-8.908c0.822-1.063,2.008-2.396,2.772-3.818
	c0.381-6.098,0.729-12.195,0.752-18.305c0.004-0.842,2.899-1.258,2.897-0.775c-0.02,5.105-0.294,10.217-0.623,15.328
	c0.357,0.01,0.616,0.1,0.623,0.293c0.037,1.092-0.302,2.232-0.863,3.371c-0.592,8.785-1.206,17.57-0.844,26.344
	c0.574,13.869,4.703,26.334,11.902,38.045c7.173,6.252,18.168,5.043,26.73,2.896c5.089-1.273,10.11-2.943,14.938-5.043
	c-0.367-0.053-0.646-0.221-0.687-0.545c-1.041-8.463-2.647-16.813-2.565-25.367c0.081-8.332,0.709-16.633,1.414-24.932
	c1.476-17.369,3.391-34.703,4.75-52.082c0.04-0.51,0.694-0.893,1.374-1.029c0.78-0.154,1.593,0.02,1.538,0.723
	c-1.359,17.379-3.294,34.709-4.75,52.08c-0.694,8.287-1.42,16.607-1.414,24.93c0.007,8.412,1.528,16.58,2.552,24.902
	c0.016,0.115-0.007,0.227-0.044,0.332c0.065-0.031,0.132-0.063,0.198-0.094l6.371-3.346c0.035-0.02,0.07-0.039,0.105-0.059
	c0.023-0.016,0.051-0.023,0.076-0.037l0.29-0.152c0,0,0.004,0.023,0.007,0.039c0.99-0.273,2.451,0.172,1.959,0.857
	c0.306,0.107,0.548,0.316,0.649,0.654c5.369,17.875-2.59,35.383-5.793,53.137c-0.529,3.625-0.827,6.607-0.729,8.104
	c0.029,0.432,0.056,0.973,0.078,1.596c23.7,0,47.399,0,71.1,0C550.763,468.139,548.455,469.424,547.605,469.424z M354.59,129.323
	c-0.001,0.049-0.014,0.096-0.026,0.141c0.168-0.025,0.337-0.053,0.5-0.076c8.872-1.35,20.769-3.068,29.682,0.211l0.074-0.137
	l0.063,0.193c0.521,0.195,1.033,0.4,1.53,0.631c0.235,0.109,0.392,0.238,0.493,0.379c0.053,0.002,0.1,0.01,0.146,0.016l21.749-3.182
	l0.951-0.141c0,0,0.003,0.01,0.004,0.012c0.016-0.002,0.027-0.004,0.042-0.006c-0.006-0.018-0.014-0.031-0.018-0.051
	c-0.002-0.012-0.009-0.02-0.011-0.031c-0.982-6.729-2.045-13.922-5.355-19.973c-3.854-7.043-10.084-11.191-17.565-13.66
	C367.442,90.618,354.904,112.545,354.59,129.323z M432.921,182.282c-5.71-1.676-11.722-2.654-17.338-3.404
	c-1.487,1.354-2.556,3.014-3.323,4.881c-0.007,0.016-0.021,0.031-0.027,0.047C419.031,184.44,430.253,190.061,432.921,182.282z
	 M477.213,196.758c-1.206-2.998-2.502-5.955-3.926-8.832c-0.1-0.199-0.121-0.391-0.096-0.57c-0.021-0.068-0.035-0.143-0.037-0.225
	c0-0.002,0-0.004,0-0.006c-3.742,1.563-7.872,2.551-12.003,3.217c-0.694,0.111-1.39,0.217-2.082,0.313
	c-1.188,0.162-2.366,0.309-3.531,0.432c0,0.723,0.015,1.438,0.019,2.156c0.04,0.131,0.041,0.26,0.004,0.383
	c0.012,1.752,0.024,3.502,0.06,5.244c6.683,0.822,14.276,0.951,20.438-1.988C476.46,196.686,476.865,196.67,477.213,196.758z
	 M456.833,189.981c5.502-0.588,11.428-1.586,16.326-3.926c-0.008-6.896,1.521-12.934,4.279-19.289
	c1.446-3.338,4.584-11.715,0.831-14.602c-0.113,2.977-0.879,5.955-1.286,8.875c-0.188,1.354-3.152,1.719-2.941,0.201
	c0.418-2.994,1.152-5.955,1.271-8.986c0.03-0.816,0.266-2.969-0.547-3.553c-0.402-0.289-1.779,0.857-2.688,1.674
	c0.748,4.02-1.057,8.424-2.313,12.133c-0.386,1.139-3.334,1.488-2.922,0.27c0.99-2.926,2.347-6.018,2.422-9.15
	c0.018-0.732,0.043-1.713-0.078-2.639c-0.193-0.211-0.271-0.486-0.151-0.797c-0.112-0.426-0.269-0.82-0.499-1.141
	c-0.299-0.416-0.088-0.385-0.592,0.588c-0.044,0.078-0.074,0.164-0.116,0.242c-0.318,4.051-2.772,9.871-3.562,11.367
	c-0.527,1-3.459,1.15-2.74-0.217c1.115-2.115,1.828-4.523,2.404-6.836c0.136-0.541,0.442-1.539,0.677-2.605
	c-0.181-0.174-0.236-0.432-0.08-0.783c0.103-0.23,0.212-0.469,0.328-0.709c0.105-1.035,0.03-1.969-0.474-2.436
	c-0.655-0.605-2.776,4.377-2.886,4.803c-0.418,1.627-0.694,3.277-1.069,4.916c-0.557,2.434-1.27,4.83-3.381,6.326
	c1.778,1.641,3.299,3.436,3.693,6.357c0.184,1.369-2.722,2.088-2.898,0.777c-0.632-4.695-3.793-5.381-6.582-8.504
	c-1.036-1.16-1.802-2.414-2.677-3.691c-1.133-1.656-1.741-2.375-2.932-1.006c4.215,5.078,1.848,12.414,5.975,17.637
	C455.295,179.924,457.791,183.879,456.833,189.981z M355.885,99.083c-5.624,9.119-7.38,20.711-6.893,31.287
	c0.001,0.012-0.003,0.021-0.003,0.033c0.939-0.184,1.858-0.346,2.741-0.492c-0.027-0.072-0.045-0.15-0.043-0.24
	c0.332-17.865,13.492-37.738,32.282-37.969c-2.805-3.209-7.218-3.816-11.779-2.898c-1.646,0.33-3.308,0.859-4.922,1.533
	C362.365,92.385,357.924,95.776,355.885,99.083z M340.514,132.678c1.837-0.684,3.762-1.229,5.661-1.674
	c-0.06-0.107-0.102-0.23-0.107-0.377c-0.429-9.271,0.705-21.529,6.01-30.275c0.14-0.23,0.284-0.455,0.429-0.68
	c-0.562,0.486-1.104,0.982-1.617,1.494c-8.21,8.207-10.253,19.479-10.32,31.346C340.567,132.569,340.545,132.625,340.514,132.678z
	 M335.882,137.848c-0.772,0.596-1.56,1.215-2.114,2.031c-0.496,0.732,0.08,0.922,0.866,0.938c0.309-0.139,0.623-0.234,0.864-0.238
	c12.912-0.172,25.722-3.742,38.152-6.93c2.673-0.686,5.354-1.246,8.043-1.746l1.17-0.32c-3.969-1.283-8.555-1.313-12.58-1.262
	c-6.139,0.078-12.326,0.588-18.353,1.797C346.582,133.188,340.311,134.438,335.882,137.848z M375.518,177.534
	c2.188,0.268,3.789,1.32,4.993,2.779c9.584,0.033,15.24-6.148,20.362-13.686c-1.8-3.053-3.332-6.223-4.319-9.504
	c-0.122-0.406,0.218-0.771,0.703-1.014c0.004-0.531,0.622-1.234,1.497-1.352c0.742-0.1,1.362-0.33,1.873-0.66
	c0.965-1.178,1.771-2.541,1.887-3.885c0.088-3.406-2.234-7.527-5.587-7.982c-1.273,0.111-2.356,0.346-2.686,0.422
	c-0.556,0.244-1.126,0.58-1.707,1.045c-0.31,0.248-0.732,0.352-1.138,0.348l-1.472,0.734l-0.144-0.43
	c-0.338,0.037-0.623,0.006-0.754-0.139c-2.775-3.059-3.575-7.816-4.354-11.822c-0.537,0.104-1.073,0.213-1.608,0.326l-0.351,0.648
	c0,0,0.603,0.902-3.905,3.605c-4.507,2.703-14.722,1.201-14.722,1.201l-0.509-0.68c-5.754,1.396-11.577,2.701-17.445,3.559
	c0.037,0.096,0.063,0.203,0.057,0.328c-0.333,7.068,1.111,14.449,3.269,21.162c1.893,5.891,4.64,14.834,11.989,15.609
	C366.176,178.651,370.798,176.959,375.518,177.534z M369.482,184.538c-4.435,1.377-8.26,3.553-10.911,6.971
	c3.47,4.211,10.241-1.805,15.219-3.787c-0.451-1.285-1.034-2.574-1.371-3.896c-0.008-0.029-0.018-0.063-0.025-0.094
	c-0.087,0.029-0.154,0.064-0.256,0.086C371.231,184.028,370.346,184.27,369.482,184.538z M381.602,227.362
	c-0.466,1.699-1.289,3.232-2.763,4.275c-0.138,0.098-0.282,0.172-0.422,0.262c0.743,2.504,1.589,4.961,2.608,7.367
	c0.354,0.838-2.491,1.736-2.898,0.777c-0.944-2.232-1.74-4.508-2.443-6.82c-1.677,0.58-3.445,0.855-5.249,1.014
	c0.105,0.08,0.194,0.176,0.251,0.301c0.638,1.395,1.262,2.797,1.881,4.201c0.521-0.025,0.914,0.055,0.828,0.264
	c-0.111,0.273-0.236,0.545-0.355,0.816c1.145,2.625,2.254,5.27,3.329,7.93c0.137-0.182,0.483-0.377,1.091-0.516
	C388.354,244.756,385.006,235.04,381.602,227.362z M371.947,232.799c1.37-0.18,2.475-0.533,3.387-1.023
	c0.109-0.367,0.65-0.686,1.243-0.846c2.084-1.83,2.615-4.762,2.728-8.186c-4.445,0.703-8.977,1.268-13.273,2.633
	c-0.457,0.354-1.218,0.541-1.802,0.418c-0.041,0.014-0.068,0.031-0.112,0.045c-1.406,0.426-2.802,2.596-2.994,3.959
	c-0.37,2.619,0.888,3.418,3.309,3.391C366.897,233.161,369.496,233.12,371.947,232.799z M318.039,215.364
	c3.371-3.75,8.707-6.926,14.023-7.734c0.17-0.025,0.339-0.037,0.508-0.059c0.001-0.025,0.002-0.053,0.003-0.078
	c0.124-3.492,0.194-6.668-2.559-9.422c-1.511-1.512-3.423-2.945-4.211-5.01c-0.447-1.174-0.729-2.275-0.993-3.498
	c-0.099-0.52-0.224-1.031-0.373-1.539c-0.714,0.463-1.427,0.928-2.14,1.391c-0.241,2.258,0.052,4.375,0.843,6.488
	c0.155,0.416-0.036,0.779-0.385,1.041c0.065,0.129,0.107,0.275,0.107,0.453c0,1.617,0.025,3.215,0.276,4.816
	c0.227,1.441-2.678,2.182-2.897,0.775c-0.28-1.791-0.321-3.588-0.322-5.396c0-0.314,0.158-0.574,0.396-0.773
	c-0.026-0.045-0.056-0.088-0.074-0.139c-0.067-0.18-0.131-0.361-0.192-0.545c-0.382,0.035-0.724-0.014-0.91-0.195
	c-1.649-1.613-2.54-4.014-3.544-6.045c-0.99-2.006-2.251-5.428-4.457-6.432c-1.94-0.883,0.451,4.889,0.778,5.5
	c0.982,1.836,2.107,3.582,3.313,5.275c0.628,0.885-2.179,1.834-2.701,1.1c-1.004-1.412-3.487-4.748-4.598-7.762
	c-0.187-0.053-0.354-0.137-0.485-0.264c-1.695-1.662-1.868,1.557-1.636,2.553c0.209,0.896,0.506,1.768,0.901,2.604
	c0.838,1.768,1.86,3.461,3.087,4.988c0.924,1.15-1.835,2.293-2.654,1.271c-1.295-1.611-2.971-3.941-3.823-6.316
	c-0.184,0.004-0.364-0.006-0.54-0.043c-0.501-0.104-0.963,0.012-0.924-0.162c-0.053,0.076-0.118,0.143-0.149,0.23
	c-0.124,0.381-0.173,0.758-0.122,1.156c0.132,1.041,0.486,2.041,0.956,2.979c0.969,1.928,2.232,3.918,3.988,5.223
	c0.492,0.365-2.049,1.512-2.726,1.012c-1.095-0.813-2.231-2.061-3.163-3.453c0,0-0.001,0-0.002,0
	c-0.492-0.045,1.127,3.518,1.429,3.992c1.013,1.609,2.145,3.18,3.428,4.586C308.837,211.594,314.528,211.833,318.039,215.364z
	 M352.289,348.315c3.564-5.223,7.155-10.42,10.827-15.557c-0.928,0-1.855,0-2.783,0c-0.612,1.215-1.577,2.689-1.75,3.037
	C356.501,339.977,354.393,344.145,352.289,348.315z M173.796,343.561c-2.403-5.209-4.791-10.426-7.172-15.639
	c-1.286-2.814-2.559-5.637-3.837-8.455c-5.662,13.047-11.709,25.914-18.182,38.58c-0.514,1.004-3.441,1.164-2.738-0.211
	c0.1-0.195,0.193-0.393,0.293-0.588c-0.178-0.021-0.313-0.084-0.373-0.197c-3.03-5.912-6.073-11.82-8.997-17.785
	c-0.308-0.629-1.195-1.922-1.69-3.041c-7.082,0-14.163,0-21.245,0c-0.606,1.238-1.639,2.814-1.817,3.176
	c-3.251,6.529-6.539,13.041-9.828,19.551c-0.356,0.707-3.021,0.873-2.852,0.539c0.107-0.215,0.217-0.43,0.323-0.643
	c-0.163-0.027-0.291-0.088-0.348-0.197c-6.14-12.025-11.896-24.25-17.172-36.68c-1.773-4.184-4.822-9.254-5.783-13.895
	c-7.182,0-14.364,0-21.547,0c3.827,10.928,9.308,21.582,13.954,32.131C72.662,358.09,80.587,376,89.473,393.411
	c4.925,0,9.85,0,14.773,0c4.13-8.063,8.26-16.133,12.179-24.301c0.563-1.172,2.031-3.738,2.586-5.213
	c-0.083-0.189-0.075-0.426,0.066-0.717c0.119-0.244,0.248-0.443,0.395-0.621c0.01-0.031,0.012-0.068,0.023-0.098
	c0.345-0.832,2.188-1.438,2.716-0.457c0.07,0.131,0.132,0.266,0.196,0.396c0.025,0.055,0.038,0.107,0.055,0.16
	c0.231-0.199,0.335,0.664,0.713,1.432c0.862,1.748,1.733,3.492,2.608,5.234c3.947,7.855,7.949,15.686,11.961,23.51
	c4.327-0.088,8.626-0.527,12.957-0.588c7.724-16.172,15.548-32.295,23.076-48.561C173.782,343.581,173.791,343.571,173.796,343.561z
	 M316.222,325.995c2.779-5.93,5.541-11.865,8.293-17.809c-0.007-0.018-0.014-0.035-0.021-0.051
	c-0.098-0.246,0.072-0.494,0.366-0.699c1.788-3.863,3.576-7.727,5.351-11.596c1.563-3.406,3.617-6.941,4.989-10.529
	c-9.884,0-19.769,0-29.651,0c-0.52,1.117-1.158,2.227-1.52,3.07c-2.164,5.072-4.396,10.119-6.68,15.141
	c-7.236,15.898-14.906,31.596-23.105,47.023c-0.376,0.707-3.024,0.859-2.852,0.533c0.225-0.424,0.439-0.852,0.664-1.273
	c-0.33,0.021-0.595-0.029-0.688-0.205c-4.021-7.545-8.063-15.082-11.934-22.703c-0.23-0.453-1.362-2.152-2.006-3.531
	c-9.5,0-18.999,0-28.499,0c-0.688,1.523-1.728,3.045-2.439,4.424c-4.213,8.137-8.472,16.246-12.732,24.357
	c-0.371,0.705-3.02,0.859-2.852,0.539c0.153-0.291,0.306-0.582,0.458-0.873c-0.229-0.012-0.408-0.072-0.481-0.211
	c-8.116-15.275-15.715-30.834-22.683-46.668c-1.973-4.484-3.919-8.982-5.753-13.525c-0.168-0.416-1.072-2.07-1.498-3.293
	c-9.717,0-19.433,0-29.149,0c1.212,3.566,3.386,7.182,4.852,10.479c2.346,5.277,4.709,10.547,7.085,15.811
	c0.628,0.049,1.097,0.361,0.813,1.025c-0.056,0.131-0.114,0.26-0.171,0.391c1.877,4.152,3.758,8.301,5.653,12.443
	c10.348,22.605,20.756,45.258,32.425,67.221c6.636,0,13.271,0,19.908,0c5.347-10.035,10.687-20.078,15.771-30.248
	c0.795-1.59,2.909-5.025,3.623-7.016c-0.129-0.197-0.147-0.459,0.021-0.795c0.134-0.266,0.289-0.516,0.469-0.734
	c0.19-1.031,2.219-1.563,2.792-0.625c0.097,0.16,0.173,0.336,0.257,0.502c0.073,0.145,0.103,0.287,0.108,0.424
	c0.833,2.107,2.911,5.486,4.032,7.635c5.239,10.041,10.556,20.043,15.884,30.037c5.928-0.1,11.813-0.734,17.745-0.777
	C294.819,371.616,305.538,348.786,316.222,325.995z M344.475,389.741c-2.442-5.932-4.146-12.279-3.545-18.6
	c0.558-5.852,3.047-10.539,6.068-15.121c-0.634,0.066-1.174,0.021-1.095-0.135c0.095-0.188,0.188-0.373,0.282-0.561
	c-0.135-0.063-0.241-0.154-0.307-0.279c-7.326-14.34-14.096-28.939-20.147-43.859c-2.382,5.133-4.773,10.26-7.179,15.379
	c-1.24,2.646-2.482,5.289-3.728,7.934c0.198,0.096,0.358,0.236,0.449,0.443c8.033,18.363,15.627,36.92,24.714,54.799
	C341.485,389.741,342.98,389.741,344.475,389.741z M224.274,449.073c4.856-6.293-4.053-9.775-8.758-11.684
	c-1.683,2.26-3.517,4.406-5.338,6.553c-0.884,1.041-1.776,2.076-2.64,3.137c-0.286,0.352-0.579,0.701-0.845,1.068
	c-0.02,0.025-0.024,0.035-0.039,0.055c-0.003,0.021-0.009,0.041-0.016,0.061c0.43-0.205,0.936-0.268,1.352-0.047
	C211.719,450.174,221.021,453.286,224.274,449.073z M181.412,458.704c-0.118-4.404-0.47-9.248,0.585-13.408
	c-4.678,0.287-13.325,2.4-13.869,7.693C167.328,460.76,176.387,459.313,181.412,458.704z M386.558,386.268
	c0.169,0.027,0.298,0.09,0.355,0.203c0.455,0.889,0.911,1.773,1.366,2.662c4.384-0.088,8.735-0.541,13.124-0.594
	c4.915-9.686,9.646-19.459,14.241-29.301c0.076-0.164,0.244-0.307,0.463-0.428c0.131-2.762,0.287-5.523,0.459-8.285
	c-1.444,1.664-2.983,3.16-4.038,4.285c-5.756,6.133-12.777,10.986-18.468,17.102C390.383,375.866,386.98,380.799,386.558,386.268z
	 M391.782,398.108c0.151-0.037,0.303-0.074,0.443-0.109c-0.011-0.021-0.021-0.041-0.031-0.063
	C392.058,397.997,391.919,398.049,391.782,398.108z M406.609,485.643c-0.897,0.465-1.887,0.871-2.938,1.227
	C404.786,486.536,405.77,486.131,406.609,485.643z M447.364,466.596c-2.179-7.354-5.193-14.344-9.706-20.818
	c-7.147-10.254-8.775-21.811-11.662-33.688c-0.137-0.564,0.691-1.045,1.5-1.195c-7.232-11.912-11.422-24.781-11.656-38.883
	c-0.042-2.541-0.003-5.082,0.064-7.621c-4.112,8.688-8.327,17.322-12.701,25.883c-0.43,0.84-3.237,1.111-2.883,0.418
	c0.022-0.047,0.046-0.092,0.068-0.139c-4.469,0.1-8.906,0.574-13.382,0.6c0.605,2.303,1.657,4.314,2.636,6.508
	c0.788-0.313,1.567-0.646,2.331-1.016c0.074-0.035,0.169-0.064,0.271-0.092c0.756-0.402,2.11-0.756,2.399-0.262
	c3.229,5.518,3.938,12.639,4.72,18.857c1.026,8.182,1.615,16.402,2.491,24.602c0.807,7.541,2.078,14.51,5.259,21.473
	c0.812,1.777,1.751,3.65,2.634,5.58c0.259-0.125,0.533-0.205,0.792-0.205C422.815,466.596,435.089,466.596,447.364,466.596z
	 M190.352,425.131c-0.601-1.311-0.601-2.789-0.601-4.205c-0.001-0.756-2.898-0.25-2.898,0.777c0.001,1.414,0.001,2.895,0.602,4.205
	C187.869,426.815,190.694,425.879,190.352,425.131z M199.118,425.604c0.643-0.021,1.479-0.234,1.928-0.734
	c0.803-0.898,0.722-2.217,0.724-3.344c0-0.664-2.897-0.188-2.898,0.777c0,0.826,0.115,1.996-0.48,2.664
	C197.936,425.475,198.78,425.618,199.118,425.604z M208.747,429.286c1.287-0.678,2.327-1.73,3.604-2.402
	c0.443-0.232,1.177-0.807,0.717-1.375c-0.428-0.527-1.419-0.428-1.95-0.148c-1.287,0.678-2.327,1.73-3.605,2.402
	c-0.442,0.234-1.176,0.807-0.716,1.375C207.224,429.665,208.216,429.565,208.747,429.286z M164.938,433.502
	c0.938,0.605,3.559-0.709,2.268-1.543c-1.762-1.139-3.701-1.857-5.682-2.52c-1.082-0.361-3.414,1.207-1.722,1.771
	C161.604,431.813,163.333,432.467,164.938,433.502z M175.438,426.51c0.461,0.861,3.238-0.139,2.897-0.777
	c-0.714-1.334-1.978-1.994-3.283-2.648c-0.566-0.283-1.533,0.047-2.039,0.318c-0.381,0.207-0.884,0.658-0.303,0.949
	C173.752,424.872,174.865,425.44,175.438,426.51z M174.235,476.983c-0.021,0.857-0.384,1.965-1.195,2.398
	c-0.237,0.127-1.001,0.625-0.345,0.793c0.624,0.158,1.477-0.066,2.027-0.361c1.438-0.768,2.372-1.938,2.41-3.607
	C177.145,475.706,174.255,476.108,174.235,476.983z M192.767,475.854c-0.001-1.412-2.922-0.889-2.922,0.275
	c0.001,2.285-0.061,4.652,0.613,6.859c0.371,1.215,3.264,0.42,2.898-0.775C192.729,480.155,192.767,477.985,192.767,475.854z
	 M204.675,476.049c-0.682-0.65-3.396,0.43-2.703,1.092c0.729,0.693,1.677,1.105,2.403,1.801c0.682,0.65,3.396-0.432,2.703-1.092
	C206.35,477.155,205.403,476.743,204.675,476.049z M218.001,472.696c-1.697-0.578-3.318-1.221-5.136-1.26
	c-0.682-0.016-1.538,0.199-1.898,0.844c-0.335,0.602,0.284,1.045,0.84,1.059c1.588,0.035,2.995,0.641,4.479,1.143
	c0.662,0.227,1.574-0.055,2.049-0.549C218.798,473.448,218.606,472.901,218.001,472.696z M376.435,168.454
	c-0.545-0.984-0.854-2.457-0.284-3.492c1.215-2.207,4.419-2.465,6.64-2.352c0.358,0.02,0.498,0.184,0.464,0.379
	c0.046,0.035,0.084,0.08,0.111,0.131c1.172,2.178,0.947,4.668-1.356,5.938C380.348,169.971,377.532,170.432,376.435,168.454z
	 M379.268,167.555c0.227,0.432,0.604,0.789,1.075,0.926c0.08-0.066,0.157-0.143,0.224-0.221c1.071-1.287,0.621-3.025-0.101-4.363
	c-0.001-0.002,0-0.004-0.001-0.006c-0.896-0.01-1.507,0.162-1.674,1.301C378.677,165.975,378.904,166.86,379.268,167.555z
	 M396.182,150.903c-0.164-0.713-0.158-1.424-0.033-2.143c0.063-0.375,0.178-0.748,0.369-1.076c0.001-0.002,0.001-0.002,0.002-0.002
	c0.621,0.039,1.325-0.176,1.775-0.568c0.462-0.404,0.322-0.883-0.27-1.006c-1.581-0.332-3.438,0.223-4.285,1.668
	c-0.659,1.127-0.743,2.652-0.457,3.904C393.511,152.67,396.415,151.926,396.182,150.903z" fill="#4c6ef5"></path>
</svg>