<?xml version="1.0" standalone="no"?>
<svg version="1.1" id="Layer_1" xmlns="http://www.w3.org/2000/svg" xmlns:xlink="http://www.w3.org/1999/xlink" x="0px" y="0px" viewBox="0 0 2000 2000" enable-background="new 0 0 2000 2000" xml:space="preserve">
<path id="color_x5F_10" fill="#E0F0E2" d="M924.6,1483.5c0.6,0.1,1.1,0.1,1.7,0.2C925.8,1483.6,925.2,1483.6,924.6,1483.5z
	 M929.1,1483.9c-0.7,0-1.4-0.1-2.2-0.2C927.6,1483.8,928.3,1483.9,929.1,1483.9z M921.8,1483.1c-0.6-0.1-1.1-0.2-1.7-0.3
	C920.7,1482.9,921.3,1483,921.8,1483.1z M924.1,1556c-1.3-0.1-2.6-0.3-3.9-0.6C921.5,1555.6,922.8,1555.8,924.1,1556z M922.2,1483.1
	c0.7,0.1,1.4,0.2,2.1,0.3C923.5,1483.4,922.8,1483.3,922.2,1483.1z M941.7,1555.5c-5,0.7-11.1,1.1-17.6,0.4
	C930.6,1556.7,936.7,1556.3,941.7,1555.5z M941.6,1567.7c0.1,0,0.1,0,0.2-0.1C941.7,1567.7,941.6,1567.7,941.6,1567.7z
	 M939.6,1483.8c0.7-0.1,1.3-0.1,2-0.2C940.9,1483.6,940.2,1483.7,939.6,1483.8z M931.3,1484c-0.8,0-1.5-0.1-2.2-0.1
	C929.8,1483.9,930.5,1484,931.3,1484z M936.5,1484c-0.8,0-1.6,0.1-2.3,0.1C935,1484,935.7,1484,936.5,1484z M933.7,1484
	c-0.6,0-1.2,0-1.8,0C932.5,1484,933.1,1484,933.7,1484z M938.9,1483.8c-0.7,0.1-1.4,0.1-2,0.1
	C937.5,1483.9,938.2,1483.9,938.9,1483.8z M968.9,1767.7c0.3,0.1,0.5,0.2,0.7,0.2C969.4,1767.9,969.1,1767.8,968.9,1767.7z
	 M971.1,1768.3c-0.2,0-0.3-0.1-0.5-0.1C970.8,1768.2,970.9,1768.2,971.1,1768.3z M973.2,1768.3c0.2,0,0.3-0.1,0.5-0.1
	C973.5,1768.2,973.4,1768.3,973.2,1768.3z M969.7,1768c0.2,0.1,0.4,0.1,0.6,0.2C970.2,1768.1,969.9,1768,969.7,1768z M973.1,1768.3
	c-0.1,0-0.2,0-0.4,0C972.8,1768.4,972.9,1768.3,973.1,1768.3z M965.3,1766.4c0.3,0.1,0.5,0.2,0.8,0.3
	C965.9,1766.6,965.6,1766.5,965.3,1766.4z M978.7,1415.8c-0.2-1.4-0.5-2.9-0.7-4.4c-0.1-0.4-0.1-0.8-0.2-1.3
	c0.1,0.4,0.1,0.9,0.2,1.3C978.2,1412.9,978.5,1414.3,978.7,1415.8z M976.8,1403.1c0.1,0.6,0.2,1.2,0.3,1.8
	C976.9,1404.3,976.9,1403.7,976.8,1403.1c-0.2-1.6-0.5-3.1-0.7-4.6C976.3,1400,976.5,1401.6,976.8,1403.1z M977.8,1410.1
	c-0.2-1.3-0.4-2.6-0.6-3.9c-0.1-0.4-0.1-0.9-0.2-1.3c0.1,0.4,0.1,0.9,0.2,1.3C977.4,1407.5,977.6,1408.8,977.8,1410.1z
	 M966.2,1766.7c0.5,0.2,1.1,0.4,1.6,0.6C967.3,1767.2,966.8,1767,966.2,1766.7z M968.7,1767.7c-0.2-0.1-0.4-0.1-0.6-0.2
	C968.3,1767.5,968.5,1767.6,968.7,1767.7z M971.9,1768.4c-0.2,0-0.4,0-0.6-0.1C971.5,1768.3,971.7,1768.4,971.9,1768.4z
	 M946.5,1315.6c0,0.1,0,0.2,0.1,0.3c0.2,0.7,0.3,1.3,0.4,1.9c0,0.1,0,0.3,0.1,0.4c0.1,0.5,0.2,1,0.2,1.5c0,0.2,0,0.4,0.1,0.6
	c0,0.4,0.1,0.9,0.1,1.2c0,0.1,0,0.3,0,0.4c0,0.5,0,1-0.1,1.4c0,0.1,0,0.2,0,0.4c0,0.3-0.1,0.6-0.2,0.9c0,0.1,0,0.2-0.1,0.3
	c-0.1,0.4-0.2,0.7-0.3,1c0,0,0,0.1-0.1,0.1c-0.1,0.3-0.3,0.5-0.4,0.8c0,0.1-0.1,0.1-0.1,0.2c-0.2,0.2-0.3,0.4-0.5,0.6
	c0,0,0,0-0.1,0.1c-0.2,0.2-0.4,0.4-0.7,0.5c-0.1,0-0.1,0.1-0.2,0.1c-0.1,0.1-0.2,0.1-0.3,0.2l0,0c-5.4,2.7-16.7-4.4-20.2-7.5
	C929.5,1325.9,952.2,1339.4,946.5,1315.6z M923.1,1319.9c0,0,0,0.1,0.1,0.1C923.1,1320,923.1,1319.9,923.1,1319.9z M923.5,1320.5
	c-0.1-0.1-0.1-0.1-0.2-0.2C923.3,1320.4,923.4,1320.4,923.5,1320.5z M924.1,1321.1c-0.1-0.1-0.2-0.2-0.3-0.3
	C923.9,1320.9,924,1321,924.1,1321.1z M923.2,1320.2l-0.1-0.1C923.2,1320.1,923.2,1320.2,923.2,1320.2z M923.5,1320.5
	c0.1,0.1,0.2,0.2,0.3,0.3C923.7,1320.7,923.6,1320.6,923.5,1320.5z M960.4,1358.5c1.5,0,2.9,0,4.3,0.1
	C963.3,1358.5,961.8,1358.5,960.4,1358.5z M922.7,1319.3c0.1,0.1,0.1,0.1,0.2,0.2C922.8,1319.4,922.8,1319.3,922.7,1319.3z
	 M960.3,1309c0.3-0.1,0.7-0.3,1-0.5C960.9,1308.7,960.6,1308.8,960.3,1309z M924.6,1284.5L924.6,1284.5L924.6,1284.5z M945,1310.5
	c-0.1-0.4-0.2-0.7-0.4-1.1c0,0,0.6-0.2,1.7-0.5c-2.3-0.8-4.5-1.8-6.6-3.1c0.6,2.3,1.1,4.6,1.5,6.7
	C942.3,1311.9,943.6,1311.2,945,1310.5z M947.7,1482.5c0.8-0.2,1.7-0.4,2.5-0.6C949.4,1482.2,948.5,1482.4,947.7,1482.5z
	 M948.2,1554.3c-1.4,0.3-3.1,0.7-5,1C945,1555,946.7,1554.6,948.2,1554.3z M945.9,1565.9c0,0,0.1,0,0.1-0.1
	C946,1565.8,946,1565.8,945.9,1565.9z M948,1564.8c0.2-0.1,0.3-0.2,0.5-0.2C948.3,1564.7,948.2,1564.7,948,1564.8z M937.3,1569h0.1
	C937.4,1569,937.4,1569,937.3,1569z M935.3,1569.5L935.3,1569.5L935.3,1569.5z M922.9,1319.6c0.1,0.1,0.1,0.2,0.1,0.3
	C923,1319.8,923,1319.7,922.9,1319.6z M947,1482.7c-0.7,0.1-1.3,0.2-1.9,0.4C945.7,1482.9,946.3,1482.8,947,1482.7z M944.1,1566.7
	c-0.1,0.1-0.3,0.1-0.4,0.2C943.8,1566.8,944,1566.8,944.1,1566.7z M922.7,1319.2c-0.1-0.1-0.2-0.1-0.3-0.2
	C922.5,1319.1,922.6,1319.1,922.7,1319.2z M942,1483.5c0.8-0.1,1.6-0.2,2.4-0.3C943.6,1483.3,942.8,1483.4,942,1483.5z
	 M939.4,1568.4c0.1,0,0.2-0.1,0.3-0.1C939.6,1568.4,939.5,1568.4,939.4,1568.4z M699.7,1100.2c0,0.1,0,0.1,0,0.2
	C699.7,1100.4,699.7,1100.3,699.7,1100.2z M699.8,1095.5c0,0.1,0,0.2,0,0.3C699.8,1095.7,699.8,1095.6,699.8,1095.5z M699.8,1098.2
	c0-0.1,0-0.2,0-0.3C699.8,1098,699.8,1098.1,699.8,1098.2z M699.8,1093.4c0-0.1,0-0.1,0-0.2C699.8,1093.3,699.8,1093.4,699.8,1093.4
	z M699.9,1087.9c0,0.2,0,0.3,0,0.5C699.9,1088.2,699.9,1088,699.9,1087.9z M699.8,1091c0-0.2,0-0.3,0-0.5
	C699.8,1090.7,699.8,1090.9,699.8,1091z M699.7,1104.6c0-0.1,0-0.1,0-0.2C699.7,1104.4,699.7,1104.5,699.7,1104.6z M699.6,1106.3
	c0,0.1,0,0.1,0,0.2C699.6,1106.5,699.6,1106.4,699.6,1106.3z M699.6,1108.2L699.6,1108.2L699.6,1108.2z M699.7,1102.4L699.7,1102.4
	L699.7,1102.4z M699.9,1085.4v0.1V1085.4z M962.3,1307.9c-0.2,0.1-0.5,0.3-0.7,0.4C961.8,1308.2,962,1308,962.3,1307.9z
	 M668.1,1318.8L668.1,1318.8L668.1,1318.8z M699.3,1119.9C699.3,1119.9,699.3,1119.8,699.3,1119.9
	C699.3,1119.8,699.3,1119.9,699.3,1119.9z M699.9,1083c0-0.1,0-0.3,0-0.4C699.9,1082.7,699.9,1082.9,699.9,1083z M668.2,1319.6
	L668.2,1319.6L668.2,1319.6z M668,1317.4L668,1317.4L668,1317.4z M668.2,1319.8L668.2,1319.8L668.2,1319.8z M668.2,1319.3
	L668.2,1319.3L668.2,1319.3z M699.9,1077.2c0-0.1,0-0.3,0-0.4C699.9,1076.9,699.9,1077,699.9,1077.2z M699.9,1080.2
	c0-0.2,0-0.4,0-0.6C699.9,1079.8,699.9,1080,699.9,1080.2z M699.9,1073.9c0,0.2,0,0.3,0,0.5C699.9,1074.3,699.9,1074.1,699.9,1073.9
	z M699.6,1109.9L699.6,1109.9c0,0.4,0,0.9,0,1.4l1.3-0.5C700.2,1111.1,699.6,1110.6,699.6,1109.9z M699.9,1071.4c0-0.2,0-0.4,0-0.6
	C699.9,1071,699.9,1071.2,699.9,1071.4z M853,1680c-0.4-0.2-0.9-0.4-1.3-0.6C852.2,1679.6,852.6,1679.8,853,1680z M850.7,1683
	c0-1,0-1.9,0-2.7C850.7,1681.2,850.7,1682.1,850.7,1683z M850.7,1679.1c0,0.3,0,0.6,0,1C850.7,1679.7,850.7,1679.4,850.7,1679.1z
	 M849.5,1678.2c-0.3-0.2-0.6-0.4-0.9-0.6C848.9,1677.8,849.2,1678,849.5,1678.2z M847.2,1676.6c0.3,0.2,0.6,0.5,0.9,0.7
	C847.7,1677,847.4,1676.8,847.2,1676.6z M845.6,1675.3c0.2,0.2,0.4,0.4,0.6,0.6C846.1,1675.7,845.8,1675.5,845.6,1675.3z
	 M862.7,1682.2c-0.7,0-1.5-0.1-2.2-0.2C861.2,1682,861.9,1682.1,862.7,1682.2z M972,1768.4c0.2,0,0.4,0,0.5,0
	C972.3,1768.4,972.2,1768.4,972,1768.4z M850.1,1678.6c0.2,0.1,0.4,0.2,0.6,0.3l0,0c0.1,0.1,0.3,0.1,0.4,0.2
	C850.8,1679,850.5,1678.8,850.1,1678.6z M865.7,1682.2c-0.9,0-1.7,0-2.5-0.1C864,1682.2,864.8,1682.3,865.7,1682.2z M857.7,1681.5
	c-1.5-0.3-2.9-0.8-4.2-1.3C854.8,1680.7,856.2,1681.1,857.7,1681.5z M860.1,1681.9c-0.8-0.1-1.5-0.2-2.2-0.4
	C858.6,1681.7,859.3,1681.8,860.1,1681.9z M844.1,1673.7c-0.1-0.1-0.3-0.3-0.4-0.4C843.8,1673.4,843.9,1673.6,844.1,1673.7z
	 M859.9,1718c-0.3-0.4-0.6-0.8-0.9-1.2C859.3,1717.2,859.6,1717.6,859.9,1718z M885,1406.1h0.1
	C885.1,1406.1,885.1,1406.1,885,1406.1z M886.3,1406C886.3,1406,886.3,1406.1,886.3,1406C886.3,1406.1,886.3,1406.1,886.3,1406z
	 M841,1669.4c0.1,0.2,0.2,0.4,0.4,0.6C841.2,1669.8,841.1,1669.6,841,1669.4z M883.8,1406.1L883.8,1406.1L883.8,1406.1z
	 M842.2,1671.4c0.1,0.1,0.2,0.3,0.3,0.4C842.4,1671.7,842.3,1671.5,842.2,1671.4z M841.6,1670.5c0.1,0.1,0.2,0.2,0.2,0.4
	C841.8,1670.8,841.7,1670.7,841.6,1670.5z M845.1,1674.8c-0.2-0.2-0.3-0.3-0.5-0.5C844.7,1674.5,844.9,1674.6,845.1,1674.8z
	 M960.4,1745.9L960.4,1745.9l-1.3-1.3c-4,1.6-8.4,6.2-10.2,8.2l3.8,4.1c0.3-0.5,0.6-1.1,0.9-1.8c2.3-5.6,6.1-6.7,8.9-6.6
	c0-0.1-0.1-0.1-0.1-0.2c-0.2-0.2-0.3-0.4-0.5-0.5C961.4,1747.1,960.9,1746.5,960.4,1745.9L960.4,1745.9L960.4,1745.9z M842.9,1672.3
	c0.1,0.1,0.2,0.3,0.3,0.4C843.1,1672.6,843,1672.5,842.9,1672.3z M610.9,1122c0.2-0.2,0.4-0.5,0.5-0.7l-0.5,0.3
	C610.9,1121.7,610.9,1121.8,610.9,1122z M958.4,1546.5c0.4-0.1,0.7-0.1,1.1-0.2C959.2,1546.3,958.8,1546.4,958.4,1546.5z
	 M926.6,1736.8L926.6,1736.8L926.6,1736.8z M915.9,1481.9c0.6,0.1,1.2,0.3,1.8,0.4C917.1,1482.2,916.5,1482,915.9,1481.9z
	 M950.4,1547.7c0.1,0,0.2,0,0.3,0C950.7,1547.7,950.5,1547.7,950.4,1547.7z M928.2,1736.3L928.2,1736.3L928.2,1736.3z M950.1,1547.7
	c0.1,0,0.1,0,0.2,0C950.2,1547.7,950.2,1547.7,950.1,1547.7z M953.4,1547.3c0.3,0,0.5-0.1,0.8-0.1
	C953.9,1547.2,953.6,1547.2,953.4,1547.3z M956.7,1546.8c-0.3,0-0.6,0.1-0.9,0.1C956.1,1546.9,956.4,1546.8,956.7,1546.8z
	 M954.5,1547.1c0.3,0,0.6-0.1,0.9-0.1C955.1,1547,954.8,1547.1,954.5,1547.1z M952.2,1547.5c-0.2,0-0.4,0.1-0.6,0.1
	C951.8,1547.5,952,1547.5,952.2,1547.5z M953.1,1547.3c-0.2,0-0.5,0.1-0.7,0.1C952.6,1547.4,952.8,1547.4,953.1,1547.3z M963.5,1307
	c-0.3,0.2-0.5,0.4-0.8,0.6C962.9,1307.4,963.2,1307.2,963.5,1307z M911.8,1480.8c-0.5-0.1-0.9-0.3-1.4-0.4
	C910.9,1480.5,911.3,1480.6,911.8,1480.8z M909.9,1480.2c-0.4-0.1-0.7-0.2-1.1-0.4C909.2,1479.9,909.6,1480,909.9,1480.2z
	 M912,1480.8c0.5,0.2,1.1,0.3,1.6,0.5C913.1,1481.1,912.6,1481,912,1480.8z M914.1,1481.4c0.4,0.1,0.9,0.2,1.4,0.4
	C915,1481.7,914.6,1481.5,914.1,1481.4z M907.1,1479.1c0.4,0.2,0.9,0.3,1.3,0.5C908,1479.5,907.5,1479.3,907.1,1479.1z
	 M908.2,1551.8c1.3,0.6,2.6,1.1,4,1.6C910.8,1552.9,909.5,1552.4,908.2,1551.8z M903.6,1477.7c-0.2-0.1-0.4-0.2-0.6-0.3
	C903.2,1477.6,903.4,1477.6,903.6,1477.7z M906.6,1478.9c-0.3-0.1-0.5-0.2-0.8-0.3C906,1478.7,906.3,1478.8,906.6,1478.9z M902,1477
	c0.1,0.1,0.2,0.1,0.4,0.2C902.3,1477.1,902.2,1477.1,902,1477z M905.2,1478.4c-0.2-0.1-0.5-0.2-0.7-0.3
	C904.7,1478.2,905,1478.3,905.2,1478.4z M950.4,1563.5L950.4,1563.5L950.4,1563.5l-0.3-9.7L950.4,1563.5z M979.4,1420
	c-0.1-0.7-0.2-1.4-0.3-2.1C979.2,1418.6,979.3,1419.3,979.4,1420c0.1,0.6,0.2,1.1,0.3,1.7s0.2,1.2,0.3,1.7c-0.1-0.6-0.2-1.1-0.3-1.7
	C979.6,1421.1,979.5,1420.6,979.4,1420z M1372.7,1105.2L1372.7,1105.2l66.2,38.2l0,0l140.6,81.2L1372.7,1105.2z M1280.3,1243.2v0.4
	l0,0V1243.2z M983.8,1523.8c-0.9,0.6-1.9,1.2-3,1.8C981.9,1525,982.9,1524.4,983.8,1523.8z M957.1,1546.7c0.3-0.1,0.6-0.1,0.9-0.2
	C957.7,1546.6,957.4,1546.6,957.1,1546.7z M1413.5,1320.5L1413.5,1320.5l25.7-14.8L1413.5,1320.5z M699.3,1119.7c0-0.1,0-0.1,0-0.2
	C699.3,1119.6,699.3,1119.7,699.3,1119.7z M1280.6,1052.1L1280.6,1052.1l90.5,52.3l-41.9-24.2L1280.6,1052.1z M699.3,1119.2v0.1
	C699.3,1119.3,699.3,1119.3,699.3,1119.2z M1891.5,1336.7l-909.3,525l-826.6-477.3l454.2-262.2c0,1.1,0,1.6,0,1.6l10.5,223.4
	c-0.8,0.8-1.4,1.3-1.4,1.3s-38,0.3-27.3,13s46.3,9,48.7,8c2-0.9,0.6-14.6,0.1-19.5c0.7-9.3,16-198.8,19.1-202.3
	c2.8-3.2,7.4,140.5,8.6,167.6c-6.1-0.1-17.4,0-16.2,3.5c1.7,4.7,13.7,25.3,23,27s15-0.7,15.3-2.3c0.2-1-0.9-11.2-1.9-19v0.1
	l11.1-204.9l-1.2,22.7c4.6-3.1,10.2-8.3,11-12.3c1.1-5.6-2.3-15.5-4.2-20.9l2.2-0.8c0.4-0.1,0.6-0.5,0.6-0.9
	c-0.2-3.5-1.2-20-2.4-40.6l359.5-207.6L1891.5,1336.7z M770.4,1265l75.2,0.5c5.2,0,7.1-6.9,2.6-9.5l-24.2-13.9c-3.4-2-3.4-6.9,0-8.8
	l184.2-106.3c1.6-0.9,2.6-2.6,2.6-4.4V966c0-3.9-4.3-6.4-7.7-4.4L770.4,1096c-1.6,0.9-2.6,2.6-2.6,4.4v165.4
	C768.6,1265.3,769.5,1265,770.4,1265z M1052.6,1481.3c-5.1-2.1-21.2-19.2-21.2-19.2c13.6,2.5,15.1-6,12.2-5.1
	c-2.9,0.8-20.6-3.7-20.6-3.7s-18.9-26.2-20.7-34.3c-1.5-6.6-21.7-32.4-29.2-42v-0.1l0,0c13.1-5.1,18.7-18.4,18.7-18.4
	s-15.5-13.6-15.4-31c0.2-23.9-8.5-23.5-10.3-23.1c-0.1,0.1-0.1,0.2-0.2,0.3c6.4-7.9,7.3-23.1,6.2-38c-0.6-2.7-1.5-5.2-2.4-7.2
	c1.6,3.4,3.2,8.5,3.1,13.3c-0.2,7.6,4.7-9.8,0.9-19.4c18.2-10.3,6.9-36.7,6.9-36.7s-6.4-22.6-27.3-11.2
	c-20.9,11.5-12.2,27.3-12.2,27.3c-12.9-6.8-19,7.4-19,7.4s-5.4-2.3-11,4.8s-0.8,14.7-0.8,14.7c-1.4,3.1-0.8,6.5,0.3,9.3
	c-2-0.3-4,0.7-4.2,4.9c-0.6,9.6,11.3,9.8,11.3,9.8s0.9,1.4,2.5,3.5c0.7,7.4,2.1,25.1,0.8,31.2l0,0c-1.8-0.4-4.2-0.1-4.2-0.1
	s-34.6,18.3-36.5,19.2c-1.9,1-8,18.2-8.8,21.3c-0.8,3.2-13.9,37-13.9,37c1.2,3.8,4.3,6.3,8.2,7.8l0,0c-3.8,9.8-6.9,17.2-8.4,18.8
	c-4.7,5.1,6.4,72.2,6.4,72.2s-1.1,35,6.6,41c0,0,1.4,0.4,0.9-3.8c0,0,4,10.2,4.6,2.4c0,0,5.9,7.3,5,0c0,0,6.5,8.3,8,3.5
	s-6.2-9.4-6.7-18.9c0,0,10.5,4.1,11-2.4c0,0-12-7.4-13-9.8s-3.9-1.5-4.8-12.5c-0.8-10.9,8.9-22.2,7.5-53.2c0,0-1.6-15.2-1.2-19.3
	c0.2-1.9,2.6-8.6,5.9-15.7l0,0c3.2-0.2,5.4-0.5,5.4-0.5c-0.2-3.1,6.9-20.8,6.9-20.8c4.6,17.6,3.2,31.6,2.8,43.1c0,0.7,0,1.4-0.1,2.1
	c0,0.7,0,1.3,0,2c0,0.9,0,1.7,0,2.6c0.4,12.7-6.1,39.6-6.1,39.6s1.8,1.2,5,2.7l0,0c-1.1,19.1-3.2,47.3-6.4,66.1
	c-1.3,7.5-2.7,13.5-4.4,16.8c0,0,11.1,8.4,26.9,10.5c1.4,6.8,2.3,11.2,2.3,11.2s0.1,0.9,0.2,2.3c-1.6,4.3-4.9,9.8-11.3,14.5
	c-12.7,9.3-24.1,17.3-31.7,35.9s-27.3,32.1-32.9,34.1c-0.8,0.3-1.9,0.7-3,1.2c-0.6-1-0.8-1.7-0.8-1.7c-9.9-1.3-17.6,15.1-17.4,20.6
	s5.3,10.5,11.8,19.2s4.8,32.4,23.8,37.3s21-0.1,24.9-10.2c2.3-5.9-2.9-10-7.3-15.8c-1.5-2-3-4.1-4-6.7l0,0c-3.6-1-9.7-2-15.2,0.9
	c0.7,1.3,1.4,2.6,2.3,3.8c-3.9-5.6-6-12.9-7.2-19.8c0.7,4.6,1.9,9.4,3.8,13.7c3.4-2.4,8.7-4.5,15.1-3v0.1c-0.2-1.4-0.3-2.8-0.2-4.4
	c0.2-2.9,0.2-5.5,0-7.7c-0.8,0-1.4,0-1.4,0s-9.4-4.5-17.6-0.6c0.1,0.6,0.2,1.3,0.3,1.9c-0.8-5-1.1-9.8-1.1-13.7
	c0,2.6,0.2,5.6,0.5,8.8c3.8-2.2,9.5-3.7,16.1-1.4c1,0.4,1.9,0.7,2.7,1c-1.2-7-3.7-9.3-3.7-9.3c-0.2,0-0.3,0-0.5,0l0,0
	c1.9-5.7,36.1-32.6,48-46.3c-1,12.2-0.8,25.3,0.4,28.8c2.1,6,12.8,47.5,11.5,55.4c0,0,2.3,12.2,1,15.7c-0.1,0.3-0.3,0.8-0.5,1.3l0,0
	c-3.4,1.9-9.6,8.2-4.1,29.1c0,0,1.3,2,11.5,5.6s24.5,20.8,29.8,20.2c5.3-0.6,21.8,1.3,26.7-9.1s-6.8-11.7-14.1-18.7
	c-0.2-0.2-0.4-0.3-0.5-0.5l0,0c-1.3-1.3-2.8-2.9-4.3-4.7l0,0c-2.6-0.4-7.2-0.3-10,5.4c1.2,0.6,2.6,1.4,4.1,2
	c-3.8-1.7-7.4-3.9-7.4-3.9l-0.6-0.6c2.5-2.6,6.7-6.5,10.3-7.3c-1.7-2.1-3.4-4.2-5.1-6.2l0,0c0-0.1-0.1-0.1-0.1-0.2
	c-0.2-0.2-0.3-0.4-0.5-0.5c-0.5-0.6-1-1.2-1.5-1.8l0,0c-2.6-3-4.9-5.4-6.6-6.6l1.5,1.5l-1.5-1.5l0,0l0,0l0,0
	c-0.2-0.1-0.3-0.2-0.5-0.3c-0.2-0.1-0.3-0.2-0.5-0.3c0,0,0.1,0,0.1,0.1c-0.3-0.2-0.7-0.3-0.9-0.3l0,0l0,0c-0.9,0-1.7,0.2-2.4,0.7
	c0-0.1,0-0.2,0-0.3c0.1-3.1-0.8-57.8-0.8-57.8l-1.4-67.1c0,0,0.1-5.8,0.2-13.4c2.9-2.3,6.9-6.8,12-15.2c4.9-8,8.9-24.2,12.1-41.8
	c8.3-2.2,16.2-5.3,18.2-9.4l-1.4-13.8l0,0l-5.6-53.5c5-4,6.9-7,6.7-7c-0.4,0-5.5-18-7.4-24.6c-0.2-0.7-0.5-2.1-0.8-3.8
	c0-0.2-0.1-0.4-0.1-0.6c-0.4-2-0.8-4.5-1.3-7.4c0.3,1.7,0.6,3.3,0.8,4.8c13.2,14.1,28.9,31.5,28.8,34c0,4.3,15.8,21.5,15.8,21.5
	s8.9,12.8,11.5,12.2c2.6-0.7-1.6-7.3-1.6-7.3s4.4,4.4,7.3,5.2c3,0.8-3.7-8.5-3.7-8.5s7.8,4.4,10.5,4.6c2.7,0.1-3.2-6.8-3.2-6.8
	C1053.7,1485.3,1057.7,1483.4,1052.6,1481.3z M1614.6,1274.5v-44.1l-191.1,110.3l191.1-110.3l-344-198.6l-191.1,110.3l344,198.6
	l-344-198.6v44.1l344,198.6L1614.6,1274.5z M986.2,1522.2c0.4-0.3,0.8-0.6,1.1-0.8C987,1521.6,986.6,1521.9,986.2,1522.2z
	 M981.8,1467.8L981.8,1467.8L981.8,1467.8z M962.9,1545.6c-0.4,0.1-0.8,0.2-1.2,0.2C962.1,1545.8,962.5,1545.7,962.9,1545.6z
	 M963.3,1545.5c0.4-0.1,0.7-0.2,1.1-0.2C964.1,1545.4,963.7,1545.5,963.3,1545.5z M948.6,1533l1.3,13.3L948.6,1533
	c5,0.5,9.7,0.2,14.1-0.6C958.3,1533.2,953.6,1533.5,948.6,1533z M971.6,1543.6c-0.5,0.1-0.9,0.2-1.4,0.4
	C970.7,1543.9,971.2,1543.7,971.6,1543.6z M966.2,1544.9c-0.4,0.1-0.8,0.2-1.3,0.3C965.3,1545.1,965.7,1545,966.2,1544.9z
	 M961.2,1546c-0.4,0.1-0.8,0.1-1.2,0.2C960.4,1546.1,960.8,1546,961.2,1546z M975.8,1528.2c-3.7,1.7-8.2,3.3-13.1,4.2
	C967.6,1531.5,972,1529.9,975.8,1528.2z M979.7,1526.3c-1.2,0.6-2.5,1.3-3.9,1.9C977.2,1527.6,978.5,1526.9,979.7,1526.3z
	 M968.4,1544.4c0.5-0.1,0.9-0.2,1.4-0.3C969.3,1544.2,968.9,1544.3,968.4,1544.4z M966.6,1544.8c0.4-0.1,0.9-0.2,1.4-0.3
	C967.5,1544.6,967.1,1544.7,966.6,1544.8z M951.5,1547.6c-0.2,0-0.3,0-0.5,0.1C951.1,1547.6,951.3,1547.6,951.5,1547.6z
	 M965.8,1476.9c0.3-0.1,0.6-0.3,0.9-0.4C966.4,1476.6,966.1,1476.7,965.8,1476.9z M963.5,1477.8c0.3-0.1,0.7-0.3,1-0.4
	C964.1,1477.5,963.8,1477.7,963.5,1477.8z M971.7,1368.9l-1.4-9.4c-1.4-0.3-2.7-0.6-4.2-0.8c1.4,0.2,2.8,0.4,4.2,0.8L971.7,1368.9z
	 M967.9,1475.9c0.3-0.1,0.6-0.2,0.8-0.4C968.5,1475.7,968.2,1475.8,967.9,1475.9z M970,1474.9c0.2-0.1,0.5-0.2,0.7-0.3
	C970.5,1474.7,970.3,1474.8,970,1474.9z M972,1473.9c0.2-0.1,0.4-0.2,0.6-0.3C972.4,1473.7,972.2,1473.8,972,1473.9z M975.7,1395.8
	c0-0.1,0-0.2,0-0.3C975.6,1395.5,975.7,1395.7,975.7,1395.8z M976,1397.9c0,0.1,0,0.2,0,0.3C976,1398.1,976,1398,976,1397.9z
	 M955.9,1480.4c0.4-0.1,0.7-0.2,1.1-0.3C956.6,1480.2,956.3,1480.3,955.9,1480.4z M959.6,1479.2c-0.4,0.1-0.7,0.2-1.1,0.4
	C958.9,1479.4,959.3,1479.3,959.6,1479.2z M953.1,1481.2c0.3-0.1,0.6-0.2,0.9-0.3C953.7,1481,953.4,1481.1,953.1,1481.2z
	 M962.1,1478.3c-0.3,0.1-0.7,0.3-1,0.4C961.4,1478.6,961.8,1478.4,962.1,1478.3z M955.9,1310.1c-0.4,0-0.9,0.1-1.4,0.1
	C955,1310.2,955.5,1310.2,955.9,1310.1z M957.2,1309.9c-0.4,0.1-0.8,0.1-1.2,0.2C956.4,1310,956.8,1310,957.2,1309.9z M959.9,1309.1
	c-0.3,0.1-0.6,0.2-0.9,0.3C959.3,1309.4,959.6,1309.2,959.9,1309.1z M958.7,1309.5c-0.4,0.1-0.8,0.2-1.2,0.3
	C958,1309.7,958.4,1309.7,958.7,1309.5z M919.7,1482.7c-0.6-0.1-1.2-0.2-1.7-0.4C918.5,1482.5,919.1,1482.6,919.7,1482.7z
	 M963.8,1306.7c0.2-0.2,0.3-0.3,0.5-0.5C964.2,1306.4,964,1306.5,963.8,1306.7z M932.3,1365.4c-2.4,1-4.7,2.1-6.9,3.2
	C927.7,1367.6,930,1366.5,932.3,1365.4z M951.1,1310c0.5,0.1,1.1,0.1,1.6,0.2c0.5,0,1,0,1.5,0c-0.5,0-1,0-1.5,0
	C952.2,1310.1,951.7,1310.1,951.1,1310z M936.7,1363.7c-1,0.4-1.9,0.8-2.9,1.2C934.7,1364.4,935.7,1364.1,936.7,1363.7z
	 M946.5,1315.6c-0.4-1.6-0.9-3.3-1.5-5.2C945.6,1312.4,946.1,1314.1,946.5,1315.6L946.5,1315.6z M974.4,1472.7
	c-0.1,0.1-0.2,0.1-0.3,0.2C974.2,1472.8,974.3,1472.7,974.4,1472.7z M925.8,1284.2c0,0-3.2-5.3-3.2-9.3
	C922.6,1278.9,925.8,1284.2,925.8,1284.2L925.8,1284.2z M921.8,1318.7c-0.1,0-0.2-0.1-0.3-0.1
	C921.6,1318.7,921.7,1318.7,921.8,1318.7z M922,1318.8c0.1,0.1,0.3,0.1,0.4,0.2C922.2,1318.9,922.1,1318.8,922,1318.8z
	 M931.1,1263.8c-0.1,1-0.5,2.4-1.4,3.8C930.6,1266.2,931,1264.7,931.1,1263.8z M931.1,1263.6c0.1-0.6,0-0.9,0-0.9l0,0
	C931.2,1262.7,931.2,1263.1,931.1,1263.6z M913.2,1273.8L913.2,1273.8L913.2,1273.8z M924.1,1369.3c-0.9,0.4-1.7,0.9-2.6,1.4
	C922.4,1370.2,923.2,1369.8,924.1,1369.3z M919,1372.1c0.8-0.5,1.6-0.9,2.5-1.4C920.7,1371.1,919.9,1371.6,919,1372.1z
	 M942.3,1264.1h-0.1C942.2,1264.1,942.2,1264.1,942.3,1264.1z M921,1318.5c0.1,0,0.2,0,0.3,0.1
	C921.2,1318.5,921.1,1318.5,921,1318.5z M913.5,1274.1C913.5,1274.1,913.4,1274.1,913.5,1274.1
	C913.4,1274.1,913.5,1274.1,913.5,1274.1z M964.7,1305.9c0.2-0.2,0.5-0.5,0.7-0.7C965.2,1305.4,964.9,1305.6,964.7,1305.9z
	 M913.3,1375.4c0.7-0.4,1.5-0.9,2.2-1.3C914.8,1374.5,914,1375,913.3,1375.4z M969.1,1258.6c0.1,0.2,0.3,0.5,0.4,0.7
	C969.3,1259.1,969.2,1258.8,969.1,1258.6z M913.3,1375.4c-0.7,0.4-1.4,0.9-2.1,1.3C911.9,1376.3,912.6,1375.9,913.3,1375.4z
	 M915.5,1374.1c0.8-0.4,1.5-0.9,2.3-1.4C917,1373.2,916.3,1373.6,915.5,1374.1z M947.7,1263.1c0.1,0,0.3-0.1,0.4-0.1
	C948,1263,947.8,1263,947.7,1263.1z M902,1382.9c0.3-0.2,0.7-0.5,1.1-0.8C902.7,1382.4,902.4,1382.7,902,1382.9z M968.5,1257.6
	c0.1,0.2,0.3,0.5,0.4,0.8C968.8,1258.1,968.7,1257.9,968.5,1257.6z M949.5,1262.4c1.7-0.7,2.9-1.4,3.4-1.8
	C952.5,1261,951.3,1261.7,949.5,1262.4z M946.7,1263.4c-0.9,0.2-1.8,0.4-2.8,0.6C944.9,1263.8,945.8,1263.6,946.7,1263.4z
	 M953.1,1260.6c0.1-0.1,0.2-0.1,0.2-0.1l0,0C953.2,1260.4,953.2,1260.5,953.1,1260.6z"></path>
<path id="color_x5F_9" fill="#C1E2CC" d="M611.7,1072.4c6-4.7,8.8-11.8,8.3-13.1c-0.9-2.1,0-90,0.1-96.1c0-0.2-0.1-0.4-0.2-0.6
	l-3.5-4.3c-0.3-0.3-0.3-0.7-0.1-1.1l0,0c0.3-0.5,1.1-0.6,1.5-0.2c12.6,12.6,17,33,19.3,51.5c3.4,26.8,5.5,55.1-5.5,79.7
	c-4.9,10.9-11.8,21.5-18.9,31.4c-0.5,0.8-1.7,0.4-1.7-0.6c0.1-8.7,0.2-25.9,0.4-45.9C611.3,1072.8,611.5,1072.5,611.7,1072.4z
	 M699.6,1109.9c0,0.7,0.7,1.1,1.3,0.9l6.3-2.3c0.4-0.1,0.6-0.5,0.6-0.9c-0.5-8.6-5.4-93.6-7.8-128.6c-2.5-36.9-16.2-36.5-18.8-38.3
	l0,0c1.6,1,3.2,2.2,4.8,3.6C701.5,957.5,700.3,1074.8,699.6,1109.9z M108.5,682.1V1221l313.2-180.8c0.3-1,0.7-2,1.1-2.9
	c1.6-3.9,3.7-7.5,5.7-10.1c1-1.3,1.9-2.3,2.7-3c0.7-0.7,1.2-1.1,1.2-1.1s0.1,0.6,0.1,1.6s0,2.4-0.3,4c-0.2,1.8-0.7,4-1.3,6.1
	l180-103.9c-1.4-2.4-1.4-7.1-0.8-12.6h0.1c-0.7,0.2-1.4-0.1-2.2-1.5c-1.7-3.2-0.7-6.3-0.2-7.5c0.1-0.3,0.4-0.5,0.7-0.6
	c0.7-0.1,2-0.3,3.3-0.1c0,0,0,0-0.1,0c2-9.7,4.9-18.9,5.3-20.1c0-0.1-0.1-0.2-0.1-0.4c-1.2-1.9-8.9-14.9,3.1-25.1
	c12-10.2,25.8-0.3,27.8,1.3c0.2,0.1,0.4,0.2,0.6,0.2c2.7,0,21.7,0.8,24.8,14.8c1.6,7.1,2.6,11,2.9,14l87.3-50.4l-75.6-43.7
	l-10.6,6.1V793l-65.7-37.9c-1.6-0.9-2.6-2.6-2.6-4.4V594.2c0-3.9,4.3-6.4,7.7-4.4l60.6,35v-42.9L801.5,510v91.4L719.1,649l35.2,20.3
	l47.1-27.2v54.4l47.8,27.6c1.6,0.9,2.6,2.6,2.6,4.4v63.3L964.1,727V187.4L108.5,682.1z M156.6,1087.3v-293L555.3,564v293
	L156.6,1087.3z M569.4,927.4c0,3.6-1.9,6.9-5,8.7l-123.6,71.4c-6.7,3.9-15.1-1-15.1-8.7v-39.2c0-3.6,1.9-6.9,5-8.7l123.6-71.4
	c6.7-3.9,15.1,1,15.1,8.7L569.4,927.4L569.4,927.4z M801.5,481.5l-124.4,71.8V462l124.4-71.8V481.5z"></path>
<path id="color_x5F_8" fill="#faa2c1" d="M554.4,879.5l-123.6,71.4c-3.1,1.8-5,5.1-5,8.7v39.2c0,7.7,8.4,12.6,15.1,8.7l123.6-71.4
	c3.1-1.8,5-5.1,5-8.7v-39.2C569.4,880.5,561.1,875.6,554.4,879.5z M462.4,970.7c-0.4,0.9-1,1.8-1.7,2.6s-1.6,1.5-2.7,2.1
	c-1.6,0.9-2.8,1.2-3.6,0.8c-0.8-0.3-1.3-1.3-1.5-2.8l2.4-1.7c0.1,0.9,0.4,1.4,0.9,1.6c0.5,0.2,1.1,0,1.8-0.4c0.8-0.5,1.4-1,1.8-1.6
	s0.6-1.2,0.6-1.7c0-0.3-0.1-0.6-0.3-0.7c-0.2-0.1-0.5-0.2-0.9-0.1c-0.3,0-1,0.2-2,0.5c-1.3,0.4-2.3,0.5-2.8,0.2
	c-0.8-0.3-1.1-1.1-1.2-2.2c0-0.7,0.2-1.5,0.5-2.3c0.4-0.8,0.9-1.6,1.5-2.3c0.7-0.7,1.5-1.4,2.4-1.9c1.6-0.9,2.7-1.2,3.5-0.8
	c0.8,0.3,1.2,1.1,1.3,2.4l-2.5,1.6c-0.1-0.7-0.3-1.1-0.7-1.2c-0.4-0.1-0.9,0-1.6,0.4s-1.3,0.9-1.7,1.5c-0.3,0.4-0.4,0.8-0.4,1.1
	s0.1,0.6,0.4,0.6c0.3,0.1,1.1,0,2.3-0.4c1.2-0.4,2.1-0.6,2.7-0.5c0.6,0,1,0.2,1.4,0.7c0.3,0.4,0.5,1.1,0.5,2
	C463,968.9,462.8,969.8,462.4,970.7z M474.8,962.3c-0.1,0.8-0.4,1.5-0.7,2.2c-0.4,0.7-0.9,1.4-1.5,2s-1.4,1.3-2.4,1.8
	c-1.2,0.7-2.1,1.1-2.7,1.1s-1.1-0.1-1.5-0.4c-0.4-0.3-0.6-0.7-0.7-1.2c-0.2-0.7-0.3-1.9-0.3-3.5v-7.6l2.5-1.4v7.7c0,1.2,0,2,0.1,2.3
	c0.1,0.5,0.4,0.8,0.8,1s1,0,1.7-0.4s1.2-0.9,1.6-1.4s0.6-1.1,0.6-1.6c0.1-0.5,0.1-1.4,0.1-2.5v-7.9l2.5-1.4v7.5
	C475,960.2,474.9,961.5,474.8,962.3z M487.6,955.8c-0.3,0.8-0.6,1.5-1.1,2.1s-1,1.2-1.7,1.6c-0.4,0.3-1.4,0.9-3,1.8l-4.2,2.4v-14.3
	l5-2.9c1-0.6,1.7-0.9,2.2-1.1c0.5-0.2,0.9-0.2,1.3-0.2c0.4,0.1,0.7,0.3,1,0.6s0.4,0.8,0.4,1.5s-0.2,1.4-0.5,2.1
	c-0.3,0.7-0.7,1.4-1.3,2c0.8-0.2,1.3-0.1,1.7,0.3c0.4,0.4,0.6,1,0.6,1.8C488,954.3,487.9,955,487.6,955.8z M499,949.6
	c-0.4,0.9-1,1.8-1.7,2.6s-1.6,1.5-2.7,2.1c-1.6,0.9-2.8,1.2-3.6,0.8c-0.8-0.3-1.3-1.3-1.5-2.8l2.4-1.7c0.1,0.9,0.4,1.4,0.9,1.6
	c0.5,0.2,1.1,0,1.8-0.4c0.8-0.5,1.4-1,1.8-1.6s0.6-1.2,0.6-1.7c0-0.3-0.1-0.6-0.3-0.7c-0.2-0.1-0.5-0.2-0.9-0.1c-0.3,0-1,0.2-2,0.5
	c-1.3,0.4-2.3,0.5-2.8,0.2c-0.8-0.3-1.1-1.1-1.2-2.2c0-0.7,0.2-1.5,0.5-2.3c0.4-0.8,0.9-1.6,1.5-2.3s1.5-1.4,2.4-1.9
	c1.6-0.9,2.7-1.2,3.5-0.9s1.2,1.1,1.2,2.4l-2.5,1.6c-0.1-0.7-0.3-1.1-0.7-1.2c-0.4-0.1-0.9,0-1.6,0.4s-1.3,0.9-1.7,1.5
	c-0.3,0.4-0.4,0.8-0.4,1.1s0.1,0.6,0.4,0.6c0.3,0.1,1.1,0,2.3-0.4s2.1-0.6,2.7-0.5c0.6,0,1,0.2,1.4,0.7c0.3,0.4,0.5,1.1,0.5,2
	C499.6,947.8,499.4,948.6,499,949.6z M510.2,944.1c-0.9,1.3-2,2.3-3.3,3c-1.6,0.9-3,1.1-4.1,0.4c-1.1-0.7-1.6-2.1-1.6-4.4
	c0-2.4,0.5-4.5,1.6-6.4s2.5-3.4,4.2-4.4c1.5-0.9,2.8-1.1,3.7-0.6c0.6,0.3,1,0.9,1.3,1.9l-2.5,2.1c-0.2-0.6-0.5-1.1-0.9-1.2
	c-0.5-0.2-1,0-1.7,0.3c-0.9,0.5-1.7,1.3-2.2,2.4c-0.6,1.1-0.9,2.5-0.8,4.2c0,1.8,0.3,2.9,0.9,3.4c0.6,0.4,1.3,0.4,2.2-0.1
	c0.7-0.4,1.2-1,1.7-1.7c0.5-0.8,0.8-1.7,1-2.9l2.4-0.5C511.7,941.3,511.1,942.8,510.2,944.1z M522.4,937.9l-1.8-2.1
	c-0.6-0.7-1.1-1.2-1.3-1.3s-0.5-0.2-0.8-0.2c-0.3,0.1-0.7,0.2-1.3,0.6l-0.5,0.3v6l-2.5,1.4v-14.3l5.3-3c1.3-0.8,2.3-1.2,2.9-1.3
	c0.6-0.1,1.1,0.1,1.4,0.5c0.4,0.4,0.5,1.1,0.6,1.9c0,1.1-0.3,2.1-0.8,3.1s-1.4,1.9-2.4,2.7c0.5,0.1,1,0.2,1.3,0.4
	c0.4,0.2,0.8,0.7,1.4,1.5l1.5,1.9L522.4,937.9z M526.6,935.5v-14.3l2.5-1.4v14.3L526.6,935.5z M541.5,924.6
	c-0.3,0.8-0.6,1.5-1.1,2.1s-1,1.2-1.7,1.6c-0.4,0.3-1.4,0.9-3,1.9l-4.2,2.4v-14.3l5-2.9c1-0.6,1.7-0.9,2.2-1.1
	c0.5-0.2,0.9-0.2,1.3-0.2c0.4,0.1,0.7,0.3,1,0.6c0.2,0.4,0.4,0.8,0.4,1.5s-0.2,1.4-0.5,2.1c-0.3,0.7-0.7,1.4-1.3,2
	c0.8-0.2,1.3-0.1,1.7,0.3c0.4,0.4,0.6,1,0.6,1.8C541.9,923.2,541.8,923.9,541.5,924.6z M544.1,925.4v-14.3l9.2-5.3v2.4l-6.7,3.9v3.2
	l6.2-3.6v2.4l-6.2,3.6v3.9l6.9-4v2.4L544.1,925.4z M485.1,954.1c0.2,0.2,0.3,0.5,0.3,0.9c0,0.5-0.1,1-0.3,1.4
	c-0.2,0.4-0.5,0.8-0.9,1.1c-0.2,0.2-0.8,0.6-1.7,1.1l-2.3,1.3v-3.8l2-1.2c1.1-0.7,1.9-1,2.2-1.1C484.7,953.8,485,953.9,485.1,954.1z
	 M537.5,920.6c0.4-0.3,0.8-0.7,1-1.1c0.2-0.4,0.4-0.9,0.4-1.3c0-0.4-0.1-0.7-0.3-0.9s-0.5-0.1-1,0.1c-0.2,0.1-1,0.5-2.1,1.2
	l-1.4,0.8v3.3l1.6-0.9C536.6,921.1,537.3,920.7,537.5,920.6z M521.8,928.2c0-0.5-0.1-0.8-0.3-1s-0.5-0.2-0.9,0
	c-0.2,0.1-0.8,0.4-1.8,1l-1.9,1.1v3.6l1.8-1.1c1.2-0.7,1.9-1.2,2.2-1.5s0.5-0.6,0.7-1C521.7,929,521.8,928.6,521.8,928.2z
	 M483.6,951.7c0.4-0.3,0.8-0.7,1-1.1c0.2-0.4,0.4-0.9,0.4-1.3c0-0.4-0.1-0.7-0.3-0.9c-0.2-0.1-0.5-0.1-1,0.1c-0.2,0.1-1,0.5-2.1,1.2
	l-1.4,0.8v3.3l1.6-0.9C482.7,952.2,483.3,951.9,483.6,951.7z M538.3,922.7c-0.4,0.1-1.1,0.4-2.2,1.1l-2,1.2v3.8l2.3-1.3
	c0.9-0.5,1.5-0.9,1.7-1.1c0.4-0.3,0.7-0.7,0.9-1.1c0.2-0.4,0.3-0.9,0.3-1.4c0-0.4-0.1-0.7-0.3-0.9
	C538.9,922.7,538.6,922.7,538.3,922.7z M1114.6,1147.9l298.9,172.6l166-95.9l-140.6-81.2l0.2,162.2l-25.7,14.8l-40.7-23.5v-191.7
	l-43.5-25.1v191.7l-49-28.3l0.4-191.5L1114.6,1147.9z"></path>
<path id="color_x5F_7" fill="#E6F1F4" d="M457.9,960.7c1.6-0.9,2.7-1.2,3.5-0.8c0.8,0.3,1.2,1.1,1.3,2.4l-2.5,1.6
	c-0.1-0.7-0.3-1.1-0.7-1.2c-0.4-0.1-0.9,0-1.6,0.4s-1.3,0.9-1.7,1.5c-0.3,0.4-0.4,0.8-0.4,1.1s0.1,0.6,0.4,0.6
	c0.3,0.1,1.1,0,2.3-0.4c1.2-0.4,2.1-0.6,2.7-0.5c0.6,0,1,0.2,1.4,0.7c0.3,0.4,0.5,1.1,0.5,2c0,0.8-0.2,1.7-0.6,2.6
	c-0.4,0.9-1,1.8-1.7,2.6s-1.6,1.5-2.7,2.1c-1.6,0.9-2.8,1.2-3.6,0.8c-0.8-0.3-1.3-1.3-1.5-2.8l2.4-1.7c0.1,0.9,0.4,1.4,0.9,1.6
	c0.5,0.2,1.1,0,1.8-0.4c0.8-0.5,1.4-1,1.8-1.6s0.6-1.2,0.6-1.7c0-0.3-0.1-0.6-0.3-0.7c-0.2-0.1-0.5-0.2-0.9-0.1c-0.3,0-1,0.2-2,0.5
	c-1.3,0.4-2.3,0.5-2.8,0.2c-0.8-0.3-1.1-1.1-1.2-2.2c0-0.7,0.2-1.5,0.5-2.3c0.4-0.8,0.9-1.6,1.5-2.3
	C456.1,961.8,456.9,961.2,457.9,960.7z M472.4,952.5v7.9c0,1.1,0,2-0.1,2.5s-0.3,1.1-0.6,1.6c-0.4,0.5-0.9,1-1.6,1.4
	s-1.2,0.6-1.7,0.4c-0.4-0.1-0.7-0.4-0.8-1c-0.1-0.3-0.1-1.1-0.1-2.3v-7.7l-2.5,1.4v7.6c0,1.6,0.1,2.7,0.3,3.5
	c0.1,0.5,0.4,0.9,0.7,1.2c0.4,0.3,0.8,0.4,1.5,0.4c0.6,0,1.5-0.4,2.7-1.1c1-0.6,1.8-1.2,2.4-1.8s1.1-1.3,1.5-2s0.6-1.4,0.7-2.2
	s0.2-2,0.2-3.7v-7.5L472.4,952.5z M485.6,951.6c0.5-0.6,1-1.3,1.3-2s0.5-1.4,0.5-2.1c0-0.6-0.1-1.1-0.4-1.5c-0.2-0.4-0.6-0.6-1-0.6
	c-0.4-0.1-0.8,0-1.3,0.2s-1.2,0.5-2.2,1.1l-5,2.9v14.3l4.2-2.4c1.6-0.9,2.6-1.5,3-1.8c0.7-0.5,1.2-1,1.7-1.6s0.8-1.3,1.1-2.1
	c0.3-0.8,0.4-1.5,0.4-2.1c0-0.8-0.2-1.4-0.6-1.8C487,951.5,486.4,951.4,485.6,951.6z M485.1,956.4c-0.2,0.4-0.5,0.8-0.9,1.1
	c-0.2,0.2-0.8,0.6-1.7,1.1l-2.3,1.3v-3.8l2-1.2c1.1-0.7,1.9-1,2.2-1.1c0.3,0,0.6,0,0.8,0.2c0.2,0.2,0.3,0.5,0.3,0.9
	C485.4,955.5,485.3,956,485.1,956.4 M480.1,950.4l1.4-0.8c1.2-0.7,1.9-1.1,2.1-1.2c0.4-0.2,0.7-0.2,1-0.1c0.2,0.1,0.3,0.4,0.3,0.9
	s-0.1,0.9-0.4,1.3c-0.2,0.4-0.6,0.8-1,1.1c-0.2,0.2-0.8,0.5-1.8,1.1l-1.6,0.9V950.4 M492,941.4c-0.7,0.7-1.2,1.5-1.5,2.3
	s-0.5,1.6-0.5,2.3c0,1.1,0.4,1.9,1.2,2.2c0.5,0.3,1.5,0.2,2.8-0.2c1-0.3,1.7-0.5,2-0.5c0.4-0.1,0.7-0.1,0.9,0.1
	c0.2,0.1,0.3,0.4,0.3,0.7c0,0.5-0.2,1.1-0.6,1.7c-0.4,0.6-1,1.2-1.8,1.6c-0.8,0.4-1.4,0.6-1.8,0.4c-0.4-0.2-0.7-0.7-0.9-1.6
	l-2.4,1.7c0.2,1.5,0.7,2.4,1.5,2.8c0.8,0.3,2.1,0.1,3.6-0.8c1.1-0.6,2-1.3,2.7-2.1s1.3-1.6,1.7-2.6c0.4-0.9,0.6-1.8,0.6-2.6
	c0-0.9-0.2-1.6-0.5-2s-0.8-0.7-1.4-0.7s-1.5,0.2-2.7,0.5s-2,0.5-2.3,0.4c-0.2-0.1-0.4-0.3-0.4-0.6c0-0.4,0.1-0.7,0.4-1.1
	c0.4-0.6,1-1.1,1.7-1.5s1.2-0.6,1.6-0.4c0.4,0.1,0.6,0.5,0.7,1.2l2.5-1.6c0-1.3-0.5-2.1-1.2-2.4c-0.8-0.3-2,0-3.5,0.9
	C493.5,940.1,492.7,940.7,492,941.4z M502.8,936.7c-1.1,1.9-1.6,4.1-1.6,6.4c0,2.2,0.5,3.7,1.6,4.4s2.4,0.5,4.1-0.4
	c1.3-0.8,2.4-1.8,3.3-3s1.5-2.8,1.8-4.5l-2.4,0.5c-0.2,1.2-0.5,2.1-1,2.9c-0.5,0.8-1.1,1.3-1.7,1.7c-0.9,0.5-1.6,0.6-2.2,0.1
	s-0.9-1.6-0.9-3.4c0-1.7,0.3-3.1,0.8-4.2s1.3-1.9,2.2-2.4c0.7-0.4,1.2-0.5,1.7-0.3c0.5,0.1,0.8,0.6,0.9,1.2l2.5-2.1
	c-0.3-1-0.7-1.6-1.3-1.9c-1-0.5-2.2-0.3-3.7,0.6C505.3,933.3,503.9,934.7,502.8,936.7z M522.4,932.8c-0.4-0.2-0.8-0.4-1.3-0.4
	c1.1-0.8,1.9-1.7,2.4-2.7c0.6-1,0.8-2,0.8-3.1c0-0.8-0.2-1.5-0.6-1.9c-0.4-0.4-0.8-0.6-1.4-0.5c-0.6,0.1-1.6,0.5-2.9,1.3l-5.3,3
	v14.3l2.5-1.4v-6l0.5-0.3c0.6-0.3,1-0.5,1.3-0.6c0.3,0,0.5,0,0.8,0.2c0.2,0.1,0.7,0.6,1.3,1.3l1.8,2.1l3-1.7l-1.5-1.9
	C523.3,933.5,522.8,933,522.4,932.8z M518.6,931.9l-1.8,1.1v-3.6l1.9-1.1c1-0.6,1.6-0.9,1.8-1c0.4-0.2,0.7-0.1,0.9,0
	c0.2,0.2,0.3,0.5,0.3,1c0,0.4-0.1,0.8-0.3,1.2s-0.4,0.7-0.7,1C520.5,930.7,519.8,931.2,518.6,931.9 M526.6,921.2v14.3l2.5-1.4v-14.3
	L526.6,921.2z M539.6,920.4c0.5-0.6,1-1.3,1.3-2s0.5-1.4,0.5-2.1c0-0.6-0.1-1.1-0.4-1.5c-0.3-0.3-0.6-0.6-1-0.6
	c-0.4-0.1-0.8,0-1.3,0.2s-1.2,0.6-2.2,1.1l-5,2.9v14.3l4.2-2.4c1.6-0.9,2.6-1.5,3-1.9c0.7-0.5,1.2-1,1.7-1.6s0.8-1.3,1.1-2.1
	s0.4-1.5,0.4-2.1c0-0.8-0.2-1.4-0.6-1.8C540.9,920.3,540.3,920.2,539.6,920.4z M539,925.3c-0.2,0.4-0.5,0.8-0.9,1.1
	c-0.2,0.2-0.8,0.6-1.7,1.1l-2.3,1.3V925l2-1.2c1.1-0.7,1.9-1,2.2-1.1c0.3,0,0.6,0,0.8,0.2s0.3,0.5,0.3,0.9
	C539.3,924.4,539.2,924.8,539,925.3 M534,919.3l1.4-0.8c1.2-0.7,1.9-1.1,2.1-1.2c0.4-0.2,0.7-0.2,1-0.1s0.3,0.4,0.3,0.9
	s-0.1,0.9-0.4,1.3c-0.2,0.4-0.6,0.8-1,1.1c-0.2,0.2-0.8,0.5-1.8,1.1l-1.6,0.9V919.3 M544,911.2v14.3l9.4-5.4v-2.4l-6.9,4v-3.9
	l6.2-3.6v-2.4l-6.2,3.6v-3.2l6.7-3.9v-2.4L544,911.2z M555.3,564v293l-398.8,230.2v-293L555.3,564z M677.1,462v91.4l124.4-71.8
	v-91.4L677.1,462z M851.9,133.8l-60,34.6c-2.8,1.6-4.5,4.6-4.5,7.8l0.1,69.1c0,6.9,7.5,11.2,13.4,7.7l59.9-34.6
	c2.8-1.6,4.5-4.6,4.5-7.8v-69.2C865.3,134.6,857.9,130.3,851.9,133.8z M719.1,649l82.4-47.5V510l-124.4,71.8v42.9L719.1,649z
	 M801.5,696.5v-54.4l-47.1,27.2L801.5,696.5z M677.1,793v12.3l10.6-6.1L677.1,793z M209.1,697.7l-27.3,30.9c-1.4,1.6-4,0.6-4-1.5
	v-31.5c0-1.3,1.1-2.3,2.3-2.3l27.4,0.7C209.4,693.9,210.4,696.2,209.1,697.7z"></path>
<path id="color_x5F_6" fill="#FFFFFF" d="M982.9,1466.9l5.6,53.5c0,0-17,14.9-39.9,12.6l1.4,14.7l0.2,6c-9.5,2.6-36.4,7.3-55.2-10.9
	c3.2-18.8,5.3-47,6.4-66.1c8.5,4.1,26.9,10.7,48.8,5.3C966.7,1477.9,977,1471.7,982.9,1466.9z M902.5,1427.8
	c15.9-18.3,61.6-23.5,74.3-24.6c-2-13.6-3.8-26.2-3.8-26.2l-2.7-17.3c-29-7.4-70.6,25.1-70.6,25.1
	C904.3,1402.2,902.9,1416.2,902.5,1427.8z M1280.6,1052.1l-0.4,191.5l49,28.3v-191.7L1280.6,1052.1z M1372.7,1105.2V1297l40.7,23.5
	l25.7-14.8l-0.2-162.2L1372.7,1105.2z M697.2,722.9l24.1,13.9l-0.1,26.1l-24-13.9V722.9z M697.3,709.7l24.1,13.9l0.1-26.1
	l-24.1-13.9L697.3,709.7z M734.1,734.5c0-9.8,1.4-18.5,4.2-25.9c2.8-7.3,7.6-14.7,14.4-21.8l0.2-0.2l14.7,8.5l-0.5,0.9
	c-8.3,14.4-12.5,30.8-12.5,48.9c0,9.4,0.8,18.8,2.5,28c2,10.9,5.3,23.6,9.7,37.7l0.4,1.4l-14.7-8.5l-0.2-0.4
	c-6.5-13.7-11.2-26.1-14-37C735.5,755.3,734.1,744.6,734.1,734.5z M881.3,1137.9c-2.9,10.8-7.6,23.2-14,37l-0.2,0.4l-14.7,8.5
	l0.4-1.4c4.5-14.1,7.8-26.8,9.7-37.7c1.7-9.2,2.5-18.7,2.5-28c-0.1-18.1-4.3-34.5-12.5-48.9l-0.5-0.9l14.7-8.5l0.2,0.2
	c6.8,7.1,11.6,14.4,14.4,21.8c2.8,7.3,4.2,16.1,4.2,25.9C885.6,1116.4,884.1,1127.1,881.3,1137.9z M898.2,1069.4l24.1-13.9l0.1,26.1
	l-24.1,13.9L898.2,1069.4z M898.4,1134.7l-0.1-26.1l24.1-13.9l0.1,26.1L898.4,1134.7z"></path>
<path id="color_x5F_5" fill="#ffdeeb" d="M547.5,1020.5c-4.1-2.6-8-6.3-10-11.2c-4.7-11.9,6.1-18.3,9.5-16.6s-0.3,7.8,12.5,11.2
	c10.7,2.8,9.9,9.2,9.2,11.6l-14.5,8.4c-0.5-0.2-1.1-0.4-1.7-0.7l-5.1-2.9C547.4,1020.3,547.4,1020.4,547.5,1020.5z M654.8,928.5v5.1
	l-22.1,3.6c0.3-1.2,0.6-2.5,0.8-3.7c-10,1.2-19.6,0.9-22.3-2.1c-1.8-2.1-1.9-7.2-1.2-13.2c1.2-0.2,2.3-1.9,3.2-0.6
	c1.5,2,3.6-0.1,2.7-5.4c-0.4-2.6-2.4-3.5-4.3-3.8c2.2-10.4,5.3-20.2,5.3-20.2c-0.5,4.4,11.2,7.2,17.4,9.6c6.1,2.4,1.9,16.2,1.9,16.2
	h3.3l0.1-4.9c0,0-1.7-5.3,8.2-10.4c9.9-5.1,0.8,11.4,0.8,11.4c2.3,8.5,10.1,4.7,16.8,4.6c-2.3,4.2-4.5,7.8-5.4,9.8
	C659.6,926.1,657.6,927.4,654.8,928.5z M699.3,1119.9l-1.2,22.7c4.6-3.1,10.2-8.3,11-12.3c1.1-5.6-2.3-15.5-4.2-20.9l-5.4,2
	C699.4,1116.7,699.3,1119.9,699.3,1119.9z M950,1547.8l0.2,6l0.3,9.7c-11.7,7-23.2,8.1-33,6.7c1.4,6.8,2.3,11.2,2.3,11.2
	s0.1,0.9,0.2,2.3c-1.6,4.3-4.9,9.8-11.3,14.5c-12.7,9.3-24.1,17.3-31.7,35.9c-7.6,18.7-27.3,32.1-32.9,34.1c-0.8,0.3-1.9,0.7-3,1.2
	c2.1,3.9,8.8,13.1,24.9,12.9l0,0c1.9-5.7,36.1-32.6,48-46.3c-1,12.2-0.8,25.3,0.4,28.8c2.1,6,12.8,47.5,11.5,55.4
	c0,0,2.3,12.2,1,15.7c-0.1,0.3-0.3,0.8-0.5,1.3c1.1-0.6,2-0.8,2-0.8c0,4.5,7.2,7.5,12.3,7.8c3.9,0.2,6.4-3.4,9.1-4.9
	c0-0.1,0-0.2,0-0.3c0.1-3.1-0.8-57.8-0.8-57.8l-1.4-67.1c0,0,0.1-5.8,0.2-13.4c2.9-2.3,6.9-6.8,12-15.2c4.9-8,8.9-24.2,12.1-41.8
	C961.1,1546.4,950,1547.8,950,1547.8z M863.7,1494.6c0,0-11-67.1-6.4-72.2c1.4-1.6,4.6-9,8.4-18.8c6.8,2.7,16,2.7,21.8,2.3
	c-3.2,7.1-5.7,13.8-5.9,15.7c-0.4,4.1,1.2,19.3,1.2,19.3c1.4,31-8.3,42.3-7.5,53.2c0.8,10.9,3.8,10.1,4.8,12.5s13,9.8,13,9.8
	c-0.5,6.5-11,2.4-11,2.4c0.6,9.5,8.3,14.1,6.7,18.9c-1.5,4.8-8-3.5-8-3.5c1,7.3-5,0-5,0c-0.6,7.8-4.6-2.4-4.6-2.4
	c0.5,4.1-0.9,3.8-0.9,3.8C862.6,1529.7,863.7,1494.6,863.7,1494.6z M975.5,1403.2c-3.1,0.3-7.6,0.8-12.8,1.5
	C968,1404,972.4,1403.5,975.5,1403.2z M1046.2,1483.1c0,0,5.8,6.9,3.2,6.8c-2.7-0.1-10.5-4.6-10.5-4.6s6.7,9.3,3.7,8.5
	s-7.3-5.2-7.3-5.2s4.1,6.6,1.6,7.3c-2.6,0.7-11.5-12.2-11.5-12.2s-15.8-17.2-15.8-21.5c0-2.5-15.7-19.8-28.8-34
	c-0.3-2-0.7-4.2-1.1-6.6c-0.1-0.5-0.2-1.1-0.3-1.7c-0.4-2.7-0.9-5.6-1.4-8.6c-0.1-0.4-0.1-0.8-0.2-1.3c-0.2-1.3-0.4-2.6-0.6-3.9
	c-0.1-0.4-0.1-0.9-0.2-1.3c-0.1-0.6-0.2-1.2-0.3-1.8c-2-13.3-3.7-25.6-3.8-26.2c7.6,9.5,27.7,35.4,29.2,42
	c1.9,8.1,20.7,34.3,20.7,34.3s17.8,4.6,20.6,3.7c2.9-0.8,1.4,7.6-12.2,5.1c0,0,16.1,17.1,21.2,19.2S1053.7,1485.3,1046.2,1483.1z
	 M952.8,1310.2c-4.5-0.3-8.9-2-13-4.4c0.6,2.3,1.1,4.6,1.5,6.7c1-0.6,2.3-1.3,3.7-2c0.6,1.9,1.1,3.6,1.5,5.2l0,0
	c0,0.1,0,0.2,0.1,0.3c0.2,0.7,0.3,1.3,0.4,1.9c0,0.1,0,0.3,0.1,0.4c0.1,0.5,0.2,1,0.2,1.5c0,0.2,0,0.4,0.1,0.6
	c0,0.4,0.1,0.9,0.1,1.2c0,0.1,0,0.3,0,0.4c0,0.5,0,1-0.1,1.4c0,0.1,0,0.2,0,0.4c0,0.3-0.1,0.6-0.2,0.9c0,0.1,0,0.2-0.1,0.3
	c-0.1,0.4-0.2,0.7-0.3,1c0,0,0,0.1-0.1,0.1c-0.1,0.3-0.3,0.5-0.4,0.8c0,0.1-0.1,0.1-0.1,0.2c-0.2,0.2-0.3,0.4-0.5,0.6
	c0,0,0,0-0.1,0.1c-0.2,0.2-0.4,0.4-0.7,0.5c-0.1,0-0.1,0.1-0.2,0.1c-0.1,0.1-0.2,0.1-0.3,0.2l0,0c-6.4,3.2-21.1-7.4-21.3-8.8
	c-0.1-0.8-1.1-1.2-2.2-1.4c1.3-6.1-0.1-23.8-0.8-31.2c-1.6-2.1-2.5-3.5-2.5-3.5s-11.9-0.1-11.3-9.8c0.3-4.3,2.2-5.2,4.2-4.9
	c1.2,3,3,5.2,3.2,5.2c0.4-0.1,1.7-2,5.4,5.1s6.8,5,6.8,5s-6.8-11.2-0.6-13.3c6.2-2.1,5.9-8.2,5.9-8.2c13.3,4.4,22.1-2.3,22.1-2.3
	c8.5,1.6,13-0.7,15.3-2.8c1.3,2.1,2.6,5.4,3.4,9.1C973.6,1288.7,970.7,1311.3,952.8,1310.2z"></path>
<path id="color_x5F_4" fill="#364fc7" d="M890.6,1559.6c1.7-3.3,3.1-9.3,4.4-16.8c18.7,18.2,45.7,13.6,55.2,10.9l0.3,9.7
	C919.9,1581.7,890.6,1559.6,890.6,1559.6z M948.6,1533l1.4,14.7c0,0,35.2-4.2,39.9-13.6l-1.4-13.8l0,0
	C988.5,1520.4,971.5,1535.3,948.6,1533z M971.1,1758.7L971.1,1758.7L971.1,1758.7z M949.9,1738.9
	C949.9,1739,949.9,1739,949.9,1738.9C949.9,1739,949.9,1739,949.9,1738.9z M990.2,1782.8c-4.9,10.4-21.3,8.5-26.7,9.1
	c-5.3,0.6-19.6-16.6-29.8-20.2s-11.5-5.6-11.5-5.6c-7.4-27.8,6.1-29.8,6.1-29.8c0,4.5,7.2,7.5,12.3,7.8c0.1,0,0.2,0,0.3,0l0,0
	l17.2,18.4c0,0,12,7.4,15.8,5.7c1.9-0.8,2.1-2.8,1.8-4.6l0,0c0.2,0.2,0.4,0.4,0.5,0.5C983.4,1771.2,995.1,1772.5,990.2,1782.8z
	 M950.5,1738.7c0,0,0.1,0,0.1-0.1C950.5,1738.7,950.5,1738.7,950.5,1738.7z M952.4,1738.5c0.1,0,0.2,0.1,0.3,0.1
	C952.6,1738.6,952.5,1738.5,952.4,1738.5z M953.8,1739.3c-0.4-0.3-0.7-0.5-1-0.6C953.1,1738.8,953.4,1739,953.8,1739.3z
	 M953.8,1739.3c1.7,1.2,4,3.7,6.6,6.6L953.8,1739.3z M952,1738.5L952,1738.5L952,1738.5L952,1738.5z M951.1,1738.5
	c0.1,0,0.1,0,0.2,0C951.2,1738.5,951.2,1738.5,951.1,1738.5z M969.2,1756.5L969.2,1756.5L969.2,1756.5z M967.2,1754.1L967.2,1754.1
	L967.2,1754.1z M968.2,1755.3L968.2,1755.3L968.2,1755.3z M970.2,1757.6C970.2,1757.6,970.1,1757.6,970.2,1757.6
	C970.1,1757.6,970.2,1757.6,970.2,1757.6z M961.3,1747c-0.3-0.4-0.6-0.7-0.9-1.1C960.7,1746.3,961,1746.6,961.3,1747z M962.2,1748.1
	c-0.3-0.4-0.6-0.7-0.9-1.1C961.6,1747.4,961.9,1747.8,962.2,1748.1z M963.2,1749.3c-0.3-0.4-0.6-0.8-0.9-1.1
	C962.6,1748.5,962.9,1748.9,963.2,1749.3z M966.3,1753c-1-1.2-2.1-2.5-3.1-3.7C964.3,1750.5,965.3,1751.8,966.3,1753z M883.2,1734.6
	c-3.9,10.1-5.9,15.1-24.9,10.2s-17.3-28.7-23.8-37.3s-11.7-13.7-11.8-19.2s7.5-21.9,17.4-20.6c0,0,2.5,6.9,10.6,11.2l0,0
	c-0.2,8.7,0.4,27.9,9.2,39.1c6.5,8.3,12.3,5.1,16,0.8l0,0C880.4,1724.5,885.5,1728.6,883.2,1734.6z M902.5,1434.4c0-0.8,0-1.7,0-2.6
	c0-0.7,0-1.3,0-2s0-1.4,0.1-2.1c15.9-18.3,61.6-23.5,74.3-24.6c0.1,0.6,0.2,1.2,0.3,1.8c0.1,0.4,0.1,0.9,0.2,1.3
	c0.2,1.3,0.4,2.6,0.6,3.9c0.1,0.4,0.1,0.9,0.2,1.3c0.5,3,0.9,5.9,1.4,8.6c0.1,0.6,0.2,1.1,0.3,1.7c0.6,3.6,1.1,6.8,1.6,9.2
	c0,0.2,0.1,0.4,0.1,0.6c0.3,1.8,0.6,3.1,0.8,3.8c1.9,6.6,7,24.6,7.4,24.6s-9.1,14.5-39.4,22.1c-30.3,7.5-53.8-8-53.8-8
	S902.9,1447.2,902.5,1434.4z M991.6,1358.5c0,0-5.6,13.3-18.7,18.4l-2.7-17.3c-29-7.4-70.6,25.1-70.6,25.1s-7.1,17.7-6.9,20.8
	c0,0-30.9,4.7-35.3-9.6c0,0,13.1-33.9,13.9-37c0.8-3.2,6.9-20.4,8.8-21.3c1.9-1,36.5-19.2,36.5-19.2s6-0.5,6.4,1.6
	c0.3,2.1,34.1,25.5,21.6-10.5c0,0,0.6-0.2,1.7-0.5c2.1,0.7,4.3,1.2,6.4,1.3c5.9,0.4,10.2-1.8,13.2-5.7c1.8-0.3,10.5-0.8,10.3,23.1
	C976.1,1345,991.6,1358.5,991.6,1358.5z M952.6,89.4v69.2c0,3.2-1.7,6.2-4.5,7.8L888.2,201c-6,3.4-13.4-0.9-13.4-7.7l-0.1-69.1
	c0-3.2,1.7-6.2,4.5-7.8l60-34.6C945.2,78.2,952.6,82.5,952.6,89.4z M236.1,672.5v30.8c0,6.1-3.3,11.8-8.6,14.9L166,753.7
	c-11.5,6.6-25.8-1.7-25.8-14.9V708c0-6.1,3.3-11.8,8.6-14.9l61.5-35.5C221.8,651,236.1,659.3,236.1,672.5z M1079.5,1142.1l344,198.6
	l191.1-110.3l-344-198.6L1079.5,1142.1z M1413.5,1320.5l-298.9-172.6l166-95.9l298.9,172.6L1413.5,1320.5z M1003.1,961.6L770.4,1096
	c-1.6,0.9-2.6,2.6-2.6,4.4v165.4c0.8-0.5,1.7-0.7,2.6-0.7l75.2,0.5c5.2,0,7.1-6.9,2.6-9.5l-24.2-13.9c-3.4-2-3.4-6.9,0-8.8
	l184.2-106.3c1.6-0.9,2.6-2.6,2.6-4.4V966C1010.8,962.1,1006.5,959.6,1003.1,961.6z M881.3,1137.9c-2.9,10.8-7.6,23.2-14,37
	l-0.2,0.4l-14.7,8.5l0.4-1.4c4.5-14.1,7.8-26.8,9.7-37.7c1.7-9.2,2.5-18.7,2.5-28c-0.1-18.1-4.3-34.5-12.5-48.9l-0.5-0.9l14.7-8.5
	l0.2,0.2c6.8,7.1,11.6,14.4,14.4,21.8c2.8,7.3,4.2,16.1,4.2,25.9C885.6,1116.4,884.1,1127.1,881.3,1137.9z M898.2,1069.4l24.1-13.9
	l0.1,26.1l-24.1,13.9L898.2,1069.4z M898.4,1134.7l-0.1-26.1l24.1-13.9l0.1,26.1L898.4,1134.7z"></path>
<path id="color_x5F_3" fill="#099268" d="M1891.5,1336.7v57.8l-909.3,525l-826.6-477.3v-57.8l826.6,477.3L1891.5,1336.7z
	 M611.4,1072.6c-0.3,22.8-0.4,42.1-0.4,49.3c7.7-10.6,15.4-22,20.7-33.8c11-24.6,8.9-52.9,5.5-79.7c-2.4-18.8-6.9-39.8-20.1-52.3
	c-0.4,0.5-0.7,1-1,1.6l-1.1-1.4c4.4-7.8,16.1-11.6,16.1-11.6s1-3.6,1.9-7.5l22.1-3.6v5.4c0,0,13-10.2,31.2,5.3
	c18.2,15.6,13.3,175.5,13.3,175.5l-0.3,6c-22.9,3.9-58.4,7.3-89.2,0.3l-0.1-2.3c0,0,0.1-22.2,0.4-50.4
	C610.6,1073.2,611,1072.9,611.4,1072.6z M547.3,1020.2c7.4,13,29.3,49.5,45,54.9c19.1,6.7,28.4-13.8,27.6-16
	c-0.9-2.2,0.1-96.4,0.1-96.4l-5.4-6.7c-0.9,0.4-26.2,11.6-23.6,77.3l-19.9-19.3l-17.2,9.9L547.3,1020.2z M668,1315.5
	c0.1,2.9,0.2,4.5,0.3,4.4c0.4-1.3,12.4,14.7,20,4.9v-0.1c0.9,7.8,2.1,18,1.9,19c-0.3,1.7-6,4-15.3,2.3s-21.3-22.3-23-27
	C650.5,1315.5,661.8,1315.3,668,1315.5z M591.5,1361.6c10.7,12.7,46.3,9,48.7,8c2-0.9,0.6-14.6,0.1-19.5c0,0.2,0,0.4,0,0.4
	c-12,7.6-20-2.7-20-2.7v-0.6c-0.8,0.8-1.4,1.3-1.4,1.3S580.8,1349,591.5,1361.6z M851.8,728.5v165.4c-0.8-0.5-1.7-0.7-2.6-0.7
	l-75.2,0.5c-5.2,0-7.1-6.9-2.6-9.5l24.2-13.9c3.4-2,3.4-6.9,0-8.8L611.4,755.1c-1.6-0.9-2.6-2.6-2.6-4.4V594.2
	c0-3.9,4.3-6.4,7.7-4.4l232.7,134.4C850.8,725,851.8,726.7,851.8,728.5z M721.3,736.8l-24.1-13.9l-0.1,26.1l24.1,13.9L721.3,736.8z
	 M721.5,697.6l-24.1-13.9l-0.1,26.1l24.1,13.9L721.5,697.6z M754.7,744.9c0.1-18.1,4.3-34.5,12.5-48.9l0.5-0.9l-14.7-8.5l-0.2,0.2
	c-6.8,7.1-11.6,14.4-14.4,21.8c-2.8,7.3-4.2,16.1-4.2,25.9c0,10.2,1.4,20.8,4.3,31.6c2.9,10.8,7.6,23.2,14,37l0.2,0.4l14.7,8.5
	l-0.4-1.4c-4.5-14.1-7.8-26.8-9.7-37.7C755.5,763.7,754.7,754.3,754.7,744.9z M952.6,104.8v53.8c0,3.2-1.7,6.2-4.5,7.8L888.2,201
	c-6,3.4-13.4-0.9-13.4-7.7v-43.4l-9.4,5.4v55.5c0,3.2-1.7,6.2-4.5,7.8L801,253c-6,3.4-13.4-0.9-13.4-7.7v-45.1l-679,392.2v89.7
	l855.6-494.6V98.2L952.6,104.8z M419.5,1052.4c0-1,0.1-2.4,0.3-4c0.2-1.6,0.6-3.4,1.1-5.3s1.2-3.9,2-5.8c1.6-3.9,3.7-7.5,5.7-10.1
	c1-1.3,1.9-2.3,2.7-3c0.7-0.7,1.2-1.1,1.2-1.1s0.1,0.6,0.1,1.6s0,2.4-0.3,4c-0.4,3.2-1.5,7.3-3.1,11.2c-0.8,1.9-1.7,3.8-2.7,5.5
	s-2,3.3-3,4.5c-1,1.3-1.9,2.3-2.6,3s-1.2,1.1-1.2,1.1S419.5,1053.4,419.5,1052.4z M452.8,1050.5c-0.2-0.1-0.5-0.2-0.8-0.4
	c-0.6-0.4-1.5-1-2.4-1.8s-1.8-1.8-2.7-2.9c-0.9-1.1-1.6-2.4-2.3-3.7c-0.7-1.3-1.2-2.7-1.6-4c-0.4-1.4-0.7-2.7-0.8-3.9
	c-0.1-1.2-0.1-2.2-0.1-3c0-0.4,0.1-0.7,0.1-0.9c0-0.2,0.1-0.3,0.1-0.3s0.1,0,0.3,0.1c0.2,0.1,0.5,0.2,0.8,0.4c0.6,0.4,1.5,1,2.4,1.8
	s1.8,1.8,2.7,2.9c0.9,1.1,1.6,2.4,2.3,3.7c0.7,1.3,1.2,2.7,1.6,4c0.4,1.4,0.7,2.7,0.8,3.9c0.1,1.2,0.1,2.2,0.1,3
	c0,0.4-0.1,0.7-0.1,0.9c0,0.2-0.1,0.3-0.1,0.3S453,1050.6,452.8,1050.5z M396.8,1030.4c0.5-0.8,1.2-1.9,2.2-3.1s2.1-2.5,3.5-3.8
	s2.9-2.5,4.5-3.7c3.2-2.3,6.7-4.1,9.6-5.1c1.4-0.5,2.7-0.8,3.7-1c0.9-0.2,1.5-0.2,1.5-0.2s-0.2,0.5-0.7,1.3s-1.2,1.9-2.1,3.1
	c-1.9,2.4-4.8,5.2-8,7.4c-1.6,1.1-3.3,2.2-4.9,3c-1.6,0.9-3.3,1.5-4.7,2.1c-1.4,0.5-2.7,0.8-3.6,1s-1.5,0.2-1.5,0.2
	S396.3,1031.3,396.8,1030.4z"></path>
<path id="color_x5F_2" fill="#5c7cfa" d="M870.6,1703.3c-0.1,1.6,0,3,0.2,4.4v-0.1c-6.4-1.4-11.7,0.6-15.1,3
	c-2.1-4.9-3.4-10.5-4.1-15.7c8.3-3.9,17.6,0.6,17.6,0.6s0.6,0,1.4,0C870.7,1697.8,870.7,1700.3,870.6,1703.3z M867.4,1690.5
	c1,0.4,1.9,0.7,2.7,1c-1.2-7-3.7-9.3-3.7-9.3c-6.7,0.2-11.8-1.3-15.6-3.3c-0.1,3.2,0,7.9,0.5,13
	C855.1,1689.7,860.7,1688.2,867.4,1690.5z M872,1712.1L872,1712.1c-3.6-1-9.7-2-15.2,0.9c0.9,1.8,1.9,3.5,3.1,5
	c6.5,8.3,12.3,5.1,16,0.8C874.4,1716.8,873,1714.6,872,1712.1z M967.6,1754.6c-2.4-2.9-4.9-6-7.2-8.7c0.7,0.8,1.4,1.6,2.1,2.5
	c-2.8,0-6.7,1.1-8.9,6.6c-0.3,0.7-0.6,1.3-0.9,1.8l-3.8-4.1c1.8-2,6.2-6.6,10.2-8.2l1.3,1.3l-6.6-6.6c-0.7-0.5-1.3-0.8-1.8-0.8
	c-3.8-0.1-6.4,5.7-11.3,5.6l17.2,18.4l-0.6-0.6C959.8,1759.2,964,1755.4,967.6,1754.6z M975.5,1763.6c-1.3-1.3-2.8-2.9-4.3-4.7l0,0
	c-2.6-0.4-7.2-0.3-10,5.4c3.8,2.1,10,4.9,12.5,3.8C975.5,1767.3,975.8,1765.4,975.5,1763.6z M973.5,1253.4c3.8,9.6-1.1,27-0.9,19.4
	c0.2-5.8-2.1-11.9-4-15.1c-2.3,2.1-6.8,4.4-15.3,2.8c0,0-8.8,6.7-22.1,2.3c0,0,0.3,6.1-5.9,8.2s0.6,13.3,0.6,13.3s-3.1,2.1-6.8-5
	s-5-5.2-5.4-5.1s-6.5-7.9-3.5-14.4c0,0-4.8-7.6,0.8-14.7s11-4.8,11-4.8s6.1-14.2,19-7.4c0,0-8.8-15.8,12.2-27.3
	c20.9-11.5,27.3,11.2,27.3,11.2S991.7,1243.1,973.5,1253.4z M1079.5,1142.1v44.1l344,198.6l191.1-110.3v-44.1l-191.1,110.3
	L1079.5,1142.1z"></path>
<path id="color_x5F_1" fill="#e64980" d="M609.8,1126.2c30.8,7,66.3,3.6,89.2-0.3l0.3-6l-11.1,204.9c-7.6,9.8-19.6-6.2-20-4.9
	c-0.4,1.3-5.8-175.5-8.9-172c-3.1,3.6-19.1,202.6-19.1,202.6c-12,7.6-20-2.7-20-2.7l-10.5-224L609.8,1126.2z M665.7,915
	c6.6-0.1,6-6.1,8.8-12.8c2.7-6.8,2.1-7.8-1.3-22.8c-3.1-13.9-22.2-14.8-24.8-14.8c-0.2,0-0.4-0.1-0.6-0.2c-2-1.5-15.7-11.5-27.8-1.3
	c-12,10.2-4.3,23.2-3.1,25.1c0.1,0.2,0.1,0.3,0.1,0.5c0.1,4.2,11.4,7,17.4,9.3c5,2,3.1,11.6,2.2,15c-0.2,0.6,0.3,1.2,0.9,1.2h1.1
	c0.5,0,0.9-0.4,1-0.9l0.1-3.8c0-0.1,0-0.2,0-0.2c-0.2-0.8-0.9-5.6,8.3-10.3c9.1-4.6,2.3,8.8,1,11.1c-0.1,0.2-0.1,0.5-0.1,0.7
	C651.4,918.7,659.1,915,665.7,915z M607.8,909.2c0.1-0.3,0.4-0.5,0.7-0.6c1.7-0.3,6.8-0.7,7.5,3.7c0.8,5.3-1.2,7.4-2.7,5.4
	s-3.2,3.1-5.3-1C606.4,913.6,607.4,910.4,607.8,909.2z"></path>
</svg>