<?xml version="1.0" standalone="no"?>
<svg version="1.1" id="Layer_1" xmlns="http://www.w3.org/2000/svg" xmlns:xlink="http://www.w3.org/1999/xlink" x="0px" y="0px" width="595.28px" height="595.28px" viewBox="0 0 595.28 595.28" enable-background="new 0 0 595.28 595.28" xml:space="preserve">
<path id="color_x5F_2" fill="#e64980" d="M175.392,200.407c-0.046,0.025-0.092,0.048-0.138,0.073
	c0.014-0.023,0.033-0.043,0.045-0.066C175.33,200.412,175.36,200.409,175.392,200.407z M436.546,295.159
	c-0.073,0.436-0.151,0.984-0.233,1.607c0.675-2.136,1.568-4.205,2.765-6.183C437.72,292.259,436.765,293.845,436.546,295.159z
	 M261.021,198.586c0.995,0.977,1.922,2.291,2.766,3.741c2.837-5.595,4.565-12.14,10.201-15.229c0.164-0.122,0.314-0.205,0.454-0.254
	c0.478-0.236,0.978-0.452,1.511-0.638c0.446-0.155,1.71-0.556,1.989,0.088c0.771,1.78,1.051,3.588,0.984,5.379
	c0.49-0.356,1.024-0.666,1.588-0.945l0.23-0.52c0.054-4.75,0.108-9.501,0.163-14.252c-6.363-0.073-12.727-0.146-19.09-0.219
	C261.688,183.359,261.16,190.965,261.021,198.586z M220.982,248.996c-0.112,0.248-0.236,0.498-0.377,0.751
	c-0.008,0.138-0.018,0.275-0.026,0.413c0.143-0.074,0.283-0.15,0.427-0.223c-0.028-0.091-0.046-0.189-0.041-0.303
	C220.975,249.422,220.975,249.208,220.982,248.996z M224.777,250.261c0.002,0.001,0.002,0.003,0.004,0.004c0-0.002,0-0.003,0-0.005
	C224.779,250.26,224.779,250.261,224.777,250.261z M167.814,203.553l-0.452,0.207c0.186-0.065,0.37-0.131,0.556-0.197
	C167.883,203.557,167.85,203.56,167.814,203.553z M260.729,223.348c-3.412,7.542-6.867,15.22-11.258,22.237
	c0.387,2.417,0.842,4.822,1.439,7.195c0.278,1.105-2.623,1.871-2.898,0.776c-1.726-6.852-2.254-13.939-3.287-20.913
	c-0.9-6.08-1.586-13.951-5.371-19.073c-5.58-7.551-14.621-9.481-23.086-12.535c3.608,4.935,4.58,13.477,5.407,18.44
	c1.595,9.567,2.606,19.428,2.241,29.146c0.633-0.257,1.273-0.503,1.928-0.73c0.485-0.168,1.533-0.145,1.688,0.505
	c0.562,2.357-0.074,4.189-1.269,5.742c2.842,0.626,4.87,2.271,2.716,5.184c-0.74,1.001-1.61,1.907-2.546,2.752
	c0.539-0.089,1.012-0.055,1.099,0.203c1.646,4.87-1.043,8.225-5.116,10.512c0,13.121,0,26.242,0,39.362c4.852,0,9.703,0,14.555,0
	c-1.828-16.27-2.906-32.645-4.07-48.971c-0.953-13.377-2.352-26.888-2.423-40.309c-0.005-0.91,2.896-1.37,2.898-0.776
	c0.073,13.823,1.517,27.741,2.509,41.518c0.184,2.553,0.365,5.108,0.548,7.663c0.267,0.088,0.485,0.246,0.598,0.499
	c2.271,5.121,6.87,13.147,12.834,7.337c0.413-0.403,0.797-0.837,1.187-1.265c0.119-0.247,0.363-0.51,0.663-0.724
	c3.876-4.548,6.544-10.267,8.94-15.633c3.203-7.173,5.934-14.54,8.598-21.927c1.19-3.298,2.11-7.466,4.038-10.563
	c-0.14-0.024-0.259-0.07-0.345-0.144C269.51,225.9,265.227,223.966,260.729,223.348z M536.974,342.158
	c-0.981-9.889-2.62-19.716-4.629-29.446c-2.133-10.33-5.491-19.698-13.579-26.968c-3.93-3.532-8.233-6.57-12.574-9.563
	c-6.438,7.615-9.453,17.935-11.036,27.588c-2.581,15.728-2.063,31.747-0.336,47.539c0.009,0.083,0.018,0.167,0.026,0.251
	c2.981-0.65,5.942-1.423,8.894-2.244c2.052-0.571,4.1-1.163,6.146-1.756c-0.261-0.931-0.166-2.276-0.195-2.98
	c-0.168-3.973-0.444-8.788,1.211-12.51c0.131-0.293,0.4-0.512,0.724-0.656c-2.104-8.612-3.249-17.558-4.07-26.168
	c-0.132-1.387,2.772-2.09,2.898-0.776c1.291,13.536,3.372,27.903,8.743,40.49c0.201-0.052,0.402-0.107,0.604-0.159
	c1.718-0.439,2.049,0.77,0.324,1.211c-2.371,0.607-4.736,1.265-7.1,1.937c-0.022,0.035-0.036,0.067-0.063,0.104
	c-0.509,0.698-1.507,0.915-2.251,0.557c-9.754,2.8-19.521,5.665-29.675,6.197c0.52,0.061,0.938,0.333,0.938,0.884
	c0,3.653,0,7.306,0,10.959c0,0.012-0.005,0.022-0.005,0.034c0.087-0.016,0.17-0.028,0.241-0.028c4.151,0,8.304,0,12.455,0
	c0.299-0.061,0.593-0.064,0.837,0c6.059,0,12.117,0,18.175,0c0.573-0.17,1.196-0.195,1.509,0c3.69,0,7.381,0,11.072,0l8.233-0.133
	c2.486-1.936,2.753-6.422,2.931-9.287C537.732,352.208,537.47,347.163,536.974,342.158z M513.118,375.604
	c-0.066-2.543-0.239-5.082-0.599-7.613c-5.46,0-10.92,0-16.38,0c0.902,10.333,3.401,24.064,16.896,20.323
	c0.027-4.055,0.175-8.112,0.092-12.16C512.387,376.188,512.619,375.902,513.118,375.604z M216.527,279.643
	c0.029,0.832,0.042,1.638,0.094,2.337c0.025,0.336,0.055,0.675,0.084,1.014c-0.063-1.011-0.129-2.084-0.109-3.141
	C216.576,279.777,216.549,279.715,216.527,279.643z M202.044,208.883c0.622-0.024,1.112-0.183,1.512-0.422
	c-0.038-0.065-0.069-0.141-0.11-0.202c-0.125-0.184,0.401-0.532,1.045-0.772c0.812-1.523,0.395-3.958-0.207-5.629
	c-0.631,0.206-1.412,0.252-1.752,0.026c-0.651,0.131-1.307,0.056-1.46-0.383c-0.594-1.711-1.36-3.435-2.249-5.058
	c-0.105,0.669-0.189,1.342-0.256,2.015c-0.071,0.721-0.301,1.734-0.076,2.449c0.005,0.015,0,0.03,0.002,0.045
	c0.28,0.446-0.65,1.072-1.539,1.291C196.617,205.479,198.284,209.031,202.044,208.883z M221.063,245.561
	c0-0.028-0.001-0.056,0-0.084c-0.012,0.013-0.02,0.027-0.031,0.04C221.043,245.531,221.051,245.547,221.063,245.561z
	 M202.604,196.787c-0.028-0.115-0.043-0.222-0.053-0.327l-0.427-0.012c0.12,0.235,0.244,0.468,0.358,0.706
	C202.508,197.026,202.543,196.905,202.604,196.787z M201.554,210.55c-0.141,0.011-0.274,0.007-0.412,0.011
	c-0.834,2.655-0.091,6.935-0.074,9.475c0.038,5.775,0.129,11.549,0.189,17.324c0.052,4.924,0.155,9.861,0.001,14.785
	c-0.027,0.864,0.054,1.783-0.078,2.571c0.024-0.012,0.049-0.025,0.074-0.037c0.517-0.257,1.065-0.241,1.459-0.074
	c0.503-0.102,0.957-0.089,1.115,0.166c0.043,0.069,0.08,0.142,0.122,0.211c1.342-2.5,3.464-4.839,5.375-6.604
	c0.636-0.586,1.296-1.148,1.983-1.659c-2.308-1.452-3.518-15.718-3.857-17.681c-0.799-4.622-1.571-9.249-2.428-13.86
	c-0.268-1.441-0.368-3.557-0.858-5.262C203.344,210.262,202.46,210.477,201.554,210.55z M199.941,283.75
	c0.005-0.043,0.011-0.089,0.016-0.132c-0.032,0.014-0.064,0.029-0.097,0.043C199.889,283.689,199.916,283.719,199.941,283.75z
	 M173.019,294.159c-0.589,0.162-1.181,0.311-1.774,0.46c0.017,0.103,0.035,0.22,0.053,0.34c1.064,1.849,1.144,3.927,0.606,6.053
	c-0.008,0.819-0.106,1.397-0.356,1.48c-0.039,0.013-0.096,0.063-0.148,0.101c-1.379,3.604-4.242,7.208-6.814,9.936l-1.337,1.671
	c0.015,0.098-0.017,0.216-0.113,0.359c-2.636,3.911-5.512,7.734-8.549,11.45c0.175,0.146,0.28,0.354,0.268,0.639
	c-0.239,5.442-3.287,11.136-3.363,16.661l0.349,3.139c0.521,2.072,1.681,3.535,3.234,4.522l3.476,1.391
	c3.593,0.829,7.858,0.423,11.028-0.22c0.149-0.03,0.276-0.024,0.407-0.026c1.589-4.848,3.21-9.687,4.833-14.523
	c1.814-5.403,3.637-10.802,5.436-16.21c0.688-2.072,2.314-5.242,2.411-7.327c-0.063-0.056-0.082-0.128-0.03-0.22
	c0.164-0.292,0.332-0.435,0.618-0.615c0.008-0.005,0.032-0.014,0.044-0.02c0.311-0.5,1.148-1.048,1.812-1.048
	c0.523,0,1.047,0,1.57,0c0.044-7.539,0.402-15.072,0.474-22.611l-2.59,0.707C180.773,291.735,176.939,293.082,173.019,294.159z
	 M203.776,199.751c0.155-0.161,0.3-0.329,0.45-0.492c-0.114-0.047-0.22-0.106-0.336-0.15c-0.165,0.058-0.343,0.078-0.515,0.063
	c0.096,0.236,0.182,0.473,0.271,0.709C203.69,199.838,203.734,199.795,203.776,199.751z M156.014,313.074l-5.38-1.937
	C152.292,312.041,154.125,312.643,156.014,313.074z M213.614,245.322c0.009-0.004,0.019-0.008,0.026-0.012
	c-0.135-0.582-0.285-1.173-0.453-1.774c0.051,0.269,0.1,0.527,0.143,0.761C213.418,244.639,213.518,244.98,213.614,245.322z
	 M303.078,228.021c-0.001,0.1-0.033,0.193-0.077,0.282c6.645,0.077,13.288,0.152,19.933,0.228c0.303-27.993,0.18-55.99,0.496-83.983
	c0-0.044,0.013-0.086,0.022-0.129c-6.71-0.077-13.421-0.153-20.132-0.229C303.031,172.132,303.383,200.078,303.078,228.021z
	 M190.297,196.18c0.018-0.018,0.032-0.036,0.05-0.053l-1.75-0.048c0.157,0.132,0.318,0.26,0.482,0.383
	C189.541,196.295,189.945,196.189,190.297,196.18z M325.212,143.003v-0.177l-6.841,0.099
	C320.651,142.951,322.932,142.977,325.212,143.003z M340.188,228.404c0.151-12.96,0.335-25.919,0.525-38.879l-0.834,38.873
	L340.188,228.404z M343.078,228.271c-0.001,0.064-0.014,0.125-0.032,0.186l10.188,0.187c3.152,0.036,6.303,0.072,9.454,0.108
	c0.414-36.205,0.827-72.411,1.24-108.616c-6.452-0.074-12.903-0.148-19.355-0.222C344.154,156.034,343.496,192.151,343.078,228.271z
	 M381.328,228.771c0,0.019-0.008,0.037-0.01,0.055c6.486,0.075,12.974,0.149,19.461,0.222c0.48-41.251,1.176-82.5,1.65-123.751
	c0.002-0.159,0.068-0.303,0.174-0.436l-20.031,0.373C382.108,146.413,381.794,187.593,381.328,228.771z M198.463,210.482
	c0.037-0.082,0.105-0.157,0.191-0.227c-0.306-0.093-0.598-0.207-0.879-0.337c0.188,0.324,0.379,0.648,0.549,0.977
	C198.368,210.755,198.406,210.609,198.463,210.482z M128.028,352.5c0.05-0.083,0.105-0.157,0.159-0.234c0-0.056,0-0.111,0-0.167
	c-0.101,0.078-0.203,0.156-0.305,0.234C127.938,352.384,127.986,352.44,128.028,352.5z M105.356,359.667
	c-4.894-1.626-9.108-5.658-12.644-9.25c-3.811-3.873-7.363-8.029-10.585-12.418c-0.192,11.856,3.128,23.932-0.728,35.479
	c-3.432,10.274-10.334,18.186-9.149,29.475c0.036,0.011,0.075,0.021,0.106,0.037c3.574,1.844,7.672,2.544,11.904,2.401l9.104-1.482
	c6.284-1.773,12.247-4.938,16.6-8.509c1.876-1.54,3.371-3.22,4.567-5.008c0.641-1.112,1.274-2.273,1.877-3.419
	c3.836-8.639,2.38-19.149,2.291-28.846C114.303,360.176,109.713,361.114,105.356,359.667z M159.687,315.018
	c-0.394,0.146-0.78,0.238-1.005,0.208c-4.305-0.568-8.928-1.446-12.404-4.064c-0.57,0.038-1.108-0.134-1.278-0.62
	c-0.004-0.011-0.006-0.022-0.01-0.033c-4.253,3.094-8.704,5.916-13.108,8.798l-1.002,0.852l-0.893,0.399
	c-1.049,0.696-2.096,1.397-3.131,2.111c-3.815,2.632-8.273,5.451-11.974,8.839c0.017,0.017,0.031,0.036,0.048,0.054
	c0.288,0.304-0.393,0.753-1.156,1.003c-1.887,1.875-3.52,3.922-4.675,6.206c-0.529,1.046-3.46,1.162-2.748-0.247
	c1.26-2.49,3.064-4.72,5.14-6.752c-7.465-8.44-10.126-20.328-19.738-26.952c-0.504-0.347,2.014-1.507,2.721-1.02
	c9.329,6.429,12.074,17.754,19.019,26.137c1.186-1.025,2.423-1.999,3.673-2.931c-1.803-9.194-4.948-18.709-9.985-26.685
	c-2.458,2.695-7.098,1.003-10.308,0.212c-4.772-1.176-10.058-2.75-15.028-2.138c-4.92,0.607-7.911,3.486-10.05,7.564
	c-2.346,8.616,6.455,21.419,10.477,27.277c5.912,8.611,13.934,20.054,23.849,24.443c7.031,3.112,15.283-1.865,22.069-7.559
	c0-0.123,0-0.246,0-0.369c0-0.632,0.909-1.078,1.713-1.109c2.918-2.582,5.497-5.18,7.491-7.134
	c8.187-8.02,16.037-16.762,22.528-26.249C159.7,315.229,159.594,315.151,159.687,315.018z M186.975,198.417
	c0.053-0.079,0.106-0.158,0.159-0.237c-0.382-0.262-0.756-0.536-1.11-0.835c0.141,0.265,0.267,0.529,0.366,0.796
	C186.602,198.172,186.808,198.246,186.975,198.417z M220.636,272.202c-0.41,0.195-0.841,0.424-1.287,0.674
	c-0.134,0.124-0.278,0.237-0.417,0.354c0.003,0.001,0.005,0.003,0.008,0.004c0.242-0.113,0.481-0.229,0.717-0.35
	c0.232-0.326,0.727-0.569,1.235-0.696c0.007-0.004,0.014-0.009,0.021-0.014c-0.027,0.006-0.051,0.011-0.08,0.018
	C220.765,272.207,220.701,272.199,220.636,272.202z M201.545,256.611c-13.707,6.804-27.559,13.47-42.836,15.763
	c-1.984,0.298-1.177-1.659,0.32-1.884c3.455-0.519,6.834-1.287,10.157-2.231c-0.048-0.088-0.081-0.187-0.08-0.308
	c0.114-15.56,5.924-38.51-7.928-50.005c-0.835-0.693,1.867-1.833,2.686-1.154c14.033,11.646,8.31,34.835,8.147,50.619
	c5.331-1.691,10.52-3.82,15.628-6.15c-0.185-0.15-0.298-0.367-0.282-0.667c0.553-10.655,0.826-21.429-0.258-32.06
	c-0.857-8.414-1.955-21.808-10.357-26.418c-0.51-0.28-0.487-0.652-0.205-0.984c-2.928,1.546-6.118,2.709-9.307,3.863
	c-9.105,3.297-19.3,9.246-21.715,19.505c-1.424,6.052-0.732,13.045-1.049,19.266c-0.284,5.558-0.62,11.115-0.793,16.677
	c-0.176,5.635-0.276,11.288,0.02,16.921c0.214,4.06-0.205,9.78,1.607,13.815c0.248-0.682,0.536-1.344,0.914-1.957
	c1.174-1.905,5.456-4.642,7.807-3.124c0.334,0.215,0.611,0.468,0.846,0.746c0.845-1.832,1.823-3.605,2.986-5.308
	c0.445-0.651,1.773-1.296,2.503-0.67c1.823,1.563,2.438,3.321,2.449,5.176c2.356-0.746,5.135-0.88,5.414,2.164
	c0.122,1.339,0.007,2.699-0.239,4.051c0.361-0.063,0.686-0.058,0.869,0.075c0.301,0.217,0.574,0.442,0.831,0.672
	c10.722-2.557,20.735-7.318,30.796-11.778c0.203-0.146,0.484-0.262,0.788-0.348c1.024-0.452,2.05-0.9,3.077-1.342
	C206.507,272.066,205.326,263.379,201.545,256.611z M190.303,260.025c0.22-0.104,0.44-0.205,0.66-0.309
	c-0.214-0.06-0.426-0.139-0.635-0.232C190.318,259.665,190.312,259.845,190.303,260.025z M227.055,257.441
	c0.008,0.009,0.016,0.02,0.023,0.029c-0.003-0.025-0.005-0.05-0.01-0.075C227.063,257.41,227.061,257.426,227.055,257.441z
	 M225.359,255.883c0.052-0.057,0.117-0.101,0.181-0.146c-0.182-0.075-0.37-0.139-0.562-0.195c-0.122,0.114-0.248,0.226-0.374,0.337
	C224.856,255.799,225.125,255.786,225.359,255.883z M224.604,251.854c0.032-0.113,0.069-0.223,0.093-0.339
	c-0.068,0.094-0.138,0.188-0.206,0.281C224.531,251.808,224.564,251.838,224.604,251.854z M208.468,252.495
	c-0.003-0.099,0.011-0.2,0.041-0.3c-0.69,0.888-1.353,1.824-1.882,2.814c0.022-0.019,0.04-0.042,0.063-0.061
	C207.343,254.23,207.919,253.386,208.468,252.495z M224.282,263.838c0.002,0.214,0.009,0.432-0.005,0.636
	c0.295,0.016,0.576,0.147,0.767,0.361c-0.054-0.437-0.151-0.891-0.288-1.36C224.6,263.597,224.441,263.719,224.282,263.838z
	 M223.951,262.111c0.549-0.499,1.07-1.021,1.554-1.576c0.153-0.176,0.335-0.385,0.519-0.611c-0.239,0.152-0.492,0.294-0.811,0.307
	c-0.047,0.002-0.094-0.008-0.14-0.014c-0.276,0.52-0.638,1-1.104,1.454C223.955,261.88,223.951,262.029,223.951,262.111z
	 M223.445,269.932c0.015,0.026,0.018,0.058,0.029,0.085c0.085-0.101,0.164-0.204,0.244-0.307
	C223.629,269.785,223.534,269.856,223.445,269.932z M225.08,266.26c-0.024,0.063-0.047,0.124-0.074,0.188
	c0.018,0.002,0.032,0.012,0.05,0.015C225.063,266.395,225.075,266.329,225.08,266.26z M213.614,281.386
	c-0.137-1.569-0.044-3.667-0.64-5.233c-0.529,0.166-1.046,0.272-1.543,0.309c-1.375,0.266-2.652,0.463-3.746,0.603
	c-0.232,1.094-0.529,2.168-0.895,3.216c-0.003,0.007-0.005,0.014-0.008,0.021c-0.02,0.056-0.034,0.113-0.054,0.168
	c-0.087,0.243-0.457,0.437-0.902,0.571c-0.954,0.41-1.907,0.826-2.86,1.244c-0.156,2.237-0.253,4.479-0.337,6.72
	c-0.087,2.31-0.755,5.249,0.416,7.396c1.308,2.398,3.2,4.24,5.251,5.943c2.234-2.838,6.468-4.906,6.159-9.117
	C214.168,289.281,213.957,285.328,213.614,281.386z M480.35,354.839c0.019-0.003,0.037-0.007,0.055-0.01
	c-0.021,0-0.042,0.001-0.063,0.002C480.345,354.834,480.348,354.836,480.35,354.839z M444.364,287.469
	c-10.409,12.69-5.068,29.613-11.239,43.84c-0.151,0.348-0.527,0.594-0.959,0.728c4.474,8.416,9.078,16.759,14.133,24.84
	c0.714-1.047,1.627-1.849,2.736-2.471c0.9-0.673,1.894-1.286,2.986-1.814c-0.236-0.059-0.381-0.179-0.344-0.379
	c2.928-15.902-5.502-34.456,3.287-49.315c0.453-0.766,3.165-0.963,2.871-0.466c-8.75,14.79-0.427,33.246-3.257,49.126
	c1.409-0.489,2.901-0.872,4.448-1.147c0.794-0.321,1.439-0.533,1.853-0.584c0.009-0.001,0.017-0.004,0.026-0.005
	c-1.016-4.472-0.785-9.428-0.873-13.966c-0.125-6.471-0.148-12.943-0.149-19.415c-0.004-15.428,3.606-30.192,7.848-44.921
	C459.66,276.574,450.393,280.121,444.364,287.469z M491.907,351.958l-3.438,0.768c1.156-0.169,2.309-0.362,3.458-0.578
	C491.92,352.085,491.914,352.021,491.907,351.958z"></path>
<path id="color_x5F_1" d="M111.508,256.713c-0.32-0.629,0.123-1.143,0.706-1.414c0.458-0.214,1.644-0.443,1.956,0.171
	c0.307,0.603,0.654,1.202,1.136,1.684c0.45,0.45,1.016,0.768,1.579,1.055c0.654,0.333,0.244,1.108-0.179,1.411
	c-0.599,0.428-1.413,0.533-2.071,0.198C113.236,259.105,112.22,258.111,111.508,256.713z M137.28,113.754
	c-3.508-4.362-2.367-10.113,2.749-12.631c3.957-1.947,9.879-2.013,12.451,2.225c2.229,3.669,1.846,8.267-1.586,11.047
	C147.104,117.469,140.689,117.229,137.28,113.754z M139.966,112.601c2.87,2.925,9.046,3.236,10.571-1.309
	c0.795-2.363,0.583-5.234-1.053-7.231c-2.265-2.762-6.571-3.599-9.333-0.897C137.302,105.952,137.576,109.629,139.966,112.601z
	 M91.646,169.845c-1.325-1.716-1.291-4.221-1.257-6.285c0.029-1.774,0.06-3.675,1.363-5.025c1.334-1.383,3.414-2.121,5.039-3.149
	c-0.594-1.684-1.758-3.84-1.4-5.434c0.505-2.256,3.047-4.495,4.774-5.847c2.871-2.246,5.445-1.688,8.435-0.993
	c0.828-1.584,1.685-3.57,3.157-4.434c1.9-1.114,4.137-1.18,6.291-1.203c1.797-0.02,4.409-0.311,5.922,0.956
	c1.402,1.173,2.184,3.248,3.171,4.797c1.697-0.438,3.417-1.058,5.152-1.036c1.711,0.021,3.036,1.165,4.193,2.312
	c1.465,1.451,3.661,3.297,3.751,5.542c0.067,1.707-0.852,3.591-1.353,5.273c1.676,1.125,4.088,1.93,5.364,3.55
	c1.214,1.541,0.823,4.32,0.757,6.104c-0.167,4.51-2.598,5.562-5.951,7.527c0.427,1.782,1.495,3.929,1.284,5.709
	c-0.244,2.067-2.459,3.8-3.879,5.084c-1.493,1.35-3.216,2.729-5.335,2.784c-1.506,0.04-2.998-0.462-4.465-0.932
	c-0.861,1.519-1.621,3.204-2.879,4.357c-1.285,1.178-3.452,1.333-5.091,1.353c-2.091,0.025-5.131,0.316-6.988-0.929
	c-1.457-0.977-2.239-2.988-3.077-4.578c-1.669,0.532-3.408,1.195-5.105,1.092c-2.283-0.138-4.034-1.935-5.569-3.442
	c-1.221-1.197-2.864-2.724-2.845-4.592c0.018-1.863,0.912-3.773,1.341-5.604C94.839,171.98,92.7,171.212,91.646,169.845z
	 M93.335,163.377c0.013,1.646-0.267,4.44,1.377,5.491c1.483,0.948,3.125,1.651,4.636,2.565c0.669,0.405,0.492,0.959-0.004,1.369
	c-0.362,1.529-0.938,3.018-1.208,4.552c-0.235,1.338,0.476,2.253,1.367,3.203c1.003,1.068,3.187,3.84,4.942,3.622
	c1.674-0.208,3.335-0.964,4.975-1.358c1.06-0.254,1.693,0.371,1.676,1.021c0.781,1.366,1.41,3.013,2.415,4.182
	c1.124,1.307,2.955,1.257,4.563,1.271c1.628,0.015,3.273,0.371,4.161-1.209c0.759-1.351,1.497-2.691,2.363-3.979
	c0.263-0.39,1.189-0.659,1.905-0.673c0.291-0.07,0.553-0.1,0.723-0.06c1.546,0.371,3.229,1.203,4.816,1.313
	c0.434,0.03,1.351-0.939,1.666-1.225c0.893-0.806,1.801-1.645,2.578-2.567c2.07-2.461,0.4-5.022-0.182-7.822
	c-0.133-0.096-0.154-0.233,0.016-0.418c0.145-0.29,0.59-0.539,1.093-0.693c1.374-0.703,3.258-1.449,4.028-2.598
	c1.167-1.742,0.998-4.444,0.895-6.417c-0.197-3.751-2.614-4.466-5.38-6.19c-0.554,0.023-0.988-0.109-0.901-0.469
	c0.412-1.71,1.365-3.554,1.474-5.315c0.108-1.753-1.401-3.226-2.528-4.377c-0.921-0.939-2.692-3.274-4.256-2.957
	c-1.244,0.253-2.463,0.612-3.697,0.911c-0.539,0.338-1.346,0.509-1.863,0.336c-0.383-0.011-0.499-0.161-0.445-0.36
	c-1.741-2.626-2.264-5.283-5.822-5.301c-1.393-0.007-4.606-0.524-5.521,0.86c-0.854,1.294-1.549,2.692-2.358,4.016
	c-0.385,0.628-2.005,0.916-2.607,0.573c-1.56-0.315-3.082-0.851-4.646-1.114c-1.09-0.184-3.249,2.637-3.945,3.471
	c-0.972,1.164-1.708,2.27-1.182,3.803c0.517,1.503,1.08,2.96,1.459,4.509c0.042,0.171-0.116,0.347-0.376,0.503
	c0.025,0.261-0.125,0.551-0.549,0.836c-1.407,0.945-2.894,1.705-4.347,2.566C93.212,160.098,93.324,161.888,93.335,163.377z
	 M107.665,171.299c-4.526-5.629-3.264-13.231,3.429-16.524c5.154-2.536,12.705-2.523,16.038,2.965
	c2.924,4.816,2.437,10.876-2.066,14.526C120.195,176.213,112,175.716,107.665,171.299z M110.351,170.146
	c4.101,4.179,12.977,4.397,15.128-2.01c1.08-3.217,0.774-7.119-1.45-9.833c-3.245-3.959-9.475-4.905-13.368-1.097
	C106.751,161.031,107.061,166.053,110.351,170.146z M473.178,248.613c0.629,0.128,1.464-0.095,2.022-0.379
	c1.297-0.661,2.27-1.46,2.938-2.771c0.232-0.454-1.026-0.272-1.15-0.25c-0.476,0.087-1.451,0.279-1.703,0.773
	c-0.415,0.812-0.938,1.498-1.743,1.908C473.338,247.999,472.521,248.479,473.178,248.613z M125.337,112.691
	c-1.021-1.322-1.002-3.241-0.976-4.833c0.023-1.376,0.068-2.845,1.079-3.893c0.979-1.014,2.424-1.573,3.636-2.307
	c-0.457-1.239-1.232-2.751-0.974-3.908c0.38-1.694,2.293-3.382,3.592-4.398c1.15-0.899,2.545-1.554,4.04-1.514
	c0.805,0.021,1.604,0.21,2.4,0.424c0.6-1.161,1.243-2.486,2.306-3.109c1.539-0.902,3.317-0.979,5.063-0.997
	c1.435-0.016,3.422-0.214,4.618,0.788c1.022,0.855,1.602,2.351,2.313,3.497c1.222-0.325,2.451-0.738,3.705-0.722
	c1.363,0.017,2.391,0.848,3.32,1.769c1.1,1.09,2.755,2.485,2.822,4.17c0.051,1.274-0.616,2.664-0.996,3.919
	c1.247,0.826,3.021,1.43,3.964,2.625c0.924,1.172,0.64,3.228,0.59,4.589c-0.126,3.374-1.937,4.246-4.421,5.696
	c0.332,1.331,1.093,2.894,0.936,4.219c-0.186,1.576-1.888,2.902-2.97,3.881c-1.241,1.122-2.67,2.173-4.419,2.219
	c-1.019,0.027-2.021-0.259-3.01-0.569c-0.591,1.066-1.146,2.196-2.022,3c-1.073,0.984-2.862,1.139-4.236,1.156
	c-1.646,0.02-3.955,0.225-5.409-0.75c-1.023-0.687-1.598-2.047-2.183-3.194c-1.214,0.387-2.459,0.813-3.701,0.738
	c-1.766-0.107-3.121-1.461-4.312-2.629c-0.977-0.958-2.229-2.137-2.215-3.624c0.014-1.344,0.64-2.718,0.97-4.043
	C127.64,114.279,126.125,113.712,125.337,112.691z M127.308,107.677c0.009,1.139-0.21,3.166,0.934,3.896
	c1.106,0.708,2.331,1.231,3.456,1.914c0.637,0.385,0.511,0.907,0.071,1.31c-0.271,1.108-0.685,2.192-0.88,3.305
	c-0.166,0.947,0.348,1.571,0.98,2.245c0.646,0.687,2.242,2.722,3.377,2.581c1.211-0.15,2.424-0.711,3.61-0.996
	c0.996-0.24,1.617,0.299,1.673,0.905c0.58,1.015,1.049,2.239,1.795,3.106c0.795,0.924,2.064,0.88,3.207,0.891
	c1.086,0.01,2.045,0.312,2.615-0.705c0.566-1.007,1.116-2.007,1.763-2.967c0.132-0.195,0.431-0.359,0.784-0.478
	c0.564-0.252,1.216-0.37,1.815-0.227c1.054,0.252,2.195,0.786,3.285,0.925c0.084-0.036,0.196-0.095,0.328-0.202
	c0.218-0.171,0.43-0.348,0.636-0.532c0.648-0.587,1.308-1.199,1.872-1.87c1.513-1.797,0.249-3.723-0.171-5.771
	c-0.083-0.084-0.086-0.195,0.02-0.333c0.132-0.295,0.576-0.551,1.083-0.709c0.973-0.483,2.24-1.008,2.765-1.789
	c0.847-1.263,0.713-3.269,0.637-4.696c-0.145-2.75-1.891-3.289-3.916-4.536c-0.488-0.002-0.846-0.144-0.767-0.474
	c0.308-1.275,1.019-2.65,1.1-3.964c0.078-1.267-1.056-2.357-1.864-3.185c-0.553-0.563-1.928-2.364-2.889-2.169
	c-0.803,0.163-1.592,0.384-2.387,0.585c-0.618,0.432-1.682,0.631-2.174,0.279c-0.245-0.06-0.426-0.185-0.339-0.438
	c0.001-0.002,0.003-0.004,0.003-0.006c-1.129-1.802-1.59-3.646-4.006-3.66c-0.834-0.004-3.095-0.381-3.634,0.434
	c-0.638,0.965-1.155,2.008-1.76,2.995c-0.399,0.651-2.133,0.939-2.675,0.535c-1.102-0.23-2.18-0.595-3.284-0.792
	c-0.021,0.02-0.027,0.031-0.054,0.054c-0.198,0.163-0.391,0.333-0.577,0.509c-0.613,0.586-1.229,1.183-1.774,1.835
	c-0.709,0.85-1.229,1.65-0.846,2.765c0.385,1.121,0.805,2.208,1.088,3.363c0.035,0.144-0.075,0.29-0.264,0.427
	c0.035,0.265-0.11,0.563-0.545,0.855c-1.076,0.723-2.212,1.306-3.323,1.965C127.166,105.396,127.301,106.752,127.308,107.677z
	 M545.64,341.899c-0.953,9.767,0.475,21.356-5.683,29.406c-2.557,3.343-5.34,5.572-9.533,6.335
	c-0.638,0.116-1.271,0.173-1.902,0.197c0.003,0.02,0.012,0.035,0.013,0.056c0.552,14.107-0.079,31.663-8.315,43.722
	c-0.037,0.054-0.085,0.104-0.141,0.153c4.55,2.742,7.711,7.451,3.139,11.599c-5.336,4.841-14.471,4.706-21.193,4.624
	c-4.926-0.06-9.822-0.462-14.721-0.856c0,20.44,0,40.881,0,61.322c10.363-0.252,27.874-1.081,24.882,13.398
	c-0.018,0.083-0.06,0.162-0.111,0.237c1.019,0.464,1.909,1.185,2.546,2.232c1.839,3.028,1.516,6.808-1.318,9.104
	c-3.188,2.583-8.61,2.487-11.5-0.459c-2.694-3.351-2.006-7.592,1.394-9.88c-1.47-7.025-10.04-7.71-16.32-7.738
	c0.013,0.058,0.025,0.117,0.025,0.184c0,1.854,0,3.707,0,5.561c0,0.658-1,1.113-1.829,1.104c0.372,0.375,0.714,0.806,1.015,1.302
	c1.958,3.223,1.616,7.251-1.398,9.695c-3.372,2.733-9.097,2.592-12.145-0.515c-2.453-3.051-2.11-6.097-0.426-8.414
	c-0.115-0.127-0.188-0.289-0.188-0.501c0-2.79,0-5.58,0-8.37c-6.114-0.052-15.549-0.146-17.133,7.076
	c0.722,0.452,1.356,1.055,1.841,1.852c1.839,3.028,1.516,6.808-1.317,9.104c-3.188,2.583-8.611,2.487-11.501-0.459
	c-2.883-3.585-1.896-8.19,2.146-10.331c-0.218-0.023-0.371-0.089-0.398-0.215c-3.302-15.281,17.719-13.94,28.152-13.704
	c0-20.81,0-41.619,0-62.429c-7.449,0.074-14.896,0.416-22.338-0.3c-4.802-0.462-18.469-1.449-17.822-9.052
	c0.624-7.335,10.516-8.101,16.145-8.258c2.015-0.057,4.023,0.001,6.031,0.117c-7.889-1.813-15.765-3.679-23.702-5.266
	c-0.521,0.286-1.252,0.374-1.749,0.173c-0.166,0.053-0.348,0.085-0.545,0.086c-4.775,0.029-9.562,0.318-14.158-0.907
	c9.289,25.321-1.809,52.886,3.153,78.983c0.01,0.051,0.007,0.1,0.005,0.149c0.364,0.021,0.66,0.138,0.758,0.399
	c2.11,5.627,7.009,27.06-4.222,26.354c-0.291-0.018-0.754-0.026-0.869-0.372c-0.636-1.915-1.527-4.1-1.981-6.27
	c-2.606,3.175-6.108,5.576-9.89,7.293c-2.972,1.349-7.666,3.793-11.038,2.24c-1.885-0.868-2.845-2.204-3.158-3.792
	c-6.048,2.29-22.426,8.233-23.3,0.027c-0.447-4.197,5.117-9.023,7.788-11.488c3.101-2.86,6.49-5.94,10.249-8.031
	c2.053-2.476,4.323-4.768,4.992-5.959c-3.678-24.666-13.517-48.12-15.294-73.153c-0.702-9.889-0.648-21.609,5.539-29.958
	c4.65-6.274,11.559-9.196,18.932-10.235c-26.738,0-53.476,0-80.213,0c0,43.331,0,86.663,0,129.994c0,0.968-2.9,1.587-2.9,0.354
	c0-43.449,0-86.899,0-130.349c-3.416,0-6.834,0-10.25,0c0,43.331,0,86.663,0,129.994c0,0.968-2.9,1.587-2.9,0.354
	c0-43.449,0-86.899,0-130.349c-19.12,0-38.24,0-57.36,0c-0.154,36.354-6.434,72.596-3.302,108.961
	c0.084,0.969-1.29,1.601-2.177,1.456c-1.382,9.555,6.354,10.943,13.274,14.31c6.486,3.156,8.887,8.054,7.554,15.208
	c-0.211,1.13-2.328,1.551-2.842,0.775c-11.068,0-22.136,0-33.203,0c-0.22,0-0.38-0.02-0.501-0.05
	c-0.793,0.679-2.565,0.676-2.558-0.519c0.062-9.874,1.035-19.715,1.097-29.589c0-0.105,0.025-0.202,0.061-0.295
	c-0.361,0.013-0.692-0.059-0.904-0.234c-0.099-0.053-0.149-0.121-0.159-0.2c-0.046-0.09-0.079-0.19-0.079-0.313
	c-0.111-36.623-6.525-72.894-6.697-109.512c-0.031,0-0.062,0-0.092,0c-0.172,36.296-6.428,72.483-3.3,108.792
	c0.019,0.213-0.04,0.408-0.143,0.584c-0.085,5.82-1.021,11.58-1.092,17.4c-0.005,0.422-0.309,0.751-0.718,0.956
	c0.088,0.093,0.182,0.187,0.269,0.279c2.251,2.379,7.224,7.234,5.5,11.05c-3.047,6.747-15.469,1.889-21.652-0.665
	c-0.448,1.321-1.358,2.455-2.891,3.274c-3.489,1.866-7.54-0.077-10.699-1.641c-3.442-1.704-6.487-4.014-8.761-6.987
	c-0.452,1.786-1.102,3.552-1.594,5.147c-0.225,0.73-1.4,0.919-2.023,0.961c-9.439,0.638-4.507-21.153-2.899-25.765
	c0.061-0.173,0.215-0.326,0.423-0.456c4.83-26.292-6.295-53.94,3.398-79.398c-4.275,1.289-8.66,1.261-13.123,1.21
	c-0.014,0.083-0.029,0.165-0.043,0.248c-0.051,0.324-0.496,0.549-1.023,0.691c-0.125,0.139-0.301,0.278-0.553,0.411
	c-2.563,1.354-5.199,2.348-7.888,3.109c10.22,0.174,18.7,2.281,16.974,9.239c-1.753,7.06-13.572,7.995-19.279,8.474
	c-6.539,0.549-13.066,0.4-19.6,0.32c0,20.731,0,41.462,0,62.194c9.822-0.083,30.29-2.202,27.074,13.359
	c-0.018,0.083-0.06,0.162-0.111,0.238c1.019,0.463,1.909,1.185,2.545,2.232c1.839,3.028,1.516,6.808-1.316,9.104
	c-3.188,2.583-8.611,2.487-11.501-0.459c-2.697-3.354-2.005-7.601,1.402-9.887c-1.591-7.221-11.568-7.974-18.223-8.021
	c0.103,0.122,0.168,0.276,0.168,0.473c0,1.854,0,3.707,0,5.561c0,0.292-0.2,0.543-0.491,0.734c0.533,0.453,1.02,1,1.428,1.673
	c1.957,3.223,1.616,7.251-1.398,9.695c-3.372,2.733-9.098,2.592-12.146-0.515c-2.453-3.05-2.109-6.097-0.426-8.413
	c-0.115-0.127-0.188-0.29-0.188-0.501c0-2.79,0-5.58,0-8.37c-6.115-0.052-15.549-0.146-17.133,7.075
	c0.723,0.452,1.357,1.055,1.842,1.853c1.838,3.028,1.516,6.808-1.318,9.104c-3.188,2.584-8.61,2.486-11.501-0.459
	c-2.882-3.585-1.894-8.19,2.146-10.33c-0.218-0.023-0.372-0.089-0.399-0.215c-3.219-14.836,15.42-14.099,25.962-13.877
	c0-20.595,0-41.19,0-61.786c-6.044,0.468-12.078,1.03-18.158,1.047c-5.438,0.015-16.623,0.448-19.966-5.195
	c-0.703-1.188-1.038-2.301-1.095-3.339c-0.118-0.016-0.23-0.042-0.324-0.089c-17.803-9.02-10.055-37.374-9.918-52.951
	c0.001-0.074,0.015-0.146,0.038-0.214c-4.17-2.018-6.034-7.843-7.074-12.311c-1.711-7.351-2.078-14.839-3.136-22.275
	c-1.56-7.985-4.03-15.831-4.353-24.015c-0.235-5.968,0.459-12.738,7.268-14.244c14.5-3.208,13.889,26.18,14.163,35.248
	c2.803,9.108,12.91,36.503-2.618,38.277c-0.484,0.056-0.946,0.066-1.392,0.046c-0.159,8.89-1.605,17.721-1.377,26.63
	c0.22,8.538,1.54,18.471,9.168,23.395c1.589-3.679,6.996-6.02,11.557-6.75c-4.476-2.684-7.083-6.9-4.773-13.426
	c-2.052-0.36-4.046-0.964-5.949-1.851c-0.692,0.148-1.375,0.124-1.419-0.195c-1.586-11.469,5.178-18.836,8.605-29.1
	c4.51-13.504,0.093-26.898,1.395-40.65c0.013-0.134,0.088-0.254,0.199-0.363c-0.227-0.336-0.458-0.668-0.681-1.006
	c-3.628-5.519-10.468-15.563-10.452-23.851c-0.276-0.052-0.602-0.137-0.951-0.271c-6.689-0.154-6.992-5.723-5.323-11.91
	c2.875-10.656,8.102-20.938,9.079-32.048c0.969-10.999-6.436-21.855,0.294-32.283c5.417-8.393,15.155-11.426,24.683-11.837
	l0.139-0.092c3.144-3.094,6.248-6.247,10.022-8.573c2.775-1.711,8.554-4.651,11.32-1.319c4.253,5.122,2.515,11.724-0.867,16.777
	c0.463,0.038,0.874,0.235,1.049,0.651c1.69,4.045,4.193,7.699,6.452,11.438c0.163,0.27,0.169,0.53,0.079,0.765
	c0.086-0.004,0.173-0.014,0.258-0.012c1.856,0.038,4.702,0.39,5.186,2.634c0.499,2.317-0.762,4.714-1.854,6.669
	c-0.054,0.096-0.146,0.183-0.264,0.26c3.039,5.891,4.264,14.563-1.572,19.502c-3.082,2.609-7.874,2.922-9.671,7.029
	c-1.459,3.336-1.512,6.933-2.245,10.448c-0.021,0.101-0.063,0.194-0.112,0.284c6.122,9.793,13.604,19.005,15.417,30.742
	c4.802-3.141,9.639-6.237,14.243-9.649c-0.075-0.097-0.155-0.186-0.228-0.286c-0.244-0.337,0.134-0.702,0.682-0.957
	c-0.355-2.552-0.27-5.296-0.185-7.694c0.056-1.581,0.111-3.286,0.323-4.963c-0.006-0.005-0.016-0.008-0.021-0.013
	c-3.775-3.558-3.273-9.926-3.531-14.826c-0.33-6.271-0.35-12.546-0.121-18.822c0.226-6.177,0.597-12.346,0.884-18.521
	c0.223-4.798-0.324-10.124,0.438-14.843c1.479-9.16,7.972-15.465,15.663-20.021c3.014-1.785,6.328-2.924,9.603-4.074
	c0.186-0.065,0.37-0.131,0.556-0.197c2.535-0.894,5.03-1.826,7.336-3.083c0.046-0.025,0.092-0.048,0.138-0.073
	c2.632-1.456,5.011-3.351,6.888-6.16c0.125-0.186,0.398-0.33,0.729-0.437c0.017-0.128,0.033-0.257,0.051-0.387
	c-0.022-0.049-0.049-0.092-0.07-0.142c-0.117-0.266-0.021-0.52,0.194-0.733c0.407-2.696,1.024-5.648,1.144-8.519
	c-9.022-0.333-15.48-11.521-18.383-18.825c-2.782-7.005-5.691-18.769,2.953-22.712c-0.301-5.771,2.959-7.147,8.324-8.078
	c0.188-0.032,0.372-0.081,0.559-0.118c0.838-0.232,1.674-0.434,2.458-0.605c6.865-2.025,13.323-6.58,19.669-10.237
	c-0.485-0.101-0.865-0.404-0.865-0.964c0-16.438,0-32.876,0-49.314c0-0.186,0.059-0.352,0.154-0.5
	c-0.412-0.491,0.901-1.619,1.854-1.619c86.209,0,172.419,0,258.629,0c0.076,0,0.138,0.007,0.203,0.013c0-0.004,0-0.008,0-0.013
	c0-0.988,2.902-1.599,2.902-0.347c0,43.002,0,86.003,0,129.005c0.081-0.009,0.174-0.037,0.247-0.036
	c6.544-5.975,14.733-7.71,22.519-6.091c-0.727-6.835,2.549-13.912,9.045-16.925c1.861-0.863,3.878-1.413,5.916-1.626
	c0.124-0.044,0.25-0.09,0.369-0.13c0.461-0.154,1.07-0.119,1.761,0.036c4.165,0.066,8.225,1.625,11.034,5.049
	c8.127,9.905,3.577,24.18-8.745,26.585c4.905,6.702,7.938,14.98,6.969,23.363c-1.265,10.932-8.225,19.245-17.096,25.244
	c-0.154,0.104-0.477,0.198-0.841,0.264c0,2.803,0,5.606,0,8.409c4.066,3.576,8.616,6.64,13.166,9.705
	c0.556,0.012,0.98,0.182,0.837,0.565c6.116,4.127,12.165,8.331,16.931,13.907c3.833,4.484,6.234,9.415,7.946,14.651
	c0.251-0.159,0.562-0.271,0.913-0.289c5.671-0.273,13.664-0.899,15.727,5.953C552.777,319.301,548.465,331.271,545.64,341.899z
	 M61.728,375.01c8.889,4.222,6.94-13.846,6.237-17.729c-1.064-5.885-2.705-11.61-4.41-17.331c-0.12-0.043-0.198-0.107-0.202-0.2
	c-0.007-0.183-0.014-0.366-0.021-0.548c-0.054-0.177-0.105-0.355-0.159-0.533c-0.03-0.1,0.024-0.205,0.127-0.308
	c-0.228-5.978-0.458-11.982-1.449-17.89c-0.743-4.431-2.706-17.012-9.514-16.236c-9.524,1.086-3.222,24.679-0.743,34.719
	c0.136,0.037,0.229,0.098,0.244,0.193c0.107,0.69,0.204,1.382,0.297,2.074c0.101,0.448,0.186,0.85,0.242,1.168
	c0.016,0.089-0.012,0.176-0.063,0.26c0.612,5.048,0.952,10.131,1.834,15.148C55.052,362.931,56.289,372.427,61.728,375.01z
	 M506.191,276.181c-6.438,7.615-9.453,17.935-11.036,27.588c-2.581,15.728-2.063,31.747-0.336,47.539
	c0.009,0.083,0.018,0.167,0.026,0.251c2.981-0.65,5.942-1.423,8.894-2.244c2.052-0.571,4.1-1.163,6.146-1.756
	c-0.261-0.931-0.166-2.276-0.195-2.98c-0.168-3.973-0.444-8.788,1.211-12.51c0.131-0.293,0.4-0.512,0.724-0.656
	c-2.104-8.612-3.249-17.558-4.07-26.168c-0.132-1.387,2.772-2.09,2.898-0.776c1.291,13.536,3.372,27.903,8.743,40.49
	c0.201-0.052,0.402-0.107,0.604-0.159c1.718-0.439,2.049,0.77,0.324,1.211c-2.371,0.607-4.736,1.265-7.1,1.937
	c-0.022,0.035-0.036,0.067-0.063,0.104c-0.509,0.698-1.507,0.915-2.251,0.557c-9.754,2.8-19.521,5.665-29.675,6.197
	c0.52,0.061,0.938,0.333,0.938,0.884c0,3.653,0,7.306,0,10.959c0,0.012-0.005,0.022-0.005,0.034c0.087-0.016,0.17-0.028,0.241-0.028
	c4.151,0,8.304,0,12.455,0c0.299-0.061,0.593-0.064,0.837,0c6.059,0,12.117,0,18.175,0c0.573-0.17,1.196-0.195,1.509,0
	c3.69,0,7.381,0,11.072,0c2.693,0,5.387,0,8.08,0c0.034-0.029,0.061-0.056,0.099-0.085c0.02-0.015,0.036-0.033,0.055-0.047
	c2.486-1.936,2.753-6.422,2.931-9.287c0.311-5.025,0.048-10.071-0.448-15.076c-0.981-9.889-2.62-19.716-4.629-29.446
	c-2.133-10.33-5.491-19.698-13.579-26.968C514.836,282.212,510.532,279.174,506.191,276.181z M513.118,375.604
	c-0.066-2.543-0.239-5.082-0.599-7.613c-5.46,0-10.92,0-16.38,0c0.902,10.333,3.401,24.064,16.896,20.323
	c0.027-4.055,0.175-8.112,0.092-12.16C512.387,376.188,512.619,375.902,513.118,375.604z M365.074,365.872c0-2.237,0-4.475,0-6.712
	c0-0.719,1.005-1.18,1.838-1.147c-8.912-14.191-16.393-29.217-24.276-43.986c-0.003-0.005-0.01-0.009-0.013-0.015
	c-0.018-0.034-0.035-0.069-0.051-0.104c-0.034-0.076,0.019-0.166,0.123-0.26c-0.039,0-0.077,0-0.115,0
	c-1.404,0,1.307-1.144,1.889-1.144c26.302,0,52.603,0,78.904,0c1.01,0-0.109,0.59-1.035,0.922c2.88,5.396,5.706,10.826,8.566,16.238
	c3.936-10.417,2.104-22.44,5.408-32.898c0.675-2.136,1.568-4.205,2.765-6.183c0.616-1.02,1.306-2.018,2.099-2.985
	c2.907-3.545,6.455-6.231,10.233-8.616c-65.952-0.009-131.903-0.336-197.855-0.344c-1.909,2.111-4.154,3.806-6.864,4.49
	c-4.361,1.102-7.519-1.798-9.783-5.293c0.836,11.451,1.747,22.904,3.045,34.304c0,0.004-0.002,0.008-0.001,0.012
	c7.306,0,14.612,0,21.919,0c0.987,0,1.017,0.469,0.647,0.934c0.071,0.042,0.115,0.103,0.115,0.195
	c-0.004,2.196-1.551,4.996-2.241,7.029c-1.801,5.31-3.633,10.608-5.473,15.905c-2.587,7.451-4.755,15.282-7.893,22.525
	c-0.098,0.225-0.41,0.405-0.794,0.535c0.63,0,1.259,0,1.888,0c0.396,0,0.633,0.078,0.757,0.198c0.401-0.001,0.699,0.09,0.702,0.298
	c0.025,1.883,0.524,3.704,0.55,5.587c0.003,0.245-0.191,0.458-0.479,0.629c38.48,0,76.961,0,115.441,0
	C365.085,365.949,365.074,365.914,365.074,365.872z M163.736,359.274c1.327,0,2.654,0,3.982,0c-0.224-1.084,0.74-3.412,1.457-5.093
	c-5.684,1.043-15.013,1.709-18.698-3.46c-4.337-6.085-0.124-14.233,1.131-21.176c-5.094,5.893-10.589,11.461-16.299,16.523
	c-1.261,1.118-2.675,2.372-4.204,3.66c0,9.166,0,18.332,0,27.499c0,0.269-0.168,0.502-0.418,0.687c8.176,0,16.354,0,24.529,0
	c-0.001-0.023-0.008-0.042-0.008-0.065c0-3.653,0-7.306,0-10.959c0-1.026,1.88-1.519,2.629-0.901c1.307,0,2.613,0,3.921,0
	c0.034-1.654,0.323-3.281,0.395-4.93C161.104,360.734,162.653,359.274,163.736,359.274z M154.853,326.648
	c-0.239,5.442-3.287,11.136-3.363,16.661c-0.013,0.864,0.042,1.724,0.198,2.578c0.036,0.2,0.103,0.372,0.15,0.561
	c0.521,2.072,1.681,3.535,3.234,4.522c1.021,0.649,2.205,1.097,3.476,1.391c3.593,0.829,7.858,0.423,11.028-0.22
	c0.149-0.03,0.276-0.024,0.407-0.026c1.589-4.848,3.21-9.687,4.833-14.523c1.814-5.403,3.637-10.802,5.436-16.21
	c0.688-2.072,2.314-5.242,2.411-7.327c-0.063-0.056-0.082-0.128-0.03-0.22c0.164-0.292,0.332-0.435,0.618-0.615
	c0.008-0.005,0.032-0.014,0.044-0.02c0.311-0.5,1.148-1.048,1.812-1.048c0.523,0,1.047,0,1.57,0
	c0.044-7.539,0.402-15.072,0.474-22.611c0.001-0.112,0.004-0.224,0.004-0.336c-0.862,0.355-1.727,0.702-2.594,1.043
	c-3.787,1.489-7.621,2.835-11.542,3.913c-0.589,0.162-1.181,0.311-1.774,0.46c-0.046,0.012-0.092,0.024-0.139,0.036
	c0.065,0.102,0.133,0.202,0.191,0.305c1.064,1.849,1.144,3.927,0.606,6.053c-0.133,0.525-0.302,1.053-0.505,1.582
	c-1.379,3.604-4.242,7.208-6.814,9.936c-0.502,0.531-0.989,1.026-1.455,1.484c0.063,0.051,0.106,0.112,0.118,0.187
	c0.015,0.098-0.017,0.216-0.113,0.359c-2.636,3.911-5.512,7.734-8.549,11.45C154.76,326.155,154.865,326.363,154.853,326.648z
	 M152.279,294.034c0.178-0.651,0.371-1.294,0.571-1.934c0.07-0.509,0.115-1.021,0.088-1.53c0.013-0.813-0.162-1.58-0.524-2.302
	c-1.645-0.21-2.89,0.354-3.736,1.693c-0.996,2.068-1.306,4.456-1.47,6.725c-0.28,3.873-0.635,8.444,0.462,12.289
	c0.892,0.874,1.893,1.579,2.964,2.163c1.658,0.903,3.491,1.505,5.38,1.937c1.485,0.339,3.003,0.578,4.496,0.775
	c0.125,0.017,0.214,0.042,0.288,0.07c4.563-4.559,11.288-12.877,7.338-18.576c-0.046,0.009-0.091,0.021-0.136,0.03
	c-0.307,0.063-0.56,0.044-0.787-0.006c-0.428,1.405-0.932,2.78-1.402,4.093c-0.307,0.858-3.165,1.226-2.879,0.429
	c0.721-2.013,4.926-14.623-0.216-12.468c-0.289,2.18-1.188,4.458-1.814,6.687c-0.335,1.192-3.292,1.558-2.926,0.256
	c0.91-3.24,3.06-7.363,1.311-10.461c-1.482,2.531-2.63,5.193-3.522,7.997c-0.161,1.045-0.439,2.057-0.711,2.9
	c-0.379,1.177-3.336,1.524-2.926,0.255c0.062-0.191,0.118-0.388,0.178-0.583C152.247,294.354,152.23,294.21,152.279,294.034z
	 M199.941,283.75c0.005-0.043,0.011-0.089,0.016-0.132c-0.032,0.014-0.064,0.029-0.097,0.043c-3.251,1.449-6.501,2.912-9.776,4.313
	c-0.037,8.062-0.458,16.116-0.496,24.178c9.977,0,19.953,0,29.93,0c0-12.661,0-25.323,0-37.984c-1.18,0.476-2.409,0.886-3.636,1.238
	c0.479,1.23,0.595,2.772,0.646,4.238c0.029,0.832,0.042,1.638,0.094,2.337c0.025,0.336,0.055,0.675,0.084,1.014
	c0.291,3.391,0.758,6.89,0.615,10.261c-0.086,2.054-1.77,4.182-3.018,5.715c-1.037,1.273-3.549,3.05-4.141,4.546
	c-0.029,0.073-0.086,0.14-0.155,0.205c0.031,0.024,0.062,0.049,0.093,0.073c0.092,0.068,0.115,0.154,0.069,0.258
	c-0.003,0.004-0.005,0.008-0.007,0.012c-0.421,0.747-3.115,0.936-2.863,0.49c-0.283,0.502-6.186-5.608-6.688-6.53
	C198.524,294.197,199.398,288.398,199.941,283.75z M201.18,254.716c0.024-0.012,0.049-0.025,0.074-0.037
	c0.517-0.257,1.065-0.241,1.459-0.074c0.503-0.102,0.957-0.089,1.115,0.166c0.043,0.069,0.08,0.142,0.122,0.211
	c1.342-2.5,3.464-4.839,5.375-6.604c0.636-0.586,1.296-1.148,1.983-1.659c-2.308-1.452-3.518-15.718-3.857-17.681
	c-0.799-4.622-1.571-9.249-2.428-13.86c-0.268-1.441-0.368-3.557-0.858-5.262c-0.821,0.346-1.705,0.562-2.611,0.635
	c-0.141,0.011-0.274,0.007-0.412,0.011c-0.834,2.655-0.091,6.935-0.074,9.475c0.038,5.775,0.129,11.549,0.189,17.324
	c0.052,4.924,0.155,9.861,0.001,14.785C201.23,253.01,201.312,253.929,201.18,254.716z M196.953,202.243
	c-0.336,3.235,1.331,6.788,5.091,6.64c0.622-0.024,1.112-0.183,1.512-0.422c-0.038-0.065-0.069-0.141-0.11-0.202
	c-0.125-0.184,0.401-0.532,1.045-0.772c0.812-1.523,0.395-3.958-0.207-5.629c-0.631,0.206-1.412,0.252-1.752,0.026
	c-0.651,0.131-1.307,0.056-1.46-0.383c-0.594-1.711-1.36-3.435-2.249-5.058c-0.105,0.669-0.189,1.342-0.256,2.015
	c-0.071,0.721-0.301,1.734-0.076,2.449c0.005,0.015,0,0.03,0.002,0.045C198.772,201.398,197.842,202.024,196.953,202.243z
	 M204.276,193.919c-0.235-0.503-0.47-1.017-0.694-1.535c-0.848,0.675-1.882,1.214-2.771,1.728c0.465,0.756,0.904,1.535,1.314,2.335
	c0.12,0.235,0.244,0.468,0.358,0.706c0.321,0.665,0.617,1.339,0.893,2.019c0.096,0.236,0.182,0.473,0.271,0.709
	c0.043-0.043,0.087-0.087,0.129-0.13c0.155-0.161,0.3-0.329,0.45-0.492c0.476-0.517,0.934-1.047,1.334-1.629
	c0.078-0.113,0.188-0.203,0.302-0.29c-0.317-0.738-0.691-1.53-1.084-2.358c-0.165-0.136-0.332-0.268-0.493-0.409
	C204.051,194.369,204.088,194.136,204.276,193.919z M210.944,198.847c-0.888-0.425-1.759-0.879-2.605-1.376
	c-0.018,0.057-0.045,0.119-0.091,0.185c-0.549,0.799-1.195,1.513-1.865,2.212c-0.024,0.025-0.051,0.051-0.075,0.076
	c0.267,0.063,0.482,0.192,0.585,0.416c1.025,2.245,1.757,5.269,0.092,7.429c-0.091,0.118-0.193,0.223-0.29,0.333
	c0.714,1.6,0.8,3.975,1.086,5.516c0.781,4.211,1.501,8.434,2.229,12.655c0.737,4.276,1.46,8.558,2.281,12.819
	c0.096,0.495,0.566,2.714,0.896,4.424c0.051,0.269,0.1,0.527,0.143,0.761c0.085,0.465,0.147,0.846,0.173,1.075
	c0.036-0.018,0.074-0.033,0.111-0.05c0.009-0.004,0.019-0.008,0.026-0.012c1.334-0.628,2.773-0.995,4.36-0.897
	c1.552,0.096,2.513,0.499,3.03,1.104c0.012,0.014,0.02,0.03,0.031,0.044c0-0.028-0.001-0.056,0-0.084
	c0.047-8.023-0.768-16.127-2.081-24.001c-0.988-5.929-1.994-18.107-7.901-21.553C210.541,199.607,210.605,199.196,210.944,198.847z
	 M248.012,253.556c-1.726-6.852-2.254-13.939-3.287-20.913c-0.9-6.08-1.586-13.951-5.371-19.073
	c-5.58-7.551-14.621-9.481-23.086-12.535c3.608,4.935,4.58,13.477,5.407,18.44c1.595,9.567,2.606,19.428,2.241,29.146
	c0.633-0.257,1.273-0.503,1.928-0.73c0.485-0.168,1.533-0.145,1.688,0.505c0.562,2.357-0.074,4.189-1.269,5.742
	c2.842,0.626,4.87,2.271,2.716,5.184c-0.74,1.001-1.61,1.907-2.546,2.752c0.539-0.089,1.012-0.055,1.099,0.203
	c1.646,4.87-1.043,8.225-5.116,10.512c0,13.121,0,26.242,0,39.362c4.852,0,9.703,0,14.555,0c-1.828-16.27-2.906-32.645-4.07-48.971
	c-0.953-13.377-2.352-26.888-2.423-40.309c-0.005-0.91,2.896-1.37,2.898-0.776c0.073,13.823,1.517,27.741,2.509,41.518
	c0.184,2.553,0.365,5.108,0.548,7.663c0.267,0.088,0.485,0.246,0.598,0.499c2.271,5.121,6.87,13.147,12.834,7.337
	c0.413-0.403,0.797-0.837,1.187-1.265c0.119-0.247,0.363-0.51,0.663-0.724c3.876-4.548,6.544-10.267,8.94-15.633
	c3.203-7.173,5.934-14.54,8.598-21.927c1.19-3.298,2.11-7.466,4.038-10.563c-0.14-0.024-0.259-0.07-0.345-0.144
	c-3.436-2.955-7.719-4.89-12.217-5.508c-3.412,7.542-6.867,15.22-11.258,22.237c0.387,2.417,0.842,4.822,1.439,7.195
	C251.188,253.885,248.287,254.65,248.012,253.556z M256.559,200.669c-0.455,7.796,7.409,13.85,7.286,21.528
	c3.339,0.619,6.544,1.912,9.368,3.781c4.521-3.163,8.757-6.995,12.333-11.182c2.245-2.629,4.783-5.673,5.854-9.033
	c1.071-3.362,0.778-4.855-2.42-4.063c-1.987,3.268-5.653,6.16-7.645,8.699c-0.71,0.905-3.482,0.736-2.377-0.674
	c2.269-2.893,5.403-5.25,7.288-8.448c0.043-0.073,0.084-0.147,0.125-0.22c0.117-0.207,0.246-0.405,0.352-0.619
	c0.431-0.877,1.014-2.115,0.741-3.138c-0.187-0.7-0.563-2.755-1.546-1.938c-1.302,1.081-2.37,2.703-2.852,4.328
	c-0.105,0.355-0.474,0.635-0.916,0.815c-1.041,2.188-2.29,4.307-3.491,6.4c-0.438,0.763-3.151,0.964-2.869,0.472
	c2.519-4.387,5.331-8.921,5.801-13.989c-0.493,0.041-0.882-0.013-0.88-0.185c0.004-0.36,0.008-0.72,0.013-1.08
	c-0.927,0.739-1.661,1.688-2.272,2.738c-0.879,3.39-2.829,6.61-5.01,9.326c-0.511,0.636-3.382,0.957-2.664,0.063
	c1.475-1.836,2.828-3.901,3.794-6.09c-0.196-0.05-0.303-0.141-0.243-0.282c0.348-0.818,0.739-1.574,1.16-2.292
	c0.684-2.489,0.765-5.079-0.117-7.64c-5.449,3.17-6.916,11.138-9.965,16.24c-0.076,0.127-0.235,0.245-0.438,0.345
	c1.628,3.286,2.839,6.717,3.477,8.257c0.438,1.057-2.427,1.915-2.898,0.776c-1.28-3.092-2.638-6.194-4.295-9.106
	C260.573,203.269,256.81,196.375,256.559,200.669z M263.787,202.328c2.837-5.595,4.565-12.14,10.201-15.229
	c0.152-0.083,0.295-0.176,0.454-0.254c0.478-0.236,0.978-0.452,1.511-0.638c0.446-0.155,1.71-0.556,1.989,0.088
	c0.771,1.78,1.051,3.588,0.984,5.379c0.49-0.356,1.024-0.666,1.588-0.945c0.074-0.037,0.15-0.072,0.226-0.107
	c0.002-0.138,0.004-0.274,0.005-0.412c0.054-4.75,0.108-9.501,0.163-14.252c-6.363-0.073-12.727-0.146-19.09-0.219
	c-0.131,7.621-0.658,15.227-0.797,22.848C262.017,199.563,262.943,200.877,263.787,202.328z M220.965,249.634
	c0.01-0.212,0.01-0.425,0.018-0.638c-0.112,0.248-0.236,0.498-0.377,0.751c-0.107,0.194-0.226,0.389-0.348,0.584
	c0.107-0.057,0.213-0.116,0.321-0.171c0.143-0.074,0.283-0.15,0.427-0.223C220.978,249.846,220.96,249.748,220.965,249.634z
	 M205.281,257.445c2.725,5.695,3.689,12.45,2.582,18.691c0.229-0.09,0.438-0.155,0.582-0.172c1.371-0.163,3.015-0.427,4.726-0.823
	c0.525-0.31,1.417-0.581,1.992-0.519c1.292-0.376,2.577-0.834,3.776-1.388c0.242-0.113,0.481-0.229,0.717-0.35
	c0.232-0.326,0.727-0.569,1.235-0.696c0.007-0.004,0.014-0.009,0.021-0.014c0.996-0.625,1.872-1.34,2.563-2.158
	c0.085-0.101,0.164-0.204,0.244-0.307c0.723-0.946,1.198-2.023,1.337-3.248c0.007-0.068,0.02-0.134,0.024-0.203
	c0.037-0.454,0.024-0.93-0.036-1.425c-0.054-0.437-0.151-0.891-0.288-1.36c-0.156,0.122-0.314,0.244-0.474,0.363
	c-1.2,0.903-2.445,1.743-3.656,2.554c-0.548,0.367-3.467,0.676-2.236-0.148c1.89-1.266,3.855-2.579,5.562-4.132
	c0.549-0.499,1.07-1.021,1.554-1.576c0.153-0.176,0.335-0.385,0.519-0.611c0.574-0.708,1.162-1.615,1.055-2.454
	c-0.003-0.025-0.005-0.05-0.01-0.075c-0.008-0.045-0.004-0.092-0.017-0.137c-0.221-0.777-0.81-1.23-1.512-1.52
	c-0.182-0.075-0.37-0.139-0.562-0.195c-0.122,0.114-0.248,0.226-0.374,0.337c-1.522,1.343-3.348,2.506-4.89,3.708
	c-1.045,0.815-3.431,0.061-1.877-1.151c2.443-1.906,5.932-3.64,6.766-6.582c0.032-0.113,0.069-0.223,0.093-0.339
	c0.081-0.393,0.105-0.812,0.085-1.25c0-0.002,0-0.003,0-0.005c-0.002,0-0.002,0.001-0.004,0.001
	c-3.429,1.399-6.522,3.37-9.447,5.674c-0.141,0.111-0.306,0.19-0.482,0.247c-0.017,0.012-0.035,0.027-0.052,0.038
	c-0.609,0.422-3.534,0.617-2.266-0.26c0.11-0.077,0.257-0.193,0.427-0.337c-0.038-0.235,0.094-0.521,0.498-0.839
	c0.515-0.406,1.035-0.797,1.561-1.178c2.725-2.955,5.938-7.541,1.682-7.803c-2.908-0.179-5.545,3.114-7.218,5.175
	c-0.321,0.396-0.647,0.802-0.971,1.217c-0.69,0.888-1.353,1.824-1.882,2.814c-0.332,0.621-0.615,1.262-0.811,1.928
	C205.759,257.134,205.554,257.306,205.281,257.445z M205.827,281.04c-0.954,0.41-1.907,0.826-2.86,1.244
	c-0.156,2.237-0.253,4.479-0.337,6.72c-0.087,2.31-0.755,5.249,0.416,7.396c1.308,2.398,3.2,4.24,5.251,5.943
	c2.234-2.838,6.468-4.906,6.159-9.117c-0.288-3.945-0.499-7.899-0.842-11.84c-0.137-1.569-0.044-3.667-0.64-5.233
	c-0.001-0.003-0.003-0.007-0.004-0.01c-0.523,0.116-1.036,0.221-1.539,0.318c-1.375,0.266-2.652,0.463-3.746,0.603
	c-0.232,1.094-0.529,2.168-0.895,3.216c-0.003,0.007-0.005,0.014-0.008,0.021c-0.02,0.056-0.034,0.113-0.054,0.168
	C206.643,280.712,206.272,280.906,205.827,281.04z M185.496,314c-0.313,2.075-1.514,4.407-2.132,6.263
	c-1.671,5.026-3.362,10.045-5.049,15.066c-1.806,5.378-3.618,10.755-5.383,16.147c-0.419,1.28-2.729,6.175-2.256,7.238
	c0.082,0.185-0.035,0.382-0.263,0.56c24.582,0,49.164,0,73.746,0c0.002-0.013-0.002-0.025,0.004-0.039
	c3.137-7.242,5.307-15.074,7.893-22.525c1.758-5.067,3.514-10.134,5.238-15.213c0.707-2.084,2.406-5.185,2.436-7.39
	c-0.041-0.029-0.052-0.065-0.033-0.107C234.963,314,210.229,314,185.496,314z M164.16,365.987c27.686,0,55.373,0,83.06,0
	c-0.043-1.638-0.403-3.233-0.502-4.864c-27.237,0-54.473,0-81.71,0c-0.117,1.413-0.344,2.813-0.358,4.235
	C164.646,365.605,164.449,365.817,164.16,365.987z M471.061,269.414c-0.199,0.685-0.394,1.368-0.588,2.051
	c0.038,0.058,0.068,0.121,0.084,0.195c1.007,4.719,2.602,9.272,3.888,13.914c1.646-2.928,3.189-5.925,5.157-8.64
	c-1.443-3.289-2.981-6.535-4.432-9.821c-0.42,0.001-0.793-0.113-0.97-0.383c-1.006,0.906-2.062,1.749-3.155,2.547
	C471.066,269.316,471.076,269.36,471.061,269.414z M473.968,264.22c-0.18-1.926-0.537-3.831-0.914-5.732
	c-3.622,0.262-7.188-0.068-10.264-1.287c0,5.052,0,10.104,0,15.157c3.721-2.214,7.3-4.629,10.374-7.737
	C473.359,264.423,473.649,264.294,473.968,264.22z M444.364,287.469c-10.409,12.69-5.068,29.613-11.239,43.84
	c-0.151,0.348-0.527,0.594-0.959,0.728c4.474,8.416,9.078,16.759,14.133,24.84c0.714-1.047,1.627-1.849,2.736-2.471
	c0.9-0.673,1.894-1.286,2.986-1.814c-0.236-0.059-0.381-0.179-0.344-0.379c2.928-15.902-5.502-34.456,3.287-49.315
	c0.453-0.766,3.165-0.963,2.871-0.466c-8.75,14.79-0.427,33.246-3.257,49.126c1.409-0.489,2.901-0.872,4.448-1.147
	c0.641-0.114,1.285-0.214,1.939-0.29c-0.023-0.099-0.039-0.201-0.061-0.299c-1.016-4.472-0.785-9.428-0.873-13.966
	c-0.125-6.471-0.148-12.943-0.149-19.415c-0.004-15.428,3.606-30.192,7.848-44.921C459.66,276.574,450.393,280.121,444.364,287.469z
	 M370.727,358.714c0.094,0.147-0.425,0.47-1.053,0.708c24.941,0,49.883,0,74.823,0c-9.306-14.602-17.005-30.14-25.149-45.396
	c-0.004-0.005-0.01-0.009-0.013-0.015c-0.019-0.034-0.035-0.069-0.051-0.104c-0.034-0.076,0.019-0.166,0.123-0.26
	c-24.555,0-49.109,0-73.663,0C353.822,328.8,361.48,344.22,370.727,358.714z M367.902,365.987c33.974,0,67.947,0,101.92,0
	c0.322-0.177,0.721-0.276,1.098-0.274c-3.175-1.422-6.092-3.347-8.94-5.893c-2.474-2.212-5.644-0.943-8.605,0.039
	c-0.158,0.459-1.267,1.116-1.933,1.116c-27.813,0-55.627,0-83.439,0c0,1.548,0,3.097,0,4.646
	C368.002,365.753,367.963,365.874,367.902,365.987z M479.046,366.601c0-3.344,0-6.688,0-10.032
	c-0.341,0.034-0.632-0.002-0.778-0.151c-5.528-5.602-17.709-6.628-24.948-3.07c0.144,0.116-0.025,0.301-0.817,0.545
	c-0.17,0.053-0.328,0.116-0.488,0.177c-0.37,0.233-0.736,0.47-1.068,0.733c-0.137,0.108-0.428,0.211-0.764,0.29
	c-0.799,0.633-1.408,1.436-1.814,2.42c1.67,0.53,3.338,1.061,5.007,1.591c0.738-0.27,1.475-0.544,2.21-0.824
	c0.989-0.334,1.974-0.672,3.003-0.869c1.382-0.264,3.812-0.645,4.95,0.392C468.409,362.235,472.981,365.093,479.046,366.601z
	 M472.113,376.927c7.189,0,14.378,0,21.566,0c0.289,0,0.482,0.038,0.613,0.098c-0.602-2.99-0.875-6.069-1.113-8.978
	c-0.002-0.02,0.004-0.038,0.003-0.057c-3.728,0-7.455,0-11.183,0c-0.586,0.245-1.287,0.455-1.594,0.41
	c-2.836-0.415-5.42-1.073-7.843-1.999c-0.042,0.167-0.212,0.363-0.45,0.546C472.113,370.274,472.113,373.601,472.113,376.927z
	 M480.35,354.839c0.019-0.003,0.037-0.007,0.055-0.01c-0.021,0-0.042,0.001-0.063,0.002
	C480.345,354.834,480.348,354.836,480.35,354.839z M512.758,346.73c1.18-0.338,2.359-0.67,3.539-0.995
	c-1.362-3.193-2.512-6.5-3.491-9.879c-0.205,1.62-0.212,3.297-0.229,4.819C512.563,341.911,512.184,345.435,512.758,346.73z
	 M499.208,271.322c-4.358,4.643-6.576,10.628-9.358,16.301c-0.295,0.6-2.284,1.438-2.795,0.749
	c-2.237-3.023-3.433-6.818-5.848-9.695c-2.175,3.364-3.887,7.034-6.063,10.396c-0.381,0.588-2.547,1.429-2.807,0.327
	c-0.966-4.103-2.32-8.094-3.463-12.145c-3.582,13.461-6.115,26.855-6.092,41.004c0.011,6.486,0.019,12.977,0.212,19.461
	c0.114,3.824-0.03,7.936,0.882,11.679c0.044,0.182-0.107,0.365-0.36,0.526c5.668-0.226,11.428,0.981,15.485,3.836
	c0.352-0.176,0.73-0.304,1.004-0.309c2.851-0.05,5.668-0.318,8.464-0.727c1.156-0.169,2.309-0.362,3.458-0.578
	c-0.008-0.063-0.014-0.127-0.021-0.19c-1.769-16.202-2.481-33.009,0.583-49.105c1.901-9.98,5.113-20.165,12.02-27.83
	C502.734,273.802,500.959,272.578,499.208,271.322z M491.837,265.573c-2.403,4.107-5.971,7.336-8.666,11.257
	c2.323,2.335,3.574,5.439,5.198,8.287c2.479-5.324,4.867-10.68,9.24-14.785c0.032-0.03,0.074-0.059,0.119-0.087
	C495.711,268.761,493.736,267.217,491.837,265.573z M498.173,250.438l-4.212,3.524c0,0.008,0,0.015,0,0.022
	C495.464,252.88,496.867,251.692,498.173,250.438z M465.577,215.207c0.069,0.055,0.14,0.106,0.208,0.165
	c0.242-0.356,0.498-0.672,0.765-0.954C466.119,214.708,465.777,215.013,465.577,215.207z M455.896,219.575
	c0.028,0.083,0.047,0.173,0.047,0.275c-0.008,2.125-0.085,4.285-0.162,6.458c1.346,0.063,2.637,0.536,3.975,0.573
	c0.354,0.01,1.186,0.141,0.738,0.674c-0.416,0.495-1.302,0.761-1.926,0.744c-0.964-0.026-1.898-0.275-2.841-0.44
	c-0.19,5.71-0.266,11.486,1.03,16.956c2.183,9.216,8.494,12.621,17.767,11.641c0.499-0.053,0.825,0.033,1.011,0.193
	c0.145,0.088,0.25,0.212,0.285,0.386c0.527,2.637,0.984,5.261,1.12,7.94c0.313-0.002,0.557,0.068,0.635,0.249
	c1.375,3.18,2.859,6.312,4.278,9.473c2.818-3.579,6.137-6.771,8.114-10.943c0.161-0.34,0.6-0.584,1.083-0.708
	c0-4.162,0-8.324,0-12.486c0-0.406,0.418-0.74,0.936-0.926l-0.079-0.351c-0.196,0.019-0.39,0.043-0.587,0.055
	c-1.934,0.113,0.311-1.326,1.199-1.378c4.488-0.263,7.123-4.055,6.033-8.415c-0.373-1.494-1.063-3.067-2.352-3.998
	c-1.518-1.096-2.361-0.529-3.537,0.771c-0.189,0.209-0.676,0.38-1.188,0.48c-0.082,0.129-0.328,0.29-0.811,0.477
	c-7.873,3.053-12.274-2.495-15.606-9.124c-0.367-0.731-0.684-1.479-0.969-2.235c-0.199,0.1-0.381,0.175-0.405,0.183
	c-0.5,0.173-1.33,0.453-1.854,0.212c-0.517-0.237-1.71-0.808-2.316-0.517c-0.554,0.265-1.003,0.65-1.444,1.068
	c-0.461,0.436-1.345,0.601-1.946,0.667c-0.247,0.027-1.119,0.056-0.659-0.38c2.166-2.049,5.467-2.983,8.325-2.066
	c-0.697-1.99-1.252-4.028-2.053-6.004c-0.602-1.485-1.267-3.525-2.521-4.611c-0.199-0.173-0.164-0.529-0.129-0.74
	c-0.019-0.004-0.037-0.007-0.056-0.011c-0.081,0.17-0.234,0.496-0.513,1.054c-0.356,0.654-0.659,1.332-0.909,2.034
	c-0.299,0.738-3.059,1.01-2.857,0.513c0.006-0.015,0.014-0.028,0.02-0.043c-0.454,0.061-0.881,0.007-1.105-0.227
	C460.706,213.956,457.225,216.36,455.896,219.575z M201.974,72.903c0.001,0.025,0.009,0.047,0.009,0.074c0,16.438,0,32.876,0,49.314
	c0,0.001,0,0.003,0,0.004c0.7-0.378,1.4-0.747,2.1-1.089c3.199-1.564,11.796-4.493,13.947,0.599c1.524,3.607-3.67,6.5-7.37,8.218
	c3.768,0.491,7.555,1.289,11.134,2.459c2.242,0.732,8.041,2.351,7.895,5.627c-0.181,4.032-6.748,5.935-9.821,6.517
	c-1.382,0.262-2.78,0.382-4.188,0.409c0.155,6.02,1.213,11.975,1.39,17.993c0.141,4.825,0.277,10.438-2.9,14.388
	c-2.244,2.791-9.771,3.63-9.276,7.66c0.382,3.116,1.544,6.028,2.771,8.903c10.475,8.455,27.293,7.015,34.904,19.276
	c3.334,5.372,4.189,12.483,5.057,18.61c0.479,3.383,0.862,6.795,1.325,10.193c3.523-6.232,6.456-12.871,9.395-19.357
	c0.346-0.763,1.633-0.944,2.354-0.904c0.058,0.003,0.114,0.013,0.171,0.017c-0.952-6.12-12.723-21.071-4.762-24.625
	c0.711-0.317,1.404-0.385,2.078-0.264c0.187-7.029,0.636-14.047,0.748-21.079c0.001-0.053,0.014-0.104,0.032-0.155
	c-1.425-0.158,0.577-1.415,1.466-1.404c7.023,0.081,14.047,0.161,21.07,0.242c0.846-0.398,2.32-0.51,2.316-0.175
	c-0.059,5.112-0.117,10.225-0.176,15.337c0.416-0.043,0.854-0.022,0.877,0.257c0.113,1.43,0.021,2.812-0.214,4.159
	c0.153-0.101,0.304-0.209,0.464-0.297c1.859-1.022,4.304-0.932,5.158,1.333c0.625,1.659,0.508,3.24-0.054,4.747
	c1.305-0.176,2.629-0.204,3.972-0.211c0.303-0.002,0.829,0.135,0.902,0.497c1.06,5.271-2.824,10.485-6.041,14.252
	c-4.07,4.769-8.732,9.125-13.896,12.701c0.145,0.114,0.292,0.225,0.434,0.342c0.913-0.054,1.784,0.385,1.083,1.308
	c-3.183,4.189-4.377,11.244-6.167,16.1c-3.152,8.547-6.405,17.203-10.868,25.169c-1.182,2.109-2.529,4.479-4.139,6.636
	c66.343,0.011,132.686,0.342,199.029,0.346c0.153,0,0.276,0.016,0.387,0.038c1.849-1.075,3.723-2.117,5.586-3.177
	c-0.173-0.131-0.28-0.322-0.28-0.583c0-5.833,0-11.667,0-17.5c0-0.042,0.012-0.083,0.021-0.124
	c-2.356-1.619-4.219-3.999-5.281-7.354c-0.365-1.151-0.661-2.318-0.903-3.496c-0.291,0.121-0.611,0.178-0.917,0.121
	c-10.354-1.921-8.119-14.678-7.962-22.497c0.214-10.679,5.554-18.212,15.05-21.828c0-42.742,0-85.483,0-128.225
	c-0.381,0.283-0.863,0.499-1.277,0.499C373.061,72.903,287.518,72.903,201.974,72.903z M206.724,121.554
	c-0.908,0.403-1.805,0.841-2.694,1.293c1.342-0.6,2.558-1.139,3.674-1.596C207.317,121.338,206.98,121.44,206.724,121.554z
	 M185.719,175.813c1.869,3.276,1.769,7.153,1.26,10.971c0.364-0.076,0.715-0.078,0.967,0.037c3.84,1.747,6.956,4.695,10.771,6.481
	c0.26-0.088,0.533-0.144,0.786-0.158c1.339-0.735,2.784-1.563,2.853-3.154c0.006-0.125,0.076-0.245,0.184-0.356
	c-0.503-1.604-0.775-3.193-0.557-4.653c0.422-2.814,2.979-3.539,5.309-4.552c10.209-4.439,7.15-19.368,5.889-29.984
	c-0.469,0.222-1.033,0.324-1.486,0.185c-0.89-0.271-1.119-0.104-1.787,0.547c-0.5,0.488-1.371,0.717-2.049,0.549
	c-0.613-0.152-0.753-0.694-0.303-1.133c1.489-1.45,3.418-2.192,5.449-1.743c-0.133-1.292-0.226-2.507-0.243-3.604
	c-0.001-0.097,0.041-0.188,0.114-0.273c-3.149-0.189-6.322-0.729-9.444-1.199c1.06,0.801,1.861,1.738,1.69,2.729
	c-0.271,1.566-2.694,2.132-4.012,2.41c-1.218,0.47-2.402,0.696-2.643,0.739l-10.461-0.21c1.162,4.474,2.505,9.5,0.363,13.803
	c-0.139,0.279-0.451,0.49-0.818,0.626l-0.021,0.179l-0.103-0.071c-0.626,0.62-2.011,0.872-2.49,0.146
	c-0.502-0.762-1.475-1.935-2.572-2.627c-0.937-0.065-2.017-0.052-2.994,0.167c-0.158,0.091-0.315,0.191-0.473,0.301
	c-0.221,0.295-0.433,0.642-0.625,1.092c-0.717,1.287-1.012,2.657-0.885,4.108c0.545,1.566,1.72,2.137,3.059,2.894
	C182.83,171.407,184.37,173.449,185.719,175.813z M186.668,188.869c-0.217,1.348-0.448,2.673-0.627,3.944
	c0.646,1.34,1.523,2.398,2.556,3.265c0.157,0.132,0.318,0.26,0.482,0.383c1.894,1.427,4.212,2.326,6.519,3.216
	c0.037-0.265,0.075-0.521,0.1-0.75c0.145-1.334,0.328-2.666,0.64-3.973c0.011-0.044,0.032-0.087,0.059-0.129
	C192.939,193.194,190.046,190.63,186.668,188.869z M177.82,200.416c0.426-0.104,0.856-0.108,1.164,0.061
	c8.779,4.818,10.2,18.472,11.014,27.28c0.974,10.551,0.857,21.155,0.33,31.728c-0.01,0.18-0.017,0.361-0.025,0.541
	c0.22-0.104,0.44-0.205,0.66-0.309c2.434-1.153,4.853-2.34,7.263-3.534c0.142-0.201,0.478-0.419,1.061-0.578
	c-1.631,0.444-1.141,1.033-1.038-0.36c0.043-0.59,0.076-1.182,0.094-1.774c0.057-1.787,0.075-3.576,0.077-5.364
	c0.007-5.317-0.065-10.634-0.131-15.95c-0.063-5.09-0.149-10.182-0.126-15.272c0.008-1.674-0.388-4.252,0.162-5.989
	c0.044-0.139,0.082-0.285,0.139-0.413c0.037-0.082,0.105-0.157,0.191-0.227c-0.306-0.093-0.598-0.207-0.879-0.337
	c-2.789-1.3-4.279-4.384-3.646-7.901c0.027-0.149,0.117-0.286,0.244-0.409c-2.546-1.026-5.097-1.962-7.239-3.429
	c-0.382-0.262-0.756-0.536-1.11-0.835c-0.73-0.619-1.394-1.329-1.971-2.157C182.283,197.371,180.156,199.044,177.82,200.416z
	 M145.301,291.177c0.248-0.682,0.536-1.344,0.914-1.957c1.174-1.905,5.456-4.642,7.807-3.124c0.334,0.215,0.611,0.468,0.846,0.746
	c0.845-1.832,1.823-3.605,2.986-5.308c0.445-0.651,1.773-1.296,2.503-0.67c1.823,1.563,2.438,3.321,2.449,5.176
	c2.356-0.746,5.135-0.88,5.414,2.164c0.122,1.339,0.007,2.699-0.239,4.051c0.361-0.063,0.686-0.058,0.869,0.075
	c0.301,0.217,0.574,0.442,0.831,0.672c10.722-2.557,20.735-7.318,30.796-11.778c0.203-0.146,0.484-0.262,0.788-0.348
	c1.024-0.452,2.05-0.9,3.077-1.342c2.165-7.468,0.984-16.155-2.797-22.923c-13.707,6.804-27.559,13.47-42.836,15.763
	c-1.984,0.298-1.177-1.659,0.32-1.884c3.455-0.519,6.834-1.287,10.157-2.231c-0.048-0.088-0.081-0.187-0.08-0.308
	c0.114-15.56,5.924-38.51-7.928-50.005c-0.835-0.693,1.867-1.833,2.686-1.154c14.033,11.646,8.31,34.835,8.147,50.619
	c5.331-1.691,10.52-3.82,15.628-6.15c-0.185-0.15-0.298-0.367-0.282-0.667c0.553-10.655,0.826-21.429-0.258-32.06
	c-0.857-8.414-1.955-21.808-10.357-26.418c-0.51-0.28-0.487-0.652-0.205-0.984c-2.928,1.546-6.118,2.709-9.307,3.863
	c-9.105,3.297-19.3,9.246-21.715,19.505c-1.424,6.052-0.732,13.045-1.049,19.266c-0.284,5.558-0.62,11.115-0.793,16.677
	c-0.176,5.635-0.276,11.288,0.02,16.921C143.907,281.422,143.488,287.142,145.301,291.177z M111.66,289.06
	c-1.046,0.619-2.172,1.032-3.372,1.106c0.535,2.574,0.777,5.172,0.228,7.412c0.24,0.041,0.44,0.137,0.554,0.306
	c5.399,8.04,8.78,17.716,10.751,27.201c0.997-0.704,1.984-1.389,2.936-2.054c1.588-1.109,3.197-2.189,4.814-3.258
	c-0.438-0.007-0.788-0.145-0.836-0.462C124.986,307.759,117.705,298.684,111.66,289.06z M106.18,246.584
	c-0.381,5.36-2.264,10.475-5.117,15.102c0.475,0.076,0.838,0.338,0.817,0.849c-0.266,6.58,2.597,13.455,4.272,19.718
	c0.445,1.666,1.08,3.65,1.621,5.729c0.02,0.005,0.04,0.003,0.059,0.008c1.444,0.398,2.794-0.674,3.774-1.622
	c0.925-5.18,1.129-10.512,5.652-14.036c3.116-2.428,6.396-2.128,8.378-6.203c2.636-5.418,2.06-9.896-0.832-15.074
	c-0.434-0.777,0.287-1.468,1.104-1.699c0.781-1.493,1.506-3.242,1.172-4.795c-0.441-2.05-2.368-2.425-4.216-2.463
	c-0.314-0.006-0.46-0.125-0.467-0.278c-0.275-0.059-0.514-0.192-0.657-0.43c-2.234-3.7-4.654-7.323-6.405-11.286
	c-0.44,0.53-0.89,1.042-1.351,1.513c-2.508,2.561-5.32,4.96-8.395,6.911c0.393,1.791,0.596,3.568,0.641,5.326
	C106.338,244.688,106.339,245.606,106.18,246.584z M83.711,224.955c3.113-1.212,6.227-1.943,8.372-2.351
	C89.138,222.991,86.297,223.779,83.711,224.955z M82.27,333.237c5.912,8.611,13.934,20.054,23.849,24.443
	c7.031,3.112,15.283-1.865,22.069-7.559c0-0.123,0-0.246,0-0.369c0-0.632,0.909-1.078,1.713-1.109
	c2.918-2.582,5.497-5.18,7.491-7.134c8.187-8.02,16.037-16.762,22.528-26.249c-0.22-0.032-0.326-0.109-0.233-0.242
	c-0.394,0.146-0.78,0.238-1.005,0.208c-4.305-0.568-8.928-1.446-12.404-4.064c-0.57,0.038-1.108-0.134-1.278-0.62
	c-0.004-0.011-0.006-0.022-0.01-0.033c-4.253,3.094-8.704,5.916-13.108,8.798c-0.634,0.415-1.264,0.833-1.895,1.251
	c-1.049,0.696-2.096,1.397-3.131,2.111c-3.815,2.632-8.273,5.451-11.974,8.839c0.017,0.017,0.031,0.036,0.048,0.054
	c0.288,0.304-0.393,0.753-1.156,1.003c-1.887,1.875-3.52,3.922-4.675,6.206c-0.529,1.046-3.46,1.162-2.748-0.247
	c1.26-2.49,3.064-4.72,5.14-6.752c-7.465-8.44-10.126-20.328-19.738-26.952c-0.504-0.347,2.014-1.507,2.721-1.02
	c9.329,6.429,12.074,17.754,19.019,26.137c1.186-1.025,2.423-1.999,3.673-2.931c-1.803-9.194-4.948-18.709-9.985-26.685
	c-2.458,2.695-7.098,1.003-10.308,0.212c-4.772-1.176-10.058-2.75-15.028-2.138c-4.92,0.607-7.911,3.486-10.05,7.564
	C69.447,314.576,78.248,327.379,82.27,333.237z M121.828,377.954c0.108-0.024,0.216-0.041,0.318-0.041c2.051,0,4.101,0,6.15,0
	c-0.067-0.11-0.109-0.24-0.109-0.398c0-8.416,0-16.832,0-25.249c0-0.056,0-0.111,0-0.167c-0.101,0.078-0.203,0.156-0.305,0.234
	c-2.119,1.635-4.389,3.213-6.74,4.533c0.271,0.052,0.453,0.178,0.455,0.39C121.652,363.939,122.693,371.161,121.828,377.954z
	 M84.262,405.392c3.014-0.102,6.096-0.633,9.104-1.482c6.284-1.773,12.247-4.938,16.6-8.509c1.876-1.54,3.371-3.22,4.567-5.008
	c0.735-1.1,1.354-2.242,1.877-3.419c3.836-8.639,2.38-19.149,2.291-28.846c-4.398,2.049-8.988,2.987-13.345,1.54
	c-4.894-1.626-9.108-5.658-12.644-9.25c-3.811-3.873-7.363-8.029-10.585-12.418c-0.192,11.856,3.128,23.932-0.728,35.479
	c-3.432,10.274-10.334,18.186-9.149,29.475c0.036,0.011,0.075,0.021,0.106,0.037C75.932,404.834,80.029,405.534,84.262,405.392z
	 M90.96,515.12c-1.714-2.091-4.95-2.867-7.077-0.786c-2.258,2.208-2.005,5.134-0.118,7.48c2.183,2.224,6.852,2.585,8.028-0.917
	C92.426,519.01,92.269,516.716,90.96,515.12z M120.392,514.271c-1.882-2.296-5.442-3.09-7.763-0.82
	c-2.438,2.385-2.18,5.539-0.14,8.076c2.392,2.438,7.52,2.784,8.803-1.036C121.974,518.458,121.8,515.989,120.392,514.271z
	 M141.866,514.333c-2.258,2.209-2.004,5.134-0.117,7.48c2.182,2.225,6.851,2.585,8.026-0.917c0.634-1.887,0.476-4.181-0.832-5.777
	C147.229,513.028,143.993,512.253,141.866,514.333z M121.162,500.15c-0.795,0.2-1.689,0.088-1.689-0.597c0-21.093,0-42.186,0-63.279
	c-0.981-0.006-1.963-0.012-2.945-0.007c-1.614,0.071-3.228,0.168-4.839,0.28c0,20.884,0,41.768,0,62.651
	c0,0.916-2.593,1.517-2.872,0.535c-9.252-0.1-26.126-2.072-23.092,11.912c0.005,0.023-0.002,0.046-0.004,0.069
	c1.252-0.291,2.583-0.369,3.837-0.161c2.778-7.297,14.049-7.592,20.792-7.558c0.814-0.212,1.758-0.046,1.758,0.745
	c0,2.346,0,4.693,0,7.039c2.223-1.362,4.998-1.932,7.388-1.247c0-1.57,0-3.14,0-4.709c0-0.313,0.23-0.578,0.558-0.772
	c-1.514-0.093,0.612-1.29,1.436-1.295c6.689-0.042,19.52-0.042,21.767,8.071c1.099-0.305,2.274-0.445,3.419-0.372
	C148.84,497.797,130.123,500.081,121.162,500.15z M138.686,419.54c-6.142,1.108-12.463,1.461-18.71,2.421
	c-7.334,1.127-13.903,2.826-21.397,2.374c-4.452-0.269-10.058-1.106-14.58-3.075c-4.779-0.457-11.803,2.043-11.311,7.795
	c0.197,2.317,1.555,4.042,3.639,5.051c6.871,3.325,15.836,2.62,23.225,2.216c3.227-0.177,6.449-0.463,9.671-0.735
	c0.639-0.424,1.802-0.589,2.265-0.18c1.005-0.08,2.01-0.154,3.014-0.222c0.114-0.029,0.213-0.048,0.281-0.05
	c0.205-0.005,0.439-0.007,0.695-0.006c0.982-0.061,1.964-0.129,2.947-0.168c0.62-0.024,0.797,0.095,0.729,0.27
	c0.456,0.017,0.935,0.036,1.433,0.055c0.549-0.158,1.164-0.169,1.511,0.057c13.491,0.5,38.302,1.021,36.312-9.045
	C156.956,418.952,144.827,419.299,138.686,419.54z M158.126,379.751c-12.19,0-24.382,0-36.572,0
	c-0.188,1.032-0.428,2.052-0.729,3.056c-2.109,7.019-6.539,12.246-12.795,15.962c-7.93,4.71-18.693,8.913-28.551,8.161
	c-2.323,6.868,1.588,10.834,7.175,13.048c3.579,0.574,7.004,1.989,10.673,2.322c3.285,0.298,6.563,0.326,9.827-0.213
	c2.927-0.483,5.826-1.259,8.797-1.322c0.892-0.131,2.088-0.312,3.521-0.517c0.816-0.13,1.639-0.249,2.468-0.351
	c0.149-0.019,0.301-0.035,0.45-0.053c2.959-0.393,6.487-0.812,10.201-1.121c6.348-0.772,12.601-1.945,18.367-4.994
	c0.028-0.015,0.057-0.024,0.085-0.038c0.005-0.025,0.009-0.052,0.014-0.077c-0.308-0.229-0.169-0.647,0.179-1.025
	C153.324,401.6,157.755,391.019,158.126,379.751z M166.408,491.766c0.029,0.03,0.06,0.06,0.08,0.098
	c3.047,5.652,9.059,11.674,15.586,13.506c0.24-5.508-4.199-9.187-6.773-13.825c-0.17-0.307,0.564-0.748,1.344-0.958
	c3.512-21.968,13.115-42.579,16.201-64.694c1.384-9.918,2.106-21.435-2.976-30.518c-5.907-10.558-17.642-13.657-28.978-14.075
	c-0.842,10.415-4.819,20.293-6.763,30.533c4.542,0.073,9.136,0.275,13.431-1.455c0.096-0.039,0.192-0.067,0.289-0.089
	c0.203-0.467,0.396-0.936,0.614-1.402c0.451-0.963,3.363-1.206,2.725,0.159C158.91,435.269,171.468,464.391,166.408,491.766z
	 M184.957,504.879c-0.022,0.452-0.066,0.912-0.151,1.392c-0.127,0.713-1.826,0.958-2.357,0.891
	c-6.914-0.867-13.354-6.125-17.312-11.974c-1.439,6.308-3.313,18.808,0.42,21.134c0.887-2.653,1.969-5.694,1.598-8.338
	c-0.041-0.095-0.014-0.196,0.055-0.296c0.383-0.823,2.732-1.27,2.844-0.48c1.802,4.185,4.987,7.429,8.922,9.688
	c1.969,1.13,8.679,5.479,9.824,1.42C190.076,513.791,187.887,508.804,184.957,504.879z M200.447,503.255
	c0.296,1.642-0.354,3.031-2.731,3.847c-2.864,0.983-6.096,0.004-9.101-1.707c1.979,3.051,3.658,6.678,3.68,9.778
	c3.295,1.326,6.655,2.598,10.115,3.425c3.159,0.755,10.699,2.046,8.035-3.613C208.484,510.819,204.616,506.53,200.447,503.255z
	 M207.131,436.403c-4.505,17.918-11.596,35.202-14.66,53.419c4.734,0,9.47,0,14.205,0c0.014-0.433,0.033-0.865,0.038-1.299
	c0.002-0.168,0.053-0.322,0.138-0.459C205.412,470.82,206.047,453.61,207.131,436.403z M192.49,491.395
	c0.668,1.596,3.434,4.378,5.537,7.211c2.729,1.582,5.315,3.748,7.634,5.994c0.155-4.416,0.714-8.803,0.949-13.213
	c-0.032,0.002-0.066,0.008-0.097,0.008C201.84,491.395,197.165,491.395,192.49,491.395z M204.585,393.528
	c-5.312-10.316-16.101-13.785-26.954-14.46c-5.537,0-11.074,0-16.61,0c-0.008,0.213-0.019,0.426-0.029,0.64
	c10.896,0.237,23.512,2.543,30.106,12.191c5.745,8.403,6.219,19.063,5.211,28.891c-2.494,24.314-13.416,46.648-16.984,70.675
	c-0.029,0.194-0.183,0.369-0.4,0.517c1.196,1.897,2.579,3.642,3.727,5.453c0.213,0.039,0.398,0.117,0.528,0.251
	c1.622,1.686,3.513,3.169,5.448,4.475c1.846,1.245,5.781,4.269,8.191,3.442c1.584-0.543,0.314-3.063-1.582-5.801
	c-0.25-0.135-0.501-0.273-0.748-0.397c-0.459-0.23-0.414-0.544-0.131-0.833c-1.575-2.142-3.325-4.255-4.228-5.534
	c-0.552,0.011-0.991-0.157-0.927-0.59c0.059-0.395,0.135-0.786,0.198-1.18c-0.228-0.143-0.141-0.389,0.106-0.639
	c3.684-22.3,13.684-43.195,17.256-65.588C208.385,414.876,209.479,403.032,204.585,393.528z M210.157,379.067
	c-6.909,0-13.817,0-20.727,0c6.624,1.708,12.707,4.969,16.493,10.965c1.686,2.669,2.863,5.542,3.659,8.526
	C209.909,392.065,210.131,385.568,210.157,379.067z M235.205,489.612c0.022-0.15,0.083-0.285,0.164-0.409c-3.831,0-7.663,0-11.494,0
	c0.012,0.064,0.023,0.13,0.023,0.203c-0.062,9.834-1.026,19.637-1.095,29.471c0.431-0.248,0.979-0.451,1.324-0.451
	c10.67,0,21.339,0,32.009,0c1.407-9.479-4.938-11.816-12.58-15.203C237.464,500.523,234.174,496.536,235.205,489.612z
	 M240.686,379.067c-8.197,0-16.395,0-24.592,0c0.207,36.297,6.504,72.259,6.686,108.563c4.852,0,9.703,0,14.556,0
	C234.412,451.39,240.558,415.298,240.686,379.067z M383.282,505.865c4.298,2.035,12.032-4.53,14.95-7.347
	c0.159-0.154,0.408-0.267,0.689-0.343c1.455-2.054,3.205-4.021,4.535-6.241c0.031-0.053,0.075-0.102,0.126-0.149
	c-0.071-0.063-0.124-0.14-0.139-0.239c-3.65-24.749-13.548-48.27-15.331-73.379c-0.701-9.889-0.648-21.61,5.539-29.958
	c3.535-4.77,8.378-7.597,13.733-9.14c-1.002,0-2.005,0-3.007,0c-0.21,0.456-1.273,1.081-1.918,1.088
	c-11.147,0.117-21.055,4.538-24.777,15.682c-3.279,9.816-2.574,20.63-1.131,30.723c3.165,22.132,11.191,43.232,14.448,65.305
	c0.011,0.073,0.002,0.143-0.017,0.212c-0.009,0.08-0.03,0.165-0.069,0.259c-0.405,0.975-2.471,3.146-4.468,5.487
	c0.245,0.313,0.134,0.754-0.684,1.138c-0.154,0.072-0.304,0.159-0.456,0.235C382.992,502.076,381.277,504.915,383.282,505.865z
	 M393.828,504.55c-3.875,2.499-8.312,4.29-12.083,3.149c-2.755-0.833-2.776-2.779-1.646-5.041c-1.458,1.179-2.847,2.436-4.149,3.638
	c-2.742,2.53-7.119,6.061-7.869,9.946c-1.499,7.757,16.169,1.332,20.159-0.154C388.477,512.368,391.223,507.837,393.828,504.55z
	 M417.255,495.129c-4.605,6.326-12.068,11.645-19.728,12.55c-0.243,0.028-1.129,0.168-1.206-0.244
	c-0.196-1.045-0.214-2.014-0.116-2.934c-3.311,3.995-6.369,9.635-4.303,13.937c2.089,4.348,7.896,1.092,10.873-0.581
	c4.068-2.285,7.453-5.176,9.439-9.469c0.002-0.015,0.001-0.03,0.003-0.045c0.128-0.85,2.699-1.373,2.882-0.574
	c0.008,0.036,0.005,0.077,0.004,0.118c-0.002,0.019,0.004,0.034,0.001,0.054c-0.437,2.899,1.112,6.405,2.01,9.112
	c0.099,0.298,1.633-2.976,1.707-3.405c0.251-1.453,0.404-2.907,0.388-4.386C419.158,504.59,418.645,499.661,417.255,495.129z
	 M429.708,411.818c-0.169-10.6-1.539-21.161-1.62-31.764c-0.004-0.447,0.399-0.797,0.906-0.987c-3.805,0-7.609,0-11.413,0
	c-11.057,0.174-20.858,4.605-24.556,15.674c-3.279,9.816-2.573,20.63-1.131,30.723c3.165,22.131,11.192,43.232,14.448,65.305
	c0.025,0.173-0.042,0.334-0.164,0.481c0.146,0.046,0.215,0.121,0.151,0.226c-2.902,4.842-8.05,8.612-7.166,14.75
	c6.888-1.349,13.492-7.344,16.896-13.197c0.004-0.007,0.012-0.013,0.017-0.02c-0.123-0.089-0.213-0.208-0.243-0.369
	c-5.245-27.582,7.451-56.841-4.932-83.287c-0.464-0.992,2.381-1.88,2.898-0.776c0.247,0.527,0.468,1.057,0.694,1.587
	c0.124,0.008,0.244,0.027,0.352,0.071C419.635,412.164,424.652,411.862,429.708,411.818z M469.18,377.494c0-3.311,0-6.623,0-9.934
	c-103.68,0-207.357,0-311.037,0c0,3.311,0,6.623,0,9.934c5.656,0,11.313,0,16.97,0c0.21-0.072,0.417-0.117,0.592-0.114
	c0.981,0.017,1.981,0.058,2.986,0.114C275.521,377.494,372.35,377.494,469.18,377.494z M488.326,421.996
	c6.135,0.138,13.768-0.36,17.675-5.866c4.983-7.021,3.546-16.964,2.101-24.858c-0.011-0.057-0.008-0.111-0.009-0.166
	c-3.517,0.119-6.962-0.789-9.36-3.744c-2.293-2.825-3.56-6.252-4.329-9.828c-0.295,0.458-1.239,1.005-1.858,1.005
	c-7.033,0-14.064,0-21.096,0c-0.418,0.291-0.974,0.528-1.376,0.528c-13.168,0-26.337,0-39.505,0
	c0.265,0.139,0.442,0.374,0.445,0.727c0.08,10.489,1.42,20.937,1.612,31.422C450.895,414.866,469.596,421.574,488.326,421.996z
	 M453.697,515.12c-1.714-2.091-4.95-2.867-7.076-0.786c-2.259,2.208-2.005,5.134-0.118,7.48c2.182,2.225,6.851,2.585,8.027-0.917
	C455.164,519.01,455.006,516.716,453.697,515.12z M483.129,514.271c-1.881-2.296-5.442-3.09-7.763-0.82
	c-2.438,2.385-2.179,5.539-0.139,8.076c2.392,2.438,7.519,2.784,8.802-1.036C484.712,518.458,484.537,515.989,483.129,514.271z
	 M504.604,514.333c-2.258,2.208-2.004,5.134-0.117,7.48c2.182,2.225,6.851,2.585,8.027-0.917c0.634-1.887,0.476-4.181-0.833-5.777
	C509.967,513.028,506.73,512.253,504.604,514.333z M486.266,500.099c-0.5,0.158-1.068,0.194-1.445,0.038
	c-0.357,0.007-0.706,0.013-1.037,0.015c-1.68,0.01-0.451-1.207,0.619-1.558c0-20.563,0-41.125,0-61.687
	c-2.592-0.199-5.186-0.379-7.785-0.483c0,20.925,0,41.851,0,62.776c0,0.872-2.344,1.456-2.813,0.665
	c-0.107,0.024-0.201,0.04-0.266,0.04c-9.039-0.048-28.188-2.658-25.076,11.742c0.005,0.023-0.002,0.046-0.004,0.069
	c1.252-0.291,2.583-0.369,3.836-0.16c2.779-7.297,14.049-7.592,20.793-7.558c0.814-0.212,1.758-0.046,1.758,0.745
	c0,2.346,0,4.692,0,7.039c2.795-1.712,6.463-2.175,9.138-0.455c0-1.833,0-3.667,0-5.501c0-0.26,0.161-0.487,0.401-0.669
	c-0.134-0.363,1.32-1.103,1.966-1.108c6.576-0.05,17.602-0.067,19.649,7.778c1.097-0.303,2.27-0.442,3.411-0.37
	C511.401,498.908,495.771,499.813,486.266,500.099z M517.498,422.566c-6.488-3.167-13.773,0.828-20.538,1.509
	c-1.57,0.158-3.122,0.182-4.664,0.133c-4.487,0.235-8.992-0.1-13.466-0.73c-0.089,0.003-0.176,0-0.265,0.003
	c-0.405,0.019-0.632-0.042-0.738-0.147c-2.479-0.373-4.946-0.829-7.394-1.321c-6.688-1.02-13.387-2.1-20.161-2.158
	c-3.853-0.033-11.211-0.431-13.173,3.839c-1.138,2.477-0.705,5.305,1.556,6.999c5.931,4.445,15.177,4.367,22.235,4.524
	c5.23,0.117,10.461-0.086,15.689-0.124c0.357-0.197,0.764-0.333,1.091-0.32c2.607,0.103,5.208,0.305,7.81,0.521
	c0.618-0.186,1.328-0.183,1.647,0.134c3.502,0.299,7.005,0.608,10.517,0.759c6.258,0.269,17.682,1.75,22.795-2.889
	C524.091,429.989,521.391,424.466,517.498,422.566z M526.295,377.774c-3.435-0.311-6.814-1.451-10.26-1.673
	c0.055,3.88-0.083,7.769-0.104,11.654c-0.003,0.482-0.602,0.85-1.254,1.035c0.187,0.486-0.102,1.135-1.036,1.399
	c-0.839,0.237-1.709,0.438-2.59,0.595c1.447,7.964,2.813,17.89-1.794,25.114c-1.342,2.104-3.084,3.741-5.074,4.989
	c2.527-0.553,5.068-1.092,7.694-1.397c1.771-0.206,4.005,0.273,6.146,1.213c7.509-11.709,8.138-28.616,7.611-42.034
	C525.621,378.304,525.903,377.996,526.295,377.774z M547.401,312.946c-1.214-8.403-6.497-9.112-13.991-8.752
	c-0.037,0.002-0.066-0.001-0.102-0.001c1.085,3.618,1.885,7.371,2.629,11.219c2.077,10.74,3.837,21.596,4.418,32.53
	c0.307,5.764,1.318,15.781-4.034,19.809c-0.576,0.434-1.53,0.399-2.047,0.092c-0.249,0.09-0.489,0.148-0.671,0.148
	c-6.03,0-12.061,0-18.09,0c0.291,2.303,0.445,4.611,0.504,6.924c3.499-0.075,6.735,0.914,10.238,1.44
	c7.244,1.088,11.793-4.04,13.746-10.316c2.288-7.352,1.88-15.054,2.636-22.629c-0.109-0.115-0.157-0.27-0.104-0.475
	c0.087-0.334,0.179-0.672,0.27-1.009c0.082-0.668,0.171-1.335,0.277-2c0.029-0.184,0.182-0.337,0.396-0.463
	C545.869,330.882,548.679,321.786,547.401,312.946z M465.313,246.583c0.675,0.187,1.554-0.06,2.049-0.549
	c0.457-0.452,0.297-1-0.313-1.168c-1.94-0.536-2.159-2.23-1.751-3.976c0.284-1.216-2.656-0.786-2.912,0.31
	c-0.255,1.091-0.354,2.274,0.122,3.32C463.03,245.667,464.148,246.261,465.313,246.583z M459.325,233.677
	c-0.495,0.049-1.622,0.41-1.622,1.079c0,0.975,0,1.95,0,2.925c0,0.689,0.721,0.845,1.296,0.788c0.495-0.049,1.622-0.41,1.622-1.079
	c0-0.975,0-1.95,0-2.925C460.621,233.776,459.9,233.62,459.325,233.677z M199.221,161.456c-0.001-1.144-0.059-2.234-0.548-3.288
	c-0.457-0.982-3.288-0.063-2.898,0.776c0.49,1.053,0.547,2.144,0.548,3.288C196.323,163.1,199.221,162.559,199.221,161.456z
	 M207.186,168.197c1.573-0.846,2.796-1.897,3.291-3.655c0.517-1.834-0.893-3.761-2.064-4.987c-0.926-0.968-3.668,0.224-2.65,1.288
	c1.714,1.792,2.82,4.159,0.131,5.605C204.155,167.383,205.721,168.985,207.186,168.197z M300.18,228.797
	c0.309-28.25-0.057-56.5,0.25-84.75c0.009-0.8,1.545-1.293,2.377-1.176c0.219-0.074,0.429-0.119,0.598-0.117
	c4.988,0.056,9.978,0.113,14.967,0.17c2.28,0.026,4.561,0.052,6.841,0.078c0.189,0.002,0.378,0.004,0.567,0.006
	c0.937,0.011,0.911,0.343,0.532,0.683c0.006,0.026,0.017,0.05,0.017,0.079c-0.318,28.166-0.191,56.335-0.5,84.5
	c-0.002,0.158-0.068,0.303-0.173,0.435c0.429,0.369-1.135,1.278-1.892,1.27c-7.458-0.084-14.917-0.17-22.375-0.255
	c-0.787-0.009-0.893-0.246-0.683-0.523C300.395,229.154,300.178,229.028,300.18,228.797z M303.001,228.303
	c6.645,0.077,13.288,0.152,19.933,0.228c0.303-27.993,0.18-55.99,0.496-83.983c0-0.044,0.013-0.086,0.022-0.129
	c-6.71-0.077-13.421-0.153-20.132-0.229c-0.289,27.943,0.063,55.889-0.242,83.832C303.077,228.121,303.045,228.214,303.001,228.303z
	 M196.176,169.873c-0.874-0.553-3.527,0.691-2.287,1.476c2.25,1.423,4.813,1.719,7.385,1.156c0.459-0.101,1.401-0.565,1.235-1.186
	c-0.175-0.65-1.203-0.51-1.663-0.41C199.185,171.272,197.577,170.76,196.176,169.873z M113.136,243.603
	c1.208,0.638,1.819,1.859,2.735,2.807c0.651,0.673,3.389-0.383,2.703-1.093c-0.455-0.471-0.821-1.021-1.24-1.522
	c-0.525-0.63-1.146-1.133-1.872-1.516c-0.575-0.304-1.531,0.006-2.044,0.298C113.019,242.805,112.55,243.294,113.136,243.603z
	 M212.371,159.264c-0.039-1.122-0.51-2.166-0.548-3.288c-0.029-0.854-2.935-0.293-2.898,0.776c0.038,1.122,0.51,2.166,0.548,3.288
	C209.502,160.894,212.407,160.333,212.371,159.264z M340.18,229.047c0.002-0.214,0.006-0.429,0.008-0.643
	c0.151-12.96,0.335-25.919,0.525-38.879c0.338-23.076,0.7-46.151,0.967-69.228c0.002-0.157,0.067-0.3,0.17-0.431
	c-1.358-0.174,0.623-1.412,1.506-1.402c7.458,0.085,14.916,0.17,22.375,0.256c0.421,0.005,0.64,0.077,0.729,0.183
	c0.224,0.061,0.371,0.179,0.369,0.368c-0.417,36.5-0.834,73-1.25,109.5c-0.003,0.234-0.142,0.44-0.351,0.615
	c-0.376,0.388-1.274,0.815-1.794,0.809c-7.458-0.084-14.916-0.171-22.375-0.255c-0.834-0.01-0.905-0.274-0.645-0.572
	C340.269,229.299,340.178,229.195,340.18,229.047z M343.015,228.526c3.406,0.039,6.813,0.078,10.22,0.117
	c3.152,0.036,6.303,0.072,9.454,0.108c0.414-36.205,0.827-72.411,1.24-108.616c-6.452-0.074-12.903-0.148-19.355-0.222
	c-0.419,36.12-1.077,72.237-1.495,108.357c-0.001,0.064-0.014,0.125-0.032,0.186C343.038,228.48,343.025,228.503,343.015,228.526z
	 M191.142,155.432c0.609,0.302,1.513,0.09,2.055-0.263c1.652-1.079,3.411-1.934,5.323-2.442c0.424-0.113,1.413-0.521,1.249-1.135
	c-0.165-0.615-1.226-0.471-1.649-0.358c-2.396,0.636-4.657,1.684-6.731,3.038C190.999,154.525,190.512,155.12,191.142,155.432z
	 M378.531,229.777c-0.063-0.061-0.103-0.136-0.102-0.23c0.474-41.763,0.789-83.527,1.263-125.29c0.01-0.837,1.694-1.34,2.489-1.156
	c7.305,0.083,14.609,0.167,21.914,0.25c1.001,0.012,0.905,0.389,0.451,0.752c0.445,0,0.785,0.126,0.781,0.417
	c-0.479,41.604-1.185,83.207-1.664,124.811c-0.01,0.836-1.691,1.339-2.487,1.156c-7.306-0.083-14.61-0.167-21.917-0.25
	C378.531,230.23,378.383,230.027,378.531,229.777z M381.318,228.826c6.486,0.075,12.974,0.149,19.461,0.222
	c0.48-41.251,1.176-82.5,1.65-123.751c0.002-0.159,0.068-0.303,0.174-0.436c0.023-0.031,0.049-0.062,0.077-0.09
	c-6.7-0.077-13.4-0.154-20.101-0.229c-0.003,0.231-0.005,0.462-0.008,0.693c-0.464,41.178-0.778,82.358-1.244,123.536
	C381.328,228.79,381.32,228.808,381.318,228.826z M472.786,235.773c-0.849-0.897-1.053-1.873-1.054-3.075
	c-0.002-1.33-2.912-0.756-2.912,0.313c0.002,1.519,0.203,2.798,1.288,3.945C470.877,237.769,473.637,236.672,472.786,235.773z" fill="#000000"></path>
</svg>