<?xml version="1.0" standalone="no"?>
<svg version="1.1" id="Layer_1" xmlns="http://www.w3.org/2000/svg" xmlns:xlink="http://www.w3.org/1999/xlink" x="0px" y="0px" width="595.28px" height="595.28px" viewBox="0 0 595.28 595.28" enable-background="new 0 0 595.28 595.28" xml:space="preserve">
<path id="color_x5F_2" fill="#12b886" d="M116.459,423.208l-6.431,3.811c-7.477,1.278-13.689-7.517-18.114-13.484
	c-2.579-3.479-7.627-10.128-5.97-14.982c0.48,0.071,1.597-0.094,1.968-0.273C100.362,392.241,110.294,413.034,116.459,423.208z
	 M244.976,387.927c-5.019-12.032-4.328-25.219-8.367-37.497c-2.124-6.456-5.416-13.372-12.698-14.983
	c-3.145-0.695-6.333-0.869-9.518-0.717l-1.364,0.094c-2.844,0.216-5.681,0.658-8.475,1.221c-5.391,8.379-13.4,15.421-21.427,20.602
	c-2.393,1.544-5.525,3.302-8.745,4.168c-12.77,7.908-26.997,12.964-41.32,17.295c-8.582,2.595-17.511,5.007-25.739,8.585
	c-6.604,2.873-12.611,6.771-18.794,10.411c9.165-3,16.504,3.487,21.809,11.169c7.958,11.523,14.135,26.376,27.808,32.371
	c2.343,1.027,4.639,1.74,6.885,2.181h11.185c1.729-0.337,3.425-0.815,5.082-1.43l10.039-5.456c2.229-1.591,4.371-3.373,6.424-5.274
	l5.813-5.915c0.535-0.591,1.064-1.186,1.583-1.784c5.655-6.518,10.681-13.634,16.561-19.945c4.883-5.24,11.374-9.608,15.317-15.612
	c-0.714-2.036-1.424-4.074-2.119-6.115c-0.461-1.355-5.252-12.353-3.705-13.344c0.624-0.4,3.558-0.554,2.269,0.271
	c0.619-0.396,0.336-0.127,0.618,0.841c0.321,1.105,0.662,2.204,1.013,3.299c1.162,3.628,2.377,7.24,3.626,10.839
	c0.373,1.074,0.754,2.145,1.13,3.218c0.177,0.016,0.28,0.049,0.249,0.098c-0.045,0.071-0.095,0.139-0.141,0.209
	c2.722,7.748,5.55,15.467,8.712,23.043c3.639,8.721,7.308,15.951,15.14,21.773c0.629,0.467,1.267,0.917,1.909,1.36
	c0.632-0.031,1.174,0.195,1.142,0.761c7.678,5.062,16.209,8.491,24.86,11.59c0.243,0,0.486,0,0.729,0c0.695,0,0.924,0.25,0.88,0.572
	c1.837,0.65,3.676,1.291,5.512,1.932c4.18-5.878,5.979-13.053,10.2-18.903c-7.238-3.955-14.247-9.069-20.801-13.992
	C258.692,407.679,249.669,399.178,244.976,387.927z M104.55,386.304c0.133-0.058,0.269-0.11,0.402-0.167
	c-8.611,3.261-16.279,6.994-19.139,10.675c0.036-0.003,0.072-0.007,0.107-0.01C92.061,393.205,98.01,389.149,104.55,386.304z
	 M152.431,369.828c4.075-1.583,8.089-3.311,12.017-5.273L152.431,369.828z M355.261,398.632l-2.076,2.015
	c0,0.005,0.001,0.011,0.001,0.017C353.887,399.999,354.579,399.321,355.261,398.632z M502.428,438.029l4.239-1.87
	c0,0,0.318-0.676,0.855-1.713c-1.214,1.004-2.461,1.933-3.74,2.752C503.336,437.483,502.881,437.754,502.428,438.029z
	 M520.468,403.438l-6.025-0.274C516.615,403.452,518.931,403.703,520.468,403.438z M512.097,404.572
	c-5.896-0.367-11.822-0.125-17.684-1.007c-13.863-2.085-23.965-8.38-32.351-19.502c-8.932-11.846-18.226-23.5-26.787-35.614
	c-4.43-6.27-8.466-12.68-12.552-19.164c-2.082-3.304-4.177-6.197-7.836-7.867c-1.643-0.75-3.223-1.48-4.716-2.436
	c-0.643,0.028-1.285,0.066-1.928,0.123c-1.744,0.387-4.588,1.019-9.243,2.054c-0.283,0.063-0.539,0.144-0.813,0.212
	c-3.501,1.337-6.764,3.26-9.539,5.878c-6.127,5.783-9.21,12.897-11.264,20.958c-1.973,7.742-3.8,15.5-5.955,23.197
	c-1.61,5.751-2.604,12.66-5.867,17.772c-5.017,7.862-12.35,14.357-19.232,20.543c-3.302,2.968-6.655,5.878-10.027,8.766
	c-1.039,0.889-2.084,1.771-3.109,2.677c-0.425,0.375-1.011,1.32-0.816,0.561c-0.091,0.356-0.436,0.64-0.857,0.825
	c1.437,3.256,4.53,5.254,6.517,8.222c2.443,3.649,4.015,7.754,6.888,11.101c1.905-0.783,3.904-2.436,5.381-3.41
	c3.238-2.135,6.409-4.37,9.528-6.674c0.59-0.436,1.173-0.882,1.761-1.321l9.756-7.531c3.185-2.56,6.318-5.183,9.35-7.913
	c6.44-5.798,10.342-11.592,14.377-19.369c6.332-12.202,11.782-25.026,13.896-38.69c0.121-0.781,3.003-1.316,2.871-0.463
	c-1.134,7.329-3.214,14.472-5.893,21.407c0.133,0.026,0.221,0.072,0.229,0.146c0.284,2.668,1.036,5.182,2.089,7.574l7.47,11.64
	c3.808,4.877,7.386,9.839,10.986,14.853l15.73,20.089c3.205,3.347,6.674,6.361,10.469,8.742l2.527,1.453
	c0.486,0.257,0.969,0.521,1.465,0.756c1.67,0.79,3.405,1.421,5.184,1.919l7.232,0.748l7.115,0.474
	c1.437-0.123,2.872-0.316,4.301-0.566c0.007-0.237,0.017-0.473,0.015-0.712c-0.007-1.289,2.926-1.74,2.935-0.227
	c0,0.069-0.004,0.136-0.005,0.204l3.276-0.756c0.294-0.089,0.586-0.183,0.877-0.277l4.703-1.763
	c4.076-1.746,7.88-3.959,11.187-6.525c2.694-2.091,5.255-4.687,7.555-7.596c0.442-0.635,0.898-1.242,1.359-1.802
	c4.577-6.357,7.845-13.984,8.438-21.357C518.271,405.498,514.68,404.733,512.097,404.572z"></path>
<path id="color_x5F_1" d="M231.879,290.933c1.501,0.696,3.082,0.883,4.547-0.024c0.607-0.375,1.436-0.622,2.081-0.163
	c0.557,0.396,0.402,1.206-0.144,1.544c-2.529,1.565-5.404,1.916-8.145,0.644C228.533,292.151,230.633,290.355,231.879,290.933z
	 M224.256,277.959c0.338,1.013,0.695,2.071,1.442,2.863c0.732,0.775,3.491-0.305,2.685-1.159c-0.655-0.693-0.934-1.594-1.229-2.48
	C226.795,276.108,223.912,276.93,224.256,277.959z M222.954,272.304c-2.409,0.431-4.985,1.542-5.043,4.319
	c-0.012,0.548,2.878,0.128,2.897-0.776c0.014-0.635,0.17-1.277,0.582-1.775c0.372-0.449,0.712-0.525,1.055-0.586
	c0.495-0.088,1.457-0.292,1.688-0.831C224.355,272.136,223.136,272.271,222.954,272.304z M361.892,292.646
	c-0.548,0.088-1.403,0.306-1.681,0.854c-0.559,1.102-1.208,2.145-1.893,3.172c-0.351,0.526,0.301,0.619,0.718,0.599
	c0.554-0.026,1.588-0.211,1.931-0.725c0.76-1.139,1.495-2.285,2.116-3.508C363.349,292.511,362.059,292.619,361.892,292.646z
	 M374.932,278.604c-0.68-0.053-1.488,0.161-2.049,0.549c-1.002,0.693-1.696,1.643-2.537,2.502c-0.473,0.482,0.41,0.578,0.708,0.561
	c0.641-0.037,1.467-0.238,1.933-0.715c0.712-0.727,1.293-1.588,2.139-2.173C375.589,279.008,375.497,278.649,374.932,278.604z
	 M381.799,274.177c-0.018-1.043-0.29-2.053-1.159-2.703c-1.023-0.765-2.522-0.629-3.702-0.478c-0.484,0.062-1.458,0.304-1.693,0.811
	c-0.233,0.503,1.014,0.336,1.169,0.316c1.74-0.222,2.461,1.353,2.487,2.831C378.91,275.487,381.813,275.033,381.799,274.177z
	 M524.086,401.767c0,11.956-7.145,24.891-16.564,32.679c-1.214,1.004-2.461,1.933-3.74,2.752c-0.445,0.285-0.901,0.556-1.354,0.831
	c-5.768,3.498-12.139,6.137-18.751,7.736c-0.257,5.641-2.85,10.504-1.39,16.378c1.359,5.471,3.707,10.486,7.286,14.861
	c0.932,1.139-1.826,2.284-2.654,1.271c-3.856-4.714-6.943-10.727-7.817-16.812c-0.765-5.331,1.296-9.928,1.618-15.05
	c-4.888,0.942-9.874,1.315-14.812,1.046c-10.185-0.556-18.57-6.661-25.613-13.985c-9.601,3.606-20.692,6.726-30.954,4.412
	c1.602,18.12,9.54,35.631,22.79,48.201c0.796,0.755-1.936,1.856-2.688,1.142c-13.693-12.99-21.838-31.298-23.131-50.062
	c-9.572-4.934-14.271-16.862-19.301-25.847c-2.105,2.182-4.381,4.252-6.849,6.361c-4.077,3.483-8.252,6.864-12.508,10.14
	c0.059,0.094,0.104,0.201,0.119,0.331c0.597,5.274,1.194,10.547,1.792,15.821c0.148,0.732,0.176,1.143,0.235,2.17
	c0.01,0.173-0.05,0.335-0.154,0.481c0.016,0.01,0.035,0.018,0.049,0.028c2.045,1.527,3.626,5.077,5.044,7.143
	c2.834,4.132,5.652,8.274,8.463,12.421c1.625,2.396,3.249,4.793,4.869,7.193c0.911,1.35,1.997,7.278,0.473,8.445
	c-0.459,0.352-1.893,0.488-2.427,0.251c-0.345,0.175-0.717,0.299-1,0.299c-53.33,0-106.66,0-159.989,0
	c-0.468,0-0.698-0.088-0.77-0.221c-0.62,0.211-1.323,0.283-1.668,0.019c-1.345-1.03-0.076-7.137,0.758-8.372
	c1.758-2.602,3.518-5.202,5.281-7.799c2.965-4.369,5.931-8.738,8.927-13.085c1.217-1.766,2.515-4.633,4.274-5.946
	c0.04-0.03,0.106-0.067,0.186-0.106c-0.126-0.14-0.2-0.316-0.167-0.521c0.635-3.914,1.27-7.829,1.904-11.743
	c-1.335-0.924-2.639-1.896-3.892-2.939c-7.197-5.991-10.669-12.664-14.169-21.145c-0.409-0.99-0.795-1.989-1.195-2.982
	c-3.973,7.324-4.989,15.609-8.17,23.292c-1.273,3.075-2.62,5.828-4.953,7.577c0.263,0.197,0.395,0.508,0.253,0.956
	c-4.404,13.937-3.849,28.834-8.35,42.752c-0.39,1.205-3.28,1.271-2.767-0.317c4.417-13.656,3.974-28.271,8.128-41.996
	c-0.446,0.143-0.911,0.268-1.414,0.357c-8.552,1.52-21.289-2.627-26.451-10.154c-7.268,7.048-15.719,12.858-26.108,14.015
	c-2.486,0.277-5.067,0.397-7.641,0.28c-4.58,3.429-7.716,10.191-10.351,15c-3.148,5.747-6.096,11.622-8.504,17.72
	c-0.288,0.729-3.045,1-2.855,0.521c2.882-7.299,6.457-14.403,10.456-21.152c2.462-4.155,5.131-9.306,9.163-12.242
	c-3.822-0.381-7.566-1.348-10.891-3.21c-6.405-3.588-11.554-8.934-15.809-14.864c-0.311-0.433-0.637-0.925-0.974-1.45
	c-8.478,6.637-16.84,3.759-23.751-4.535c-3.943-4.731-14.77-16.132-9.609-22.704c0.28-0.356,1.119-0.536,1.817-0.598
	c0.036-0.003,0.072-0.007,0.107-0.01c6.141-3.598,12.09-7.654,18.63-10.499c0.133-0.058,0.269-0.11,0.402-0.167
	c7.338-3.148,15.051-5.303,22.624-7.8c8.377-2.762,16.733-5.355,24.855-8.51c4.075-1.583,8.089-3.311,12.017-5.273
	c2.013-1.005,4.003-2.071,5.967-3.213c-1.271-0.023-2.516-0.25-3.689-0.776c-4.156-1.863-4.333-5.375-2.81-8.784
	c-7.567,4.304-16.279,6.637-24.828,7.868c-9.717,1.398-21.208,2.542-30.691-0.735c-7.665-2.649-18.844-9.449-17.558-19.157
	c1.043-7.877,7.633-13.929,15.417-14.375c-8.388-6.584-17.766-13.783-16.581-25.708c0.46-4.634,2.492-8.857,6.862-10.994
	c6.146-3.004,9.709-1.817,15.772,0.932c0.014,0.006,0.023,0.014,0.037,0.021c-0.028-13.741,13.599-12.258,23.751-9.113
	c7.688,2.382,15.127,5.516,22.84,7.814c4.402,1.312,12.827,4.346,16.55,0.203c-0.427-0.216-0.535-0.608,0.201-1.114
	c5.178-3.557,6.615-11.313,10.054-16.294c2.108-3.054,4.61-5.297,7.862-6.272c-3.085-0.297-6.497-1.391-5.634-4.918
	c1.042-4.26,5.152-7.65,8.967-9.446c10.465-4.926,24.12,2.084,29.158,12.075c0.133,0.023,0.241,0.067,0.306,0.143
	c2.365,2.713,4.538,5.59,7.012,8.208c1.407,1.489,2.86,3.076,4.575,4.222c0.617,0.413,1.352,0.973,2.102,1.104
	c-0.754-0.132,0.257-0.863,0.501-1.121c0.897-0.953,3.239-2.266,4.538-1.235c2.573,2.042,0.27,6.21-0.29,8.777
	c-0.043,0.198-0.287,0.375-0.612,0.516c7.153,8.004,7.774,19.602-3.148,24.666c-4.32,2.003-6.712,4.457-8.414,8.861
	c-1.194,3.093-2.246,6.234-3.319,9.371c-0.771,2.253-1.407,5.806-3.063,7.89c3.452,1.01,6.493,2.862,8.643,6.003
	c7.723,11.285,6.712,25.369,9.939,38.093c1.252,4.937,3.126,9.481,5.515,13.687c0.779-9.402,1.558-18.805,2.336-28.207
	c0.063-0.772,1.224-1.237,2.065-1.133c0.042-0.003,0.082-0.01,0.125-0.01c34.266,0,68.533,0,102.799,0
	c0.26-0.04,0.51-0.035,0.723,0.021c1.007,0.132,1.103,0.908,0.644,1.453c0.759,9.169,1.519,18.338,2.278,27.507
	c1.471-2.189,2.66-4.489,3.411-6.915c2.892-9.346,5.625-18.797,7.855-28.325c1.65-7.052,3.085-14.71,6.797-21.042
	c0.62-1.057,1.299-2.055,2.006-3.023c-0.184-0.029-0.335-0.09-0.419-0.201c-3.705-4.82-6.455-10.281-10.09-15.145
	c-2.184-2.921-4.291-4.859-7.765-6.294c-1.948-0.805-4.075-1.519-5.837-2.7c-9.792-6.565-3.851-13.805-0.774-22.601
	c0.052-0.148,0.185-0.281,0.362-0.396c-0.106-0.057-0.198-0.129-0.261-0.228c-1.375-2.133-3.353-4.538-1.196-6.735
	c2.369-2.414,6.456-2.443,8.688-5.027c5.165-5.979,10.313-12.021,18.733-12.454c0.056-0.003,0.101,0.001,0.152,0.001
	c-0.002-0.048-0.012-0.096-0.003-0.144c-0.624,0.087-1.246-0.057-1.434-0.565c-2.451-6.618,8.838-14.138,14.295-14.699
	c5.476-0.563,10.343,1.116,15.435,2.895c5.003,1.748,12.179,4.768,17.275,1.989c0.05-0.14,0.11-0.274,0.156-0.416
	c0.25-0.77,1.528-1.071,2.277-0.772c0.948,0.017,1.774,0.638,0.711,1.503c-0.173,0.141-0.356,0.255-0.534,0.383
	c-0.887,2.314-2.241,4.291-3.991,5.861c1.711-0.278,3.426-0.409,5.088-0.225c4.095,0.453,7.604,2.759,11.661,3.108
	c0.481-0.188,1.028-0.13,1.429,0.079c0.391,0.066,0.526,0.252,0.495,0.481c0.146,0.322,0.067,0.727-0.415,1.147
	c-4.014,3.503-9.11,5.321-13.337,8.504c5.733-0.64,11.046,1.336,16.961,1.827c0.598,0.049,0.62,0.389,0.195,0.729
	c-6.375,5.092-7.49,13.8-13.33,19.227c1.309,0.068,3.18,0.23,4.721,0.616c0.83,0.208,1.628,0.674,2.333,1.217
	c1.13,0.67,2.134,1.598,2.928,2.844c0.307,0.481-2.004,1.441-2.752,0.92c-0.122,0.034-0.234,0.058-0.322,0.064
	c-11.524,0.784-16.822,13.735-27.68,16.361c-1.128,0.273-2.242,0.452-3.337,0.544c7.836,1.885,16.128,3.2,24.127,2.039
	c11.113-1.614,18.765-7.815,24.506-17.25c4.721-7.758,8.579-16.414,16.013-21.994c5.906-4.434,13.489-6.295,20.65-7.424
	c0.714-0.113,1.03,0.018,1.088,0.239c3.951-0.021,7.724,0.969,11.607,1.71c0.951,0.181,0.534,0.739-0.169,1.147
	c0.658-0.063,1.205,0.061,1.061,0.445c-1.065,2.838-2.2,5.61-3.78,8.206c-0.208,0.341-0.966,0.604-1.636,0.675
	c-0.074,0.194-0.315,0.404-0.798,0.603c-4.199,1.729-9.231,2.4-13.071,4.839c-4.736,3.008-7.859,7.921-10.448,12.783
	c-4.016,7.541-7.643,14.606-14.905,19.511c-11.909,8.045-27.973,12.389-41.677,7.245c0.049,0.075,0.101,0.142,0.149,0.22
	c3.698,5.868,7.244,11.741,11.232,17.43c7.899,11.267,16.761,21.765,24.755,32.949c7.422,10.384,15.335,20.058,28.304,23.31
	c7.143,1.791,14.126,1.833,21.406,2.208c1.064,0.055,2.588,0.286,4.192,0.499c2.172,0.288,4.489,0.539,6.025,0.274
	c0.256-0.044,0.484-0.106,0.692-0.181c0.006-0.238,0.028-0.477,0.028-0.714C521.188,401.78,524.086,401.393,524.086,401.767z
	 M407.086,313.603c0.123,0.148,0.247,0.295,0.37,0.443c0.1-0.117,0.251-0.234,0.432-0.343
	C407.62,313.672,407.351,313.646,407.086,313.603z M408.064,314.777c0.569,0.683,1.139,1.366,1.708,2.049
	c0.072,0.086,0.052,0.185-0.021,0.288c0.056-0.003,0.113-0.005,0.169-0.008c0.615-0.233,1.352-0.322,1.766-0.072
	c0.785,0.019,1.104,0.365,1.084,0.762c2.593,1.761,5.106,2.815,7.381,4.398c0.306-0.033,0.584-0.009,0.765,0.104
	c15.951,9.93,41.75,3.587,51.764-12.408c4.146-6.623,6.855-14.455,12.447-20.087c5.155-5.192,11.705-6.127,18.233-8.815
	c0.313-0.129,0.651-0.17,0.957-0.15c1.474-2.443,2.517-5.069,3.517-7.734c0.057-0.15,0.19-0.284,0.366-0.4
	c-0.049-0.001-0.099-0.003-0.143-0.011c-3.74-0.713-7.488-1.867-11.334-1.651c-0.546,0.031-0.867-0.073-1.025-0.238
	c-5.536,0.926-11.256,2.355-15.955,5.515c-4.714,3.17-7.904,7.543-10.778,12.362c-4.854,8.135-9.102,16.815-16.929,22.538
	C439.548,320.347,422.119,318.337,408.064,314.777z M437.704,297.064c-0.124,0.032-0.244,0.061-0.371,0.095
	c-1.005,0.268-2.079,0.828-3.197,1.569C435.285,298.086,436.469,297.525,437.704,297.064z M378.343,322.611
	c6.833-4.912,14.93-7.311,22.23-11.418c-2.938-1.787-5.447-4.431-7.309-7.85c-0.099-0.181,0.279-0.456,0.792-0.677
	c-0.588-0.281-1.154-0.642-1.68-1.108c-0.941-0.835,1.79-1.995,2.67-1.214c1.142,1.014,2.619,1.141,4.022,0.725
	c1.004-0.64,2.253-1.454,3.245-2.154c1.047-1.255,1.578-2.839,1.045-4.342c-1.22-3.441-5.119-1.643-7.759-1.489
	c-2.08,0.121-5.728-1.624-3.989-4.048c3.264-4.551-4.147-7.757-0.797-12.252c2.145-2.879,3.032-5.792,1.524-9.246
	c-1.295-2.967-3.795-7.196-7.743-6.461c-0.213,0.04-0.406,0.046-0.581,0.032c-0.128,0.465-0.717,0.962-1.494,1.002
	c-8.01,0.412-11.75,7.036-16.862,12.095c-0.997,0.986-2.274,1.456-3.525,2.003c-4.066,1.782-5.477,2.992-2.822,7.11
	c0.235,0.365,0.094,0.716-0.22,0.993c0.25,0.06,0.392,0.185,0.321,0.388c-1.464,4.186-4.595,8.423-4.95,12.916
	c-0.535,6.77,5.81,9.236,11.027,11.556C371.471,311.833,374.989,317.152,378.343,322.611z M383.085,329.966
	c6.001-7.036,14.394-11.329,23.613-12.568c-1.38-1.656-2.76-3.313-4.141-4.969c-0.12,0.146-0.287,0.288-0.518,0.419
	c-7.392,4.193-15.69,6.503-22.522,11.679C380.663,326.394,381.825,328.237,383.085,329.966z M252.318,394.919
	c1.862,2.831,3.971,5.497,6.295,8.013c0.906-10.986,0.983-22.032,1.997-33.01c0.069-0.751,2.084-1.092,2.709-0.927
	c0.072-0.014,0.137-0.023,0.183-0.023c28.589,0,57.178,0,85.767,0c0.689-0.231,1.499-0.269,1.755,0.003
	c0.444,0.014,0.388,0.161,0.1,0.346c0.956,10.422,1.102,20.905,2.06,31.327c0,0.005,0.001,0.011,0.001,0.017
	c0.701-0.666,1.393-1.343,2.075-2.032c1.426-1.441,2.791-2.936,4.04-4.487c-0.4-0.053-0.704-0.254-0.736-0.645
	c-0.803-9.693-1.606-19.387-2.409-29.081c-33.535,0-67.07,0-100.605,0c-0.816,9.862-1.634,19.724-2.451,29.586
	C253.067,394.404,252.741,394.72,252.318,394.919z M345.204,453.885c-1.589-2.086-4.206-2.718-6.71-2.54
	c0.351,1.559,0.614,3.092,0.829,4.494c0.459-0.164,0.917-0.324,1.378-0.495c1.299-0.481,3.043,0.467,1.14,1.172
	c-11.842,4.386-22.993,6.687-35.625,6.192c-10.434-0.409-21.845-0.965-30.896-6.75c-1.162-0.742,1.522-1.895,2.309-1.392
	c0.323,0.206,0.654,0.393,0.982,0.586c0.076-0.701,0.058-1.686,0.13-2.195c0.076-0.537,0.179-1.063,0.296-1.583
	c-2.449-0.211-5.084,0.33-5.992,2.97c-0.75,2.183-0.122,4.322,0.891,6.286c0.276-0.02,0.523,0.01,0.687,0.115
	c9.931,6.374,23.247,7.161,34.715,7.704c12.477,0.591,24.207-3.247,35.784-7.542C346.176,458.693,346.798,455.978,345.204,453.885z
	 M260.446,404.838c2.197,2.203,4.556,4.292,7.07,6.268c7.487,5.881,15.642,11.926,24.05,16.481c0.244,0.064,0.453,0.174,0.59,0.324
	c0.087,0.046,0.174,0.098,0.262,0.144c2.943-2.021,6.743-3.291,10.664-3.842c-0.042-1.68,2.184-3.88,3.069-4.571
	c2.389-1.867,7.2-1.365,9.989-1.145c4.345,0.343,8.638,1.068,12.833,2.248c0.452-0.199,0.994-0.277,1.414-0.174
	c1.068-1.093,2.731-2.104,3.532-2.79c3.651-3.127,7.292-6.269,10.847-9.507c2.257-2.056,4.777-4.222,7.265-6.524
	c-0.789,0.237-1.694,0.226-1.734-0.208c-0.969-10.466-1.111-20.994-2.071-31.46c-28.265,0-56.53,0-84.795,0
	c-0.99,11.319-1.036,22.708-2.079,34.024C261.322,404.428,260.931,404.674,260.446,404.838z M315.641,427.09
	c-0.67-0.145-1.375-0.245-2.146-0.26c-2.836-0.055-7.001,0.586-9.48-1.152c-3.634,0.312-7.185,1.328-9.95,3.264
	c-0.414,0.29-1.188,0.376-1.725,0.271c-0.197,0.11-0.423,0.208-0.657,0.282c-4.038,5.465-5.879,12.163-9.523,17.874
	c0.541,0.061,0.915,0.334,0.724,0.869c0.106,0.027,0.204,0.063,0.281,0.121c9.625,7.136,15.821-5.31,21.068-11.229
	c2.591-2.922,6.313-4.591,10.194-4.469c1.246,0.039,6.696,1.468,6.871-1.001c0.075-1.058-0.617-1.833-1.433-2.402
	C318.586,428.364,317.136,427.646,315.641,427.09z M332.145,443.464c-1.896-0.801-3.601-2.173-5.026-4.261
	c-1.401-2.052-2.611-4.315-3.992-6.34c-2.298,1.756-4.643,2.018-7.507,1.661c-8.723-1.086-10.889,6.582-15.791,11.481
	c-4.966,4.962-11.155,7.885-17.324,4.721c-0.145,0.172-0.413,0.347-0.517,0.396c-0.02,0.009-0.042,0.016-0.063,0.025
	c-0.167,0.76-0.288,1.531-0.361,2.31c-0.073,0.77,0.04,1.876-0.384,2.566c-0.077,0.125-0.198,0.234-0.345,0.33
	c7.682,3.71,16.676,4.344,25.083,4.673c10.841,0.425,20.489-0.957,30.54-4.208C335.828,452.663,334.794,447.036,332.145,443.464z
	 M341.252,441.799c-2.417-3.415-3.784-7.478-6.542-10.645c-2.295-2.636-5.082-5.018-6.28-8.348c-0.132,0.003-0.26-0.005-0.373-0.039
	c-3.745-1.109-7.622-1.914-11.521-2.222c-2.151-0.17-4.354-0.358-6.505-0.089c-3.85,0.48-4.064,2.339-2.79,3.441
	c2.509-0.031,4.96,0.225,7.157,0.764c0.266,0.065,0.673,0.18,1.171,0.336c2.338,0.249,4.57,0.843,6.643,2.423
	C329.465,432.949,329.59,445.041,341.252,441.799z M230.024,271.195c-1.72-1.924-3.338-3.93-4.999-5.902
	c-0.043,0.004-0.085,0.007-0.127,0.01c-0.116,0.053-0.228,0.108-0.374,0.153c-1.495,0.461-3.692,0.482-5.027,1.284
	c-0.559,0.336-1.041,0.8-1.46,1.33c-0.066,0.083-0.13,0.168-0.193,0.255c-0.679,0.937-1.171,2.046-1.497,3.07
	c-0.869,2.735-1.556,4.949-3.765,6.64c-2.872,5.689,4.552,10.752,3.232,16.591c-0.492,2.174-1.699,4.695-3.882,5.668
	c-1.313,0.586-2.482,0.911-3.91,1.161c-2.503,0.088-3.506,1.936-3.008,5.543c0.602,0.8,1.314,1.447,2.133,1.952
	c0.691,0.298,1.344,0.517,1.927,0.667c0.027-0.008,0.044-0.02,0.073-0.027c0.445-0.111,0.891-0.223,1.336-0.334
	c0.356-0.089,1.541-0.285,1.64,0.326c0.932,5.693-0.826,11.153-2.754,16.468c-0.311,0.856-0.625,1.708-0.934,2.557
	c-0.107,0.295-0.215,0.591-0.321,0.885c-0.024,0.068-0.064,0.132-0.112,0.194c-0.702,1.601-1.508,3.163-2.402,4.685
	c5.478-1.056,12.253-2.03,18.212-0.979c0.772-1.006,1.22-3.054,1.557-4c0.932-2.625,1.792-5.273,2.715-7.9
	c1.409-4.006,2.653-8.309,5.521-11.533c3.894-4.377,11.749-4.017,12.943-11.046c1.006-5.92-1.727-11.252-5.811-15.385
	c-0.65-0.658,0.508-1.411,1.549-1.51c0.465-1.525,1.1-3.099,1.109-4.64c0.002-0.362-0.37-2.214-0.178-2.451
	c-0.418,0.517-0.823,0.994-1.311,1.446c-1.219,1.129-3.22,1.341-4.725,0.839C234.359,276.27,231.934,273.331,230.024,271.195z
	 M116.729,423.65c-0.09-0.146-0.179-0.291-0.271-0.442c-6.165-10.174-16.097-30.967-28.547-24.929
	c-0.371,0.18-1.487,0.345-1.968,0.273c-1.657,4.854,3.391,11.503,5.97,14.982c4.425,5.967,10.637,14.762,18.114,13.484
	c1.864-0.318,3.805-1.253,5.818-3.025C115.996,423.862,116.338,423.742,116.729,423.65z M177.761,430.666
	c2.026-1.876,3.964-3.869,5.813-5.915c0.535-0.591,1.064-1.186,1.583-1.784c5.655-6.518,10.681-13.634,16.561-19.945
	c4.883-5.24,11.374-9.608,15.317-15.612c-0.714-2.036-1.424-4.074-2.119-6.115c-0.461-1.355-5.252-12.353-3.705-13.344
	c0.624-0.4,3.558-0.554,2.269,0.271c0.619-0.396,0.336-0.127,0.618,0.841c0.321,1.105,0.662,2.204,1.013,3.299
	c1.162,3.628,2.377,7.24,3.626,10.839c0.373,1.074,0.754,2.145,1.13,3.218c0.177,0.016,0.28,0.049,0.249,0.098
	c-0.045,0.071-0.095,0.139-0.141,0.209c2.722,7.748,5.55,15.467,8.712,23.043c3.639,8.721,7.308,15.951,15.14,21.773
	c0.629,0.467,1.267,0.917,1.909,1.36c0.632-0.031,1.174,0.195,1.142,0.761c7.678,5.062,16.209,8.491,24.86,11.59
	c0.243,0,0.486,0,0.729,0c0.695,0,0.924,0.25,0.88,0.572c1.837,0.65,3.676,1.291,5.512,1.932c4.18-5.878,5.979-13.053,10.2-18.903
	c-7.238-3.955-14.247-9.069-20.801-13.992c-9.565-7.185-18.588-15.686-23.282-26.937c-5.019-12.032-4.328-25.219-8.367-37.497
	c-2.124-6.456-5.416-13.372-12.698-14.983c-3.145-0.695-6.333-0.869-9.518-0.717c-0.455,0.021-0.91,0.06-1.364,0.094
	c-2.844,0.216-5.681,0.658-8.475,1.221c-5.391,8.379-13.4,15.421-21.427,20.602c-2.393,1.544-5.525,3.302-8.745,4.168
	c-12.77,7.908-26.997,12.964-41.32,17.295c-8.582,2.595-17.511,5.007-25.739,8.585c-6.604,2.873-12.611,6.771-18.794,10.411
	c9.165-3,16.504,3.487,21.809,11.169c7.958,11.523,14.135,26.376,27.808,32.371c2.343,1.027,4.639,1.74,6.885,2.181
	c3.877,0.761,7.607,0.697,11.185,0c1.729-0.337,3.425-0.815,5.082-1.43c3.516-1.305,6.865-3.189,10.039-5.456
	C173.566,434.349,175.708,432.567,177.761,430.666z M223.546,404.952c-1.998-5.067-3.899-10.174-5.723-15.308
	c-4.579,5.55-10.885,9.878-15.493,15.378c-5.736,6.846-11.092,13.985-17.144,20.568c-0.729,0.793-1.476,1.577-2.229,2.354
	c4.014,6.849,17.428,12.937,25.161,10.199c5.86-2.075,7.26-12.571,8.745-17.786c1.497-5.258,3.178-10.327,6.137-14.967
	C223.113,405.214,223.308,405.066,223.546,404.952z M246.454,436.345c-0.481,2.97-0.963,5.94-1.445,8.91c6.917,0,13.833,0,20.748,0
	C259.063,442.812,252.445,440.057,246.454,436.345z M386.275,480.892c0.088,0,0.16,0.006,0.232,0.012
	c0.251-1.237-0.454-4.022-1.138-5.875c-0.09,0.017-0.176,0.029-0.255,0.029c-53.103,0-106.205,0-159.307,0
	c-0.676,2.174-1.253,5.399-0.423,6.035c0.014,0.01,0.018,0.022,0.029,0.033c0.307-0.141,0.625-0.234,0.873-0.234
	C279.616,480.892,332.945,480.892,386.275,480.892z M367.264,448.002c-0.197-0.068-0.333-0.187-0.363-0.368
	c-0.002-0.012-0.004-0.025-0.006-0.037c-0.016-0.096-0.005-0.184,0.016-0.269c-9.879-0.129-19.758-0.208-29.638-0.232
	c0.384,1.053,0.707,2.143,0.98,3.235c3.034-0.452,7.027-0.452,9.235,2.026c2.317,2.6,1.677,5.847,0.171,8.676
	c0.112,0.248-0.078,0.554-0.808,0.826c-12.462,4.642-25.202,8.923-38.646,8.215c-11.84-0.623-25.495-1.326-35.782-7.873
	c-0.491,0.084-0.927,0.053-1.072-0.206c-1.793-3.196-2.47-7.328,0.9-9.757c2.076-1.497,4.594-2.091,7.118-2.109
	c0.023-0.075,0.049-0.15,0.073-0.225c-0.186,0.019-0.35,0.015-0.466-0.026c-2.514-0.886-5.07-1.756-7.638-2.646
	c-8.962,0-17.924,0-26.885,0c-0.099,0.176-0.294,0.33-0.536,0.457c-1.341,1.276-2.954,4.366-4.05,5.961
	c-2.487,3.62-4.959,7.25-7.427,10.884c-1.965,2.894-3.927,5.79-5.886,8.689c-0.055,0.082-0.115,0.192-0.177,0.318
	c52.775,0,105.55,0,158.325,0c-0.017-0.027-0.035-0.063-0.051-0.087c-2.064-3.053-4.131-6.104-6.202-9.152
	c-2.599-3.824-5.198-7.649-7.826-11.453C369.662,451.46,368.606,449.189,367.264,448.002z M364.977,429.85
	c-2.604,1.958-5.229,3.887-7.898,5.749c-3.32,2.315-7.475,5.875-11.684,7.339c-0.329,0.721-2.065,1.241-2.734,0.62
	c-0.264,0.01-0.441-0.02-0.551-0.075c-2.095,0.63-4.135,0.941-6.06,0.845c0.116,0.216,0.231,0.434,0.339,0.657
	c0.168-0.057,0.354-0.09,0.56-0.089c9.893,0.022,19.785,0.103,29.676,0.23c-0.049-0.369-0.093-0.739-0.121-1.111
	c-0.015-0.131,0.003-0.255,0.036-0.375C366.018,439.043,365.498,434.447,364.977,429.85z M439.212,432.33
	c-3.209-3.457-6.136-7.129-8.821-10.583c-5.469-7.032-10.267-14.521-15.805-21.5c-4.245-5.349-8.724-10.985-10.56-17.608
	c-2.751,6.399-5.964,12.608-9.372,18.603c-1.785,3.14-3.805,5.841-6.041,8.35c0.407-0.055,0.747-0.016,0.866,0.192
	c5.001,8.716,9.495,20.598,18.614,25.923c0.358-0.035,0.681,0.004,0.882,0.133c0.094,0.002,0.182,0.011,0.253,0.034
	C418.985,438.967,429.967,435.806,439.212,432.33z M512.652,426.28c4.577-6.357,7.845-13.984,8.438-21.357
	c-2.818,0.576-6.41-0.189-8.992-0.35c-5.896-0.367-11.822-0.125-17.684-1.007c-13.863-2.085-23.965-8.38-32.351-19.502
	c-8.932-11.846-18.226-23.5-26.787-35.614c-4.43-6.27-8.466-12.68-12.552-19.164c-2.082-3.304-4.177-6.197-7.836-7.867
	c-1.643-0.75-3.223-1.48-4.716-2.436c-0.643,0.028-1.285,0.066-1.928,0.123c-3.432,0.305-6.844,1.04-10.056,2.266
	c-3.501,1.337-6.764,3.26-9.539,5.878c-6.127,5.783-9.21,12.897-11.264,20.958c-1.973,7.742-3.8,15.5-5.955,23.197
	c-1.61,5.751-2.604,12.66-5.867,17.772c-5.017,7.862-12.35,14.357-19.232,20.543c-3.302,2.968-6.655,5.878-10.027,8.766
	c-1.039,0.889-2.084,1.771-3.109,2.677c-0.425,0.375-1.011,1.32-0.816,0.561c-0.091,0.356-0.436,0.64-0.857,0.825
	c1.437,3.256,4.53,5.254,6.517,8.222c2.443,3.649,4.015,7.754,6.888,11.101c1.905-0.783,3.904-2.436,5.381-3.41
	c3.238-2.135,6.409-4.37,9.528-6.674c0.59-0.436,1.173-0.882,1.761-1.321c3.291-2.454,6.553-4.956,9.756-7.531
	c3.185-2.56,6.318-5.183,9.35-7.913c6.44-5.798,10.342-11.592,14.377-19.369c6.332-12.202,11.782-25.026,13.896-38.69
	c0.121-0.781,3.003-1.316,2.871-0.463c-1.134,7.329-3.214,14.472-5.893,21.407c0.133,0.026,0.221,0.072,0.229,0.146
	c0.284,2.668,1.036,5.182,2.089,7.574c1.801,4.092,4.489,7.827,7.253,11.357c0.073,0.094,0.144,0.189,0.217,0.283
	c3.808,4.877,7.386,9.839,10.986,14.853c0.404,0.563,0.808,1.125,1.214,1.689c4.313,6.006,9.035,12.675,14.517,18.4
	c3.205,3.347,6.674,6.361,10.469,8.742c0.826,0.518,1.669,0.999,2.527,1.453c0.486,0.257,0.969,0.521,1.465,0.756
	c1.67,0.79,3.405,1.421,5.184,1.919c4.581,1.283,9.462,1.64,14.347,1.222c1.437-0.123,2.872-0.316,4.301-0.566
	c0.007-0.237,0.017-0.473,0.015-0.712c-0.007-1.289,2.926-1.74,2.935-0.227c0,0.069-0.004,0.136-0.005,0.204
	c0,0.043-0.002,0.085-0.003,0.128c1.103-0.26,2.197-0.555,3.28-0.885c0.294-0.089,0.586-0.183,0.877-0.277
	c1.599-0.517,3.169-1.106,4.703-1.763c4.076-1.746,7.88-3.959,11.187-6.525c2.694-2.091,5.255-4.687,7.555-7.596
	C511.757,427.493,512.21,426.893,512.652,426.28z M321.728,439.576c-0.571-0.302-1.534,0.015-2.043,0.303
	c-0.398,0.225-0.869,0.702-0.287,1.01c1.233,0.651,2.101,1.857,2.723,3.072c0.465,0.909,3.264-0.06,2.897-0.776
	C324.25,441.683,323.241,440.375,321.728,439.576z M325.224,449.795c0.976,1.35,1.562,2.898,1.907,4.52
	c0.189,0.89,3.098,0.166,2.897-0.776c-0.373-1.753-1.048-3.377-2.101-4.833C327.409,447.991,324.606,448.942,325.224,449.795z
	 M287.639,149.03c-3.514-12.612,3.34-25.323,16.885-26.767c0.349-0.037,0.599-0.02,0.775,0.03c0.399-0.248,0.876-0.448,1.214-0.464
	c19.577-0.967,28.667,29.483,9.326,37.039C305.711,162.824,291,161.095,287.639,149.03z M291.877,151.528
	c5.208,9.071,21.21,10.982,28.026,2.54c9.18-11.372,0.62-31.486-14.555-30.736c-0.096,0.005-0.175,0.002-0.252,0
	c-0.277,0.188-0.633,0.338-1.011,0.379C291.166,125.087,285.817,140.975,291.877,151.528z M294.283,145.386
	c-1.671-7.986,2.864-15.026,11.095-16.05c0.209-0.026,0.378-0.026,0.525-0.014c0.285-0.143,0.58-0.242,0.829-0.251
	c13.159-0.491,17.415,18.815,4.899,23.486C305.106,154.994,295.896,153.096,294.283,145.386z M298.799,148.286
	c3.694,4.528,12.898,5.2,16.115-0.371c4.018-6.958-0.713-17.407-9.207-17.168c-0.214,0.113-0.457,0.197-0.715,0.229
	C297.386,131.922,294.052,142.469,298.799,148.286z M258.318,165.189c-0.699-6.971-2.551-17.096,0.674-23.706
	c2.504-5.132,7.591-6.859,12.916-7.368c0.344-4.288,0.924-8.523,1.715-12.645c3.684-19.198,12.339-38.455,29.615-48.962
	c0.434-0.264,1.034-0.294,1.536-0.178c0.558-0.239,1.225-0.299,1.638,0.003c7.937,5.797,14.292,13.063,19.174,21.237
	c0.767,0.129,1.339,0.673,0.791,1.338c10.145,17.778,13.407,39.656,10.467,60.317c0.749-0.4,2.098-0.776,2.405-0.29
	c2.531,3.998,4.645,8.37,7.547,12.119c1.173,1.516,2.082,3.519,2.671,1.212c0.764-2.989,0.792-6.024,0.983-9.083
	c0.667-10.667,1.556-22.991-12.255-23.985c-1.439-0.104,1.276-1.212,1.883-1.168c6.745,0.485,12.276,3.374,13.299,10.605
	c0.534,3.776,0.362,7.566,0.123,11.36c-0.24,3.805,0.086,8.099-1.176,11.754c-3.696,10.703-13.208-7.269-15.624-11.454
	c-0.972,6.356-2.539,12.583-4.668,18.532c0.563-0.208,1.166-0.331,1.482-0.164c8.073,4.241,9.743,10.904,6.23,19.086
	c-1.745,4.064-3.731,8.127-5.858,12.005c-0.918,1.673-1.985,3.982-3.841,4.85c-1.847,0.863-2.974,0.551-3.687-0.394
	c0,25.291,0,50.581,0,75.872c0,1.007-2.904,1.609-2.904,0.339c0-33.144,0-66.289,0-99.433c-3.027,0-6.054,0-9.081,0
	c0.001,0.003,0.004,0.006,0.005,0.009c4.614,10.85,7.538,22.88,0.817,33.448c-4.285,6.739-11.617,11.752-10.169,20.661
	c0.167,1.025-1.408,1.691-2.308,1.412c-0.746,0.085-1.444-0.177-1.325-0.911c1.505-9.263-6.209-14.201-10.479-21.292
	c-6.356-10.558-3.336-22.402,1.21-33.091c0.037-0.086,0.089-0.164,0.149-0.237c-2.251,0-4.502,0-6.752,0
	c-0.3,2.196-0.467,4.405-0.582,6.617c0,30.826,0,61.651,0,92.477c0,1.007-2.904,1.609-2.904,0.339c0-25.248,0-50.496,0-75.745
	c-0.744,0.614-1.7,0.864-2.9,0.374c-2.525-1.029-3.823-5.002-4.918-7.171c-1.934-3.832-4.188-7.669-5.475-11.785
	c-2.508-8.018,0.421-13.325,7.652-17.123c0.107-0.057,0.27-0.107,0.455-0.151c-1.884-5.114-3.23-10.455-4.093-15.901
	c-2.162,4.167-4.584,9.032-8.113,11.072C260.365,172.468,258.745,169.446,258.318,165.189z M282.036,194.131c0-2.413,0-4.827,0-7.24
	c0-0.193,0.109-0.372,0.282-0.525c-0.02-0.026-0.043-0.047-0.061-0.076c-1.971-3.338-3.636-6.846-5.03-10.471
	c-7.043,4.133-7.856,10.497-4.719,17.804c1.212,2.824,2.619,5.545,4.003,8.287c1.176,2.331,2.229,5.442,4.166,7.31
	c0.147-0.458,0.279-0.919,0.363-1.396c0.397-2.262,0.551-4.56,0.67-6.851C281.831,198.696,281.907,196.412,282.036,194.131z
	 M311.613,186.992c-1.073,0-2.146,0-3.22,0c1.447,4.523,2.512,9.694,0.212,14.117c-1.606,3.091-4.214,5.524-3.809,9.273
	c0.108,1.002-1.376,1.645-2.263,1.429c-0.546-0.055-0.974-0.341-0.911-0.928c0.43-3.978-2.33-6.208-3.856-9.547
	c-2.146-4.695-1.115-9.624,0.417-14.345c-1.073,0-2.147,0-3.221,0c0.036,0.156,0.023,0.339-0.07,0.558
	c-5.064,11.908-7.407,24.194,1.112,34.943c2.782,3.51,5.711,6.769,7.31,10.562c1.655-3.669,4.525-6.843,7.235-10.347
	c8.39-10.848,6.003-23.003,0.931-34.931C311.356,187.485,311.429,187.216,311.613,186.992z M301.056,186.992
	c-1.784,5.431-2.493,10.641,0.824,15.588c0.552,0.823,1.049,1.616,1.473,2.418c0.449-0.801,0.958-1.608,1.497-2.478
	c3.086-4.974,2.189-10.125,0.416-15.463c-0.008-0.023-0.006-0.044-0.012-0.066C303.854,186.992,302.456,186.992,301.056,186.992z
	 M331.566,176.086c-1.25,3.342-2.669,6.598-4.279,9.724c-0.12,0.232-0.345,0.414-0.615,0.548c0.736,4.911,0.729,9.891,1.05,14.837
	c0.142,2.188,0.201,4.5,0.773,6.63c0.106,0.396,0.233,1.044,0.482,1.527c0.124-0.117,0.268-0.246,0.457-0.399
	c0.165-0.251,0.33-0.502,0.495-0.753c3.122-5.243,6.63-11.428,8.18-17.365C339.887,184.031,337.4,179.417,331.566,176.086z
	 M284.912,185.021c0.03,0.051,0.045,0.1,0.065,0.15c0.129-0.033,0.257-0.056,0.379-0.056c13.118,0,26.236,0,39.354,0
	c13.491-26.529,14.066-62.043-0.694-88.476c-10.723,6.652-27.13,5.034-38.025,0.206c-1.687-0.748,0.468-2.48,1.675-1.945
	c10.009,4.435,25.544,6.303,35.243-0.146c-4.701-7.88-10.806-14.889-18.406-20.513c-16.555,10.434-25.052,29.568-28.181,48.318
	C272.851,143.36,273.975,166.493,284.912,185.021z M261.216,164.413c0.179,1.284,0.31,4.471,1.708,5.233
	c-0.014-0.008,2.058-2.584,2.603-3.412c2.287-3.479,4.286-7.134,6.513-10.651c0.05-0.079,0.13-0.15,0.227-0.214
	c-0.806-6.712-0.913-13.536-0.433-20.244c-0.127,0.036-0.242,0.06-0.332,0.066C257.179,136.221,259.809,154.335,261.216,164.413z
	 M295.396,251.688c0,33.178,0,66.356,0,99.534c0,1.271,2.904,0.668,2.904-0.339c0-33.178,0-66.356,0-99.534
	C298.301,250.079,295.396,250.681,295.396,251.688z M308.757,251.688c0,33.178,0,66.356,0,99.534c0,1.271,2.904,0.668,2.904-0.339
	c0-33.178,0-66.356,0-99.534C311.661,250.079,308.757,250.681,308.757,251.688z" fill="#e64980"></path>
</svg>