<?xml version="1.0" standalone="no"?>
<svg version="1.1" id="Layer_1" xmlns="http://www.w3.org/2000/svg" xmlns:xlink="http://www.w3.org/1999/xlink" x="0px" y="0px" width="595.28px" height="595.28px" viewBox="0 0 595.28 595.28" enable-background="new 0 0 595.28 595.28" xml:space="preserve">
<path id="color_x5F_2" fill="#4c6ef5" d="M361.752,360.84c12.799,0,25.597,0,38.396,0c-0.142,0.116-0.249,0.246-0.294,0.39
	c-6.274,20.079-10.128,40.932-13.668,61.637c-3.053,17.858-5.732,35.822-7.639,53.843c-0.12,0.137-0.175,0.283-0.125,0.429
	c0.021,0.064,0.036,0.132,0.057,0.197c-0.002,0.018-0.004,0.036-0.006,0.054c-0.018,0.173,0.038,0.303,0.138,0.403
	c0.004,0.016,0.009,0.031,0.013,0.046c-6.384,2.146-14.154,1.782-20.651,1.646c-3.489-0.072-6.976-0.318-10.439-0.749
	c-1.657-0.206-5.793-0.396-6.825-2.081c-0.064-0.105-0.161-0.183-0.274-0.242c1.908-18.048,4.616-36.027,7.647-53.917
	c3.508-20.706,7.396-41.565,13.668-61.638C361.752,360.853,361.75,360.847,361.752,360.84z M419.433,361.083
	c3.145,20.548,8.691,40.771,14.511,60.696c2.432,8.325,4.942,16.634,7.569,24.906c0.186,0.027,0.306,0.083,0.306,0.177
	c0,0.265,0,0.529,0,0.794c1.923,6.033,3.918,12.043,5.99,18.024l0.612-20.184c0-28.219,0-56.438,0-84.657c-5.69,0-11.38,0-17.07,0
	L419.433,361.083z M462.319,481.773c1.454,0,3.869,0,6.014,0c0.649,0,1.857-0.153,3.376-0.397c-3.1,0.088-6.228,0.113-9.39,0.354
	C462.319,481.744,462.319,481.759,462.319,481.773z M462.319,395.613c0,28.114,0,56.228,0,84.342
	c8.178-0.646,16.443,0.512,24.23-2.648C479.034,449.885,468.286,423.411,462.319,395.613z M436.073,315.219
	c-10.707,0.76-21.864,0.877-32.639,0.069c0.012,0.023,0.024,0.046,0.036,0.069c3.208,6.317,6.472,12.651,9.207,19.192
	c0.596,1.425,2.474,4.666,1.956,6.652c10.512,0,21.024,0,31.536,0c0.63,0,0.996,0.216,1.152,0.509
	c0.035,0.017,0.057,0.037,0.063,0.062c0.262,0.029,0.437,0.111,0.437,0.258c0,1.5,0,3,0,4.5c0,0.045-0.012,0.089-0.026,0.132
	c3.229,0,6.457,0,9.686,0c0.807-12.435-3.713-24.029-8.086-35.472C445.564,313.785,440.356,314.915,436.073,315.219z
	 M375.004,192.842c-0.358-0.215-0.841-0.505-1.504-0.902c-0.345-0.207-0.709-0.383-1.08-0.537c0.846,0.557,1.667,1.169,2.471,1.768
	C374.928,193.061,374.966,192.951,375.004,192.842z M443.222,219.281c-0.004-0.001-0.009-0.002-0.013-0.003
	c0.002,0.004,0.004,0.007,0.006,0.012C443.217,219.287,443.22,219.284,443.222,219.281z M430.558,219.724
	c0.028-0.041,0.06-0.078,0.089-0.118c-0.309-0.017-0.604-0.013-0.875,0.03L430.558,219.724z M429.891,313.895
	c3.67-0.095,7.898-0.108,11.754-1.044c2.406-0.584,4.663-1.533,6.549-3.091c0.117-0.096,0.229-0.199,0.343-0.3
	c0.049-0.043,0.099-0.085,0.147-0.129c-0.087-0.23-0.176-0.461-0.263-0.691c-0.134-0.354,0.848-0.82,1.708-0.98
	c3.582-5.542-1.815-13.149-4.208-18.52c-0.099-0.221,0.001-0.442,0.212-0.634c-13.076,0-26.152,0-39.229,0
	c-0.799,0.573-2.483,0.732-2.483,0.134c0-21.167,0-42.333,0-63.5c0-0.438,0.508-0.779,1.098-0.975
	c0.128-0.531,0.656-1.036,1.462-1.036c2.974,0,5.948,0,8.922,0c-2.522-2.944-3.699-6.819-6.14-9.85
	c-0.582-0.722,2.19-1.703,2.712-1.055c2.742,3.406,3.91,7.899,7.158,10.905c1.483,0,2.966,0,4.449,0
	c1.06-3.733,4.491-5.506,8.639-5.006c1.72-0.593,3.933-0.381,5.957,0.26c1.704-1.029,4.1-1.114,6.443-0.566
	c1.108-0.563,2.412-0.884,3.777-1.039c0.686-0.078,1.319-0.056,1.914,0.036c-1.111-2.2-2.229-4.419-3.374-6.632
	c-3.779-6.15-8.897-14.205-13.447-20.429c-1.564-1.677-3.227-3.264-5.038-4.708c-12.231-9.749-27.646-9.31-42.521-9.238l0.066,0.133
	l-5.423,9.038c-1.52,3.421-2.922,6.873-4.069,10.447c-0.35,1.089-2.613,1.24-2.82,0.177c-0.064-0.019-0.124-0.043-0.174-0.076
	c-1.733-1.129-3.374-2.416-5.134-3.499c-0.006-0.004-0.012-0.007-0.019-0.011c0.128,2.797,0.611,5.942-0.473,8.526
	c-0.268,0.638-0.626,1.199-1.054,1.687c0.228,27.81,5.604,58.054,18.981,82.676c0.712-0.183,1.494-0.096,1.671,0.458
	c0.033,0.103,0.076,0.204,0.11,0.306c0.364,0.024,0.342,0.157,0.119,0.327c1.217,3.384,3.458,6.68,5.104,9.815
	c2.062,3.928,4.117,7.86,6.16,11.798c1.012,1.95,2.019,3.903,3.019,5.859C411.535,314.242,420.846,314.129,429.891,313.895z
	 M345.348,275.87c1.146-2.303,2.103-4.699,2.917-7.068c0.142-0.413,0.893-0.711,1.594-0.82c-4.018-13.016-8.288-25.974-8.938-39.677
	c-0.053-1.115,2.854-1.706,2.897-0.776c0.953,20.09,9.689,38.581,14,58c0.01,0.045,0.007,0.089,0.005,0.133c3.194,0,6.389,0,9.583,0
	c-13.067-24.674-11.012-54.988-10.986-82.022c0-0.022,0.008-0.042,0.01-0.064c-0.436-0.361-0.819-0.805-1.102-1.384
	c-0.932-1.907-0.982-4.136-0.95-6.287l-0.394,0.295c-0.188,0.4-0.346,0.827-0.438,1.296c-0.043,0.223-0.359,0.422-0.766,0.57
	c-0.492,0.298-1.204,0.449-1.726,0.332L351,198.439l-0.019-0.067c-0.269-0.078-0.479-0.23-0.559-0.483
	c-0.245-0.771-0.394-1.636-0.48-2.542c-4.062,3.834-9.065,6.803-13.182,10.545c-0.075,0.069-0.148,0.138-0.221,0.207
	c-0.228,0.21-0.45,0.427-0.671,0.643c-0.192,0.188-0.385,0.375-0.568,0.562c-1.138,1.163-2.183,2.407-3.081,3.781
	c-6.248,9.56-7.098,22.739-10.389,33.516c-0.086,0.282-0.346,0.516-0.676,0.689c2.635,3.987,5.484,7.836,7.876,11.983
	c0.77,1.335-1.988,2.435-2.65,1.286c-3.57-6.189-8.171-11.708-11.532-18.023c-0.042-0.08-0.07-0.158-0.09-0.235
	c-0.671,0.48-2.38,0.924-2.639,0.356c-0.041-0.09-0.067-0.181-0.107-0.271c-3.13,0.602-6.623,1.622-9.609,3.221
	c-1.299,0.842-2.528,1.703-3.618,2.5c-0.838,0.768-1.547,1.626-2.113,2.569c0.188,0.027,0.198,0.473,0.675,1.411
	c0.756,1.486,1.528,2.963,2.304,4.439c2.283,4.344,4.585,8.678,6.86,13.026c2.201,4.207,4.417,8.412,6.48,12.688
	c0.479,0.992,1.58,2.636,2.016,4.079c0.463,0.009,0.86,0.168,0.98,0.542c0.086,0.267,0.192,0.533,0.292,0.799
	c4.112,0,8.224,0,12.336,0l9.725-0.199c1.301-1.175,2.472-2.479,3.523-3.888L345.348,275.87z M221.052,360.84
	c-13.577,0-27.155,0-40.732,0c0,11.163,0,22.326,0,33.489c5.013,0.412,9.928-0.134,14.957-0.232c0.286-0.005,0.614-0.02,0.954-0.031
	c-0.118-14.776,10.574-29.984,25.464-32.555c-0.232-0.14-0.447-0.286-0.685-0.422C220.918,361.037,220.947,360.946,221.052,360.84z
	 M180.722,359.662c3.314,0,6.628,0,9.942,0L181,359.439L180.722,359.662z M255.556,262.897c-5.652-0.226-11.292-0.715-16.948-0.849
	c-2.021,8.205-5.913,16.556-10.319,23.666c-2.663,4.296-7.942,12.838-14.249,10.035c-0.547-0.243-0.695-0.594-0.608-0.94
	c-2.162-1.216-3.874-3.409-5.292-5.662c-3.281-5.211-6.457-10.811-9.187-16.332c-4.012-8.112-7.771-16.695-16.546-20.611
	c-2.735-1.221-5.575-2.136-8.439-2.981c3.271,4.101,7.888,9.946,2.943,13.212c-0.684,1.217-1.737,2.325-2.373,3.395
	c0.203,2.131,2.633,4.384,2.603,6.907c-0.04,3.364-4.7,5.785-6.446,8.118c-0.457,0.61-3.299,0.992-2.648,0.123
	c0.019-0.024,0.039-0.047,0.058-0.072c-0.247,0.054-0.489,0.081-0.707,0.076c-0.202,0.074-0.402,0.121-0.582,0.122
	c-5.966,0.026-13.123-2.583-18.149-5.738c-3.561-2.235-2.507-7.226-4.246-10.519c-0.18-0.34-0.398-0.612-0.644-0.839
	c-0.921-0.446-2.126-0.754-3.708-0.921c-2.957,0.108-6.346,0.941-7.459-2.247c-1.288-3.689-0.391-8.051-0.1-11.978
	c-5.479,2.537-10.803,5.583-15.12,9.38c-2.035,2.17-4.241,4.705-6.25,7.083c-1.552,2.27-2.879,4.677-4.021,7.183
	c0.004,0.146-0.068,0.288-0.185,0.422c-1.946,4.363-3.374,8.994-4.566,13.635c-2.796,10.886-4.268,21.996-5.497,33.151
	c-0.868,7.885-3.057,15.992,5.302,20.424c7.674,4.069,16.946,4.857,25.48,5.302c9.023,0.47,18.075,0.456,27.109,0.561
	c2.761,0.032,5.541,0.128,8.31,0.086c-4.346-7.5-4.373-18.984,1.331-25.517c-11.232-0.758-22.626,0.042-33.775-1.118
	c-4.575-0.476-6.864-2.278-6.217-7.064c0.027-0.203,0.143-0.382,0.309-0.537c2.136-7.816,4.176-15.729,5.298-23.758
	c0.703-5.033,2.694-14.492-1.995-18.288c-0.757-0.613,1.919-1.745,2.695-1.117c4.589,3.716,3.075,12.707,2.375,17.717
	c-1.237,8.854-3.413,17.539-5.776,26.151c-0.006,0.022-0.021,0.043-0.03,0.065c-0.426,5.229,4.061,5.06,8.529,5.104
	c10.558,0.106,21.049,0.176,31.583,1.07c0.587,0.05,0.838,0.25,0.875,0.503c6.625-0.063,13.421-0.536,19.715,1.01
	c-0.759-3.717-0.57-7.097,1.218-10.705c2.109-4.255,4.286-8.796,3.738-13.716c-0.969-8.709-9.012-14.792-8.523-23.754
	c0.051-0.944,2.928-1.34,2.897-0.776c-0.517,9.481,9.016,15.652,8.567,25.096c-0.205,4.304-1.477,7.979-3.374,11.806
	c-0.028,0.056-0.047,0.109-0.074,0.165c0.098,0.052,0.189,0.112,0.262,0.194c4.145,4.627,12.638,14.769,19.891,13.872
	c1.132-2.283,2.277-4.56,3.433-6.828c3.333-6.542,6.74-13.045,10.151-19.546c1.562-2.975,3.706-6.119,4.918-9.327
	c-0.127-0.058-0.063-0.166,0.106-0.293c0.071-0.198,0.152-0.395,0.215-0.593c0.34-1.068,3.273-1.451,2.911-0.313
	c-0.007,0.022-0.017,0.044-0.024,0.067c5.64,0,11.28,0,16.92,0l1.267-0.124c3.778-6.882,5.249-14.852,6.388-22.545
	c-0.757-0.013-1.515-0.027-2.271-0.053C256.145,263.002,255.725,263,255.556,262.897z M191.293,311.276
	c-0.554,1.759-0.793,3.482-0.738,5.274l0.751-5.259C191.303,311.286,191.298,311.281,191.293,311.276z M157.506,277.322
	c-3.182-1.961-6.581-4.384-8.639-6.383c0.265,0.855,0.653,1.63,1.283,2.254C151.83,274.854,154.562,276.266,157.506,277.322z
	 M174.923,338.5c-1.569,0.788-3.074,1.825-4.736,2.414c-1.794,0.635-3.456,0.83-5.015,0.482c-0.163-0.023-0.321-0.059-0.472-0.114
	c-0.209-0.063-0.414-0.147-0.619-0.232c0.571,1.771,1.329,3.436,2.258,4.911c0.568,0.093,1.043,0.358,1.055,0.702
	c1.398,0,2.796,0,4.195,0c0-1.285,0-2.571,0-3.856c0-0.224,0.174-0.42,0.434-0.581c0.119-0.516,0.669-1.024,1.479-1.024
	c2.006,0,4.013,0,6.019,0l0.178-0.068C178.733,339.004,177.447,337.232,174.923,338.5z M233.638,287.377l5.503-0.537
	c-1.757,0-3.515,0-5.272,0C233.796,287.02,233.716,287.198,233.638,287.377z M140.819,348.402l13.874-0.396
	c-4.614-0.053-9.245-0.05-13.874-0.1C140.819,348.071,140.819,348.236,140.819,348.402z M174.486,346.53
	c0,0.045-0.012,0.089-0.026,0.132c0.042,0,0.084,0,0.126,0l0.374-3.36c-0.158,0-0.316,0-0.474,0
	C174.486,344.377,174.486,345.454,174.486,346.53z M139.43,360.84c-0.18,0-0.293-0.019-0.353-0.052
	c-0.614,0.09-1.155,0.053-1.155-0.149c0-4.258,0-8.516,0-12.774c-4.727-0.081-9.449-0.243-14.149-0.618
	c-2.364,25.421,14.701,51.629,42.649,47.614c0-11.326,0-22.651,0-33.977l-1.296-0.044C156.561,360.84,147.995,360.84,139.43,360.84z
	"></path>
<path id="color_x5F_1" d="M167.733,219.612c-2.419,0.148-4.547-0.983-6.252-2.622c-0.589-0.566-3.255,0.509-2.721,1.021
	c0.153,0.147,0.315,0.277,0.473,0.413c-0.036,0.068-0.062,0.139-0.062,0.214c0.018,2.054,0.225,5.116,2.562,5.791
	c3.226,0.932,4.943-2.375,6.708-4.255C168.899,219.687,168.044,219.593,167.733,219.612z M164.252,222.315
	c-0.201,0.265-0.431,0.501-0.661,0.738c-0.014-0.005-0.018-0.008-0.033-0.013c-0.244-0.141-0.427-0.401-0.574-0.63
	c-0.397-0.621-0.621-1.38-0.749-2.164c0.979,0.377,2.016,0.596,3.099,0.648C164.962,221.359,164.612,221.841,164.252,222.315z
	 M162.569,195.363c0.175,0.653-0.662,1.213-1.201,1.314c-1.345,0.252-2.478,0.842-3.553,1.678c-0.532,0.414-1.479,0.576-2.071,0.199
	c-0.619-0.394-0.269-1.056,0.181-1.406c1.449-1.127,3.134-1.982,4.947-2.322C161.411,194.724,162.379,194.653,162.569,195.363z
	 M333.176,164.757c-2.114-3.67-3.894-7.439-3.484-11.771c0.09-0.954,3.003-1.52,2.895-0.373c-0.373,3.948,1.285,7.479,3.18,10.824
	c0.307-0.049,0.609-0.107,0.891-0.219c1.291-0.513,3.021,0.406,1.135,1.155c-0.84,0.334-1.795,0.254-2.6,0.574
	C334.611,165.177,333.56,165.423,333.176,164.757z M342.819,149.863c0.018,1.18,0.314,2.313,1.418,2.902
	c0.449,0.24-0.782,0.757-0.873,0.79c-0.495,0.176-1.35,0.456-1.861,0.183c-1.174-0.626-1.563-1.835-1.582-3.098
	C339.91,149.845,342.813,149.42,342.819,149.863z M327.819,157.613c0.286,0.59-0.869,1.1-1.232,1.197
	c-0.562,0.15-1.373,0.184-1.666-0.421c-0.437-0.901-0.505-1.74-0.506-2.729c0-0.646,1.165-0.991,1.631-1.042
	c0.548-0.06,1.278,0.052,1.278,0.724C327.326,156.167,327.457,156.864,327.819,157.613z M335.348,145.716
	c1.901-1.533,4.219-2.068,6.621-2.017c0.583,0.013,1.175,0.512,0.857,1.118c-0.352,0.669-1.204,0.875-1.894,0.861
	c-1.408-0.03-2.602,0.351-3.696,1.233C336.178,147.763,333.814,146.953,335.348,145.716z M325.954,150.792
	c-0.041,0.041-0.127,0.092-0.271,0.145c0.012-0.019,0.023-0.035,0.035-0.051C325.798,150.857,325.877,150.827,325.954,150.792z
	 M417.819,276.295c20.193,0,40.386,0,60.579,0c1.96,0,0.203,1.911-1.056,1.911c-19.841,0-39.682,0-59.523,0c0,0.052,0,0.104,0,0.156
	c0,0.968-2.897,1.447-2.897,0.776c0-0.311,0-0.622,0-0.933c-0.193,0-0.386,0-0.579,0c-1.721,0-0.577-1.471,0.579-1.832
	c0-13.912,0-27.824,0-41.736c0-0.968,2.897-1.447,2.897-0.776C417.819,248.007,417.819,262.151,417.819,276.295z M454.042,248.574
	c2.852,3.009,5.432,6.29,7.966,9.578c2.915-4.01,5.873-8.007,9.093-11.77c0.021-0.024,0.05-0.046,0.076-0.069
	c-1.388-0.397-3.348-0.03-4.492-0.016c-0.551,0.007-0.612-0.293-0.151-0.563c0.6-0.351,1.357-0.54,2.049-0.549
	c1.67-0.022,5.317-0.751,6.522,0.849c1.348,1.791,0.2,4.359,0.964,6.354c0.188,0.49-2.655,1.41-2.897,0.776
	c-0.638-1.666,0.104-3.712-0.458-5.378c-3.344,4.031-6.438,8.283-9.51,12.519c-0.426,0.588-2.121,1.28-2.696,0.532
	c-2.519-3.278-5.066-6.574-7.833-9.655c-3.647,5.445-6.758,11.326-10.913,16.386c-0.462,0.563-2.093,1.298-2.696,0.532
	c-2.294-2.917-3.189-6.601-5.259-9.605c-3.652,3.897-7.419,7.684-10.836,11.796c-0.609,0.734-3.537,0.922-2.703-0.081
	c4.006-4.823,8.481-9.208,12.713-13.828c0.47-0.513,1.966-0.929,2.51-0.32c2.431,2.721,3.357,6.26,5.201,9.324
	c3.852-5.196,6.895-11.028,10.653-16.281C451.81,248.457,453.395,247.891,454.042,248.574z M490.359,478.982
	c-0.927-0.609-3.552,0.696-2.27,1.538c7.785,5.112,28.593,3.292,27.286,16.462c-14.839,1.726-29.793,1.357-44.707,1.332
	c-0.116-1.939-0.589-3.906-2.186-5.159c-1.22-0.957-2.91-0.822-4.136,0.087c-0.913,0.676-1.551,1.73-2.027,2.875
	c0-4.782,0-9.563,0-14.345c0-0.014,0-0.029,0-0.043c3.162-0.241,6.291-0.266,9.39-0.354c5.214-0.148,10.347-0.507,15.424-2.443
	c0.731,0.508,2.921-0.197,2.686-1.07c-5.947-22.038-14.07-43.437-20.209-65.378c4.164,0.604,9.209-0.296,12.997-0.561
	c7.893-0.55,15.901-1.03,22.916-5.002c10.478-5.932,12.652-19.207,7.767-29.5c-1.507-3.175-2.937-5.611-6.503-5.742
	c-4.872-0.179-9.802,0.252-14.662,0.526c-6.241,0.353-12.478,0.769-18.719,1.114c-2.827,0.157-8.179,1.407-10.874,0.262
	c-0.061-0.026-0.134-0.04-0.213-0.049c0-4.231,0-8.462,0-12.693c1.912,0,3.824,0,5.736,0c-0.084,0.092-0.134,0.192-0.134,0.299
	c0,1.287,0,2.575,0,3.862c0,1.426,0,2.851,0,4.277c0,1.287,0,2.574,0,3.861c0,0.468,2.897,0.052,2.897-0.776
	c0-1.287,0-2.575,0-3.862c0-1.425,0-2.851,0-4.277c0-1.128,0-2.256,0-3.384c3.87,0,7.741,0,11.611,0
	c0.078,0,0.192-0.021,0.327-0.055c0.612,0.191,2.729-0.214,2.729-0.923c0-4.5,0-9,0-13.5c0-0.366-1.764-0.19-2.538,0.299
	c-4.423,0-8.845,0-13.267,0c0.607-0.167,1.138-0.444,1.138-0.799c0-4.042,0-8.083,0-12.124c0-0.417,0-0.835,0-1.253
	c0-3.214,0-6.429,0-9.644c1.924-0.046,3.848-0.116,5.77-0.233c7.688-0.47,19.609-0.971,24.083-8.459
	c3.895-6.52,4.434-13.839,4.721-21.27c0.246-6.375,0.667-12.734,0.348-19.115c-0.521-10.443-3.65-21.577-13.922-25.773
	c0-7.876,0-15.753,0-23.629c0-0.233-0.259-0.349-0.619-0.373c0.156-0.306,0.002-0.559-0.765-0.559c-11.052,0-22.104,0-33.156,0
	c0.064-0.215,0.05-0.45-0.082-0.694c-7.747-14.322-14.134-29.903-27.209-40.324c-12.189-9.714-29.061-8.808-43.844-8.729
	c0.385-4.831-6.179-6.887-9.938-8.169c-0.376-0.128-0.831-0.054-1.239,0.126c-0.237-0.25-0.474-0.501-0.702-0.759
	c8.402-12.159,6.256-27.668-3.062-37.546c0.14-0.06,0.266-0.132,0.364-0.22c18.047-16.173-27.906-34.933-25.24-8.83
	c-13.125,1.706-25.722,11.678-26.39,25.088c-0.054,0.102-0.056,0.187-0.017,0.255c-0.003,0.081-0.014,0.159-0.016,0.24
	c-0.006,0.218,0.057,0.39,0.16,0.528c-0.092,0.137-0.15,0.291-0.163,0.46c-0.707,9.438,2.282,20.791,8.514,28.609
	c0.039,0.049,0.082,0.093,0.121,0.142c1.364,1.689,2.873,3.219,4.538,4.515c3.988,3.103,8.114,2.112,12.75,1.748
	c3.499-0.275,5.816,0.889,7.514,2.79c-1.226,0.628-2.176,2.16-2.56,3.672c-0.43,1.692-0.785,3.82-0.891,5.94
	c-5.715,6.75-14.353,10.461-19.625,17.583c-6.72,9.079-7.789,22.029-10.731,32.896c-0.709-1.147-1.398-2.307-2.034-3.501
	c-0.259-0.486-0.89-0.576-1.485-0.421c0.172-0.566-0.135-1.101-1.176-0.961c-0.174,0.023-0.357,0.053-0.535,0.079
	c-2.03-6.721,1.126-13.178,2.344-19.968c0.358-2,0.992-9.888-2.775-9.234c-3.167,0.55-3.871,3.981-5.087,6.524
	c-0.43,0.898-0.965,1.713-1.552,2.483c-3.242-2.986-4.668-7.262-7.042-10.91c-1.939-2.981-5.402-5.75-8.987-4.007
	c-1.359,0.66-1.983,1.731-2.118,3.032c-1.194-1.026-2.576-1.614-4.238-1.116c-2.938,0.88-3.314,3.282-2.579,6.093
	c-1.472-0.236-2.979,0.219-4.12,1.471c-1.629,1.786-0.552,4.717,0.282,6.732c-0.224-0.044-0.451-0.074-0.682-0.083
	c-2.238-0.09-3.929,0.93-3.905,3.18c0.045,4.33,4.527,8.714,7.261,11.611c4.344,4.604,9.405,8.569,14.535,12.264
	c-0.602,0.655-1.134,1.359-1.597,2.11c-0.265,0.199-0.529,0.473-0.469,0.83c-0.097,0.299-0.012,0.521,0.181,0.672
	c0.566,1.717,1.857,3.496,2.649,5.01c2.086,3.984,4.197,7.956,6.289,11.937c2.166,4.121,4.319,8.249,6.401,12.413
	c0.743,1.486,3.475,5.333,3.156,7.084c-0.065,0.36,0.137,0.573,0.457,0.674c0.034,0.057,0.149,0.093,0.391,0.093
	c0.145,0,0.29,0,0.436,0c1.076,2.615,2.819,5.159,4.121,7.581c3.198,5.951,6.404,11.897,9.559,17.871
	c3.238,6.132,6.435,12.291,9.424,18.549c1.085,2.271,2.129,4.563,3.06,6.901c0.336,0.844,0.636,1.701,0.885,2.574
	c0.111,0.391,0.083,0.759,0.124,0.95c-0.548,0.148-0.914,0.543-1.012,0.95c-0.262,0.163-0.437,0.362-0.437,0.59
	c0,1.285,0,2.571,0,3.856c-19.709,0-39.418,0-59.128,0c0.013-0.043,0.025-0.086,0.025-0.132c0-1.5,0-3,0-4.5
	c0-0.153-0.178-0.239-0.445-0.269c-0.009-0.019-0.025-0.037-0.054-0.05c-0.137-0.258-0.443-0.451-0.942-0.495
	c-0.049-0.072-0.111-0.144-0.201-0.213c-0.834-0.648,3.682-9.429,4.174-10.47c2.966-6.269,6.192-12.416,9.424-18.549
	c3.149-5.977,6.359-11.921,9.559-17.871c1.331-2.476,3.078-5.057,4.179-7.725c0.73-0.332,1.285-0.725,0.464-0.725
	c-0.064,0-0.127,0-0.191,0c0.068-0.189,0.145-0.377,0.206-0.567c0.365-1.137-2.569-0.754-2.911,0.313
	c-0.027,0.085-0.064,0.169-0.093,0.254c-15.973,0-31.946,0-47.919,0c3.782-7.019,5.288-15.2,6.439-23.008
	c0.041-0.273-0.025-0.484-0.155-0.642c0.166-0.282,0.024-0.515-0.736-0.521c-0.652-0.005-1.303-0.024-1.955-0.04
	c6.357-7.364,14.268-16.563,15.348-26.405c0.322-2.932-1.229-4.442-4.01-3.436c-0.479,0.173-0.922,0.402-1.335,0.669
	c0.467-2.355,0.845-5.451-0.954-7.148c-1.385-1.307-3.154-0.96-4.625-0.127c0.194-3.068-0.537-5.491-3.384-5.623
	c-1.968-0.091-3.243,0.907-4.202,2.302c-0.321-1.348-1.058-2.326-2.429-2.643c-8.552-1.979-9.337,12.515-12.271,18.165
	c-0.634-0.48-1.25-0.986-1.82-1.547c-1.884-1.852-3.959-7.096-7.382-5.222c-3.546,1.941-0.665,8.646,0.538,11.279
	c2.869,6.277,7.375,11.499,6.189,18.75c-0.627-0.578-2.521-0.152-2.76,0.888c-1.381,6.015-4.11,11.876-6.797,17.397
	c-1.456,2.992-6.423,13.997-11.275,15.175c-4.807,0.543-8.978-9.205-10.708-12.436c-3.27-6.107-6.433-12.268-9.737-18.354
	c-2.167-3.991-4.929-7.222-8.358-9.761c0.315-0.132,0.587-0.327,0.74-0.59c2.732-4.699,2.157-8.822,0.579-13.836
	c-1.983-6.299-7.586-10.912-7.75-17.79c-0.01-0.417-0.222-0.696-0.526-0.858c0.678-3.238,0.403-6.647-0.82-9.887
	c1.224-0.661,2.089-1.859,2.149-3.487c0.084-2.307-0.996-5.388-2.929-7.083c0.562-0.145,1.052-0.384,1.103-0.73
	c0.826-5.634,0.486-12.76-2.75-17.637c-2.607-3.928-7.33-2.531-10.673-0.41c-0.113,0.024-0.223,0.047-0.324,0.07
	c-5.912-7.727-18.129-4.079-25.431-0.719c-4.708,2.167-8.564,5.498-11.134,10.001c-3.97,6.956-2.406,15.692-5.516,23.03
	c-2.639,6.225-8.247,10.928-12.518,16.007c-4.072,4.841-7.156,10.244-8.546,16.439c-0.036,0.16-0.063,0.319-0.094,0.479
	c-0.097-0.013-0.208-0.021-0.336-0.019c-7.649,0.087-15.75,1.182-21.337,6.91c-5.838,5.986-6.064,15.712-6.07,23.505
	c-0.011,15.355-4.443,41.836,15.324,46.655c0.379,0.092,0.95-0.061,1.432-0.311c-0.842,7.396-1.56,13.413,5.424,18.097
	c1.801,1.208,3.794,2.147,5.895,2.893c-0.392,0.215-0.673,0.513-0.662,0.864c0.461,14.375-6.094,31.845,8.962,40.977
	c0.39,0.236,1.219,0.081,1.837-0.221c-2.157,6.17-1.305,13.017,4.237,18.365c6.681,6.448,17.103,7.052,25.787,7.653
	c4.06,0.281,8.123,0.478,12.19,0.558c-0.109,0.104-0.178,0.216-0.178,0.339c0,20.366,0,40.732,0,61.098
	c-8.71-0.111-17.349-0.282-25.123,4.33c-0.165,0.098-0.28,0.194-0.371,0.288c-0.484-0.061-0.974-0.103-1.474-0.103
	c-6.479,0-11.75,5.271-11.75,11.75s5.271,11.75,11.75,11.75c6.058,0,11.057-4.608,11.682-10.503
	c0.181-0.026,0.363-0.075,0.539-0.153c7.389-3.288,15.407-2.751,23.297-2.708c0.234,0.001,0.511-0.077,0.783-0.196
	c0,3.983,0,7.966,0,11.949c0,0.076,0.082,0.126,0.208,0.157c-0.41,0.246-0.556,0.46,0.05,0.46c4.028,0,8.056,0,12.083,0
	c0.604,0,3.301-1.179,1.881-1.179c-0.133,0-0.267,0-0.4,0c0.044-0.068,0.075-0.14,0.075-0.215c0-29.395,0-58.79,0-88.184
	c3.369,0.042,6.736,0.133,10.105,0.14c0.104,0,0.281-0.038,0.488-0.099c-0.757,4.972-0.568,10.238-0.393,15.111
	c0.266,7.407,0.645,14.691-0.338,22.072c-0.48,3.605-0.971,8.815-2.813,12.231c-0.246,0.108-0.458,0.245-0.604,0.4
	c-0.076,0.035-0.144,0.071-0.19,0.108c-11.923,9.533-2.081,21.357-3.644,33.668c-0.028,0.223,0.048,0.287,0.256,0.37
	c3.816,1.538,8.738,1.467,12.71,0.148c2.448,2.852,6.014,4.368,10.923,4.523c4.68,0.148,9.396,0.124,14.078,0.177
	c3.603,0.042,7.122-0.153,10.411-1.725c0.473-0.226,0.873-0.47,1.218-0.727c5.994,0.408,12.115,1.46,18.123,1.057
	c1.736-0.116,7.339-1.227,7.655-3.625c0.892-6.77-4.211-10.503-8.722-14.739c-5.848-5.491-11.682-11.187-13.098-19.414
	c-0.032-0.184-0.273-0.266-0.6-0.276c-0.027-0.793,0.061-1.618,0.293-2.482c0.017-0.061,0.036-0.123,0.054-0.185
	c0.053-0.183,0.109-0.367,0.176-0.554c0.033-0.091,0.052-0.176,0.06-0.254c4.373-14.842,9.233-29.148,15.361-43.424
	c4.006-9.333,9.162-19.28,10.274-29.501c1.152-10.591-3.834-17.994-12.442-23.339c36.497,0,72.993,0,109.49,0
	c-0.142,0.116-0.249,0.246-0.294,0.39c-6.274,20.079-10.128,40.932-13.668,61.637c-3.092,18.083-5.803,36.274-7.713,54.523
	c-0.041,0.391,0.272,0.581,0.703,0.629c0.46,0.614,1.202,1.029,2.038,1.322c-8.684,5.423-30.409,3.246-27.792,18.798
	c0.067,0.4,0.599,0.509,0.916,0.55c15.592,1.969,31.322,1.519,47,1.5c0.637,0,1.418-0.5,1.76-0.983
	c0.392-0.172,0.688-0.408,0.713-0.667c0.193-1.973,0.597-6.117,2.333-2.609c0.575,1.161,0.954,2.458,1.277,3.71
	c0.084,0.326,0.61,0.332,0.858,0.332c3.5,0,7,0,10.5,0c0.522,0,1.899-0.265,2.031-0.933c1.205-6.085,3.292-14.165,2.033-20.623
	c0.788-0.507,0.411-1.094-0.304-1.286c-0.043-0.155-0.085-0.31-0.133-0.462c1.909-18.133,4.629-36.197,7.675-54.17
	c3.508-20.706,7.396-41.565,13.668-61.638c0.002-0.007,0-0.013,0.002-0.02c4.571,0,9.142,0,13.712,0
	c-0.038,0.096-0.059,0.195-0.043,0.299c0.459,3.057,0.979,6.106,1.539,9.147c-3.499,1.088-9.437-1.003-12.248,1.744
	c-5.25,5.131-8.91,11.839-10.218,19.073c-3.136,17.338,18.213,20.36,30.601,20.968c0.546,0.027,1.34-0.367,1.728-0.771
	c1.058,3.761,2.137,7.513,3.224,11.255c2.516,8.661,5.126,17.305,7.873,25.905c-0.001,3.478,0,6.955-0.028,10.432
	c-0.004,0.502,0.178,1.727,0.072,2.502c-0.101,0.077-0.184,0.153-0.229,0.223c-0.283,0.441-0.093,1.581-0.101,2.051
	c-0.054,3.355-0.049,6.711-0.045,10.067c-8.709-0.111-17.349-0.282-25.122,4.33c-0.165,0.098-0.28,0.194-0.371,0.288
	c-0.484-0.061-0.974-0.103-1.474-0.103c-6.479,0-11.75,5.271-11.75,11.75s5.271,11.75,11.75,11.75
	c6.058,0,11.057-4.608,11.682-10.503c0.181-0.026,0.363-0.075,0.539-0.153c7.389-3.288,15.407-2.751,23.297-2.708
	c0.383,0.002,0.884-0.204,1.283-0.469c0,4.13,0,8.26,0,12.39c0,0.089,0.107,0.146,0.279,0.174c-0.173,0.159-0.134,0.275,0.312,0.275
	c3.695,0,7.389,0,11.083,0c0.379,0,1.582-0.464,2.075-0.81c0.8-0.029,1.863-0.395,1.993-0.909c0.366-1.453,0.86-2.896,1.532-4.236
	c0.076-0.151,0.165-0.293,0.254-0.435c0.146,0.124,0.285,0.256,0.418,0.392c1.097,1.117,1.322,2.898,1.406,4.38
	c0.012,0.219,0.263,0.327,0.609,0.35c-0.168,0.376-0.004,0.699,0.807,0.7c15.799,0.019,31.657,0.478,47.369-1.506
	c0.586-0.074,1.505-0.387,1.622-1.078C520.768,482.242,498.788,484.517,490.359,478.982z M462.319,479.955
	c0-28.114,0-56.228,0-84.342c5.966,27.798,16.714,54.271,24.23,81.693C478.763,480.467,470.497,479.31,462.319,479.955z
	 M466.636,375.122c4.754-0.171,9.504-0.488,14.251-0.778c8.389-0.512,17.511-2.018,25.903-1.056
	c3.138,0.36,5.369,9.285,5.853,11.884c1.021,5.492-0.166,11.214-3.276,15.829c-5.108,7.577-14.514,8.38-22.805,9.158
	c-3.899,0.366-7.813,0.578-11.729,0.646c-1.582,0.027-3.772,0.314-5.3-0.221c-0.117-0.041-0.272-0.048-0.447-0.035
	c-2.582-9.426-4.788-18.955-6.266-28.687c-0.035-0.23-0.229-0.365-0.5-0.426c0-2.037,0-4.074,0-6.111
	C463.79,375.392,465.393,375.166,466.636,375.122z M467.922,333.263c0,0.417,0,0.835,0,1.253c0,4.041,0,8.082,0,12.124
	c0,0.008,0.008,0.015,0.009,0.022c-2.533,0-5.067,0-7.6,0c0.688-8.325-1.055-16.268-3.593-24.035
	c1.53,0.194,3.171,0.125,4.619,0.175c2.188,0.075,4.377,0.099,6.565,0.086C467.922,326.346,467.922,329.805,467.922,333.263z
	 M342.152,346.53c0-1.076,0-2.152,0-3.229c34.256,0,68.513,0,102.769,0c0,1.12,0,2.24,0,3.36c-34.265,0-68.53,0-102.794,0
	C342.14,346.619,342.152,346.575,342.152,346.53z M350.507,270.101c1.575,5.154,3.073,10.325,4.263,15.561
	c-4.689,0-9.377,0-14.066,0C345.291,281.525,348.352,275.865,350.507,270.101z M358.43,194.061c0.115,0.031,0.243,0.033,0.371,0.037
	c0.107,0.071,0.225,0.129,0.356,0.165c-0.008,1.009,2.393,0.805,2.837-0.142c0.258-0.552,0.538-1.097,0.808-1.646
	c0.499-0.063,0.993-0.193,1.2-0.349c0.731-0.55,1.351-0.854,1.949-0.958c-0.025,0.072-0.041,0.147-0.04,0.226
	c0.028,2.786,0.959,7.5-0.885,9.939c-0.272,0.159-0.484,0.359-0.566,0.592c-0.499,0.42-1.121,0.736-1.931,0.881
	c-5.605,1.004-5.235-5.025-5.203-8.881C357.68,193.924,358.044,193.957,358.43,194.061z M370.713,285.662
	c-13.221-24.252-11.509-54.097-11.4-80.941c0.962,0.12,1.966,0.082,2.898-0.024c0.775-0.088,1.53-0.275,2.243-0.544
	c0.364,27.487,5.767,57.228,18.953,81.509C379.176,285.662,374.945,285.662,370.713,285.662z M448.676,223.447
	c-0.296,1.042-0.295,1.955-0.206,3.03c0.064,0.763,0.201,1.524,0.289,2.285c0.06,0.518,0.278,4.153-1.936,2.711
	c-1.986-1.293-2.089-7.474-1.99-9.549c0.107-2.242,1.487-3.507,3.657-3.642c2.922-0.182,4.554,2.787,5.503,5.15
	c-0.77,0-1.539,0-2.308,0c-0.066,0-0.135,0.006-0.207,0.018c0.024-0.133,0.051-0.265,0.087-0.395
	C451.84,222.089,448.94,222.517,448.676,223.447z M443.215,219.29c-0.66,0.78-1.115,1.769-1.272,3.024
	c-0.305,2.444,0.344,5.274,0.811,7.672c0.105,0.54,0.305,1.048,0.571,1.507c-0.124,0.022-0.242,0.038-0.385,0.085
	c-3.558,1.174-3.52-5.275-3.683-7.337c-0.096-1.208-0.09-2.403,0.169-3.59c0.442-2.025,2.182-1.767,3.783-1.374
	c0.004,0.001,0.009,0.002,0.013,0.003C443.22,219.284,443.217,219.287,443.215,219.29z M437.417,231.154
	c0.051,0.134,0.11,0.256,0.171,0.376c-0.247-0.109-0.623-0.127-1.148,0.048c-3.515,1.174-3.485-5.118-3.687-7.235
	c-0.107-1.121-0.167-2.237-0.024-3.358c0.296-2.337,2.074-1.783,3.856-1.186c0.151,0.051,0.363,0.05,0.6,0.014
	c-0.543,0.829-0.868,1.897-0.884,3.247C436.271,225.719,436.46,228.666,437.417,231.154z M430.558,219.724
	c-0.521,0.77-0.826,1.792-0.82,3.123c0.013,2.651,0.216,5.577,1.087,8.085c0.078,0.224,0.172,0.424,0.273,0.613
	c-0.055,0.015-0.099,0.016-0.157,0.035c-4.504,1.494-6.629-11.069-1.168-11.943c0.271-0.043,0.566-0.047,0.875-0.03
	C430.617,219.646,430.586,219.683,430.558,219.724z M449.393,311.189c4.373,11.443,8.893,23.038,8.086,35.472
	c-3.229,0-6.457,0-9.686,0c0.014-0.043,0.026-0.086,0.026-0.132c0-1.5,0-3,0-4.5c0-0.146-0.175-0.229-0.437-0.258
	c-0.006-0.024-0.028-0.045-0.063-0.062c-0.156-0.293-0.522-0.509-1.152-0.509c-10.512,0-21.024,0-31.536,0
	c0.519-1.986-1.36-5.227-1.956-6.652c-2.734-6.541-5.998-12.875-9.207-19.192c-0.012-0.023-0.024-0.046-0.036-0.069
	c10.775,0.808,21.932,0.691,32.639-0.069C440.356,314.915,445.564,313.785,449.393,311.189z M502.856,275.135
	c0.247,4.933-0.06,9.875-0.289,14.801c-0.334,7.2-0.302,14.362-3.186,21.111c-3.757,8.794-15.415,8.892-23.628,9.395
	c-1.643,0.1-3.288,0.156-4.934,0.19c0-0.089,0-0.179,0-0.269c0-0.366-1.771-0.189-2.542,0.302c-1.712,0.007-3.424-0.007-5.134-0.047
	c-1.834-0.043-4.978,0.093-6.448-0.385c-0.24-0.078-0.507-0.077-0.772-0.022c-1.291-3.719-2.722-7.403-4.12-11.074
	c0.188-0.204,0.376-0.408,0.549-0.625c4.902-6.125-0.751-13.984-3.469-20.008c13.346,0,26.692,0,40.038,0c0,0.045,0,0.089,0,0.134
	c0,0.783,2.897,0.269,2.897-0.776c0-12.345,0-24.691,0-37.037C500.296,255.445,502.391,265.828,502.856,275.135z M488.934,225.07
	c-0.003,0.023-0.012,0.045-0.012,0.069c0,7.525,0,15.051,0,22.577c-0.825,0.491-1.292,1.402-0.159,1.771
	c0.056,0.018,0.104,0.043,0.159,0.062c0,12.483,0,24.966,0,37.448c-27.157,0-54.313,0-81.469,0c-0.042,0-0.088,0.006-0.133,0.011
	c0-20.544,0-41.09,0-61.635c5.477,0,10.954,0,16.431,0c-0.175,4.816,2.236,9.312,7.55,7.549c0.278-0.092,0.482-0.21,0.653-0.334
	c1.267,1.009,3.153,0.899,4.847,0.334c0.693-0.231,1.027-0.595,1.079-0.907c1.209,1.667,3.5,1.541,5.421,0.907
	c0.361-0.119,0.611-0.278,0.793-0.444c0.669,0.625,1.543,1.01,2.563,0.997c1.894-0.025,3.568-0.558,4.575-2.249
	c1.071-1.798,0.311-4.057,0.174-6.157C463.916,225.07,476.425,225.07,488.934,225.07z M447.438,210.181
	c1.146,2.212,2.263,4.432,3.374,6.632c-0.594-0.091-1.228-0.113-1.914-0.036c-1.365,0.155-2.668,0.477-3.777,1.039
	c-2.343-0.548-4.739-0.463-6.443,0.566c-2.023-0.641-4.236-0.853-5.957-0.26c-4.148-0.5-7.579,1.273-8.639,5.006
	c-1.483,0-2.966,0-4.449,0c-3.248-3.005-4.416-7.499-7.158-10.905c-0.521-0.648-3.293,0.333-2.712,1.055
	c2.44,3.031,3.618,6.906,6.14,9.85c-2.974,0-5.948,0-8.922,0c-0.807,0-1.334,0.505-1.462,1.036c-0.59,0.195-1.098,0.537-1.098,0.975
	c0,21.167,0,42.333,0,63.5c0,0.598,1.684,0.438,2.483-0.134c13.076,0,26.152,0,39.229,0c-0.211,0.192-0.311,0.413-0.212,0.634
	c2.393,5.371,7.79,12.978,4.208,18.52c-0.86,0.16-1.842,0.626-1.708,0.98c0.087,0.23,0.175,0.46,0.263,0.691
	c-0.048,0.044-0.099,0.086-0.147,0.129c-0.114,0.101-0.226,0.204-0.343,0.3c-1.886,1.558-4.143,2.506-6.549,3.091
	c-3.856,0.937-8.084,0.949-11.754,1.044c-9.045,0.234-18.356,0.347-27.394-0.426c-1-1.957-2.006-3.909-3.019-5.859
	c-2.043-3.938-4.098-7.87-6.16-11.798c-1.646-3.135-3.887-6.432-5.104-9.815c0.223-0.17,0.246-0.303-0.119-0.327
	c-0.034-0.103-0.078-0.204-0.11-0.306c-0.177-0.554-0.959-0.642-1.671-0.458c-13.376-24.623-18.753-54.866-18.981-82.676
	c0.428-0.488,0.787-1.049,1.054-1.687c1.084-2.584,0.602-5.729,0.473-8.526c0.006,0.004,0.012,0.007,0.019,0.011
	c1.761,1.083,3.401,2.37,5.134,3.499c0.05,0.033,0.109,0.057,0.174,0.076c0.207,1.063,2.471,0.912,2.82-0.177
	c1.147-3.574,2.549-7.025,4.069-10.447c0.216-0.485,0.426-0.972,0.647-1.457c1.122-2.464,2.942-5.088,3.897-7.71
	c0.271-0.001,0.542-0.002,0.813-0.003c14.875-0.071,30.289-0.51,42.521,9.238c1.811,1.443,3.473,3.03,5.038,4.708
	C439.509,195.669,443.65,202.864,447.438,210.181z M380.407,169.917c4.311,2.279,2.437,5.349,0.826,8.411
	c-2.436,4.631-4.514,9.547-6.229,14.514c-0.038,0.109-0.076,0.219-0.113,0.329c-0.803-0.599-1.625-1.211-2.471-1.768
	c-1.208-0.795-2.466-1.469-3.812-1.752c-1.7-0.358-3.364,0.135-4.865,0.938c3.767-7.263,8.488-14.179,13.823-20.309
	c0.098-0.112,0.16-0.214,0.207-0.312c0.396-0.27,0.654-0.645,0.589-1.021C379.05,169.247,379.733,169.561,380.407,169.917z
	 M345.62,170.065c0.101-0.045,0.207-0.087,0.293-0.139c1.023-0.614,2.049-1.228,3.109-1.775c0.421,1.033,0.458,2.149-0.329,3.09
	c-0.672,0.804-1.771-0.236-2.303-0.864c-0.151-0.178-0.453-0.238-0.803-0.22C345.597,170.126,345.609,170.096,345.62,170.065z
	 M323.108,152.378c0.817-0.006,2.36-0.313,2.399-0.891c0.011-0.166,0.05-0.293,0.119-0.444c0.018-0.04,0.038-0.074,0.057-0.106
	c-0.221,0.081-0.578,0.164-1.143,0.211c0.366-0.031,0.787-0.12,1.178-0.263c0.167-0.227,0.342-0.199,0.236-0.094
	c0.195-0.088,0.379-0.187,0.531-0.311c0.512-0.415-0.459-0.396-0.659-0.379c-0.927,0.078-2.203,0.41-2.834,1.194
	c-0.245-2.22-0.318-4.45-0.153-6.651c0.018-0.234-0.043-0.417-0.149-0.564c0.088-0.134,0.142-0.284,0.146-0.447
	c0.005-0.182,0.025-0.358,0.034-0.539c3.698-4.191,11.162-6.991,16.633-6.313c1.53,0.189,2.983,2.627,4.046,3.592
	c0.985,0.894,3.025,1.52,4.335,1.533c2.031,0.021,4.134-0.996,5.835,0.539c1.259,1.135,1.796,3.079,2.257,4.649
	c0.098,0.335,0.171,0.921,0.273,1.557c-0.102,0.153-0.142,0.317-0.079,0.487c2.017,5.489,0.889,11.349-4.88,13.991
	c-3.031,1.388-6.943,1.567-10.174,2.299c-3.806,0.862-8.463,2.127-11.138,5.185c-1.273-1.957-2.339-4.053-3.236-5.983
	C324.965,160.803,323.694,156.623,323.108,152.378z M351.082,178.064c3.727-1.354,7.165-3.499,9.755-6.454
	c5.194-5.925,1.098-15.362-0.018-21.998c-0.01-0.06-0.031-0.111-0.054-0.162c2.533-4.998,11.082,1.981,9.222,6.607
	c-0.023,0.059-0.055,0.117-0.082,0.175c-0.375,0.804-1.071,1.53-2.194,2.098c-0.578,0.292-1.063,0.944-0.663,1.576
	c2.302,3.63,4.76,6.989,8.084,9.699c-5.606,6.451-10.568,13.737-14.468,21.391c-1.29-3.876-2.667-8.74-5.778-11.146
	C353.713,178.944,352.428,178.388,351.082,178.064z M353.103,190.208c0.092-1.408,0.277-2.81,0.586-4.187
	c0.104-0.466,0.249-0.922,0.433-1.363c0.197,0.142,0.47,0.204,0.773,0.2c1.32,2.324,2.207,5.15,3.177,7.829
	c-0.448,0.025-0.896,0.08-1.343,0.166c-0.73-0.23-1.897,0.103-2.224,0.71c-0.571,0.265-1.104,0.589-1.586,0.966
	C352.862,193.067,353.014,191.551,353.103,190.208z M335.867,206.743c0.218-0.213,0.442-0.428,0.671-0.643
	c0.074-0.068,0.146-0.139,0.221-0.207c4.117-3.743,9.12-6.711,13.182-10.545c0.086,0.906,0.236,1.77,0.48,2.542
	c0.081,0.253,0.291,0.406,0.559,0.483c0.026,0.008,0.05,0.018,0.077,0.024c0.522,0.118,1.233-0.033,1.726-0.332
	c0.407-0.147,0.723-0.347,0.766-0.57c0.092-0.469,0.25-0.896,0.438-1.296c0.117-0.248,0.25-0.479,0.401-0.694
	c-0.002,0.133-0.005,0.265-0.007,0.399c-0.032,2.151,0.019,4.38,0.95,6.287c0.283,0.579,0.666,1.022,1.102,1.384
	c-0.002,0.021-0.01,0.042-0.01,0.064c-0.026,27.035-2.082,57.349,10.986,82.022c-3.194,0-6.389,0-9.583,0
	c0.001-0.044,0.004-0.087-0.005-0.133c-4.311-19.419-13.047-37.91-14-58c-0.044-0.929-2.951-0.339-2.897,0.776
	c0.649,13.703,4.919,26.661,8.938,39.677c-0.702,0.109-1.452,0.408-1.594,0.82c-0.814,2.369-1.772,4.765-2.917,7.068
	c-0.997,2.006-2.157,3.925-3.486,5.705c-1.052,1.409-2.222,2.713-3.523,3.888c-0.074,0.067-0.148,0.133-0.223,0.199
	c-3.167,0-6.334,0-9.502,0c-4.112,0-8.224,0-12.336,0c-0.1-0.266-0.207-0.532-0.292-0.799c-0.12-0.374-0.517-0.533-0.98-0.542
	c-0.436-1.443-1.537-3.087-2.016-4.079c-2.063-4.276-4.279-8.481-6.48-12.688c-2.275-4.348-4.577-8.682-6.86-13.026
	c-0.776-1.476-1.548-2.953-2.304-4.439c-0.478-0.938-0.487-1.384-0.675-1.411c0.566-0.943,1.275-1.802,2.113-2.569
	c1.049-0.961,2.285-1.786,3.618-2.5c2.986-1.599,6.479-2.619,9.609-3.221c0.04,0.09,0.066,0.18,0.107,0.271
	c0.259,0.567,1.967,0.124,2.639-0.356c0.02,0.077,0.048,0.155,0.09,0.235c3.361,6.316,7.962,11.834,11.532,18.023
	c0.663,1.149,3.42,0.049,2.65-1.286c-2.392-4.147-5.242-7.997-7.876-11.983c0.33-0.173,0.589-0.407,0.676-0.689
	c3.292-10.777,4.142-23.956,10.389-33.516c0.898-1.374,1.943-2.618,3.081-3.781C335.484,207.114,335.676,206.929,335.867,206.743z
	 M281.049,229.663c-2.017-2.375-3.86-5.161-4.31-8.296c-0.285-1.987,1.888,0.454,2.333,0.865c1.137,1.048,2.058,2.323,2.895,3.644
	c0.601,1.044,1.195,2.091,1.741,3.164c0.52,1.021,3.339,0.091,2.897-0.776c-0.158-0.311-0.326-0.618-0.491-0.926
	c0.029-0.052,0.042-0.101,0.018-0.142c-0.42-0.726-0.916-1.597-1.483-2.496c-1.569-2.751-3.151-5.494-4.069-8.552
	c-0.294-0.979-0.411-1.976-0.195-2.98c0.468-2.181,3.537,1.981,3.778,2.455c1.198,2.35,1.927,4.279,3.599,6.08
	c0.238,0.404,0.443,0.764,0.595,1.062c0.349,0.685,1.729,0.491,2.469,0.027c0.714-0.283,1.236-0.757,0.81-1.107
	c-0.381-0.314-0.727-0.633-1.055-0.958c-1.13-2.083-2.363-4.11-3.447-6.219c-0.667-1.296-1.241-2.632-1.716-4.009
	c-0.101-0.292-0.71-4.801,0.255-4.009c1.924,1.579,3.594,3.606,5.106,5.773c1.622,3.342,3.919,6.618,4.747,8.246
	c0.52,1.021,3.339,0.092,2.897-0.776c-0.096-0.189-0.205-0.386-0.313-0.582c0.086-0.18,0.089-0.375-0.029-0.576
	c-1.28-2.175-2.669-4.285-4.108-6.359c-1.346-2.544-2.287-5.171-1.77-7.579c0.418-1.951,3.895,1.588,4.35,2.097
	c1.198,1.34,2.031,3.001,2.859,4.581c1.561,2.979,3.031,5.939,5.686,8.108c0.142,0.116,0.343,0.174,0.571,0.192
	c-2.515,2.786-5.264,5.292-5.47,9.535c-0.023,0.474,2.855,0.105,2.897-0.776c0.247-5.076,4.497-8.018,7.416-11.68
	c0.908-1.14,1.465-2.6,2.061-3.915c0.227-0.515,0.467-1.024,0.71-1.531c0.015,0.044,0.016,0.082,0.036,0.129
	c2.059,5.003-0.403,11.008-1.723,15.89c-1.041,3.849-1.37,7.518-0.28,11.204c-4.79,0.979-10.088,2.782-13.896,5.87
	C291.494,240.004,285.81,235.271,281.049,229.663z M331.982,315.084c-3.505-6.719-7.102-13.39-10.692-20.063
	c-1.408-2.616-3.27-5.363-4.528-8.18c6.727,0,13.453,0,20.179,0c-0.014,0.446,1.643,0.316,2.353,0c9.604,0,19.209,0,28.813,0
	c0.403,0.301,1.179,0.234,1.809,0c4.731,0,9.462,0,14.193,0c0.296,0.22,0.791,0.243,1.284,0.146c0.993,2.589,2.67,5.105,3.931,7.512
	c3.145,6.001,6.299,11.997,9.399,18.021c3.188,6.194,6.333,12.415,9.254,18.74c1.042,2.255,2.042,4.533,2.916,6.86
	c0.29,0.772,0.603,2.687,0.986,3.082c-22.752,0-45.504,0-68.255,0c0.534-2.092-1.585-5.616-2.218-7.064
	C338.571,327.648,335.255,321.358,331.982,315.084z M139.077,360.788c0.06,0.033,0.173,0.052,0.353,0.052c8.565,0,17.13,0,25.695,0
	c0.432,0,0.864,0,1.296,0c0,0.015,0,0.03,0,0.044c0,11.326,0,22.651,0,33.977c-27.949,4.015-45.013-22.193-42.649-47.614
	c4.7,0.375,9.423,0.537,14.149,0.618c0,4.258,0,8.516,0,12.774C137.922,360.841,138.463,360.878,139.077,360.788z M120.42,377.161
	c-8.975-4.06-6.583-22.153-4.12-30.613c1.546,0.185,3.079,0.333,4.576,0.461c-0.945,9.219,0.591,18.431,4.188,26.412
	c-0.09,0.035-0.174,0.073-0.245,0.119C123.212,374.581,121.735,375.804,120.42,377.161z M182.819,340.863
	c-1.423-3.352-3.463-5.358-7.223-4.416c-4.089,1.026-7.398,5.628-11.386,1.718c-0.204-0.2-0.542-0.271-0.914-0.253
	c-1.108-5.879-0.258-12.325,3.074-16.771c0.125,0.033,0.274,0.055,0.469,0.053c9.642-0.067,19.707-1.305,27.897,4.829
	c0.333,0.249,0.903,0.228,1.425,0.056c-0.279,0.237-0.382,0.506-0.136,0.739c3.751,3.555,5.514,9.276,4.653,14.382
	c-0.567,0-1.135,0-1.703,0c0.233-0.231,0.376-0.515,0.344-0.838c-0.493-4.946-0.866-10.833-5.327-13.93
	c-1.016-0.705-3.581,0.708-2.243,1.637c4.044,2.808,4.229,8.622,4.673,13.07c0.002,0.022,0.012,0.04,0.016,0.062
	c-0.742,0-1.484,0-2.227,0c0.098-0.112,0.146-0.227,0.108-0.338c-1.921-5.656-1.452-11.993-7.768-14.709
	c-0.682-0.293-3.33,0.779-2.361,1.195c5.752,2.474,5.478,8.69,7.096,13.852c-0.836,0-1.671,0-2.507,0
	c-0.923-3.428-1.258-7.24-3.238-10.264c-1.981-3.026-5.753-3.364-9.042-3.269c-0.769,0.022-3.175,1.222-1.255,1.166
	c3.835-0.111,6.778,1.1,8.375,4.685c1.071,2.405,1.443,5.116,2.064,7.682c-0.948,0-1.896,0-2.843,0
	C182.869,341.091,182.868,340.978,182.819,340.863z M204.653,341.201c-0.381,0-0.761,0-1.142,0
	c1.078-5.462-0.753-11.687-4.795-15.517c-0.343-0.325-1.108-0.264-1.757-0.033c0.411-0.342,0.561-0.786,0.046-1.171
	c-1.813-1.358-3.719-2.36-5.687-3.12c-0.465-1.703-0.716-3.28-0.763-4.809c-0.055-1.792,0.184-3.515,0.738-5.274
	c0.004,0.005,0.009,0.01,0.013,0.015c5.002,5.566,12.534,13.508,20.249,13.295c-1.555,3.186-3.061,6.394-4.47,9.645
	C206.56,335.443,204.522,339.051,204.653,341.201z M164.7,341.281c0.156,0.047,0.314,0.079,0.472,0.114
	c0.109,0.016,0.213,0.044,0.328,0.044h0c1.465,0.255,3.016,0.065,4.687-0.526c1.663-0.588,3.167-1.626,4.736-2.414
	c2.524-1.267,3.81,0.505,4.775,2.633c0.011,0.023,0.021,0.045,0.032,0.068c-0.07,0-0.14,0-0.209,0c-2.006,0-4.013,0-6.019,0
	c-0.811,0-1.361,0.508-1.479,1.024c-0.26,0.161-0.434,0.356-0.434,0.581c0,1.285,0,2.571,0,3.856c-1.398,0-2.797,0-4.195,0
	c-0.011-0.344-0.487-0.609-1.055-0.702c-0.929-1.476-1.687-3.141-2.258-4.911C164.286,341.133,164.491,341.218,164.7,341.281z
	 M174.46,346.662c0.014-0.043,0.026-0.086,0.026-0.132c0-1.076,0-2.152,0-3.229c0.158,0,0.316,0,0.474,0
	c34.098,0,68.196,0,102.295,0c0,1.12,0,2.24,0,3.36c-34.223,0-68.446,0-102.668,0C174.544,346.662,174.502,346.662,174.46,346.662z
	 M302.876,286.84c-1.228,2.923-3.219,5.788-4.672,8.49c-3.59,6.674-7.18,13.349-10.692,20.064
	c-3.282,6.274-6.546,12.578-9.423,19.052c-0.522,1.174-2.526,4.655-2.424,6.755c-22.654,0-45.308,0-67.961,0
	c-0.048-0.067-0.109-0.134-0.192-0.199c-0.832-0.648,3.371-9.043,3.833-10.053c1.071-2.344,2.19-4.667,3.324-6.983
	c0.471-0.296,0.632-0.728,0.534-1.089c1.765-3.573,3.576-7.125,5.396-10.667c3.094-6.027,6.252-12.021,9.399-18.021
	c1.151-2.196,2.613-4.468,3.642-6.811c0.079-0.179,0.158-0.357,0.231-0.537c1.757,0,3.515,0,5.272,0
	C260.386,286.84,281.632,286.84,302.876,286.84z M251.223,285.662c-5.64,0-11.28,0-16.92,0c0.007-0.022,0.017-0.044,0.024-0.067
	c0.362-1.139-2.571-0.755-2.911,0.313c-0.063,0.198-0.144,0.396-0.215,0.593c-0.17,0.127-0.233,0.236-0.106,0.293
	c-1.212,3.208-3.356,6.353-4.918,9.327c-3.412,6.501-6.819,13.004-10.151,19.546c-1.156,2.269-2.301,4.545-3.433,6.828
	c-7.253,0.897-15.747-9.244-19.891-13.872c-0.073-0.082-0.164-0.142-0.262-0.194c0.027-0.056,0.046-0.109,0.074-0.165
	c1.897-3.828,3.169-7.502,3.374-11.806c0.449-9.443-9.083-15.614-8.567-25.096c0.031-0.563-2.846-0.167-2.897,0.776
	c-0.489,8.962,7.555,15.045,8.523,23.754c0.547,4.92-1.629,9.461-3.738,13.716c-1.788,3.608-1.978,6.987-1.218,10.705
	c-6.293-1.545-13.089-1.073-19.715-1.01c-0.037-0.253-0.288-0.454-0.875-0.503c-10.534-0.894-21.025-0.964-31.583-1.07
	c-4.468-0.044-8.955,0.125-8.529-5.104c0.009-0.022,0.023-0.042,0.03-0.065c2.364-8.612,4.54-17.296,5.776-26.151
	c0.7-5.011,2.214-14.001-2.375-17.717c-0.776-0.628-3.453,0.504-2.695,1.117c4.688,3.796,2.698,13.255,1.995,18.288
	c-1.122,8.03-3.162,15.942-5.298,23.758c-0.166,0.155-0.281,0.334-0.309,0.537c-0.647,4.786,1.643,6.588,6.217,7.064
	c11.149,1.16,22.543,0.36,33.775,1.118c-5.704,6.533-5.677,18.018-1.331,25.517c-2.769,0.042-5.548-0.054-8.31-0.086
	c-9.034-0.105-18.086-0.091-27.109-0.561c-8.535-0.444-17.807-1.233-25.48-5.302c-8.358-4.432-6.17-12.54-5.302-20.424
	c1.229-11.156,2.701-22.265,5.497-33.151c1.192-4.642,2.62-9.272,4.566-13.635c0.117-0.134,0.189-0.276,0.185-0.422
	c1.142-2.505,2.468-4.913,4.021-7.183c1.248-1.825,2.638-3.563,4.217-5.176c0.645-0.659,1.33-1.29,2.033-1.907
	c4.316-3.797,9.641-6.843,15.12-9.38c-0.292,3.927-1.188,8.289,0.1,11.978c1.113,3.188,4.503,2.355,7.459,2.247
	c1.446-0.053,2.787,0.072,3.708,0.921c0.246,0.227,0.464,0.499,0.644,0.839c1.739,3.293,0.686,8.284,4.246,10.519
	c5.027,3.155,12.184,5.764,18.149,5.738c0.179-0.001,0.379-0.048,0.582-0.122c0.217,0.005,0.46-0.022,0.707-0.076
	c-0.019,0.024-0.039,0.047-0.058,0.072c-0.65,0.869,2.192,0.487,2.648-0.123c1.747-2.333,6.407-4.754,6.446-8.118
	c0.03-2.523-2.4-4.776-2.603-6.907c-0.105-1.105,0.389-2.178,2.139-3.238c0.084-0.051,0.155-0.105,0.234-0.157
	c4.945-3.267,0.329-9.112-2.943-13.212c2.864,0.845,5.704,1.761,8.439,2.981c8.776,3.917,12.535,12.499,16.546,20.611
	c2.73,5.521,5.906,11.12,9.187,16.332c1.418,2.253,3.13,4.446,5.292,5.662c-0.087,0.346,0.062,0.697,0.608,0.94
	c6.307,2.803,11.586-5.739,14.249-10.035c4.406-7.11,8.297-15.461,10.319-23.666c5.655,0.134,11.296,0.624,16.948,0.849
	c0.169,0.103,0.589,0.105,1.05,0.042c0.757,0.025,1.514,0.04,2.271,0.053c-1.139,7.694-2.61,15.664-6.388,22.545
	c-0.004,0.007-0.007,0.015-0.011,0.022c-0.02,0.036-0.027,0.067-0.042,0.101C252.032,285.662,251.627,285.662,251.223,285.662z
	 M178.249,210.963c3.171,8.061-0.075,15.755-6.767,21.069c-5.445,4.324-11.3,4.807-11.619,13.146
	c-0.158,4.138,2.316,7.909,3.776,11.68c2.036,5.262,3.118,10.729,3.382,16.285c-1.844-4.149-4.11-8.064-6.799-11.834
	c-2.21-3.099-4.579-6.151-6.952-9.129c-2.488-3.123-5.889-5.268-8.183-8.559c2.792-4.299,3.615-10.543,2.637-15.328
	c-0.481-2.356-2.057-3.656-4.208-4.497c-1.973-0.771-3.436-1.282-3.917-3.524c-0.422-1.971,0.297-3.96,1.472-4.865
	c1.247,0.143,2.877,1.212,4.209,2.266c1.102,0.982,1.708,2.13,2.508,3.449c0.517,0.852,2.013,0.236,2.532-0.239
	c3.679-3.375,2.463-7.338,0.878-11.308c1.564-0.639,3.181-1.149,4.706-1.881c0.384,2.567,2.116,4.854,4.795,5.977
	c5.533,2.321,8.638-3.161,8.161-8.082c0.9,0,1.8,0,2.7,0c0.025,0,0.054-0.006,0.079-0.006c1.201,2.368,4.752,8.688,1.46,9.659
	c-1.772,0.522-1.246,2.542,0.54,2.016c3.662-1.08,4.009-3.756,3.278-6.61c0.093,0.033,0.182,0.07,0.277,0.1
	C177.545,210.855,177.898,210.925,178.249,210.963z M146.645,262.81c-2.058-2.431-4.611-1.656-7.419-1.212
	c-6.424,1.016-4.045-10.093-3.762-14.05c1.727-0.742,3.452-1.442,5.149-2.102c0.288-0.085,0.554-0.164,0.795-0.233
	c-0.035,0.042-0.068,0.088-0.104,0.129c-0.441,0.502,0.79,0.474,1.732,0.229c1.6,2.022,3.544,3.646,5.46,5.411
	c2.726,2.511,4.746,5.813,6.975,8.747c4.645,6.115,8.292,12.362,10.748,19.584c-2.548-0.224-5.735-0.923-8.712-1.991
	c-2.944-1.056-5.676-2.468-7.355-4.129c-0.63-0.624-1.019-1.399-1.283-2.254C148.053,268.308,148.428,264.916,146.645,262.81z
	 M172.512,202.494c-0.065,0.442-0.097,0.884-0.097,1.321c-0.094,0.027-0.185,0.06-0.272,0.097c-1.154,0-2.309,0-3.463,0
	c-0.042,0-0.091,0.009-0.135,0.011c-0.517-1.832-1.603-3.425-3.328-4.286c0.048-0.055,0.062-0.097,0.021-0.119
	c-3.021-1.601-6.682,0.433-8.28,3.098c-0.679,1.131-1.032,2.317-1.114,3.483c-0.387-0.002-0.793,0.103-1.065,0.234
	c-1.363,0.66-2.8,1.139-4.209,1.687c-0.659-1.627-1.281-3.243-1.552-4.806c-0.433-2.499,7.163-7.992,8.913-9.874
	c1.621-1.742,3.246-3.446,5.195-4.827c3.192-2.263,5.681,0.972,7.293,3.578c-0.003,0.017-0.006,0.035,0.003,0.049
	c0.856,1.312,1.547,2.723,2.189,4.158c-0.22-0.103-0.436-0.212-0.64-0.344c-0.56-0.36-1.32-0.216-1.905,0.021
	c-0.199,0.081-1.346,0.722-0.796,1.075c0.77,0.496,1.572,0.828,2.438,1.117c0.53,0.177,1.141,0.091,1.668-0.123
	c0.227,0.531,0.454,1.06,0.683,1.586C173.253,200.346,172.682,201.342,172.512,202.494z M162.252,200.484
	c2.449,1.092,3.398,3.708,3.698,6.206c0.16,1.332-0.064,6.604-2.257,6.097c-3.19-0.738-4.995-3.894-4.96-6.958
	c0.02-1.708,1.38-6.215,3.536-5.434C162.23,200.439,162.221,200.471,162.252,200.484z M172.692,269.442
	c3.03,4.27-0.034,6.673-2.839,9.503c0.444-7.108-0.344-13.978-2.568-20.775c-1.278-3.908-4.325-8.159-4.58-12.307
	c-0.003-0.049,0-0.093-0.003-0.141c2.217,0.833,4.477,1.537,6.751,2.196c1.774,2.539,3.668,4.985,5.336,7.6
	c1.07,1.676,1.735,3.048,1.37,5.104c-0.253,1.422-2.33,1.866-3.197,2.766C171.173,265.242,171.226,267.375,172.692,269.442z
	 M233.641,236.156c-0.183-0.831-0.29-1.672-0.322-2.522c0.028-0.303,0.055-0.606,0.083-0.91c1.368,1.509,2.478,3.238,3.942,4.678
	c3.541,3.481,8.504,4.407,10.078,9.738c0.206,0.699,3.094-0.109,2.897-0.776c-1.15-3.9-4.278-5.783-7.343-7.853
	c0.101-0.066,0.188-0.137,0.247-0.215c1.941-2.593,2.757-5.573,3.514-8.679c0.368-1.507,3.939-12.122,5.856-7.797
	c0.856,1.932,0.62,4.386,0.007,6.892c-1,2.533-1.894,5.11-2.681,7.715c-0.063,0.208,0.001,0.357,0.142,0.459
	c-0.049,0.182-0.101,0.367-0.142,0.541c-0.264,1.114,2.661,0.664,2.901-0.35c0.375-1.582,1.879-5.494,2.691-9.283
	c0.932-2.393,2.076-4.667,3.54-6.613c3.123,1.154,0.03,11.136-1.212,15.275c-0.242,0.416-0.505,0.832-0.822,1.252
	c-0.362,0.482,0.034,0.703,0.63,0.731c0.664,0.375,2.486-0.07,2.673-0.862c0.074-0.314,0.194-0.726,0.344-1.213
	c1.082-1.861,1.597-3.754,1.926-6.039c0.247-1.709,0.862-2.952,2.11-4.161c0.871-0.844,1.609,2.013,1.666,2.385
	c0.49,3.219-0.582,6.681-1.646,9.986c-0.423,1.143-0.768,2.287-1.072,3.322c-0.014,0.046-0.004,0.084,0.016,0.12
	c-0.087,0.319-0.17,0.636-0.244,0.949c-0.263,1.115,2.662,0.664,2.901-0.35c0.185-0.783,0.39-1.562,0.604-2.337
	c1.055-2.598,3.692-8.361,4.277-6.899c1.078,2.692-0.505,6.195-1.541,8.656c-2.987,7.097-8.053,13.522-13.049,19.376
	c-5.07-0.206-10.131-0.621-15.202-0.8c0.01-0.023,0.025-0.046,0.03-0.07C243.319,251.122,235.841,244.676,233.641,236.156z
	 M180.499,207.703c0.007,0.46-0.076,0.908-0.206,1.347c-0.448-0.067-1.074,0.063-1.577,0.276c-1.776-0.863-2.856-2.727-3.269-4.67
	c-0.241-1.137-0.195-2.351,0.086-3.473c0.083-0.331,0.22-0.641,0.372-0.945l0.095,0.202l0.944-0.218
	c1.542,0.91,2.482,2.845,3.038,4.446C180.32,205.643,180.482,206.673,180.499,207.703z M174.03,180.447
	c-1.004,0.018-1.925,0.072-2.743,0.15C172.331,180.146,173.242,180.125,174.03,180.447z M79.861,281.41
	c-0.167-7.405-0.405-15.032,2.129-22.111c3.242-9.058,12.536-11.062,21.168-11.161c0.382-0.004,0.837-0.199,1.212-0.458
	c-0.267,2.095-0.199,4.193,0.083,6.302c0.498,3.723,0.779,4.651-1.764,7.208c-4.217,4.24-1.966,8.23,1.343,11.878
	c-1.396,3.298-2.529,6.725-3.566,10.11c-3.825,12.486-5.286,25.582-6.71,38.513C76.192,317.273,80.17,295.092,79.861,281.41z
	 M107.162,344.817c2.138,0.608,4.353,1.051,6.575,1.386c-1.739,5.418-2.24,11.305-2.166,16.955c0.07,5.31,0.92,13.159,6.762,15.23
	c0.26,0.092,0.661,0.02,1.075-0.111c-1.636,1.905-2.964,4.027-3.897,6.262C101.223,375.86,107.397,358.543,107.162,344.817z
	 M147.958,410.329c-9.055-0.559-18.797-1.119-25.968-7.34c-9.274-8.047-5.056-21.765,3.764-28.13
	c7.245,14.743,21.686,24.854,40.488,22.119c0.063-0.009,0.121-0.026,0.18-0.041c0,4.641,0,9.282,0,13.923
	c-1.625,0.156-3.47-0.049-4.945-0.048C156.967,410.815,152.458,410.607,147.958,410.329z M130.121,499.751
	c-5.376,0-9.75-4.374-9.75-9.75s4.374-9.75,9.75-9.75s9.75,4.374,9.75,9.75S135.497,499.751,130.121,499.751z M141.853,489.646
	c-0.146-4.857-3.247-8.974-7.568-10.62c6.973-3.924,15.043-3.416,22.805-3.301c0,0.138,0,0.276,0,0.414
	c0,0.468,2.897,0.052,2.897-0.776c0-0.155,0-0.31,0-0.465c0.341-0.404,0.435-0.839,0-1.032c0-20.513,0-41.025,0-61.538
	c0.502,0.003,1.005,0.015,1.507,0.014c1.541-0.001,3.292,0.104,4.928-0.078c0,24.83,0,49.659,0,74.489
	C158.061,486.698,149.69,486.376,141.853,489.646z M169.244,499.578c0.044-0.068,0.075-0.14,0.075-0.215
	c0-46.174,0-92.348,0-138.522c2.701,0,5.402,0,8.103,0c0,11.292,0,22.583,0,33.875c-0.54,0.492-0.718,1.187,0,1.474
	c0,34.463,0,68.926,0,103.389C174.696,499.578,171.97,499.578,169.244,499.578z M221.008,361.088
	c0.238,0.137,0.453,0.283,0.685,0.422c-14.89,2.571-25.582,17.779-25.464,32.555c-0.34,0.011-0.667,0.025-0.954,0.031
	c-5.029,0.098-9.944,0.644-14.957,0.232c0-11.163,0-22.326,0-33.489c13.578,0,27.155,0,40.732,0
	C220.947,360.946,220.918,361.037,221.008,361.088z M180.319,410.018c0-4.494,0-8.989,0-13.483c2.57,0.183,5.136,0.178,7.727,0.077
	c1.415-0.055,8.762-1.441,9.665-0.058c0.109,0.167,0.269,0.278,0.453,0.351c-0.11,0.05-0.207,0.104-0.273,0.164
	c-3.97,3.547-5.899,8.15-6.801,13.099C187.499,410.137,183.91,410.031,180.319,410.018z M189.708,461.24
	c1.559-2.46,1.993-6.019,2.585-8.797c1.37-6.416,1.633-12.915,1.429-19.45c-0.354-11.355-3.086-27.039,6.459-35.567
	c0.549-0.49,0.263-0.724-0.272-0.783c0.508-0.324,0.804-0.831,0.453-1.367c-0.285-0.437-0.707-0.71-1.189-0.895
	c-0.327-13.16,8.699-28.409,22.411-30.704c0.809-0.136,1.359-0.777,1.455-1.337c10.265,6.749,13.773,16.258,10.359,28.576
	c-2.728,9.842-7.981,19.184-12.628,28.239c-7.167,13.968-10.891,28.933-15.166,44.004c-0.022,0.078,0,0.141,0.048,0.191
	c-0.051,0.092-0.078,0.188-0.064,0.288c0.461,3.284,1.755,6.021,3.538,8.441c-0.204,0.229-0.271,0.491-0.081,0.753
	c1.815,2.5,4.514,4.838,4.291,8.201c-0.32,4.833-10.905-3.863-11.708-4.505c-5.184-4.147-9.557-8.996-11.963-15.238
	C189.679,461.273,189.697,461.257,189.708,461.24z M218.851,447.723c-0.333,3.082-0.652,6.166-0.957,9.251
	c-0.62-0.016-1.365,0.116-1.688,0.365c-3.597,2.772-5.658,6.36-6.175,10.517c-0.746-1.538-1.292-3.188-1.545-4.992
	c-0.006-0.046-0.024-0.086-0.049-0.123c0.011-0.022,0.026-0.043,0.033-0.065c3.89-13.715,7.441-27.094,13.253-39.942
	C220.715,431.057,219.75,439.386,218.851,447.723z M211.161,498.491c-9.102,0.101-14.242-3.037-16.013-12.302
	c-0.154-0.808-3.067-0.112-2.897,0.776c0.573,2.997,1.53,5.465,2.91,7.419c-2.604,0.712-9.338,1.51-9.177-1.529
	c0.192-3.62-0.425-7.053-1.231-10.568c-1.677-7.313-2.913-13.87,2.358-19.362c3.88,9.174,12.528,16.535,20.918,21.52
	c1.688,1.003,5.462,0.417,6.694-1.15c1.216-1.548,1.543-2.967,1.355-4.319c5.663,4.58,12.07,8.703,15.145,15.081
	C234.171,500.172,214.633,498.452,211.161,498.491z M251.009,485.258c4.403,4.335,7.601,12.29-1.557,12.189
	c-5.159-0.057-10.337-0.833-15.485-1.158c-0.071-0.004-0.169,0.008-0.279,0.029c2.141-3.644-3.602-8.95-6.34-11.439
	c-4.588-4.17-10.671-7.963-14.713-12.982c0.187-0.18,0.299-0.388,0.274-0.618c-0.501-4.676,0.773-8.735,3.896-11.925
	c-0.804,5.213,2.826,10.161,6.069,13.88c3.066,3.517,7.863,8.271,12.7,9.059c3.418,0.558,6.31-2.335,6.61-5.555
	C245.009,479.691,248.139,482.432,251.009,485.258z M245.675,361.088c10.224,5.881,15.253,14.272,13.168,26.069
	c-1.768,10-6.702,19.629-10.69,28.892c-5.769,13.396-10.257,26.923-14.357,40.854c-0.055,0.071-0.103,0.146-0.132,0.228
	c-0.22,0.616-0.359,1.219-0.462,1.818c-0.311,1.068-0.625,2.133-0.932,3.207c-0.081,0.283,0.361,0.378,0.92,0.34
	c0.305,1.844,1.042,3.642,2.023,5.443c0.675,1.24,7.776,14.098,1.218,12.347c-6.591-1.759-16.009-11.277-16.743-19.041
	c0.393-0.201,0.709-0.468,0.778-0.752c0.007-0.029,0.014-0.058,0.021-0.087c0.038-0.158,0.007-0.282-0.066-0.38
	c-0.105-0.887,0.293-2.598,0.377-3.461c0.346-3.542,0.727-7.082,1.109-10.62c1.058-9.798,2.198-19.587,3.415-29.367
	c0.035-0.278-0.1-0.459-0.323-0.567c4.789-9.31,9.923-18.931,12.157-29.18c2.495-11.448-2.79-20.137-12.174-25.99
	c6.913,0,13.825,0,20.737,0C245.614,360.946,245.584,361.037,245.675,361.088z M399.854,361.23
	c-6.274,20.079-10.128,40.932-13.668,61.637c-3.053,17.858-5.732,35.822-7.639,53.843c-0.12,0.137-0.175,0.283-0.125,0.429
	c0.021,0.064,0.036,0.132,0.057,0.197c-0.002,0.018-0.004,0.036-0.006,0.054c-0.018,0.173,0.038,0.303,0.138,0.403
	c0.004,0.016,0.009,0.031,0.013,0.046c-6.384,2.146-14.154,1.782-20.651,1.646c-3.489-0.072-6.976-0.318-10.439-0.749
	c-1.657-0.206-5.793-0.396-6.825-2.081c-0.064-0.105-0.161-0.183-0.274-0.242c1.908-18.048,4.616-36.027,7.647-53.917
	c3.508-20.706,7.396-41.565,13.668-61.638c0.002-0.007,0-0.013,0.002-0.02c12.799,0,25.597,0,38.396,0
	C400.007,360.957,399.899,361.086,399.854,361.23z M377.119,498.531c-1.709,0-3.419,0-5.129,0c-1.145,0-2.29,0-3.435,0
	c1.293,0,0.282-1.361-0.198-2.637c-2.339-6.227-7.463-2.365-8.333,2.423c-9.021,0.021-18.042,0.133-27.061-0.112
	c-4.988-0.135-9.967-0.461-14.932-0.958c-4.251-0.426-3.334-4.443-1.189-7.103c5.725-7.098,18.161-5.054,25.459-9.847
	c0.185-0.121,0.311-0.236,0.399-0.347c0.323,0.058,0.633,0.113,0.902,0.166c4.361,0.849,8.861,1.062,13.291,1.192
	c7.05,0.208,15.178,0.41,22.116-1.794C380.053,485.484,378.304,492.742,377.119,498.531z M190.664,359.662c-3.313,0-6.628,0-9.942,0
	c-13.137,0-26.274,0-39.411,0c-0.108,0-0.285,0.039-0.492,0.101c0-3.787,0-7.574,0-11.361c0-0.166,0-0.331,0-0.496
	c4.629,0.05,9.26,0.046,13.874,0.1c0.02,0,0.039,0,0.059,0c3.186,0.038,6.41,0.172,9.601,0.034c0.024,0.032,0.045,0.067,0.069,0.099
	c0.347,0.448,1.563,0.077,2.308-0.299c105.234,0,210.467,0,315.701,0c0.042,0,0.097-0.007,0.158-0.018c0,3.946,0,7.893,0,11.839
	C385.28,359.662,287.972,359.662,190.664,359.662z M431.352,360.84c5.69,0,11.38,0,17.07,0c0,28.219,0,56.438,0,84.657
	c0,7.32,0,14.64,0,21.959c-0.207-0.591-0.407-1.185-0.612-1.776c-2.072-5.981-4.067-11.991-5.99-18.024c0-0.265,0-0.529,0-0.794
	c0-0.094-0.12-0.15-0.306-0.177c-2.627-8.272-5.138-16.582-7.569-24.906c-5.82-19.925-11.367-40.148-14.511-60.696
	c-0.013-0.081-0.026-0.162-0.039-0.243C423.38,360.84,427.366,360.84,431.352,360.84z M427.234,410.471
	c-13.097-0.643-31.727-3.81-28.606-21.065c0.563-3.116,1.899-6.106,3.358-8.888c1.014-1.934,3.901-7.52,6.209-7.941
	c3.224-0.589,6.822-0.051,10.029-0.873c2.473,13.068,5.79,26,9.38,38.815C427.5,410.496,427.382,410.478,427.234,410.471z
	 M411.621,499.751c-5.376,0-9.75-4.374-9.75-9.75s4.374-9.75,9.75-9.75s9.75,4.374,9.75,9.75S416.997,499.751,411.621,499.751z
	 M448.269,486.755c-8.477-0.046-16.971-0.424-24.917,2.892c-0.146-4.857-3.247-8.974-7.568-10.62
	c6.973-3.924,15.043-3.416,22.805-3.301c0,0.138,0,0.276,0,0.414c0,0.468,2.897,0.052,2.897-0.776c0-0.156,0.001-0.311,0.001-0.467
	c0.338-0.402,0.431-0.834,0.002-1.028c0.001-3.253,0.001-6.506,0.027-9.758c0.004-0.502-0.178-1.727-0.072-2.502
	c0.101-0.077,0.184-0.153,0.229-0.223c0.283-0.441,0.093-1.581,0.101-2.051c0.011-0.689,0.009-1.378,0.016-2.067
	c1.969,5.93,4.004,11.837,6.131,17.707c0.075,0.208,0.261,0.333,0.5,0.397c0,3.798,0,7.596,0,11.395
	C448.371,486.761,448.327,486.755,448.269,486.755z M451.319,499.531c0-46.23,0-92.46,0-138.69c2.701,0,5.402,0,8.103,0
	c0,46.246,0,92.492,0,138.738c-2.704,0-5.409,0-8.113,0C451.312,499.562,451.319,499.547,451.319,499.531z M414.701,148.407
	c4.205,1.19,9.339,0.713,13.651,0.866c0.651,0.023,5.083-0.241,5.326,0.591c0.26,0.891-0.049,2.2-0.173,3.104
	c-0.204,1.482-0.569,2.958-0.968,4.399c-0.35,1.261,1.934,0.887,2.422,0.528c3.5-2.576,7.069-5.125,10.842-7.288
	c3.121-1.789,7.461-0.926,10.97-1.02c2.781-0.074,5.581-0.218,8.318-0.742c0.161-0.031,0.324-0.049,0.484-0.083
	c8.874-2.658,12.833-9.333,13.913-18.223c0.604-4.97,0.405-10.165,0.304-15.163c-0.092-4.572-0.491-9.653-2.758-13.726
	c-2.35-4.223-5.771-6.574-10.413-7.768c-4.015-1.032-8.252,0.245-12.315,0.245c-8.014,0-15.987-0.414-23.998-0.6
	c-8.212-0.19-17.104-0.717-22.66,6.358c-5.753,7.326-4.291,19.439-4.009,28.103C403.904,136.193,405.712,145.862,414.701,148.407z
	 M406.614,112.825c0.26-4.645,1.244-9.306,4.167-13.029c3.295-4.196,8.896-4.093,13.717-4.209c7.32-0.176,14.614,0.622,21.928,0.622
	c2.537,0,5.073,0,7.61,0c5.207,0,9.905-1.511,14.88,0.961c8.66,4.303,8.032,16.631,7.952,24.708
	c-0.099,9.977-0.433,21.529-11.817,24.939c-6.627,1.388-14.492-1.12-20.523,2.121c-2.873,1.544-5.607,3.405-8.274,5.326
	c0.845-3.418,1.066-6.819-3.332-6.947c-4.583-0.133-9.165-0.31-13.744-0.531c-5.67-0.274-9.04-3.367-10.933-8.511
	C405.427,130.617,406.165,120.855,406.614,112.825z M188.979,175.875c4.855,0.563,9.828,0.558,14.707,0.731
	c0.651,0.023,5.083-0.241,5.326,0.591c0.26,0.891-0.049,2.2-0.173,3.104c-0.204,1.482-0.569,2.958-0.968,4.399
	c-0.35,1.261,1.934,0.887,2.422,0.528c3.5-2.576,7.069-5.125,10.842-7.288c3.121-1.789,7.461-0.926,10.969-1.02
	c2.945-0.079,5.914-0.22,8.803-0.825c5.524-1.428,12.602-1.839,13.913-8.457c0.874-4.412,0.394-9.455,0.304-13.93
	c-0.092-4.572-0.491-9.653-2.758-13.726c-2.35-4.223-5.771-6.574-10.413-7.768c-3.916-1.007-7.971,0.245-11.927,0.245
	c-7.707,0-15.368-0.345-23.071-0.569c-7.174-0.209-17.016-1.265-22.456,4.556c-6.792,7.268-5.647,18.232-5.59,27.424
	C178.956,171.525,181.249,174.979,188.979,175.875z M182.048,149.891c0.389-4.888,1.74-9.813,5.503-13.183
	c3.493-3.128,9.171-2.751,13.546-2.803c7.025-0.083,14.029,0.636,21.05,0.636c2.537,0,5.073,0,7.609,0
	c5.118,0,9.581-1.48,14.493,0.961c8.66,4.303,8.032,16.631,7.952,24.708c-0.032,3.221,0.422,7.034-1.085,10.005
	c-1.416,2.791-8.116,3.258-10.732,3.934c-6.627,1.388-14.492-1.12-20.523,2.121c-2.873,1.544-5.607,3.404-8.274,5.326
	c0.845-3.418,1.066-6.819-3.332-6.947c-4.583-0.133-9.165-0.31-13.744-0.531c-3.354-0.162-7.491-0.035-10.391-1.974
	c-2.736-1.83-2.271-7.07-2.288-9.79C181.807,158.196,181.718,154.042,182.048,149.891z" fill="#000000"></path>
</svg>