<?xml version="1.0" standalone="no"?>
<svg version="1.1" id="Layer_2" xmlns="http://www.w3.org/2000/svg" xmlns:xlink="http://www.w3.org/1999/xlink" x="0px" y="0px" viewBox="0 0 2000 2000" enable-background="new 0 0 2000 2000" xml:space="preserve">
<path id="color_x5F_11" fill="#eab6c9" d="M1234.4,380.4l16.2,8.3l12.4-14.3l5.3,23.4l17.4,9.4l-17.4,11.9l1.9,26.2l-19.3-26.1
	l-21.5,3.4l12.5-15.5L1234.4,380.4z M1357.5,480.6l-12.5,15.5l21.5-3.4l19.3,26.1l-1.9-26.2l17.4-11.9l-17.4-9.4l-5.3-23.4
	l-12.4,14.3l-16.2-8.3L1357.5,480.6z M1336.2,358.8l-12.5,15.5l21.5-3.4l19.3,26.1l-1.9-26.2l17.4-11.9l-17.4-9.4l-5.3-23.4
	l-12.4,14.3l-16.2-8.3L1336.2,358.8z M1036.4,276.4l16.2,8.3l12.4-14.3l5.3,23.4l17.4,9.4l-17.4,11.9l1.9,26.2l-19.3-26.1l-21.5,3.4
	l12.5-15.5L1036.4,276.4z M1159.5,376.6l-12.5,15.5l21.5-3.4l19.3,26.1l-1.9-26.2l17.4-11.9l-17.4-9.4l-5.3-23.4l-12.4,14.3
	l-16.2-8.3L1159.5,376.6z M1138.2,254.8l-12.5,15.5l21.5-3.4l19.3,26.1l-1.9-26.2l17.4-11.9l-17.4-9.4l-5.3-23.4l-12.4,14.3
	l-16.2-8.3L1138.2,254.8z"></path>
<path id="color_x5F_10" fill="#e64980" d="M1344.9,340.3l-16.2-8.3l4.9-2.5l14.3,7.3L1344.9,340.3z M1349.9,453.8l16.2,8.3l3-3.4
	l-14.3-7.3L1349.9,453.8z M1380.1,358.9l-17.4,11.9l1.9,26.2l4.9-2.5l-1.9-26.2l17.4-11.9l-17.4-9.4l-5.3-23.4l-4.9,2.5l5.3,23.4
	L1380.1,358.9z M1406.2,478.3l-17.4-9.4l-5.3-23.4l-4.9,2.5l5.3,23.4l17.4,9.4l-17.4,11.9l1.9,26.2l4.9-2.5l-1.9-26.2L1406.2,478.3z
	 M1253.6,385.3l-14.3-7.3l-4.9,2.5l16.2,8.3L1253.6,385.3z M1273.3,395.4L1268,372l-4.9,2.5l5.3,23.4l17.4,9.4l-17.4,11.9l1.9,26.2
	l4.9-2.5l-1.9-26.2l17.4-11.9L1273.3,395.4z M1149.9,232.9l-14.3-7.3l-4.9,2.5l16.2,8.3L1149.9,232.9z M1151.9,349.8l16.2,8.3l3-3.4
	l-14.3-7.3L1151.9,349.8z M1182.1,254.9l-17.4,11.9l1.9,26.2l4.9-2.5l-1.9-26.2l17.4-11.9l-17.4-9.4l-5.3-23.4l-4.9,2.5l5.3,23.4
	L1182.1,254.9z M1208.2,374.3l-17.4-9.4l-5.3-23.4l-4.9,2.5l5.3,23.4l17.4,9.4l-17.4,11.9l1.9,26.2l4.9-2.5l-1.9-26.2L1208.2,374.3z
	 M1055.6,281.3l-14.3-7.3l-4.9,2.5l16.2,8.3L1055.6,281.3z M1075.3,291.4L1070,268l-4.9,2.5l5.3,23.4l17.4,9.4l-17.4,11.9l1.9,26.2
	l4.9-2.5l-1.9-26.2l17.4-11.9L1075.3,291.4z"></path>
<path id="color_x5F_9" fill="#085842" d="M1452.9,653.5l40-23v79.3c-7.2-11.2-18.6-22.9-36.6-33.3
	C1456.4,676.6,1456.4,666.9,1452.9,653.5z M1385.1,692.5L1215,790.2v32.3c5.6,0.7,12.2,3.1,20.1,7.7c49.4,28.5,49.4,85.6,49.4,85.6
	c60.5,34.9,46.6,84,46.6,84l-116.2-67.1l-0.1,339.6l278.1-160.1V754.8L1385.1,692.5z M988.5,1404.1l178.7-102.9V991.9l-178.6,102.6
	L988.5,1404.1z M927.9,788.3l-160.4,92.2l-0.1,396.8l42.6-24.5v-261l127-73.4V793.5L927.9,788.3z M693.6,819.7L572.2,1263
	c-0.6,2-2.4,3.5-4.5,3.5h-4.9c-3.1,0-5.4-3-4.5-5.9l22.9-83.5c-0.4-0.1-0.8-0.3-1.3-0.5l-76-42.4l-20.7,75.7c-0.6,2-2.4,3.5-4.5,3.5
	h-4.9c-3.1,0-5.4-3-4.5-5.9L590.5,764c0.6-2,2.4-3.5,4.5-3.5h4.9c3.1,0,5.4,3,4.5,5.9l-24.7,90.2c0.6,0.1,1.3,0.3,1.9,0.7l75.6,41.6
	l22.4-81.7c0.6-2,2.4-3.5,4.5-3.5h4.9C692.1,813.8,694.4,816.8,693.6,819.7z M605.2,1089.1c-0.1,0-0.1-0.1-0.2-0.1l-76.4-42.6
	c-0.2-0.1-0.4-0.3-0.6-0.4l-21.1,77c0.7,0.1,1.5,0.3,2.2,0.7l75.3,41.4L605.2,1089.1z M630.2,997.9c-0.6-0.1-1.1-0.3-1.6-0.6
	L552.9,955l-22,80.4c1.1-0.1,2.3,0.1,3.4,0.7l74.3,40.9L630.2,997.9z M654,910.9c-0.5-0.1-1-0.3-1.6-0.6l-75.7-42.2L556,943.7
	c0.6,0.1,1.2,0.3,1.8,0.6l75.6,41.6L654,910.9z"></path>
<path id="color_x5F_8" fill="#b8e986" d="M1051.7,637.4c0,0,0.6-1.1,1.3-2.7c0,0.7,0,1.4-0.1,2.3v0.1
	C1052.4,637.9,1051.7,637.4,1051.7,637.4z M1058.7,633.8c-0.9,0.5-1.7,1.2-1.7,2.5c0,0.6-0.3,1.3-0.6,2c0.1-0.1,0.2-0.3,0.4-0.5
	C1057,637.2,1057.9,635.4,1058.7,633.8z M1059.9,637.7c0.2-0.4,0.5-0.8,0.8-1.1v-3c-0.9,1.7-2.2,5-2.2,5S1059.2,638.7,1059.9,637.7z
	 M1043.9,651.3c0.4-3.3,1.2-8.4,2.2-10c1.5-2.5,8.2-13.8,8.2-13.8s0.5,0.5,0.3,2.1l8.4-7.2c5.3-29.4,19.7-57.7,19.7-57.7
	c-0.3-1.3-0.5-3.2-0.7-5.6c-0.8-0.4-1.6-0.9-2.2-1.5l-0.8-9.3l-18.8,10.8v1.1c3.7,16.7-8.8,51.2-8.8,51.2l1.3,6.9c0,0,0,4.8-6.1,8.3
	c0,0,0,5.5,0,8.4c0,3-2,3.4-3.4,1.9c0,0-3.4,3.8-3.9-0.5c0,0-2.7,2.7-3.4-0.2c-0.8-2.8-2.3-15.6-2.3-15.6l7-9.2l0.6-41.3L937,630.3
	l94.1,54.1C1036.4,670.5,1042.8,654,1043.9,651.3z M1074.8,952.5c-0.5,2.5,9.5,33.3,9.8,32.7c0.3-0.7-0.3,6-8.3-1s-18.8-22-22-24.2
	c-2.8-1.9,5.8-11.4,7.8-13.4c-0.4-5.3-0.5-10.5-0.3-15.5l-40.3-23.3l-2.2,24.2c0,0-11.7,75.1-19.4,92.2c0.3,0.1,0.3,0.3,0.3,0.5
	c0.8,1.4,1.4,2.7,1.4,3.9c0.3,5.4,0.1,11.8,1.3,13.4s6.6,8.8,6.6,8.8s-7.3,8.6-18.9-0.2c-11.6-8.8,0.8-15.6-5.9-21.2
	s-6.1-7.3,5.1-16.3c-0.1-0.3-0.1-0.5-0.1-0.5c-8-45,1.5-78,3.5-82.5c1-2.3-2.9-21.6-7-40L810,991.8l178.6,102.7l178.6-102.6
	l-87.4-50.6C1076.7,948.2,1074.8,952.5,1074.8,952.5z M838.8,736.8c0-53.4,49.4-28,49.4-28s0-10.4,3.8-20.2l-124.6-72.1L538.7,748.8
	l48.4,27.8l3.5-12.6c0.6-2,2.4-3.5,4.5-3.5h4.9c3.1,0,5.4,3,4.5,5.9l-4.8,17.4l76.9,44.2l3-10.9c0.6-2,2.4-3.5,4.5-3.5h4.9
	c3.1,0,5.4,3,4.5,5.9l-4.3,15.7l78.2,45L927.8,788L838.8,736.8z M1214.8,469.7l-45.2,26.1c5.3,3,8.6,6.2,8.6,9.8
	c0,0,11.3,20.6,8.3,41.3c-1.7,11.6-13.7,30.2-24,44.3l20.2,10.5c0.1-0.8,0.2-1.3,0.2-1.3c14.5,0.5,16,1.5,14,10s12,6.5,8,20.5
	s-15,11.5-15,11.5s0-9,0-11s-4-7-7-11.5c-0.3-0.4-0.5-0.9-0.7-1.5c-4.3-0.5-17.1-1.9-31.3-3.6c12.6,17,21,51.1,23.6,62.6
	c3.1,3.4,8.8,10.3,6.4,11.9c-3.2,2.2-14,17.2-22,24.2s-8.7,0.3-8.3,1c0.3,0.6,7.5-21.6,9.4-29.8c-6.5-12.5-29.5-57.2-35.8-73.4
	c-8-1.2-14.9-2.3-18.9-3.3c-16.4-4-11-17.3-11-17.3l32.1-53.1c-4.1-0.7-10.9-1.7-15.3-1.5c-1.1,0.3-2.4,0.6-3.8,0.9l0,0l0,0v20.7
	c0,0-1.1,0.4-2.8,0.9c-0.9,6.9-1.7,12.2-1.9,13.2c-0.5,3.1-26.6,49.2-29.6,54.5l-1,12c-0.8,2.8-3.4,1.3-3.4,1.3
	c-0.2,3.4-4.1,3.1-4.1,3.1c-1.6,4.4-4.1,3.6-4.1,3.6l0.1-5.8c-1.5,3-3.4,6.5-4.4,7.4c-1.5,1.4-2.5,7.4-2.7,9.1
	c-0.4,5-1.9,22-4.2,38.2l32.1,18.5c2.4-4,5.1-8.7,5.1-8.7s0.8,0.8,0,3.8c-0.8,3.1-2.6,6.1-2.6,6.1s0.7,0.5,1.2-0.4
	c0.5-0.8,4.3-8.2,4.3-8.2s1.4,0.5,0.7,2.8c-0.8,2.3-2.5,6.8-2.5,6.8s0.7,0.6,1.3-0.7s3.8-7.8,3.8-7.8s1.4,1.7,0.6,2.9
	s-2.6,5.7-2.6,5.7s0.7,0.1,1.4-0.9c1.1-1.7,3.1-3.8,3.1-3.8s0.8,0.9,0,1.9c-0.4,0.5-1.8,3.5-3.3,6.4l123,70.7l170.1-97.7l-77-44.4
	c0-53.4,49.4-28,49.4-28s0-57.7,49.5-29.1c29.1,16.8,41,43.4,46,62.6l40-23L1214.8,469.7z M999.8,1024.1L999.8,1024.1L999.8,1024.1
	L999.8,1024.1z"></path>
<path id="color_x5F_7" fill="#12b886" d="M1110,1617.7l807-465.9v90l-803.8,458.8L83,1110.9v-86.1L1110,1617.7z M581.7,857.4
	l75.6,41.6l19.4-70.8l-77-44.2l-19.9,72.8C580.4,856.9,581.1,857.1,581.7,857.4z M937.7,679.7c-0.2-0.1-0.5-0.3-0.7-0.4v-49
	l94.1,54.1c-3.4,9-6.3,17-7.1,19.7c-0.4,1.6-2.6,4.9-5.8,9.2c-0.1-3.7-1.6-7.9-7-8.7c-10.3-1.5-24.8,4.4-27,14.9c0,0-5-0.8-4.5,6.4
	c0.1,1.4,0.1,2.8,0.1,4.2C973.3,713.1,961,693.2,937.7,679.7z M986.1,890l-49.2,28.4V793.5l36.7,21.2c-1.6,19.9-2.2,36.9-2.2,36.9
	c1.3,3.2,4,5.6,7.4,7.5C980.3,864.7,983.2,877.1,986.1,890z M1081.5,713.5c-1.3,2.2-2.5,4.2-3,5.1c-1.5,2.5-2.6,12.9-2.6,12.9l0,0
	c-7,21.9-6.7,36.1-6.7,36.1l-42,1.5c-4.8-2.9-10.7-5.7-16.5-8.2l0,0l2.6-5.6c1.5-1.6,3-3.2,4.6-4.9c4.3-2.2,9.1-6,9.3-8.7
	c0-0.3,0-0.6,0-0.9c6.1-6.3,11.5-11.5,13.9-13.3c3.3-2.4,6.2-17.1,8.3-32.6L1081.5,713.5z M1022.9,891.5
	c21.9-5.8,50.8-16.6,50.8-16.6s-10.8,25.5-11.9,56.1l-40.3-23.3L1022.9,891.5z M985.7,752.2c-0.4-2.3-0.9-4.9-1.6-7.7
	c0.7,0.7,1.5,1.3,2.5,1.8c1,0.6,2,1.1,2.9,1.5C988,749.6,986.7,751.1,985.7,752.2z M605.2,1089.1l-20.8,76l-45.7-25.2V1052l66.3,37
	C605.1,1089,605.1,1089.1,605.2,1089.1z M689.3,835.5l78.2,45l-0.1,396.8l-171.7-99.6L689.3,835.5z M810,991.8l178.6,102.7
	l-0.1,309.6L810,1300.6V991.8z M1136.2,887.3l78.7,45.4l-0.1,339.6l-47.7-27.7V991.9l0,0l-87.4-50.6c9.8-22.7,30.7-73.2,28-82.4
	c-3.5-12-17.7-12-17.7-12l-50.5,10.3l0,0c-2.6-3.2-3-30.7-3-52.6c12.7-5.8,49.2-22.8,52-27.7c3.3-6-2.7-42.5-2.7-42.5s1-7.9,2.8-9.5
	c0.8-0.7,2.1-3.1,3.4-5.5l123,70.7v32.3c-29.3-3.9-29.3,36.8-29.3,36.8S1136.2,833.8,1136.2,887.3z M587,776.7l-48.4,176.7V748.8
	L587,776.7z M608.5,1077l-69.8-38.4V1007l14.2-51.9l75.7,42.2c0.5,0.3,1.1,0.5,1.6,0.6L608.5,1077z M576.7,868.1l75.7,42.2
	c0.5,0.3,1,0.5,1.6,0.6L633.4,986l-75.6-41.6c-0.6-0.3-1.2-0.5-1.8-0.6L576.7,868.1z"></path>
<path id="color_x5F_6" fill="#b8e986" d="M778.1,622.9l111.3-64.3l86,49.6L937,630.4v49c0.2,0.1,0.5,0.3,0.7,0.4
	c-28.5-16.4-40.5-4.3-45.7,9L778.1,622.9z M1493,907v205.1l-278.1,160.1l-47.7-27.7v56.6L988.5,1404L810,1300.6v-47.9l-42.6,24.5
	l-171.7-99.6l83.5-304.9l-107,390.3c-0.6,2-2.4,3.5-4.5,3.5h-4.9c-3.1,0-5.4-3-4.5-5.9l22.9-83.5c-0.4-0.1-0.8-0.3-1.3-0.5l-76-42.4
	l-20.7,75.7c-0.6,2-2.4,3.5-4.5,3.5h-4.9c-3.1,0-5.4-3-4.5-5.9l69.5-253.9V761.3L83,1024.8l1027,593l807-465.9L1493,907z"></path>
<path id="color_x5F_5" fill="#FFD2BB" d="M1022.2,730.1c0.7,3.3,5.2,7.8,5,11.7c-0.1,3.3-7.6,8.4-12.2,9.9l-4.3,9.3l0,0
	c-5.9-2.5-11.6-4.7-16-6.2l3.8-4.1c-0.6-0.2-1.1-0.4-1.7-0.6c1.4,0.2,2.1,0.1,2.1,0.1s3.7,1.9,5.6-4.1c0,0-9.3-2-6.8-9s8,3.8,8,3.8
	l3.8-2.5l-3.8-9.2c0,0,9.9-1.6,11.8-9.5c0.2,0.4,0.3,0.7,0.5,1.1C1018,720.7,1021.5,726.7,1022.2,730.1z M1046.6,635
	c0-3,0-8.4,0-8.4c6.1-3.4,6.1-8.3,6.1-8.3l-1.3-6.9l0,0c0,0,12.5-34.6,8.8-51.2l0.3-15.7c-4.5,0.9-14.2,0.8-20.4,0.1l1.2,21.2
	l-0.7,45.7l-7,9.2c0,0,1.6,12.8,2.3,15.6c0.8,2.8,3.4,0.2,3.4,0.2c0.5,4.2,3.9,0.5,3.9,0.5C1044.6,638.5,1046.6,638,1046.6,635z
	 M1054.5,503.8c1.1-0.3,2.5-0.8,4-1.7c7.6-4.5,5.9-17.3,4.4-19.8c-0.9-1.6-2.4-2.5-3.4-2.9c-0.5,2.9-1,5.7-1,7.7
	c0.2,6.1-7.9,6.2-8.5,6.2h-0.1c0,0,0,0,0.1,0c0.4,0,2.4-0.4,2.6-8.8c0.2-9.2-6.6-0.9-6.6-0.9c1.7,5.7-1.8,8-1.8,8
	c0-2.9-1.5-7.3-1.5-7.3c-9.3,0.7-23.5-7.2-23.5-7.2c-2.6,2,0.5,11.7,0.5,11.9c1.2,3,3,6.9,5.5,9.7c0,0,1.9,10.3,8.6,15.5
	C1039,518.1,1049.1,510.8,1054.5,503.8z M1107.4,536.8L1107.4,536.8L1107.4,536.8L1107.4,536.8z M1092.2,715c-0.6,1-1.4,0.9-1.4,0.9
	s1.8-4.5,2.6-5.7c0.8-1.2-0.6-2.9-0.6-2.9s-3.2,6.5-3.8,7.8s-1.3,0.7-1.3,0.7s1.8-4.4,2.5-6.8c0.8-2.3-0.7-2.8-0.7-2.8
	s-3.8,7.3-4.3,8.2c-0.5,0.8-1.2,0.4-1.2,0.4s1.7-3,2.6-6.1c0.8-3.1,0-3.8,0-3.8s-6.7,11.3-8.2,13.8s-2.6,12.9-2.6,12.9l10,3
	c0,0,1-7.9,2.8-9.5s5.9-10.8,6.7-11.8c0.8-1,0-1.9,0-1.9S1093.3,713.3,1092.2,715z M1104.6,558.4c-0.9,6.9-1.7,12.2-1.9,13.2
	c-0.5,3.1-26.6,49.2-29.6,54.5l-1,12c-0.8,2.8-3.4,1.3-3.4,1.3c-0.2,3.4-4.1,3.1-4.1,3.1c-1.6,4.4-4.1,3.6-4.1,3.6l0.1-5.8
	c-1.5,3-3.4,6.5-4.4,7.4c-1.5,1.4-2.5,7.4-2.7,9.1c0.1-0.9,0.1-1.4,0.1-1.4l-9.7-4.4c0,0-0.1,0.1-0.2,0.4c0.4-3.3,1.2-8.4,2.2-10
	c1.5-2.5,8.2-13.8,8.2-13.8s0.5,0.5,0.3,2.1l8.4-7.2c5.3-29.4,19.7-57.7,19.7-57.7c-0.3-1.3-0.5-3.2-0.7-5.6
	C1088.6,562.5,1099.5,560,1104.6,558.4z M1053,634.7c-0.7,1.6-1.3,2.7-1.3,2.7s0.7,0.5,1.2-0.4v-0.1
	C1053,636.1,1053,635.4,1053,634.7z M1056.7,637.8c0.3-0.6,1.2-2.3,2-4c-0.9,0.5-1.7,1.2-1.7,2.5c0,0.6-0.3,1.3-0.6,2
	C1056.4,638.1,1056.6,638,1056.7,637.8z M1060.7,633.6c-0.9,1.7-2.2,5-2.2,5s0.7,0.1,1.4-0.9c0.2-0.4,0.5-0.8,0.8-1.1L1060.7,633.6z
	"></path>
<path id="color_x5F_4" fill="#6ee1da" d="M973.7,814.7l-134.9-77.9c0-53.4,49.4-28,49.4-28s0-57.7,49.5-29.1
	c23.3,13.5,35.7,33.3,42.2,50.5c0.1,5.2,0.3,10.5,4.3,14.2c0.7,2.8,1.2,5.4,1.6,7.7c-0.3,0.3-0.5,0.6-0.7,0.8s-0.4,0.4-0.6,0.7
	c-0.3,0.3-0.4,0.5-0.4,0.5c0,0.1-0.1,0.2-0.1,0.2C978.8,762.4,975.5,790.7,973.7,814.7z M1456.4,676.6c0,0,0-57.1-49.4-85.6
	s-49.5,29.1-49.5,29.1s-49.4-25.5-49.4,28L1503,760.6C1503,760.6,1516.8,711.5,1456.4,676.6z M1284.5,915.8c0,0,0-57.1-49.4-85.6
	s-49.5,29.1-49.5,29.1s-49.4-25.5-49.4,28l194.9,112.5C1331.1,999.8,1345,950.7,1284.5,915.8z"></path>
<path id="color_x5F_3" fill="#ef4f87" d="M1074.8,952.5c-8.5,12-12.6-4.5-12.6-4.5c-3.5-37.5,11.5-73,11.5-73s-28.9,10.8-50.8,16.6
	l-3.6,40.5c0,0-11.7,75.1-19.4,92.2c-8.5-3-10.2-11.6-10.2-11.6c-8-45,1.5-78,3.5-82.5c1.7-3.9-10.9-57.2-14.2-70.9
	c19.2,10.3,64.2,2.7,60.6-1.8l50.5-10.3c0,0,14.2,0,17.7,12C1111.2,870.9,1074.8,952.5,1074.8,952.5z M987.2,752.1c0,0,3,1,7.5,2.6
	l3.8-4.1c-0.6-0.2-1.1-0.4-1.7-0.6l0,0c-1.6-0.2-4-0.8-7.2-2.3c-2,2.3-3.6,4.1-4.6,5.2C985.7,752.3,986.4,752,987.2,752.1z
	 M984.4,753.7c-0.3,0.3-0.4,0.5-0.4,0.5c0,0.1-0.1,0.2-0.1,0.2C984.1,754.1,984.2,753.9,984.4,753.7z M1017.9,750.4
	c-1,0.5-2,0.9-2.9,1.2l-1.7,3.7C1014.8,753.7,1016.4,752.1,1017.9,750.4z M1044,650.9c0,0-18,46-20,53.3c-0.4,1.6-2.6,4.9-5.8,9.2
	c0.1,3.3-0.7,6.2-0.7,6.2l0,0c0.2,0.4,0.3,0.7,0.5,1.1c0,0,3.5,6,4.2,9.3c0.6,3.1,4.5,7.2,5,10.8c6.1-6.3,11.5-11.5,13.9-13.3
	c7.3-5.3,12.7-72.2,12.7-72.2L1044,650.9z M1187,603.9l-24.5-12.7c10.3-14.1,22.3-32.7,24-44.3c3-20.7-8.3-41.3-8.3-41.3
	s-26.1,25.9-48.1,32.4c0,0-1.4-0.3-3.5-0.6l-32.1,53.1c0,0-5.4,13.3,11,17.3c4.1,1,10.9,2.1,18.9,3.3c7.3,18.9,37.5,76.7,37.5,76.7
	s12,0.3,13.7-6.7c0,0-9.2-45.9-24.5-66.5c17.4,2.2,32.8,3.8,32.8,3.8L1187,603.9z"></path>
<path id="color_x5F_2" fill="#4a90e2" d="M1088.5,776.9c-2.7,4.9-39.3,21.9-52,27.7c-0.1,21.9,0.4,49.5,3,52.6
	c4.3,5.3-59.3,15-68-5.7c0,0,3.7-101.2,15.7-99.4c0,0,25.2,8.1,40,16.9l0,0l42-1.5c0,0-0.3-14.2,6.7-36.1l10,3
	C1085.8,734.5,1091.9,770.9,1088.5,776.9z M1060.5,473.4c-0.3,2-0.7,4.1-1,6.1c1,0.4,2.5,1.3,3.4,2.9c1.5,2.5,3.2,15.3-4.4,19.8
	c-1.6,0.9-2.9,1.5-4,1.7c-4.2,5.4-11.1,10.9-16.4,11.4c-0.6,5.3-3.1,26.1-4,27.8c-1,2,29.3,3.3,28.8,0c-0.2-1.3,0.2-5.8,0.9-10.7
	c7.7,3.1,14.2,4.3,14.2,4.3l1.8,20.9c8,7.3,27.6,0,27.6,0v-20.7c3-2.7,22.7,1.2,22.7,1.2c22-6.5,48.1-32.4,48.1-32.4
	C1178.2,485.5,1076.1,474.9,1060.5,473.4z"></path>
<path id="color_x5F_1" fill="#092236" d="M1002.9,1041.9c1.2,1.6,6.6,8.8,6.6,8.8s-7.3,8.6-18.9-0.2c-11.6-8.8,0.8-15.6-5.9-21.2
	s-6.1-7.3,5.1-16.3c0.5,1.8,2.7,8.6,10,11.2c1,1.6,1.7,3.1,1.7,4.4C1001.9,1033.9,1001.7,1040.3,1002.9,1041.9z M1084.6,985.2
	c-0.3,0.7-10.3-30.2-9.8-32.7c-8.5,12-12.6-4.5-12.6-4.5c0-0.5-0.1-0.9-0.1-1.4c-1.9,2.1-10.6,11.5-7.8,13.4
	c3.2,2.2,14,17.2,22,24.2C1084.3,991.2,1085,984.5,1084.6,985.2z M1017.5,719.6c0,0,3.9-13.4-6.3-14.9c-10.3-1.5-24.8,4.4-27,14.9
	c0,0-5-0.8-4.5,6.4s-1,15.8,7,20.3s12.2,3.9,12.2,3.9s3.7,1.9,5.6-4.1c0,0-9.3-2-6.8-9s8,3.8,8,3.8l3.8-2.5l-3.8-9.2
	C1005.7,729,1015.5,727.5,1017.5,719.6z M1205,630.8c-4,14-15,11.5-15,11.5s0-9,0-11s-4-7-7-11.5c-0.3-0.4-0.5-0.9-0.7-1.5
	c1,0.1,1.6,0.2,1.6,0.2l3.2-14.7l-4.3-2.2c0.1-0.8,0.2-1.3,0.2-1.3c14.5,0.5,16,1.5,14,10C1195,618.8,1209,616.8,1205,630.8z
	 M1175.5,681.2c-1.7,7-13.7,6.7-13.7,6.7s-0.6-1.2-1.7-3.3c-1.9,8.2-9.1,30.4-9.4,29.8c-0.3-0.7,0.3,6,8.3-1s18.8-22,22-24.2
	c2.4-1.6-3.4-8.5-6.4-11.9C1175.3,679.8,1175.5,681.2,1175.5,681.2z M1046.1,483.5c0,0,6.8-8.3,6.6,0.9c-0.2,9.2-2.6,8.8-2.6,8.8
	s8.7,0.1,8.5-6.2c-0.2-6.3,4.8-19.3,0.8-24.8s-11.7-6.7-12.8-5.3c0,0-15.2-20.3-27.5-9.5c-12.3,10.8-5.8,27-5.8,27
	s1.9,13.1,6.7,14.6c0,0-3.2-9.9-0.5-11.9c0,0,14.2,7.8,23.5,7.2c0,0,1.5,4.4,1.5,7.3C1044.4,491.6,1047.8,489.2,1046.1,483.5z"></path>
</svg>