<?xml version="1.0" standalone="no"?>
<svg version="1.1" id="color_x5F_1" xmlns="http://www.w3.org/2000/svg" xmlns:xlink="http://www.w3.org/1999/xlink" x="0px" y="0px" width="600px" height="600px" viewBox="0 0 600 600" enable-background="new 0 0 600 600" xml:space="preserve">
<path id="color_x5F_13" fill="#5B8949" d="M422.309,217.302l4.435,2.52c-2.419,1.411-6.35,1.411-8.769,0L422.309,217.302z
	 M372.417,271.628c-10.784-6.249-10.885-16.328-0.201-22.476c10.28-5.947,26.81-6.148,37.595-0.605
	c0.402,0.202,0.906,0.403,1.31,0.706c0.403,0.202,0.807,0.504,1.109,0.706c9.676,6.249,9.373,15.824-0.907,21.771
	C400.639,277.978,383.202,277.877,372.417,271.628z M379.876,250.26l1.813,1.411c-1.31,2.117-1.914,4.132-1.713,6.047
	s1.209,3.628,2.923,4.939c1.411,1.108,2.822,1.612,4.233,1.411c1.411-0.201,3.225-1.008,5.241-2.52
	c1.41-1.008,2.317-1.613,3.023-1.713c0.604-0.101,1.209,0.101,1.814,0.604c0.604,0.403,0.906,1.008,0.906,1.814
	c0,0.706-0.201,1.411-0.705,2.117c-0.604,0.806-1.512,1.411-2.52,1.814s-2.318,0.706-3.729,0.706l1.915,5.342
	c1.714-0.202,3.124-0.706,4.435-1.411s2.419-1.612,3.427-2.822l3.125,2.419l1.31-1.713l-3.225-2.52
	c1.31-2.016,1.713-4.032,1.411-6.047c-0.303-2.016-1.411-3.729-3.226-5.241c-0.807-0.604-1.612-1.108-2.419-1.31
	c-0.807-0.302-1.714-0.403-2.52-0.302c-1.21,0.101-3.024,1.008-5.241,2.721l-0.202,0.101c-1.008,0.807-1.813,1.209-2.419,1.311
	c-0.604,0.101-1.108,0-1.512-0.403c-0.504-0.403-0.705-0.907-0.705-1.512c0-0.605,0.302-1.209,0.807-1.814
	c0.504-0.604,1.108-1.108,1.813-1.512c0.706-0.403,1.613-0.706,2.52-0.907l-2.419-4.636c-1.008,0.303-2.016,0.807-2.821,1.311
	c-0.807,0.504-1.613,1.108-2.318,1.814l-1.814-1.411L379.876,250.26z M470.889,242.903c0-1.411-0.705-2.52-1.915-3.326
	l-44.852-25.903c-1.209-0.706-2.52-0.706-3.729,0l-98.37,56.745l4.133,2.318l91.819-52.915l0,0l4.435-2.52l4.435,2.52l0,0
	l35.377,20.46l0,0l4.435,2.52l-4.435-2.52c-2.419,1.411-2.419,3.729,0,5.14l-91.719,52.915l4.133,2.318l94.54-54.628
	C470.184,245.422,470.889,244.314,470.889,242.903z M512.515,290.476c0.706,2.217-0.504,4.737-2.923,5.442l-98.068,26.307
	l3.125,1.813l39.106-10.481l55.736-14.917C513.019,297.531,514.43,293.398,512.515,290.476z M498.404,292.491l-94.541,25.298
	l-5.039-2.922l93.028-24.896c-2.016-2.016-1.411-4.233,1.311-4.939l-27.112-27.112l-30.64,17.739c1.915,1.109,3.729,2.419,5.24,3.83
	c0.403,0.302,0.706,0.706,1.109,1.008c0.302,0.303,0.604,0.706,0.907,1.008c7.659,8.567,4.938,17.739-6.552,20.763
	c-10.583,2.822-24.895-0.402-34.168-7.257l-18.746,10.784l-2.521-1.512l99.983-57.752c2.218-1.311,2.722-4.032,1.512-5.947
	c2.621,2.318,2.318,6.753-0.907,8.567l-5.846,3.326l-5.543,3.226l30.338,30.337c1.008,1.008,1.31,2.318,1.008,3.628
	C500.723,291.08,499.715,292.088,498.404,292.491z M434.806,285.94c-0.302-1.008-0.604-1.814-1.209-2.52
	c-0.504-0.705-1.108-1.31-1.814-1.713c-1.008-0.604-2.62-0.907-5.141-0.907l-7.861,4.535c1.21,0.706,3.125,1.109,5.645,1.109
	c1.713,0,2.822,0.202,3.427,0.403c0.604,0.302,0.907,0.806,1.108,1.612c0.202,0.706,0.101,1.311-0.302,1.915
	c-0.403,0.605-1.008,1.008-1.814,1.209c-1.008,0.303-2.016,0.303-3.125,0c-1.108-0.302-2.217-0.806-3.427-1.612l-1.612,5.543
	c1.512,0.807,2.923,1.311,4.334,1.512s2.923,0.101,4.435-0.302l1.008,3.83l2.117-0.605l-1.008-3.931
	c2.217-0.807,3.829-2.218,4.736-4.032C435.209,290.173,435.411,288.157,434.806,285.94z"></path>
<path id="color_x5F_12" fill="#ADDB9A" d="M509.592,295.817l-98.068,26.306l-7.66-4.435l94.541-25.298
	c1.311-0.403,2.318-1.311,2.722-2.722c0.402-1.31,0-2.721-1.009-3.628l-30.337-30.337l5.543-3.226l36.083,36.184
	c0.504,0.504,0.806,1.109,1.008,1.713C513.221,292.592,512.011,295.212,509.592,295.817z M493.264,285.033l-27.112-27.112
	l-30.74,17.739c1.915,1.109,3.729,2.419,5.24,3.83c0.403,0.302,0.706,0.706,1.109,1.008c0.302,0.303,0.604,0.706,0.907,1.008
	c7.659,8.567,4.938,17.739-6.552,20.763c-10.583,2.822-24.895-0.402-34.168-7.257l-18.746,10.784l15.723,9.071l93.029-24.895
	C489.938,287.956,490.543,285.738,493.264,285.033z M434.302,291.987c1.008-1.814,1.109-3.83,0.504-6.047
	c-0.302-1.008-0.604-1.814-1.209-2.52c-0.504-0.705-1.108-1.31-1.814-1.713c-1.008-0.604-2.62-0.907-5.141-0.907l-7.861,4.535
	c1.21,0.706,3.125,1.109,5.645,1.109c1.713,0,2.822,0.202,3.427,0.403c0.604,0.302,0.907,0.806,1.108,1.612
	c0.202,0.706,0.101,1.311-0.302,1.915c-0.403,0.605-1.008,1.008-1.814,1.209c-1.008,0.303-2.016,0.303-3.125,0
	c-1.108-0.302-2.217-0.806-3.427-1.612l-1.612,5.543c1.512,0.807,2.923,1.311,4.334,1.512s2.923,0.101,4.435-0.302l1.008,3.83
	l2.117-0.605l-1.008-3.931C431.682,295.212,433.294,293.801,434.302,291.987z M482.177,240.584
	c-0.302-0.604-0.806-1.008-1.512-1.411l-54.124-31.245c-2.62-1.512-5.946-1.512-8.566,0l-73.879,42.634l-28.322,16.328l6.249,3.628
	l98.37-56.745c1.21-0.705,2.521-0.705,3.729,0l44.852,25.903c1.21,0.705,1.915,1.915,1.915,3.326s-0.705,2.52-1.915,3.326
	l-94.541,54.627l6.249,3.629l99.983-57.752C482.883,245.322,483.387,242.5,482.177,240.584z M462.12,245.422l-91.719,52.915
	l-44.246-25.5l91.819-52.915c2.419,1.411,6.35,1.411,8.769,0l35.377,20.46C459.601,241.693,459.701,244.011,462.12,245.422z
	 M412.33,249.958c-0.403-0.202-0.706-0.504-1.108-0.706c-0.403-0.202-0.807-0.504-1.311-0.706
	c-10.886-5.543-27.314-5.342-37.595,0.605c-10.684,6.148-10.583,16.227,0.202,22.476c10.784,6.249,28.221,6.249,38.904,0.101
	C421.603,265.782,421.905,256.207,412.33,249.958z M403.662,260.339c-0.303-2.016-1.411-3.729-3.226-5.241
	c-0.806-0.604-1.612-1.108-2.419-1.31c-0.806-0.302-1.713-0.403-2.52-0.302c-1.209,0.101-3.023,1.008-5.241,2.721l-0.201,0.101
	c-1.008,0.807-1.814,1.209-2.419,1.311c-0.605,0.101-1.109,0-1.512-0.403c-0.504-0.403-0.706-0.907-0.706-1.512
	c0-0.605,0.303-1.209,0.807-1.814c0.504-0.604,1.108-1.108,1.814-1.512c0.705-0.403,1.612-0.706,2.52-0.907l-2.419-4.636
	c-1.008,0.302-2.016,0.806-2.822,1.31c-0.807,0.504-1.612,1.109-2.318,1.814l-1.814-1.411l-1.31,1.713l1.813,1.411
	c-1.31,2.117-1.914,4.132-1.713,6.047s1.209,3.628,2.923,4.939c1.411,1.108,2.822,1.612,4.233,1.411
	c1.411-0.201,3.225-1.008,5.241-2.52c1.41-1.008,2.317-1.613,3.023-1.713c0.604-0.101,1.209,0.101,1.814,0.604
	c0.604,0.403,0.906,1.008,0.906,1.814c0,0.706-0.201,1.411-0.705,2.117c-0.604,0.806-1.512,1.411-2.52,1.814
	s-2.318,0.706-3.729,0.706l1.915,5.342c1.714-0.202,3.124-0.706,4.435-1.411s2.419-1.612,3.427-2.822l3.125,2.419l1.31-1.713
	l-3.225-2.52C403.461,264.371,403.965,262.355,403.662,260.339z"></path>
<path id="color_x5F_11" fill="#4c7c3e" d="M46.464,344.801l120.343,70.855l-14.211,8.164L46.464,362.338V344.801z M309.223,179.506
	c-1.311-2.217-3.428-3.427-4.838-2.722c-1.412,0.807-1.412,3.326-0.102,5.543c1.311,2.318,3.427,3.427,4.838,2.722
	C310.432,184.243,310.532,181.824,309.223,179.506z M326.76,167.411l-4.535,2.621c-0.807,0.504-1.109,1.512-0.605,2.318
	s1.512,1.109,2.318,0.605l4.535-2.621c-0.302-0.504-0.504-1.008-0.806-1.512C327.264,168.419,327.063,167.916,326.76,167.411z
	 M284.73,138.183c0.101,0,0.202-0.101,0.403-0.101c0.302-0.101,0.604-0.202,0.907-0.302c0.101,0,0.302-0.101,0.403-0.101
	c0.302-0.101,0.604-0.202,0.907-0.202c0.202,0,0.403-0.101,0.604-0.101c0.302-0.101,0.504-0.101,0.806-0.101
	c0.202,0,0.403-0.101,0.706-0.101c0.202,0,0.504-0.101,0.706-0.101c0.303,0,0.504,0,0.807-0.101c0.202,0,0.403,0,0.706,0
	c0.302,0,0.604,0,0.907,0c0.202,0,0.403,0,0.605,0c0.302,0,0.706,0,1.008,0.101c0.202,0,0.302,0,0.504,0
	c0.403,0,0.706,0.101,1.109,0.101c0.101,0,0.302,0,0.403,0.101c0.403,0.101,0.807,0.101,1.209,0.202c0.101,0,0.202,0,0.303,0.101
	c0.504,0.101,0.907,0.202,1.411,0.302c0.101,0,0.101,0,0.202,0.101c0.504,0.101,1.008,0.302,1.513,0.403h0.1
	c0.504,0.202,1.008,0.403,1.613,0.605l0,0c10.482,4.132,21.468,13.909,29.33,27.616c13.304,23.081,12.9,48.177-0.907,56.14
	c4.736-2.822,9.574-5.543,14.412-8.265c18.344-10.583,9.071-42.029,0.907-56.14c-13.304-23.081-35.276-35.276-49.084-27.314
	l-13.405,7.761c0,0,0,0,0.101,0C284.125,138.485,284.428,138.283,284.73,138.183z M311.036,433.798l46.666,26.911
	c0.201,0.101,0.302,0.201,0.504,0.201l0,0c0.604,0.303,1.209,0.605,1.814,0.807l0,0c0,0,0,0,0.101,0
	c0.201,0.101,0.403,0.101,0.504,0.201c0.101,0,0.201,0.102,0.303,0.102c0.201,0,0.302,0.101,0.504,0.101
	c0.201,0,0.302,0.101,0.504,0.101c0.201,0,0.302,0.101,0.504,0.101c0.201,0,0.302,0.102,0.504,0.102
	c0.201,0,0.302,0.101,0.504,0.101c0.201,0,0.302,0,0.504,0.101c0.101,0,0.302,0,0.403,0c0.101,0,0.101,0,0.201,0s0.303,0,0.403,0
	s0.201,0,0.302,0c0.102,0,0.303,0,0.403,0c0.102,0,0.202,0,0.303,0s0.303,0,0.403,0h0.101c0.101,0,0.303,0,0.403,0
	c0.201,0,0.302-0.101,0.504-0.101c0.201,0,0.302-0.101,0.504-0.101c0.201,0,0.302-0.102,0.504-0.102
	c0.201,0,0.302-0.101,0.504-0.101c0.201,0,0.303-0.101,0.504-0.101c0.101-0.101,0.303-0.101,0.504-0.101
	c0.101,0,0.201-0.102,0.303-0.102c0.201-0.101,0.302-0.101,0.504-0.201c0.101,0,0.101,0,0.201-0.101
	c0.101,0,0.101-0.101,0.202-0.101c0.201-0.102,0.402-0.102,0.504-0.202c0.101,0,0.101,0,0.201-0.101c0,0,0.101,0,0.101-0.101
	c0.202-0.101,0.403-0.202,0.504-0.303c0.101,0,0.101-0.101,0.202-0.101c0.101-0.101,0.302-0.202,0.403-0.202l128.002-73.878
	c0.101-0.102,0.303-0.202,0.504-0.303c0.102-0.101,0.202-0.201,0.303-0.201c0.101-0.102,0.201-0.102,0.303-0.202
	c0.101-0.101,0.201-0.101,0.201-0.201c0.101-0.101,0.201-0.202,0.403-0.403c0.101-0.102,0.201-0.201,0.302-0.403
	c0,0,0.102-0.101,0.102-0.202c0.101-0.1,0.201-0.201,0.302-0.402c0.101-0.102,0.101-0.201,0.202-0.303
	c0.101-0.101,0.201-0.303,0.201-0.402c0.101-0.202,0.202-0.303,0.202-0.404c0-0.1,0.101-0.201,0.101-0.302
	c0.101-0.101,0.101-0.202,0.101-0.403c0-0.101,0.101-0.201,0.101-0.303c0.101-0.201,0.101-0.302,0.101-0.504l0,0l0,0
	c0.102-0.201,0.102-0.302,0.102-0.504v15.522l-0.102,0.504l-0.101,0.504l-0.201,0.504l-0.202,0.907l-0.201,0.402l-0.201,0.403
	l-0.303,0.403l-0.303,0.403l-0.302,0.403l-0.403,0.402l-0.403,0.403l-0.403,0.303l-0.504,0.303l-128.003,73.878l-0.402,0.202
	l-0.505,0.201l-0.402,0.202l-0.504,0.201l-0.504,0.202l-0.504,0.201l-0.504,0.101l-0.505,0.101l-0.504,0.102l-0.504,0.101
	l-0.504,0.101l-0.504,0.101l-0.504,0.101h-0.504h-0.504h-0.504h-0.504h-0.504h-0.504l-0.504-0.101l-0.504-0.101l-0.504-0.101
	l-0.504-0.101l-0.504-0.102l-0.504-0.101l-0.504-0.101l-0.504-0.201l-0.504-0.202l-0.504-0.201l-0.504-0.202l-0.403-0.201
	l-0.504-0.202l-45.859-26.91L311.036,433.798z M439.745,428.355c0,2.52,2.116,4.031,4.636,3.226c2.52-0.706,4.637-3.427,4.637-5.947
	c0-2.52-2.016-4.031-4.637-3.325C441.861,423.114,439.745,425.735,439.745,428.355z M306.804,205.308
	c-0.907,0-1.714,0.807-1.714,1.713v6.35c1.108,0.604,2.116,1.209,3.226,1.713c0.101-0.202,0.201-0.504,0.201-0.807v-7.357
	C308.416,206.115,307.71,205.308,306.804,205.308z M328.473,195.431l6.351,3.629c0.201,0.101,0.504,0.201,0.806,0.201
	c0.101-1.108,0.101-2.419,0.101-3.628l-5.543-3.225c-0.807-0.504-1.814-0.202-2.318,0.604
	C327.465,193.919,327.667,195.028,328.473,195.431z M321.015,208.937l4.334,7.56c0.504-0.202,1.008-0.504,1.512-0.807
	c0.504-0.302,0.907-0.604,1.411-0.907l-4.334-7.559c-0.504-0.806-1.512-1.108-2.318-0.604
	C320.813,207.123,320.511,208.13,321.015,208.937z M99.076,224.357l24.593,14.211l22.677,13.103l3.024,1.814
	c0.302,0.202,0.706,0.302,1.008,0.403c1.209,0.403,2.621,0.202,3.83-0.403l41.828-24.189l34.067-19.654
	c0.806-0.504,1.209-1.31,1.209-2.117v-2.016c0,0.101,0,0.202,0,0.302c0,0.101,0,0.202,0,0.202c0,0.202-0.101,0.303-0.202,0.403
	v0.101c-0.101,0.101-0.202,0.303-0.302,0.403c0,0,0,0.101-0.101,0.101c-0.101,0.202-0.302,0.303-0.504,0.403l-75.995,43.843
	c-1.512,0.807-3.326,0.807-4.838,0l-50.294-29.027c-0.202-0.101-0.403-0.202-0.504-0.403c-0.101-0.101-0.101-0.101-0.101-0.202
	c-0.101-0.101-0.201-0.202-0.201-0.302c0-0.101-0.101-0.101-0.101-0.202c-0.101-0.101-0.101-0.302-0.202-0.403
	c0-0.101,0-0.101,0-0.202c0-0.101-0.101-0.201-0.101-0.302v1.915C97.766,223.047,98.169,223.954,99.076,224.357z M274.248,420.292
	v-3.023c0-1.311-0.806-2.52-1.915-3.124l-56.946-32.857c-0.604-0.303-1.209-0.303-1.814,0l-2.822,1.612l0,0l0,0l0,0
	c-0.504,0.302-0.807,0.806-0.807,1.512v3.124c0,1.008,0.504,2.017,1.21,2.722l-1.411,0.807l-90.61-52.31l-0.504-0.303l-0.403-0.303
	l-0.403-0.402l-0.403-0.403l-0.303-0.403l-0.302-0.403l-0.302-0.403l-0.202-0.402l-0.202-0.404l-0.202-0.402l-0.201-0.504
	l-0.101-0.504l-0.101-0.504l-0.101-0.504v-15.623c0,0.202,0.101,0.303,0.101,0.504c0,0.102,0.101,0.303,0.101,0.504l0,0l0,0
	c0,0.102,0.101,0.303,0.101,0.504c0,0.102,0.101,0.202,0.101,0.303c0,0.102,0.101,0.201,0.101,0.403
	c0,0.101,0.101,0.202,0.101,0.302c0.101,0.102,0.101,0.303,0.202,0.404c0.101,0.1,0.202,0.302,0.202,0.402
	c0.101,0.102,0.201,0.303,0.302,0.403c0.101,0.101,0.202,0.302,0.302,0.403c0.101,0.101,0.202,0.303,0.302,0.402
	c0.101,0.102,0.202,0.202,0.403,0.404c0.101,0.1,0.202,0.1,0.202,0.201c0.101,0.101,0.202,0.101,0.302,0.201
	c0.101,0.102,0.202,0.202,0.302,0.202c0.202,0.101,0.303,0.201,0.504,0.302l159.449,92.122c0,1.108,0.101,2.318,0.302,3.729
	c1.209,6.651,4.939,7.458,5.443,14.211c0,0.303,0.101,0.706,0.101,1.008l-18.243-10.684l0.504-0.303
	c0.302-0.101,0.403-0.302,0.604-0.504l1.512,0.907c0.604,0.303,1.209,0.303,1.713,0l0,0l0,0c0,0,0,0,0.101,0l2.721-1.612h0.101l0,0
	C273.946,421.502,274.248,420.998,274.248,420.292z M165.093,352.36v-0.101l-0.101-0.102l-0.101-0.101l-0.101-0.101l-0.101-0.101
	l-0.101-0.101l-0.101-0.102l-9.575-5.543l-0.101-0.102h-0.101l-0.101-0.1h-0.101h-0.302l-0.101,0.1h-0.101l-0.101,0.102
	l-1.411,0.807l0,0l-0.101,0.1l0.202-0.1h0.101h0.201h0.101h0.101h0.202h0.101l0.101,0.1l9.575,5.544l0.101,0.101l0.101,0.102
	l0.101,0.101l0.101,0.101l0.101,0.101l0.101,0.101v0.102v0.201v3.931v0.202v0.101v0.101l-0.101,0.102l-0.101,0.1l-0.101,0.102
	l-0.101,0.101l-0.101,0.101l1.512-0.807l0.101-0.1l0.101-0.102l0.101-0.101l0.101-0.101l0.101-0.102l0.101-0.101v-0.101v-0.201
	v-3.932v-0.302H165.093z M180.313,365.16v-3.931v-0.101v-0.201l-0.101-0.102l-0.101-0.101l-0.101-0.101l-0.101-0.102l-0.101-0.1
	l-0.101-0.102l-9.575-5.543l-0.101-0.102l-0.101-0.1h-0.202h-0.101h-0.101h-0.101l-0.202,0.1l-0.101,0.102l-1.31,0.705l0,0
	l-0.101,0.102l0.201-0.102h0.101h0.101h0.101h0.202h0.101l0.101,0.102l0.101,0.1l9.575,5.544l0.101,0.101l0.101,0.102l0.101,0.101
	l0.101,0.101l0.101,0.101v0.101v0.102v0.101v3.931v0.201v0.102l-0.101,0.101l-0.101,0.101l-0.101,0.101l-0.101,0.101l-0.101,0.102
	l-0.101,0.101l1.512-0.807l0.101-0.101l0.101-0.101l0.101-0.101l0.101-0.102l0.101-0.101v-0.101v-0.101L180.313,365.16z
	 M343.289,519.671l-29.229-17.235c-5.04,1.311-12.096,1.915-13.708,0.202c-2.016-2.117,0.403-6.351,0.403-6.351l0,0
	c0-0.402-0.101-1.008-0.201-1.813l-4.435-2.621c-0.605,0.706-1.209,1.311-1.814,1.411c-6.048,1.613-6.854-1.713-6.148-5.039
	c0-0.202,0-0.504,0-1.008l-65.715-38.703l-13.708,7.861l134.353,77.81l234.537-136.066v-13.404L343.289,519.671z M292.491,152.897
	l-4.334-7.559c-0.504,0.202-1.008,0.504-1.512,0.806c-0.504,0.303-0.907,0.605-1.411,0.907l4.334,7.56
	c0.504,0.806,1.512,1.108,2.318,0.604C292.693,154.813,292.995,153.704,292.491,152.897z M306.804,156.526
	c0.906,0,1.713-0.706,1.713-1.714v-6.35c-1.108-0.706-2.116-1.209-3.226-1.713c-0.101,0.202-0.201,0.504-0.201,0.806v7.257
	C305.09,155.821,305.795,156.526,306.804,156.526z M285.638,168.722c0.504-0.806,0.201-1.814-0.605-2.318l-6.35-3.628
	c-0.202-0.101-0.504-0.202-0.706-0.202c-0.101,1.21-0.101,2.419-0.101,3.629l5.442,3.124
	C284.125,169.83,285.134,169.528,285.638,168.722z M289.669,188.879l-4.535,2.621c0.302,0.504,0.504,1.008,0.806,1.512
	s0.604,1.008,0.907,1.411l4.535-2.621c0.807-0.504,1.109-1.512,0.605-2.318C291.483,188.678,290.476,188.375,289.669,188.879z"></path>
<path id="color_x5F_10" fill="#addb9a" d="M458.189,340.064c-0.303-0.202-0.504-0.404-0.807-0.504
	c-0.303-0.202-0.604-0.303-0.907-0.504c-7.761-3.932-19.452-3.83-26.81,0.402c-7.66,4.436-7.56,11.591,0.101,16.025
	c7.66,4.436,20.158,4.436,27.717,0.102C464.841,351.353,465.043,344.498,458.189,340.064z M449.622,353.065l-2.016-1.31
	c-0.504,0.806-1.21,1.41-1.915,1.914c-0.706,0.504-1.612,0.807-2.621,1.008l-1.41-3.124c0.906-0.101,1.612-0.302,2.217-0.604
	s1.108-0.705,1.411-1.209c0.303-0.404,0.403-0.807,0.303-1.311c-0.102-0.403-0.303-0.807-0.605-1.008
	c-0.402-0.303-0.806-0.403-1.108-0.303c-0.403,0.101-0.907,0.504-1.713,1.109c-1.21,1.008-2.218,1.611-3.024,1.713
	c-0.806,0.201-1.713-0.102-2.62-0.705c-1.108-0.706-1.714-1.714-2.016-2.822c-0.202-1.109,0-2.42,0.705-3.729l-1.108-0.807
	l0.705-1.108l1.109,0.807c0.402-0.404,0.806-0.807,1.31-1.21c0.504-0.302,1.008-0.604,1.613-0.907l1.612,2.621
	c-0.604,0.201-1.108,0.402-1.512,0.705s-0.807,0.605-1.008,1.008c-0.303,0.403-0.403,0.807-0.403,1.109
	c0,0.402,0.201,0.604,0.504,0.906c0.303,0.201,0.604,0.303,0.907,0.201c0.302-0.1,0.807-0.402,1.411-0.906l0.101-0.102
	c1.311-1.107,2.318-1.713,3.023-1.914c0.504-0.102,1.008-0.102,1.512,0.101c0.504,0.101,1.009,0.403,1.513,0.706
	c1.108,0.806,1.914,1.813,2.116,3.023c0.303,1.209,0.101,2.418-0.604,3.729l2.016,1.411L449.622,353.065z M283.118,356.896
	c0,0.101-0.202,0.202-0.403,0.604l0,0c-0.101,0.102-0.101,0.202-0.202,0.303l0,0c-0.101,0.102-0.202,0.201-0.202,0.303l0,0
	c-0.101,0.101-0.202,0.303-0.302,0.402l0,0c-0.101,0.202-0.202,0.303-0.303,0.504l0,0c-0.504,1.008-1.008,2.218-1.209,3.629
	c-0.101,0.705-0.101,1.311-0.101,2.117c0.101,2.016,0.403,7.66,0.706,13.404c0,0.201,0,0.403,0,0.605l-4.636-3.024
	c0-5.442,1.108-9.676,2.52-12.699c0.101-0.302,0.302-0.604,0.403-0.907C281.102,358.71,282.916,356.996,283.118,356.896z
	 M315.874,365.766l4.737,7.458c0,0-3.527,6.954-10.482,5.644l-2.317-3.426c0,0-4.839-7.459-1.814-12.699
	c0.101-0.202,0.303-0.505,0.403-0.706c0.101-0.101,0.101-0.202,0.201-0.202c0.101-0.101,0.202-0.302,0.303-0.402
	c0.101-0.102,0.101-0.102,0.201-0.202c0.101-0.202,0.202-0.302,0.403-0.403c0.101-0.101,0.101-0.201,0.202-0.201
	c0.101-0.102,0.101-0.102,0.201-0.201c0.101-0.102,0.101-0.102,0.201-0.202c0,0,0,0,0.102-0.101
	c0.201-0.201,0.302-0.303,0.504-0.403c0,0,0.101,0,0.101-0.101c0.604-0.403,1.108-0.605,1.512-0.705l0,0c0.101,0,0.101,0,0.201,0
	c0.102,0,0.102,0,0.202,0l0,0l0,0l0,0l0,0l0,0l0,0l0,0c0.403,0.1,0.705,0.201,1.008,0.201L315.874,365.766z"></path>
<path id="color_x5F_9" fill="#BACABD" d="M220.628,249.857l-75.895,43.843c-1.512,0.907-3.326,0.907-4.838,0l-2.822-1.613
	l-47.472-27.415c-0.807-0.504-1.209-1.411-1.209-2.217v-1.915c0,0.101,0,0.101,0,0.202c0,0.101,0,0.201,0.101,0.302
	c0,0,0,0.101,0.101,0.101c0.101,0.101,0.101,0.303,0.202,0.403l0,0c0.202,0.302,0.504,0.604,0.807,0.806l50.294,29.027
	c1.512,0.807,3.326,0.807,4.838,0l75.895-43.843c0.202-0.101,0.403-0.202,0.504-0.403c0.101-0.101,0.202-0.202,0.202-0.302
	s0.101-0.101,0.101-0.202c0.101-0.101,0.101-0.302,0.202-0.403v-0.101c0-0.101,0.101-0.202,0.101-0.403c0-0.101,0-0.101,0-0.201
	v2.016C221.838,248.648,221.435,249.454,220.628,249.857z M138.585,257.82l1.512,0.907c0.604,0.403,1.31,0.403,1.915,0l8.265-4.838
	c-0.403-0.101-0.706-0.201-1.008-0.403l-3.023-1.814l-7.66,4.435C137.981,256.509,137.981,257.417,138.585,257.82z M124.979,265.681
	l1.512,0.907c0.605,0.403,1.311,0.403,1.915,0l9.777-5.645c0.706-0.403,0.706-1.31,0-1.713l-1.512-0.907
	c-0.604-0.403-1.31-0.403-1.915,0l-9.776,5.644C124.375,264.371,124.375,265.278,124.979,265.681z M246.33,425.836l-38.804-22.477
	c-0.504-0.302-1.108-0.302-1.713,0l-1.31,0.807c-0.504,0.303-0.504,1.108,0,1.411l38.804,22.476c0.504,0.303,1.109,0.303,1.714,0
	l1.31-0.806C246.935,426.944,246.935,426.138,246.33,425.836z M232.925,433.496l-38.804-22.376c-0.504-0.302-1.109-0.302-1.713,0
	l-1.31,0.807c-0.605,0.303-0.605,1.108,0,1.411l38.804,22.375c0.504,0.303,1.109,0.303,1.713,0l1.311-0.806
	C233.529,434.705,233.529,433.898,232.925,433.496z M180.716,418.881c-0.504-0.302-1.109-0.302-1.714,0l-1.31,0.807
	c-0.504,0.303-0.504,1.108,0,1.411l38.804,22.375c0.504,0.303,1.108,0.303,1.713,0l1.31-0.806c0.504-0.303,0.504-1.109,0-1.411
	L180.716,418.881z M206.014,449.018l-38.804-22.376c-0.504-0.302-1.109-0.302-1.713,0l-1.311,0.807
	c-0.604,0.303-0.604,1.108,0,1.411l38.804,22.375c0.504,0.303,1.209,0.303,1.713,0l1.31-0.806
	C206.619,450.227,206.619,449.421,206.014,449.018z"></path>
<path id="color_x5F_8" fill="#FD6322" d="M311.54,359.113l-4.838-2.218c-2.217,0-3.628-1.108-4.535-2.62l13.707-7.963v19.453
	l-4.232-6.652C311.642,359.113,311.642,359.113,311.54,359.113z M305.695,331.799c0.201,0.706,0.402,1.512,0.503,2.318l9.575-5.543
	v-19.352l-16.227,9.373c4.536,0.705,6.451,5.645,6.249,11.188C305.896,330.59,305.795,331.194,305.695,331.799z M278.885,349.336
	c1.209-0.402,2.419-1.512,2.923-4.132c0.806-4.334-1.311-10.481-1.411-15.421l-1.411,0.807v18.746H278.885z M434.604,346.414
	c0.201,1.108,0.907,2.116,2.016,2.822c0.907,0.604,1.814,0.806,2.621,0.705c0.806-0.201,1.915-0.705,3.023-1.713
	c0.806-0.706,1.31-1.009,1.713-1.109s0.706,0,1.109,0.303c0.402,0.201,0.604,0.604,0.604,1.008c0.101,0.402-0.101,0.906-0.303,1.311
	c-0.302,0.504-0.806,0.906-1.411,1.209c-0.604,0.303-1.31,0.504-2.217,0.604l1.411,3.124c1.008-0.201,1.915-0.504,2.62-1.008
	c0.706-0.504,1.411-1.108,1.915-1.914l2.016,1.31l0.706-1.108l-2.016-1.411c0.705-1.21,0.906-2.52,0.604-3.729
	c-0.303-1.209-1.008-2.217-2.117-3.023c-0.504-0.303-1.008-0.604-1.512-0.705c-0.504-0.102-1.008-0.102-1.512-0.102
	c-0.705,0.102-1.713,0.706-3.023,1.916l-0.101,0.1c-0.605,0.504-1.109,0.807-1.411,0.908c-0.303,0.1-0.604,0-0.907-0.202
	s-0.504-0.504-0.504-0.907c0-0.402,0.101-0.807,0.403-1.108c0.302-0.403,0.604-0.706,1.008-1.008
	c0.403-0.303,0.907-0.505,1.512-0.706l-1.612-2.62c-0.605,0.202-1.21,0.504-1.613,0.907c-0.504,0.303-0.907,0.705-1.31,1.209
	l-1.109-0.807l-0.705,1.109l1.108,0.807C434.604,343.994,434.402,345.305,434.604,346.414z M145.54,216.395l-12.8-7.357
	c-0.403-0.202-0.907-0.202-1.209,0l-11.289,6.551c-0.403,0.202-0.403,0.806,0,1.108l12.8,7.458c0.403,0.202,0.807,0.202,1.209,0
	l11.289-6.551C145.943,217.302,145.943,216.697,145.54,216.395z M421.099,361.633l0.201,0.504l0.403,0.807l0.403,0.807l0.504,0.806
	l0.604,0.806l0.605,0.706l0.705,0.706l0.807,0.705l0.806,0.705l0.907,0.706l1.008,0.706l1.008,0.604l1.109,0.604l1.108,0.604
	l1.21,0.505l1.209,0.504l1.21,0.504l1.209,0.402l1.311,0.403l1.31,0.302l1.311,0.303l1.311,0.201l1.411,0.202l1.411,0.202
	l1.411,0.101l1.411,0.101l1.41,0.101h1.411h1.411l1.411-0.101l1.411-0.101l1.411-0.101l1.411-0.202l1.411-0.202l1.311-0.201
	l1.31-0.303l1.311-0.302l1.209-0.403l1.21-0.402l1.209-0.404l1.21-0.504l1.108-0.504l1.109-0.504l1.108-0.604l1.008-0.604
	l0.907-0.605l0.907-0.604l0.806-0.706l0.706-0.706l0.705-0.705l0.605-0.705l0.604-0.706l0.504-0.706l0.403-0.705l0.403-0.705
	l0.302-0.807l0.202-0.807l0.201-0.807l0.101-0.604v-0.202l0.101-0.806v-4.536c0,0.202,0,0.504-0.101,0.806
	c0,0.202-0.101,0.504-0.101,0.807s-0.101,0.504-0.201,0.807c-0.102,0.303-0.202,0.504-0.202,0.807
	c-0.101,0.302-0.201,0.504-0.302,0.806c-0.102,0.202-0.202,0.504-0.403,0.807c-0.102,0.202-0.303,0.504-0.403,0.706
	c-0.202,0.201-0.303,0.504-0.504,0.705c-0.202,0.201-0.403,0.504-0.604,0.705c-0.202,0.201-0.403,0.504-0.605,0.706
	c-0.201,0.201-0.403,0.504-0.705,0.705c-0.202,0.202-0.504,0.504-0.706,0.706c-0.201,0.201-0.504,0.402-0.806,0.705
	c-0.303,0.201-0.605,0.403-0.907,0.705c-0.303,0.202-0.604,0.404-0.907,0.605c-0.201,0.101-0.303,0.201-0.504,0.303
	c-0.201,0.1-0.303,0.201-0.504,0.302c-0.403,0.202-0.706,0.403-1.108,0.604c-0.403,0.202-0.706,0.403-1.109,0.605
	c-0.403,0.201-0.705,0.302-1.108,0.504c0,0,0,0-0.101,0c-0.403,0.201-0.807,0.303-1.21,0.504s-0.806,0.303-1.209,0.402
	c-0.403,0.102-0.807,0.303-1.21,0.404c-0.403,0.1-0.806,0.201-1.209,0.402c-0.403,0.102-0.907,0.201-1.311,0.303
	c-0.403,0.101-0.907,0.201-1.311,0.303c-0.504,0.1-0.907,0.201-1.31,0.201c-0.504,0.101-0.907,0.201-1.411,0.201
	c-0.504,0.102-0.907,0.102-1.411,0.201c-0.504,0.102-0.907,0.102-1.411,0.102s-0.907,0.101-1.411,0.101s-0.907,0.101-1.411,0.101
	s-0.907,0-1.411,0s-0.907,0-1.411,0s-0.907,0-1.411-0.101c-0.504,0-0.907-0.101-1.411-0.101s-0.906-0.102-1.411-0.102
	c-0.201,0-0.402-0.1-0.705-0.1c-0.201,0-0.403-0.102-0.705-0.102c-0.202-0.101-0.403-0.101-0.706-0.101
	c-0.201,0-0.403-0.101-0.705-0.101c-0.403-0.102-0.907-0.201-1.311-0.303c-0.403-0.101-0.907-0.201-1.311-0.303
	c-0.403-0.1-0.907-0.201-1.31-0.302c-0.202-0.101-0.403-0.101-0.605-0.202c-0.201-0.1-0.403-0.1-0.604-0.201
	c-0.403-0.101-0.807-0.303-1.21-0.402c-0.402-0.102-0.806-0.303-1.209-0.404c-0.403-0.201-0.807-0.302-1.21-0.504
	c-0.402-0.201-0.806-0.302-1.209-0.504c-0.403-0.201-0.807-0.402-1.108-0.504c-0.403-0.201-0.706-0.402-1.109-0.604l0,0l0,0
	l1.008,0.302l1.311,0.404l1.311,0.302l1.311,0.303l1.41,0.201l1.311,0.202l1.411,0.201l1.411,0.102l1.411,0.1l1.411,0.102h1.411
	h1.411l1.411-0.102l1.41-0.1l1.411-0.102l1.411-0.201l1.411-0.202l1.311-0.201l1.311-0.303l1.31-0.302l1.311-0.404l1.209-0.402
	l1.21-0.403l1.209-0.504l1.109-0.504l1.108-0.504l1.108-0.604l1.008-0.605l0.907-0.604l0.907-0.604l0.807-0.705l0.807-0.706
	l0.705-0.706l0.604-0.705l0.605-0.705l0.504-0.706l0.402-0.706l0.403-0.806l0.303-0.706l0.201-0.806l0.202-0.807l0.101-0.806
	l0.101-0.807v-4.133c0-0.101,0-0.201,0-0.402l0,0c0,0.1,0,0.302,0,0.402l0,0c0,0.102,0,0.303,0,0.403
	c0,0.202-0.101,0.504-0.101,0.807c-0.101,0.201-0.101,0.504-0.202,0.806c-0.101,0.303-0.201,0.504-0.201,0.807
	c-0.101,0.201-0.201,0.504-0.303,0.807c-0.101,0.201-0.201,0.504-0.402,0.705c-0.102,0.303-0.303,0.504-0.403,0.807c0,0,0,0,0,0.101
	c-0.101,0.202-0.303,0.403-0.403,0.604c-0.201,0.202-0.403,0.504-0.604,0.706c-0.202,0.201-0.403,0.504-0.605,0.706
	c-0.201,0.201-0.504,0.504-0.705,0.705s-0.504,0.504-0.807,0.705c-0.201,0.201-0.504,0.403-0.806,0.705
	c-0.102,0.102-0.303,0.202-0.403,0.303c-0.101,0.102-0.303,0.202-0.403,0.303s-0.303,0.201-0.504,0.303
	c-0.101,0.101-0.303,0.201-0.504,0.302c-0.202,0.101-0.303,0.202-0.504,0.303c-0.202,0.101-0.303,0.201-0.504,0.302
	c-0.403,0.202-0.706,0.403-1.108,0.605c-0.403,0.201-0.706,0.402-1.109,0.504c-0.403,0.201-0.806,0.402-1.108,0.504
	c-0.403,0.201-0.807,0.303-1.21,0.504c-0.402,0.101-0.806,0.303-1.209,0.402c-0.403,0.102-0.807,0.303-1.21,0.404
	c-0.402,0.1-0.806,0.201-1.31,0.402c-0.202,0.102-0.403,0.102-0.706,0.201c-0.201,0.102-0.403,0.102-0.705,0.202
	c-0.403,0.101-0.907,0.202-1.311,0.303s-0.907,0.201-1.311,0.201c-0.504,0.101-0.907,0.101-1.411,0.202
	c-0.504,0.101-0.906,0.101-1.41,0.201c-0.202,0-0.504,0-0.706,0.101c-0.201,0-0.504,0-0.705,0.101c-0.504,0-0.907,0.102-1.411,0.102
	s-0.907,0.101-1.411,0.101s-0.907,0-1.411,0s-0.907,0-1.411,0s-0.907,0-1.411-0.101c-0.504,0-0.907-0.102-1.411-0.102
	c-0.504-0.101-0.907-0.101-1.411-0.101c-0.504-0.101-0.907-0.101-1.411-0.201c-0.403-0.101-0.907-0.101-1.31-0.202
	c-0.504-0.101-0.907-0.201-1.411-0.302c-0.403-0.101-0.907-0.202-1.311-0.303s-0.907-0.202-1.311-0.403
	c-0.403-0.101-0.907-0.201-1.31-0.402c-0.403-0.102-0.807-0.303-1.21-0.404c-0.403-0.1-0.807-0.302-1.209-0.402
	c-0.202-0.102-0.403-0.201-0.605-0.201c-0.201-0.102-0.403-0.202-0.604-0.202c-0.403-0.202-0.807-0.403-1.209-0.504
	c-0.403-0.202-0.706-0.403-1.109-0.604c-0.403-0.202-0.705-0.403-1.108-0.605c-0.403-0.201-0.706-0.402-1.008-0.604
	c-0.303-0.201-0.706-0.403-0.907-0.706c-0.201-0.1-0.403-0.302-0.604-0.402c-0.101-0.102-0.202-0.201-0.403-0.201
	c-0.303-0.202-0.504-0.504-0.807-0.706c-0.302-0.202-0.504-0.504-0.806-0.706c-0.202-0.201-0.504-0.504-0.706-0.705
	c-0.201-0.201-0.403-0.504-0.705-0.705c-0.202-0.202-0.403-0.504-0.605-0.807c-0.201-0.201-0.302-0.504-0.504-0.807
	c-0.201-0.201-0.302-0.504-0.402-0.807c-0.102-0.302-0.303-0.504-0.403-0.806c-0.102-0.302-0.202-0.504-0.303-0.806
	c-0.101-0.303-0.201-0.505-0.201-0.807c-0.102-0.303-0.102-0.504-0.202-0.807c-0.101-0.201-0.101-0.504-0.101-0.807
	s-0.101-0.504-0.101-0.807c0-4.031,2.52-8.163,7.559-11.389l-151.99-87.788c-4.132-2.419-9.374-2.419-13.506,0l-113.892,65.715
	c-4.536,2.62-4.536,9.07,0,11.691l138.787,80.127c1.008-4.838,0.302-11.893,0.302-11.893s0-0.102,0-0.303
	c-0.907-0.201-1.915-1.108-2.721-2.116v5.442l-29.632-17.135v-34.066c-0.504-0.201-0.907-0.402-1.411-0.604l-5.745-3.326
	c-2.52-1.411-2.52-5.14,0-6.651l7.156-4.133v-18.949l-25.399,14.615c-2.419,1.41-5.241,1.41-7.66,0l-5.745-3.326
	c-2.52-1.512-2.52-5.141,0-6.652l38.804-22.375v-29.733l11.389-6.551c3.729-2.117,8.365-2.117,12.095,0l6.148,3.527v17.134
	c1.209,0.101,2.419,0.403,3.427,1.008l5.745,3.326c2.52,1.512,2.52,5.14,0,6.652l-9.172,5.342v18.949l27.415-15.825
	c2.419-1.411,5.241-1.411,7.66,0l1.915,1.109v-16.227l29.632,17.134v16.126c0.202,0.101,0.403,0.202,0.605,0.303l5.745,3.325
	c2.52,1.513,2.52,5.141,0,6.652l-6.351,3.629v51c0.102-0.102,0.202-0.202,0.303-0.202l37.796-21.871c2.419-1.411,5.241-1.411,7.66,0
	l5.745,3.325c1.311,0.807,2.016,2.117,1.915,3.528v6.753c0,1.311-0.604,2.621-1.915,3.326l-37.796,21.871
	c-2.419,1.411-5.241,1.411-7.66,0l-5.745-3.326c-0.101-0.101-0.201-0.201-0.303-0.201v32.857l-1.209,0.705
	c-3.729,2.117-8.365,2.117-12.095,0l-16.328-9.474v-32.052c-2.923-3.225-5.745-6.45-5.745-6.45l-2.318-3.427
	c0,0-1.108,12.498-0.302,17.639c0.806,5.039,5.745,15.42,5.745,15.42s-1.21,0.706-3.427,1.411c0.101,0,0.201-0.101,0.302-0.101
	l0.504,0.201l0.202,11.894l25.499,14.715c4.233,2.419,9.374,2.419,13.506,0l94.642-54.628l1.108,0.102l1.411,0.101l1.411,0.101
	h1.411h1.411l1.411-0.101l1.411-0.101l1.411-0.102l1.411-0.201l1.411-0.201l1.31-0.202l1.311-0.302l1.311-0.303l1.209-0.403
	l1.21-0.403l1.209-0.402l1.21-0.504l1.108-0.504l1.108-0.504l1.109-0.605l1.008-0.604l0.907-0.604l0.907-0.706l0.806-0.706
	l0.706-0.705l0.705-0.705l0.604-0.706l0.605-0.706l0.504-0.705l0.402-0.807l0.403-0.705l0.303-0.807l0.201-0.806l0.202-0.807
	l0.101-0.806l0.101-0.807v-4.535c0,0.201,0,0.504-0.101,0.806c0,0.303-0.101,0.504-0.101,0.807c0,0.302-0.101,0.504-0.202,0.806
	c-0.101,0.202-0.201,0.504-0.201,0.807c-0.101,0.201-0.201,0.504-0.303,0.705c-0.101,0.303-0.201,0.504-0.403,0.807
	c-0.101,0.201-0.302,0.504-0.402,0.705c-0.202,0.202-0.303,0.504-0.504,0.706c-0.202,0.202-0.403,0.504-0.605,0.706
	c-0.201,0.201-0.402,0.504-0.604,0.705c-0.201,0.201-0.403,0.504-0.705,0.705c-0.202,0.202-0.504,0.404-0.706,0.706
	c-0.201,0.202-0.504,0.504-0.806,0.706c-0.102,0.101-0.303,0.201-0.403,0.302l0,0c-0.102,0.101-0.303,0.202-0.403,0.303
	c-0.303,0.201-0.604,0.403-0.907,0.604s-0.706,0.403-1.008,0.604c-0.403,0.202-0.706,0.403-1.108,0.604
	c-0.403,0.202-0.706,0.404-1.109,0.504c-0.403,0.202-0.806,0.404-1.108,0.504c-0.403,0.202-0.807,0.303-1.21,0.504
	c-0.402,0.202-0.806,0.303-1.209,0.404c-0.403,0.1-0.807,0.302-1.21,0.402c-0.402,0.102-0.806,0.201-1.209,0.403
	c-0.403,0.101-0.907,0.202-1.311,0.303s-0.907,0.201-1.31,0.302c-0.504,0.102-0.907,0.202-1.311,0.202
	c-0.504,0.101-0.907,0.101-1.411,0.201c-0.202,0-0.504,0.101-0.706,0.101c-0.201,0-0.402,0.102-0.705,0.102
	c-0.504,0.101-0.907,0.101-1.411,0.101c-0.201,0-0.504,0-0.705,0.101c-0.202,0-0.504,0-0.706,0.102c-0.504,0-0.907,0-1.411,0.1
	c-0.201,0-0.504,0-0.705,0c-0.202,0-0.504,0-0.706,0c-0.504,0-0.907,0-1.411,0s-0.907,0-1.411-0.1c-0.504,0-0.906-0.102-1.41-0.102
	s-0.907-0.101-1.411-0.101c-0.202,0-0.403-0.101-0.706-0.101c-0.201,0-0.403-0.102-0.705-0.102c-0.202,0-0.403-0.101-0.706-0.101
	c-0.201,0-0.403-0.101-0.705-0.101c-0.403-0.101-0.907-0.201-1.311-0.201c-0.403-0.102-0.907-0.202-1.311-0.303
	s-0.907-0.201-1.31-0.303c-0.403-0.101-0.907-0.201-1.311-0.402c-0.403-0.102-0.807-0.202-1.21-0.404
	c-0.402-0.201-0.806-0.302-1.209-0.504c-0.403-0.1-0.807-0.302-1.21-0.504c-0.402-0.201-0.806-0.302-1.209-0.504
	c-0.403-0.201-0.807-0.402-1.108-0.504c-0.403-0.201-0.706-0.402-1.109-0.604c-0.201-0.101-0.302-0.201-0.504-0.302l0,0
	c-0.201-0.102-0.302-0.202-0.504-0.303c-0.302-0.201-0.705-0.403-1.008-0.705c-0.302-0.202-0.604-0.403-0.907-0.706
	c-0.302-0.202-0.604-0.403-0.806-0.706c-0.303-0.201-0.504-0.504-0.807-0.705c-0.202-0.201-0.504-0.504-0.706-0.705
	c-0.201-0.202-0.402-0.504-0.604-0.706c-0.201-0.201-0.403-0.504-0.604-0.706c-0.201-0.302-0.403-0.504-0.504-0.806
	c-0.202-0.302-0.303-0.504-0.403-0.806c-0.101-0.202-0.303-0.504-0.403-0.807c-0.101-0.201-0.201-0.504-0.302-0.807
	c-0.102-0.201-0.202-0.504-0.202-0.807c-0.101-0.302-0.101-0.504-0.201-0.806c-0.101-0.303-0.101-0.504-0.101-0.807
	c0-0.202,0-0.302,0-0.504L421.099,361.633L421.099,361.633z M428.255,337.746c7.962-4.637,20.863-4.737,29.329-0.504
	c0.403,0.201,0.706,0.402,1.009,0.504c0.302,0.201,0.604,0.402,0.906,0.504c7.56,4.938,7.257,12.296-0.705,16.932
	c-8.365,4.838-21.871,4.738-30.338-0.1C419.99,350.344,419.99,342.482,428.255,337.746z M429.666,355.484
	c7.66,4.436,20.157,4.436,27.717,0.102c7.357-4.233,7.56-11.088,0.705-15.521c-0.302-0.202-0.504-0.404-0.806-0.504
	c-0.303-0.202-0.604-0.303-0.907-0.504c-7.761-3.932-19.452-3.83-26.81,0.402C421.905,343.895,422.006,351.05,429.666,355.484z"></path>
<path id="color_x5F_7" fill="#e64980" d="M372.619,370.401c0.101,0.101,0.201,0.202,0.302,0.303l2.117,2.016l-2.016,1.108
	l-0.706-2.822c0-0.201-0.101-0.402-0.101-0.504c-0.101-0.201-0.101-0.402-0.202-0.604
	C372.316,370.1,372.417,370.199,372.619,370.401z M366.773,373.525c-0.303,0-0.605,0.102-1.109,0.404l-0.402,0.201l1.008,1.713
	l0.402-0.201c0.504-0.303,0.807-0.504,0.907-0.807c0.101-0.201,0.101-0.504-0.101-0.807
	C367.277,373.627,367.075,373.525,366.773,373.525z M399.025,364.959c-0.101,1.209-0.705,2.419-1.915,3.125l-37.796,21.871
	c-2.419,1.41-5.241,1.41-7.66,0l-2.016-1.21c2.52-1.31,5.141-3.931,5.141-3.931s4.334-0.705,5.745,0s1.512,0.907,1.612,0.303
	c0.101-0.605-0.403-1.512-0.403-1.512s0.504-0.504,0.403-1.008c-0.201-0.504-1.814-1.513-1.814-1.513s0.807,0.101,0.706-0.302
	c-0.101-0.403-4.334-2.924-5.342-3.326c-0.907-0.403-4.133,0-4.133,0s-7.357,4.736-7.559,4.938h-0.102
	c-1.713,0.101-18.545-1.411-18.545-1.411l-4.838-7.861l-4.737-7.459v-19.452l29.632-17.134v50.999
	c0.102-0.101,0.202-0.201,0.303-0.201l37.796-21.872c2.419-1.41,5.241-1.41,7.66,0l5.745,3.326
	C398.521,362.237,399.127,363.648,399.025,364.959z M369.897,374.231c-0.101-0.403-0.201-0.806-0.504-1.31
	c-0.201-0.404-0.504-0.706-0.907-1.009c-0.302-0.302-0.705-0.403-1.108-0.504c-0.303-0.101-0.706,0-1.108,0.101
	c-0.403,0.102-1.008,0.403-1.814,0.908l-2.117,1.209l4.233,7.357l1.915-1.109l-1.411-2.418l0.403-0.201l0.303-0.202
	c0.604-0.403,1.008-0.604,1.31-0.907c0.202-0.201,0.403-0.504,0.504-0.807C369.897,375.037,369.897,374.635,369.897,374.231z
	 M379.473,373.828l-6.854-5.946l-2.52,1.411l1.713,8.869l2.016-1.108l-0.403-1.512l2.822-1.612l1.109,1.107L379.473,373.828z
	 M382.396,372.014l-1.915-3.326l0.303-5.543l-2.318,1.311l0.101,2.419c0,0,0,0,0,0.101c0,0.303,0,0.504,0.101,0.705
	c-0.101-0.201-0.302-0.302-0.504-0.402c0,0,0,0-0.101,0l-2.116-1.311l-2.318,1.311l4.938,2.52l1.915,3.326L382.396,372.014z
	 M249.252,344.801v34.066l29.632,17.135v-5.442c-1.411-1.612-2.52-3.427-2.52-3.628c0-0.303,0-11.088,0-11.088
	c0-5.442,1.109-9.676,2.52-12.699v-1.209l-4.637-2.722c-2.52-1.411-2.52-5.14,0-6.652l2.822-1.612
	c-0.202-0.504-0.504-1.008-0.706-1.613c0,0,1.209,0.303,2.52-0.1V330.59L255.4,344.096
	C253.586,345.305,251.268,345.506,249.252,344.801z M177.591,182.429c-5.443,0-9.877,2.621-9.877,5.946
	c0,3.226,4.435,5.846,9.877,5.846c5.442,0,9.877-2.62,9.877-5.846C187.469,185.15,183.034,182.429,177.591,182.429z
	 M249.252,330.086l29.632-17.135v-18.948l-29.632,17.134V330.086L249.252,330.086z M345.607,315.27v-16.126l-29.632-17.134v16.227
	l3.829,2.217c2.521,1.511,2.521,5.14,0,6.652l-3.829,2.218v19.251l22.677-13.104C340.669,314.262,343.289,314.161,345.607,315.27z
	 M260.642,257.114l-11.389,6.551v29.733l25.5-14.715c1.31-0.706,2.721-1.109,4.233-1.008v-17.134l-6.148-3.528
	C269.007,254.896,264.371,254.896,260.642,257.114z M478.75,354.275L478.75,354.275c0,0.101,0,0.303,0,0.402l0,0
	c0,0.102,0,0.202,0,0.404c0,0.201-0.101,0.504-0.101,0.806c0,0.101-0.101,0.302-0.101,0.403c0,0.101-0.101,0.303-0.101,0.403
	c-0.102,0.101-0.102,0.302-0.102,0.403c0,0.101-0.101,0.302-0.101,0.402c-0.101,0.303-0.201,0.504-0.302,0.807
	c-0.102,0.201-0.202,0.504-0.403,0.807c-0.102,0.101-0.102,0.201-0.202,0.402c-0.101,0.102-0.101,0.202-0.201,0.404
	c-0.101,0.1-0.202,0.201-0.202,0.402c-0.101,0.102-0.201,0.201-0.201,0.403c-0.201,0.202-0.403,0.504-0.604,0.706
	c-0.202,0.201-0.403,0.504-0.604,0.705c-0.202,0.201-0.403,0.504-0.706,0.705c-0.201,0.202-0.504,0.504-0.705,0.706
	c-0.202,0.202-0.505,0.403-0.807,0.706c-0.303,0.201-0.604,0.402-0.907,0.705c-0.101,0.101-0.303,0.201-0.504,0.303
	c-0.101,0.1-0.303,0.201-0.504,0.302s-0.303,0.202-0.504,0.302c-0.202,0.102-0.303,0.202-0.504,0.303
	c-0.403,0.201-0.706,0.403-1.108,0.605c-0.403,0.201-0.706,0.402-1.109,0.604c-0.201,0.101-0.403,0.201-0.604,0.201
	c-0.201,0.101-0.303,0.202-0.504,0.202c0,0,0,0-0.101,0c-0.202,0.101-0.403,0.201-0.604,0.201c-0.202,0.102-0.403,0.201-0.605,0.201
	c-0.403,0.202-0.806,0.303-1.209,0.404c-0.403,0.1-0.807,0.302-1.21,0.402c-0.403,0.102-0.806,0.201-1.209,0.403
	c-0.202,0.101-0.403,0.101-0.706,0.202c-0.201,0.1-0.403,0.1-0.705,0.201c-0.202,0.101-0.403,0.101-0.706,0.101
	c-0.201,0.101-0.403,0.101-0.705,0.101c-0.504,0.102-0.907,0.202-1.311,0.202c-0.504,0.101-0.907,0.201-1.411,0.201
	c-0.504,0.101-0.907,0.101-1.411,0.202c-0.504,0.101-0.907,0.101-1.411,0.101s-0.906,0.101-1.411,0.101
	c-0.504,0-0.906,0.101-1.41,0.101c-0.505,0-0.907,0-1.411,0s-0.907,0-1.411,0c-0.202,0-0.504,0-0.706,0c-0.201,0-0.504,0-0.705,0
	c-0.202,0-0.504,0-0.706-0.101c-0.201,0-0.504,0-0.705-0.101c-0.504,0-0.907-0.101-1.411-0.101c-0.201,0-0.403-0.102-0.706-0.102
	l0,0c-0.201,0-0.402-0.101-0.705-0.101c-0.201-0.101-0.403-0.101-0.706-0.101c-0.201,0-0.402-0.101-0.705-0.101
	c-0.201-0.101-0.403-0.101-0.705-0.101c-0.202,0-0.504-0.102-0.706-0.102c-0.201,0-0.403-0.101-0.705-0.101
	c-0.202,0-0.403-0.101-0.706-0.101s-0.403-0.102-0.705-0.201c-0.202-0.102-0.403-0.102-0.706-0.202
	c-0.201-0.101-0.403-0.101-0.604-0.202l0,0c-0.201-0.1-0.403-0.1-0.604-0.201c-0.403-0.101-0.807-0.303-1.21-0.402
	c-0.403-0.102-0.807-0.303-1.209-0.404c-0.403-0.201-0.807-0.302-1.21-0.504c-0.403-0.201-0.807-0.302-1.209-0.504
	c-0.403-0.201-0.807-0.402-1.109-0.504c-0.201-0.101-0.403-0.201-0.504-0.302c-0.201-0.101-0.403-0.202-0.504-0.303l0,0l1.008,0.303
	l1.311,0.403l1.311,0.302l1.31,0.303l1.411,0.201l1.311,0.202l1.411,0.201l1.411,0.102l1.411,0.1l1.411,0.102h1.411h1.41
	l1.411-0.102l1.411-0.1l1.411-0.102l1.411-0.201l1.411-0.202l1.311-0.201l1.31-0.303l1.311-0.302l1.311-0.403l1.209-0.403
	l1.21-0.403l1.209-0.504l1.109-0.504l1.108-0.504l1.108-0.604l1.008-0.605l0.907-0.604l0.907-0.604l0.807-0.705l0.806-0.706
	l0.706-0.706l0.604-0.705l0.604-0.705l0.504-0.706l0.403-0.706l0.403-0.806l0.303-0.706l0.201-0.806l0.202-0.807l0.101-0.806
	l0.101-0.807v-4.133c0-0.101,0-0.201,0-0.402l0,0c0,0.101,0,0.302,0,0.402l0,0l0,0c0,0.102,0,0.303,0,0.403
	c0,0.202-0.101,0.504-0.101,0.807c0,0.101-0.101,0.201-0.101,0.403c0,0.101-0.102,0.201-0.102,0.402
	c-0.101,0.102-0.101,0.303-0.101,0.404c0,0.1-0.101,0.302-0.101,0.402c-0.101,0.102-0.101,0.201-0.201,0.403
	c-0.102,0.101-0.102,0.202-0.202,0.403s-0.201,0.504-0.403,0.705c-0.101,0.102-0.101,0.303-0.201,0.403s-0.101,0.202-0.202,0.403
	c0,0,0,0,0,0.101c-0.101,0.101-0.101,0.202-0.201,0.303s-0.201,0.201-0.201,0.403c-0.202,0.201-0.403,0.504-0.605,0.705
	c-0.101,0.101-0.201,0.201-0.302,0.403c-0.102,0.101-0.202,0.202-0.303,0.403c-0.201,0.201-0.504,0.504-0.705,0.705
	c-0.202,0.201-0.504,0.504-0.807,0.705c-0.201,0.202-0.504,0.404-0.807,0.706c-0.101,0.101-0.302,0.202-0.403,0.302
	c-0.101,0.102-0.302,0.202-0.402,0.303c-0.102,0.102-0.303,0.202-0.504,0.303c-0.102,0.101-0.303,0.201-0.504,0.303
	c-0.202,0.101-0.303,0.201-0.505,0.302c-0.201,0.101-0.302,0.202-0.504,0.303c-0.402,0.201-0.705,0.403-1.108,0.604
	s-0.705,0.403-1.108,0.504c-0.403,0.201-0.807,0.403-1.108,0.504c-0.403,0.201-0.807,0.303-1.21,0.504
	c-0.403,0.102-0.807,0.303-1.209,0.403c-0.202,0.101-0.403,0.101-0.605,0.202c-0.201,0.1-0.403,0.1-0.604,0.201
	c-0.201,0.101-0.403,0.101-0.705,0.201c-0.202,0.102-0.403,0.102-0.605,0.201c-0.201,0.102-0.403,0.102-0.705,0.202
	c-0.202,0.101-0.403,0.101-0.706,0.202c-0.402,0.101-0.907,0.201-1.31,0.302c-0.403,0.101-0.907,0.202-1.311,0.202
	c-0.202,0-0.504,0.101-0.706,0.101c-0.201,0-0.504,0.101-0.705,0.101c-0.504,0.102-0.907,0.102-1.411,0.201
	c-0.201,0-0.403,0.102-0.705,0.102l0,0c-0.202,0-0.504,0-0.706,0.101c-0.504,0-0.907,0.101-1.411,0.101c-0.201,0-0.504,0-0.705,0
	c-0.202,0-0.504,0-0.706,0c-0.504,0-0.907,0-1.411,0c-0.201,0-0.504,0-0.705,0c-0.202,0-0.504,0-0.706,0c-0.201,0-0.504,0-0.705,0
	s-0.504,0-0.706,0c-0.201,0-0.504,0-0.705-0.101c-0.201,0-0.504,0-0.705-0.101c-0.505-0.102-0.907-0.102-1.411-0.102
	c-0.504-0.1-0.907-0.1-1.411-0.201c-0.403-0.101-0.907-0.101-1.311-0.201c-0.504-0.102-0.907-0.202-1.411-0.303
	c-0.201,0-0.403-0.101-0.705-0.101c-0.202-0.101-0.403-0.101-0.706-0.101c-0.403-0.102-0.907-0.202-1.311-0.403
	c-0.402-0.101-0.906-0.202-1.31-0.403c-0.403-0.102-0.807-0.303-1.21-0.403s-0.806-0.302-1.209-0.403
	c-0.202-0.101-0.403-0.201-0.605-0.201c-0.201-0.102-0.402-0.201-0.604-0.201c-0.403-0.202-0.806-0.404-1.209-0.504
	c-0.403-0.202-0.706-0.404-1.109-0.605c-0.402-0.201-0.705-0.402-1.108-0.604s-0.705-0.403-1.008-0.604
	c-0.303-0.202-0.705-0.403-0.907-0.706c-0.201-0.101-0.302-0.202-0.504-0.302l-0.101-0.102c-0.101-0.101-0.202-0.201-0.403-0.201
	c-0.101-0.102-0.303-0.201-0.403-0.403s-0.302-0.202-0.403-0.302c-0.302-0.202-0.504-0.504-0.806-0.706
	c-0.202-0.202-0.504-0.504-0.706-0.706c-0.101-0.1-0.201-0.201-0.302-0.402c-0.102-0.102-0.202-0.202-0.303-0.403
	c-0.201-0.202-0.403-0.504-0.604-0.807c-0.202-0.201-0.303-0.504-0.504-0.806c-0.202-0.202-0.303-0.504-0.403-0.807
	c-0.101-0.102-0.101-0.303-0.202-0.403c-0.101-0.101-0.101-0.202-0.201-0.403c-0.101-0.303-0.201-0.504-0.303-0.807
	c-0.101-0.1-0.101-0.302-0.101-0.402c0-0.102-0.101-0.201-0.101-0.403c0-0.101-0.101-0.302-0.101-0.403
	c0-0.101-0.101-0.303-0.101-0.403c-0.102-0.201-0.102-0.504-0.102-0.806c0-0.303-0.101-0.504-0.101-0.807
	c0-4.031,2.52-8.164,7.56-11.389c0.302-0.202,0.504-0.303,0.806-0.504c1.814-1.008,3.729-1.814,5.745-2.521
	c10.684-3.628,24.492-2.923,34.067,1.915c0.504,0.201,0.907,0.504,1.411,0.705c0.403,0.202,0.806,0.504,1.209,0.706
	c3.427,2.218,5.745,4.938,6.753,7.66C476.634,346.313,478.851,350.344,478.75,354.275z M459.499,338.351
	c-0.302-0.202-0.604-0.403-0.906-0.504c-0.303-0.202-0.706-0.403-1.009-0.504c-8.466-4.334-21.267-4.133-29.329,0.504
	c-8.366,4.838-8.265,12.699,0.101,17.537c8.467,4.838,21.972,4.938,30.338,0.101C466.756,350.646,466.958,343.188,459.499,338.351z
	 M478.549,360.322l-0.202,0.807l-0.201,0.807l-0.303,0.806l-0.403,0.706l-0.402,0.705l-0.504,0.705l-0.605,0.706l-0.604,0.706
	l-0.705,0.705l-0.706,0.705l-0.806,0.706l-0.907,0.604l-0.907,0.605l-1.008,0.604l-1.109,0.604l-1.108,0.504l-1.108,0.504
	l-1.21,0.504l-1.209,0.403l-1.21,0.403l-1.209,0.402l-1.311,0.303l-1.311,0.303l-1.31,0.201l-1.411,0.202l-1.411,0.201l-1.411,0.101
	l-1.411,0.102l-1.411,0.101h-1.411h-1.411l-1.411-0.101h-1.411l-1.41-0.102l-1.411-0.201l-1.411-0.201l-1.311-0.202l-1.311-0.302
	l-1.31-0.303l-1.311-0.403l-1.21-0.403l-1.209-0.504l-1.21-0.504l-1.209-0.504l-1.108-0.604l-1.109-0.604l-1.008-0.605l-1.008-0.705
	l-0.907-0.705l-0.806-0.706l-0.807-0.706l-0.706-0.705l-0.604-0.705l-0.604-0.807l-0.504-0.807l-0.403-0.807l-0.403-0.806
	l-0.201-0.504l-0.101-0.101l-0.504-0.404c0,0.202,0,0.303,0,0.505c0,0.302,0.101,0.504,0.101,0.806c0,0.303,0.101,0.504,0.201,0.807
	s0.101,0.504,0.202,0.807c0.101,0.303,0.201,0.504,0.302,0.807c0.101,0.302,0.202,0.504,0.403,0.806
	c0.101,0.101,0.101,0.302,0.202,0.403c0.101,0.101,0.201,0.303,0.201,0.402c0.101,0.102,0.101,0.202,0.201,0.404
	c0.102,0.1,0.202,0.201,0.202,0.402c0.201,0.202,0.403,0.504,0.604,0.706c0.201,0.201,0.403,0.504,0.604,0.706
	c0.202,0.201,0.504,0.504,0.706,0.705c0.201,0.201,0.504,0.504,0.806,0.705c0.102,0.102,0.202,0.201,0.403,0.403
	c0.101,0.101,0.303,0.202,0.403,0.302c0.303,0.202,0.604,0.504,0.907,0.706s0.705,0.403,1.008,0.706
	c0.201,0.101,0.303,0.201,0.504,0.302l0,0l0,0c0.201,0.101,0.303,0.202,0.504,0.303c0.403,0.201,0.706,0.403,1.108,0.604
	c0.403,0.201,0.706,0.403,1.109,0.504c0.403,0.201,0.806,0.403,1.209,0.504c0.403,0.201,0.807,0.403,1.21,0.504
	c0.403,0.201,0.806,0.303,1.209,0.504c0.403,0.102,0.807,0.303,1.21,0.403s0.806,0.302,1.31,0.403
	c0.403,0.101,0.907,0.201,1.311,0.303c0.403,0.1,0.907,0.201,1.311,0.302c0.504,0.101,0.907,0.202,1.311,0.202
	c0.201,0,0.504,0.101,0.705,0.101s0.504,0.101,0.705,0.101c0.202,0,0.505,0.101,0.706,0.101l0,0c0.201,0,0.403,0.101,0.705,0.101
	c0.505,0.102,0.907,0.102,1.411,0.102c0.202,0,0.504,0.101,0.706,0.101c0.201,0,0.403,0.101,0.705,0.101c0.202,0,0.504,0,0.706,0
	c0.201,0,0.504,0,0.705,0c0.504,0,0.907,0,1.411,0c0.202,0,0.504,0,0.706,0c0.201,0,0.504,0,0.705,0c0.504,0,0.907,0,1.411-0.101
	c0.201,0,0.504,0,0.705-0.101l0,0c0.202,0,0.505,0,0.706-0.102c0.504,0,0.907-0.101,1.411-0.101c0.201,0,0.504-0.101,0.705-0.101
	l0,0c0.202,0,0.504-0.101,0.706-0.101c0.504-0.101,0.907-0.101,1.411-0.202c0.201-0.101,0.403-0.101,0.705-0.101
	c0.202,0,0.504-0.101,0.706-0.101c0.402-0.102,0.907-0.201,1.31-0.303c0.202-0.101,0.403-0.101,0.706-0.201
	c0.302-0.102,0.403-0.102,0.705-0.201c0.403-0.102,0.807-0.202,1.21-0.404c0.403-0.1,0.806-0.302,1.209-0.402
	c0.403-0.102,0.807-0.303,1.21-0.403s0.807-0.302,1.209-0.504c0.403-0.202,0.807-0.403,1.109-0.504
	c0.402-0.202,0.806-0.403,1.108-0.504c0.403-0.202,0.705-0.403,1.108-0.604c0.303-0.202,0.706-0.403,1.008-0.605
	c0.303-0.201,0.605-0.402,0.907-0.604c0.101-0.101,0.303-0.202,0.403-0.302l0,0l0,0c0.101-0.102,0.303-0.202,0.403-0.303
	c0.302-0.201,0.504-0.403,0.807-0.705c0.302-0.202,0.504-0.404,0.705-0.706c0.201-0.202,0.504-0.504,0.705-0.706
	c0.202-0.201,0.403-0.504,0.605-0.705c0.201-0.201,0.403-0.504,0.604-0.705c0.201-0.202,0.303-0.504,0.504-0.706
	c0.101-0.202,0.303-0.504,0.403-0.706c0.101-0.201,0.201-0.504,0.403-0.806c0.101-0.202,0.201-0.504,0.302-0.706
	c0-0.101,0.101-0.302,0.101-0.402c0.102-0.102,0.102-0.303,0.102-0.403s0.101-0.303,0.101-0.403c0-0.102,0.101-0.303,0.101-0.403
	c0.101-0.202,0.101-0.504,0.101-0.806c0-0.102,0-0.202,0-0.404c0-0.1,0-0.201,0-0.402s0-0.403,0-0.605c0-0.402,0-0.806-0.101-1.108
	V360.322z M343.994,390.357c0-0.101,0-0.101,0-0.201v-1.209c-3.628,0.504-20.258,2.822-21.771,2.418
	c-0.806-0.201-3.628-3.124-6.35-6.047v32.051l16.328,9.475c3.729,2.116,8.365,2.116,12.095,0l1.21-0.706v-32.856
	C344.6,392.575,343.994,391.467,343.994,390.357z"></path>
<path id="color_x5F_6" fill="#C95B31" d="M397.11,368.084l-37.796,21.871c-2.419,1.41-5.241,1.41-7.66,0l-2.016-1.21
	c-0.907,0.504-1.713,0.807-2.419,0.807c-2.721,0-2.52-0.706-2.52-0.706s-0.303,0-0.706,0.102v1.209c0,0.101,0,0.101,0,0.201
	c0,1.109,0.605,2.218,1.613,2.924c0.101,0.1,0.201,0.201,0.302,0.201l5.745,3.326c2.419,1.411,5.241,1.411,7.66,0l37.796-21.871
	c1.311-0.706,1.915-2.016,1.915-3.326v-6.754C398.925,366.168,398.32,367.378,397.11,368.084z"></path>
<path id="color_x5F_5" fill="#FFD2BB" d="M297.127,340.77c-0.101-2.016,1.31-3.125,2.822-2.722c1.511,0.403,2.117,3.124,2.117,3.124
	l0.303-3.225l0,0l0,0l0,0c0,0,0.1,0,0.1-0.101c0,0,0,0,0.102,0l0.101-0.101c0,0,0,0,0.101-0.102c0,0,0.102-0.101,0.201-0.201
	c0,0,0,0,0.102-0.102c0.101-0.1,0.101-0.1,0.201-0.201c0,0,0,0,0.102-0.101c0.302-0.302,0.604-0.806,1.008-1.31l0.101-0.102
	c0.101-0.101,0.101-0.201,0.201-0.303v-0.1c0,0,0-0.102,0.101-0.102c0.102-0.101,0.102-0.201,0.202-0.402
	c0-0.102,0.101-0.102,0.101-0.202c0.102-0.101,0.102-0.303,0.201-0.403c0-0.101,0-0.101,0.102-0.201
	c0.101-0.202,0.101-0.303,0.201-0.504v-0.102c0.102-0.402,0.303-0.906,0.303-1.41l0,0c0.201,0.705,0.403,1.512,0.504,2.317
	c1.311,6.552,1.512,15.824-4.637,19.05c-1.008-2.42-1.008-5.141-1.008-5.544l0,0C298.942,347.32,297.127,342.886,297.127,340.77z
	 M362.237,382.697c-0.201-0.504-1.813-1.512-1.813-1.512s0.806,0.102,0.705-0.302s-4.334-2.923-5.342-3.326
	c-0.907-0.403-4.133,0-4.133,0s-7.357,4.737-7.559,4.938h-0.101c-1.714,0.102-18.546-1.41-18.546-1.41l-4.838-7.862
	c0,0-3.527,6.954-10.482,5.644c0,0,2.822,3.227,5.745,6.451c2.722,2.923,5.544,5.846,6.351,6.047
	c1.41,0.404,18.142-1.914,21.771-2.418c0.402-0.102,0.705-0.102,0.705-0.102s-0.201,0.706,2.52,0.706
	c0.706,0,1.512-0.303,2.419-0.807c2.52-1.31,5.141-3.931,5.141-3.931s4.334-0.705,5.745,0s1.512,0.907,1.612,0.303
	c0.101-0.605-0.403-1.512-0.403-1.512S362.439,383.201,362.237,382.697z M276.466,375.844c0,0,0,10.886,0,11.088
	c0,0.201,1.108,2.016,2.52,3.628c0.907,1.008,1.814,1.813,2.721,2.116l0,0c-0.101-1.41-0.403-7.559-0.706-13.809L276.466,375.844z
	 M309.021,458.391c-0.101,0-0.201,0-0.201,0c-0.303,0-0.504,0.101-0.807,0.202c-0.101,0-0.303,0-0.403,0.101
	c-0.302,0.101-0.705,0.101-1.008,0.201c-0.101,0-0.302,0-0.403,0.101c-0.403,0.102-0.806,0.102-1.209,0.202
	c-0.101,0-0.303,0-0.403,0c-0.403,0.101-0.807,0.101-1.209,0.101c-0.202,0-0.303,0-0.504,0c-0.404,0-0.807,0.101-1.109,0.101
	c-0.201,0-0.402,0-0.604,0c-0.302,0-0.706,0-1.008,0c-0.101,0-0.202,0-0.303,0c-0.201,0-0.302,0-0.504,0c-0.302,0-0.604,0-0.806,0
	c-0.302,0-0.706,0-1.008-0.101c-0.101,0-0.302,0-0.403,0c-0.604-0.101-1.108-0.101-1.613-0.201
	c-2.822-0.504-5.342-1.714-7.257-2.923c0.101,2.317,0.101,5.14,0.202,7.962c0.101,6.048,0.303,11.994,0.303,12.296
	c0,0.505-0.101,7.862-0.202,10.685c0,0.504,0,0.906,0,1.008c0,0.101,0,0.101,0,0.101s1.008,2.116,4.031,2.116
	c3.024-0.101,4.334-2.62,4.334-2.62l1.109-10.482l0.403-3.628c0.202,1.209,0.303,2.52,0.504,3.628
	c0.302,2.318,0.604,4.334,0.806,5.745c0.101,1.108,0.202,1.814,0.302,1.814c0,0.403,0.605,6.35,0.907,9.676
	c0.102,0.806,0.102,1.411,0.202,1.814c0,0.302,0,0.402,0,0.402s2.116,2.621,5.039,2.218s3.528-3.023,3.528-3.023v-0.807
	L309.021,458.391z"></path>
<path id="color_x5F_4" fill="#12b886" d="M119.133,338.552l90.61,52.31l-42.937,24.795L46.464,344.801l90.509-52.713l2.822,1.613
	c1.512,0.907,3.326,0.907,4.838,0l75.895-43.843c0.807-0.504,1.209-1.311,1.209-2.117v-2.016c0,0.101,0,0.101,0,0.202
	c0.101-0.907-0.302-1.915-1.209-2.419h-0.101l55.232-32.152l68.335,39.208l-28.321,16.328l-53.52-30.942
	c-4.737-2.721-10.482-2.721-15.219,0l-127.902,73.879c-3.125,1.813-4.334,5.342-3.527,8.466c-0.101-0.201-0.101-0.302-0.101-0.504
	c0-0.201-0.101-0.302-0.101-0.504v15.623l0.101,0.504l0.101,0.504l0.101,0.504l0.202,0.504l0.202,0.402l0.202,0.404l0.201,0.402
	l0.303,0.403l0.302,0.403l0.302,0.403l0.403,0.403l0.403,0.402l0.403,0.303L119.133,338.552z M288.057,456.274
	c-2.318-1.411-3.729-2.722-3.729-2.722s0.504-12.599,0.101-19.654l-18.344-10.381l-43.541,25.097l65.714,38.703
	c0-2.923,0.202-10.28,0.202-10.684c0-0.303-0.101-6.148-0.302-12.297C288.157,461.516,288.057,458.693,288.057,456.274z
	 M453.755,313.455l-39.106,10.482L428.557,332c10.685-3.628,24.492-2.922,34.067,1.916c0.504,0.201,0.907,0.504,1.411,0.705
	c0.403,0.201,0.806,0.504,1.209,0.705c3.427,2.218,5.745,4.939,6.753,7.66c4.637,3.226,6.854,7.258,6.753,11.188l0,0v4.536
	l-0.101,0.806v0.202c0.101,0.403,0.101,0.806,0.101,1.108l22.174,12.801c3.125,1.814,4.334,5.342,3.527,8.467
	c0.102-0.202,0.102-0.303,0.102-0.504v15.521l-0.102,0.504l-0.101,0.505l-0.201,0.504l-0.202,0.504l-0.201,0.402l-0.201,0.403
	l-0.303,0.403l-0.303,0.403l-0.302,0.403l-0.403,0.402l-0.403,0.403l-0.403,0.303l-0.504,0.303l-128.003,73.878l-0.402,0.202
	l-0.505,0.201l-0.402,0.202l-0.504,0.201l-0.504,0.202l-0.504,0.201l-0.504,0.101l-0.505,0.101l-0.504,0.102l-0.504,0.101
	l-0.504,0.101l-0.504,0.101l-0.504,0.101h-0.504h-0.504h-0.504h-0.504h-0.504h-0.504l-0.504-0.101l-0.504-0.101l-0.504-0.101
	l-0.504-0.101l-0.504-0.102l-0.504-0.101l-0.504-0.101l-0.504-0.201l-0.504-0.202l-0.504-0.201l-0.504-0.202l-0.403-0.201
	l-0.504-0.202l-45.859-26.91l0.101,8.365c0,0-1.008,0.303-2.62,0.604c0.101,0,0.201,0,0.201,0l0.403,36.688
	c0.101,0,0.302,0,0.403-0.101c5.442-0.807,11.792,4.334,7.559,6.249c-0.907,0.403-2.016,0.807-3.326,1.108l29.229,17.235
	l234.336-135.058L453.755,313.455z M97.867,220.628c-0.202-1.008,0.202-2.016,1.209-2.621l75.895-43.844
	c1.512-0.806,3.326-0.806,4.838,0l50.294,29.027c0.907,0.504,1.31,1.613,1.109,2.52c0,0.101,0,0.202,0,0.202
	c0,0.202-0.101,0.302-0.202,0.403v0.101c-0.101,0.101-0.202,0.302-0.303,0.403c0,0,0,0.101-0.101,0.101
	c-0.101,0.202-0.302,0.302-0.504,0.403l-75.895,43.944c-1.512,0.807-3.326,0.807-4.838,0l-50.294-29.027
	c-0.202-0.101-0.403-0.202-0.504-0.403c-0.101-0.101-0.101-0.101-0.101-0.202c-0.101-0.101-0.201-0.202-0.201-0.302
	c0-0.101-0.101-0.101-0.101-0.202c-0.101-0.101-0.101-0.302-0.202-0.403C97.867,220.729,97.867,220.628,97.867,220.628z
	 M191.399,197.951l-9.777,5.644c-0.706,0.403-0.706,1.311,0,1.713l1.512,0.907c0.604,0.403,1.31,0.403,1.915,0l9.776-5.644
	c0.604-0.403,0.604-1.311,0-1.713l-1.512-0.907C192.709,197.648,192.004,197.648,191.399,197.951z M167.814,188.375
	c0,3.226,4.435,5.846,9.877,5.846c5.443,0,9.877-2.62,9.877-5.846c0-3.225-4.435-5.946-9.877-5.946
	C172.148,182.429,167.814,185.15,167.814,188.375z M167.916,213.17l1.512,0.907c0.604,0.302,1.31,0.302,1.915,0l9.776-5.645
	c0.605-0.403,0.605-1.31,0-1.713l-1.512-0.907c-0.605-0.403-1.31-0.403-1.915,0l-9.776,5.645
	C167.311,211.859,167.311,212.767,167.916,213.17z M154.309,221.031l1.512,0.907c0.604,0.403,1.31,0.403,1.915,0l9.776-5.644
	c0.706-0.403,0.706-1.311,0-1.713L166,213.674c-0.605-0.302-1.311-0.302-1.915,0l-9.777,5.644
	C153.704,219.721,153.704,220.729,154.309,221.031z M150.479,221.636l-9.776,5.644c-0.706,0.403-0.706,1.311,0,1.713l1.512,0.907
	c0.605,0.403,1.311,0.403,1.915,0l9.777-5.644c0.706-0.403,0.706-1.311,0-1.713l-1.512-0.907
	C151.789,221.233,151.083,221.233,150.479,221.636z M120.141,216.597l12.8,7.458c0.403,0.202,0.806,0.202,1.209,0l11.289-6.551
	c0.403-0.202,0.403-0.807,0-1.109l-12.8-7.357c-0.403-0.202-0.907-0.202-1.209,0l-11.289,6.551
	C119.738,215.791,119.738,216.395,120.141,216.597z M284.73,193.617c-11.691-20.259-11.389-42.433,0.806-49.488
	c12.196-7.055,31.547,3.729,43.239,24.089s11.39,42.533-0.807,49.488C315.874,224.761,296.422,213.976,284.73,193.617z
	 M327.868,193.113c-0.504,0.806-0.201,1.814,0.604,2.318l6.351,3.629c0.201,0.101,0.504,0.201,0.806,0.201
	c0.101-1.108,0.101-2.419,0.101-3.628l-5.543-3.225C329.38,192.004,328.372,192.307,327.868,193.113z M321.519,172.35
	c0.504,0.806,1.512,1.109,2.318,0.605l4.535-2.621c-0.302-0.504-0.504-1.008-0.806-1.512c-0.303-0.504-0.504-0.907-0.807-1.411
	l-4.535,2.621C321.418,170.536,321.115,171.544,321.519,172.35z M321.015,208.937l4.334,7.56c0.504-0.202,1.008-0.504,1.512-0.807
	c0.504-0.302,0.907-0.604,1.411-0.907l-4.334-7.559c-0.504-0.806-1.512-1.108-2.318-0.604
	C320.813,207.123,320.511,208.13,321.015,208.937z M308.416,207.021c0-0.907-0.807-1.713-1.714-1.713s-1.713,0.807-1.713,1.713v6.35
	c1.108,0.604,2.116,1.209,3.226,1.713c0.101-0.202,0.201-0.504,0.201-0.807V207.021z M305.09,154.813
	c0,0.907,0.807,1.714,1.714,1.714c0.906,0,1.713-0.706,1.713-1.714v-6.35c-1.108-0.706-2.116-1.209-3.226-1.713
	c-0.1,0.202-0.201,0.504-0.201,0.806V154.813z M304.283,182.328c1.311,2.318,3.427,3.427,4.838,2.722
	c1.311-0.807,1.411-3.226,0.102-5.544c-1.311-2.217-3.428-3.427-4.838-2.721C302.973,177.591,302.973,180.111,304.283,182.328z
	 M291.987,189.484c-0.504-0.807-1.512-1.109-2.318-0.605l-4.535,2.621c0.302,0.504,0.504,1.008,0.806,1.512s0.604,1.008,0.907,1.411
	l4.535-2.621C292.088,191.298,292.391,190.291,291.987,189.484z M285.234,147.052l4.334,7.56c0.504,0.806,1.512,1.108,2.318,0.604
	c0.807-0.504,1.109-1.512,0.605-2.318l-4.334-7.559c-0.504,0.202-1.008,0.504-1.512,0.806
	C286.142,146.447,285.738,146.75,285.234,147.052z M285.638,168.722c0.504-0.806,0.201-1.814-0.605-2.318l-6.35-3.628
	c-0.202-0.101-0.504-0.202-0.706-0.202c-0.101,1.21-0.101,2.419-0.101,3.629l5.442,3.124
	C284.125,169.83,285.134,169.528,285.638,168.722z"></path>
<path id="color_x5F_3" fill="#E84393" d="M212.464,238.871l-81.942,47.371l-14.312-8.265l81.942-47.371L212.464,238.871z
	 M437.527,403.763l-3.023-1.713c-1.21-0.706-2.722-0.706-4.032,0l-33.563,19.352c-1.311,0.806-1.311,2.721,0,3.427l3.023,1.713
	c1.21,0.706,2.722,0.706,3.931,0l33.563-19.352C438.838,406.484,438.838,404.569,437.527,403.763z M200.874,271.829l-1.814-1.008
	c-0.705-0.403-1.612-0.403-2.419,0l-19.956,11.49c-0.806,0.504-0.806,1.613,0,2.016l1.814,1.008c0.706,0.403,1.613,0.403,2.419,0
	l19.957-11.49C201.68,273.442,201.68,272.333,200.874,271.829z M444.381,422.409c-2.52,0.806-4.636,3.427-4.636,5.946
	s2.116,4.031,4.636,3.226c2.52-0.706,4.637-3.427,4.637-5.947C449.018,423.114,446.9,421.603,444.381,422.409z M269.713,415.757
	l-57.047-32.958c-0.605-0.303-1.209-0.303-1.814,0l0,0l0,0c-0.504,0.303-0.806,0.807-0.806,1.512v3.125
	c0,1.008,0.504,2.016,1.209,2.721l0.403-0.201c1.512-0.807,3.326-0.807,4.838,0l50.294,29.027c1.31,0.806,1.512,2.52,0.604,3.628
	l1.512,0.907c0.605,0.303,1.209,0.303,1.714,0l0,0c0,0,0,0,0.101,0c0.504-0.303,0.907-0.807,0.907-1.512v-3.125
	C271.426,417.571,270.821,416.361,269.713,415.757z M296.926,459.398c0.101,0,0.303,0,0.403,0c0.302,0,0.706,0,1.008,0.101
	c0.302,0,0.605,0,0.806,0c0.202,0,0.303,0,0.504,0c0.101,0,0.201,0,0.302,0c0.302,0,0.706,0,1.007,0c0.202,0,0.404,0,0.605,0
	c0.402,0,0.807-0.101,1.108-0.101c0.202,0,0.302,0,0.504,0c0.403,0,0.806-0.101,1.21-0.101c0.101,0,0.302,0,0.402,0
	c0.403-0.101,0.807-0.101,1.21-0.201c0.101,0,0.303,0,0.403-0.102c0.302-0.101,0.705-0.101,1.008-0.201c0.101,0,0.302,0,0.403-0.101
	c0.302-0.102,0.604-0.102,0.806-0.202c1.613-0.302,2.621-0.604,2.621-0.604l-0.101-8.365l-0.202-15.724l-0.201-11.893l-0.202-11.894
	l-0.504-0.201c-0.101,0-0.201,0.101-0.302,0.101c0,0,0,0-0.102,0c-0.302,0.101-0.604,0.201-0.906,0.302
	c-1.21,0.403-2.722,0.706-4.334,1.008c0,0,0,0-0.102,0c-0.504,0.102-1.108,0.202-1.713,0.202c-0.102,0-0.201,0-0.303,0
	c-0.504,0.101-1.108,0.101-1.612,0.101c-0.101,0-0.202,0-0.403,0c-0.504,0-1.109,0.101-1.713,0.101c-0.101,0-0.302,0-0.403,0
	c-0.706,0-1.411,0-2.217,0c-10.885-0.402-15.925-3.931-15.925-3.931s-1.612,2.722-1.612,7.257c0,1.109,0.101,2.318,0.302,3.729
	c1.209,6.652,4.938,7.458,5.442,14.211c0,0.303,0.101,0.706,0.101,1.008c0.403,7.056-0.101,19.654-0.101,19.654
	s1.411,1.311,3.729,2.722c1.915,1.108,4.435,2.318,7.257,2.923C295.817,459.298,296.422,459.398,296.926,459.398z M309.827,495.078
	c-0.101,0-0.303,0-0.403,0.101v0.807c0,0-0.504,2.62-3.527,3.023c-2.924,0.403-5.039-2.217-5.039-2.217s0-0.202,0-0.403l0,0
	c0,0-2.419,4.232-0.404,6.35c1.613,1.713,8.667,1.108,13.708-0.202c1.311-0.302,2.419-0.705,3.326-1.108
	C321.619,499.412,315.27,494.271,309.827,495.078z M297.833,477.339l-1.109,10.482c0,0-1.411,2.52-4.333,2.62
	c-3.024,0.102-4.032-2.116-4.032-2.116s0,0,0-0.101c-0.706,3.326,0,6.652,6.148,5.039c0.605-0.201,1.209-0.705,1.814-1.411
	c1.512-2.016,2.721-5.644,3.326-8.869c-0.202-1.411-0.504-3.427-0.807-5.745C298.438,477.339,298.135,477.339,297.833,477.339z"></path>
<path id="color_x5F_2" fill="#6b2b41" d="M301.663,353.166L301.663,353.166L301.663,353.166L301.663,353.166z M249.252,311.137
	l-25.399,14.615c-2.419,1.41-5.241,1.41-7.66,0l-5.745-3.326c-2.52-1.512-2.52-5.141,0-6.652l38.804-22.375l25.5-14.715
	c1.31-0.706,2.721-1.109,4.233-1.008c1.209,0.101,2.419,0.403,3.427,1.008l5.745,3.326c2.52,1.512,2.52,5.14,0,6.652l-9.172,5.342
	L249.252,311.137z M274.651,286.343c0,0.201,0.101,0.504,0.202,0.706c0.202,0.403,0.504,0.604,0.907,0.705
	c0.403,0.101,0.706,0,1.108-0.201c0.403-0.202,0.605-0.504,0.706-0.907c0.101-0.403,0.101-0.706-0.202-1.109
	c-0.201-0.302-0.403-0.504-0.706-0.604c-0.302-0.101-0.604-0.101-0.907,0.101c-0.101,0-0.101,0.101-0.202,0.101
	s-0.101,0.101-0.101,0.101l0.101-1.613l-0.907,0.504v1.008C274.651,285.738,274.651,286.142,274.651,286.343z M271.023,287.855
	l0.806-0.504c-0.101-0.101-0.101-0.202-0.101-0.302c0-0.101,0.101-0.202,0.202-0.202c0.101-0.101,0.202-0.101,0.302-0.101
	c0.101,0,0.202,0.101,0.202,0.202c0.101,0.101,0.101,0.202,0,0.403c0,0.101-0.101,0.202-0.302,0.302l0,0l0.302,0.504l0,0
	c0,0,0,0,0.101,0c0.202-0.101,0.303-0.101,0.403-0.101c0.101,0,0.202,0.101,0.302,0.302c0.101,0.101,0.101,0.302,0.101,0.403
	c0,0.101-0.101,0.202-0.302,0.303c-0.101,0.101-0.303,0.101-0.403,0.101c-0.101,0-0.202-0.101-0.302-0.302v-0.101l-0.807,0.504l0,0
	c0.202,0.403,0.504,0.604,0.807,0.706c0.302,0.101,0.706,0,1.108-0.202c0.403-0.202,0.605-0.504,0.706-0.807
	c0.101-0.302,0.101-0.706-0.101-1.008c-0.101-0.202-0.303-0.403-0.504-0.403c-0.202-0.101-0.403-0.101-0.605,0
	c0.101-0.202,0.202-0.303,0.202-0.504c0-0.201,0-0.302-0.101-0.504c-0.202-0.302-0.403-0.403-0.706-0.504
	c-0.303,0-0.605,0-0.907,0.202c-0.403,0.202-0.605,0.504-0.706,0.806C270.821,287.25,270.821,287.553,271.023,287.855z
	 M265.077,291.181c0.101,0.201,0.302,0.403,0.504,0.504c0.202,0.101,0.504,0,0.907-0.101c0.303-0.101,0.403-0.101,0.504-0.101
	c0.101,0,0.202,0.101,0.202,0.202c0.101,0.101,0.101,0.202,0,0.302c0,0.101-0.101,0.202-0.202,0.302
	c-0.101,0.101-0.302,0.101-0.504,0.101c-0.201,0-0.403,0-0.604-0.101v0.907c0.302,0.101,0.504,0.101,0.706,0.101
	s0.403-0.101,0.706-0.202l0.302,0.504l0.302-0.201l-0.302-0.605c0.302-0.202,0.504-0.504,0.605-0.806
	c0.101-0.302,0-0.605-0.202-0.907c-0.101-0.101-0.202-0.202-0.303-0.302c-0.101-0.101-0.201-0.202-0.403-0.202
	c-0.202-0.101-0.504,0-0.907,0.101l0,0c-0.202,0.101-0.302,0.101-0.403,0.101c-0.101,0-0.201-0.101-0.201-0.101
	c0-0.101-0.101-0.201,0-0.302c0-0.101,0.101-0.202,0.201-0.202c0.101-0.101,0.202-0.101,0.403-0.101c0.101,0,0.302,0,0.403,0
	l-0.101-0.806c-0.202,0-0.302,0-0.504,0s-0.302,0.101-0.403,0.101l-0.202-0.302l-0.303,0.202l0.202,0.302
	c-0.302,0.202-0.504,0.504-0.604,0.806C264.875,290.576,264.875,290.878,265.077,291.181z M139.795,291.584l-50.294-29.027
	c-0.403-0.202-0.604-0.504-0.806-0.806l0,0c-0.101-0.101-0.101-0.302-0.202-0.403c0,0,0-0.101-0.101-0.101
	c0-0.101,0-0.202-0.101-0.302c-0.101-0.907,0.202-1.915,1.209-2.419l34.168-19.654l22.677,13.103l-7.66,4.435
	c-0.605,0.403-0.605,1.31,0,1.713l1.512,0.907c0.604,0.403,1.31,0.403,1.915,0l8.265-4.838c1.209,0.403,2.621,0.201,3.83-0.403
	l41.828-24.189l24.492,14.11h0.101c0.907,0.504,1.31,1.512,1.209,2.419c0,0.101,0,0.303-0.101,0.403v0.101
	c-0.101,0.202-0.101,0.303-0.202,0.403c0,0.101-0.101,0.101-0.101,0.202c-0.101,0.101-0.101,0.202-0.202,0.302
	c-0.101,0.101-0.302,0.302-0.504,0.403l-75.895,43.843C143.222,292.391,141.307,292.391,139.795,291.584z M124.979,265.681
	l1.512,0.907c0.605,0.403,1.311,0.403,1.915,0l9.777-5.645c0.706-0.403,0.706-1.31,0-1.713l-1.512-0.907
	c-0.604-0.403-1.31-0.403-1.915,0l-9.776,5.644C124.375,264.371,124.375,265.278,124.979,265.681z M130.522,286.142l81.942-47.371
	l-14.413-8.265l-81.942,47.371L130.522,286.142z M167.916,213.17l1.512,0.907c0.604,0.302,1.31,0.302,1.915,0l9.776-5.645
	c0.605-0.403,0.605-1.31,0-1.713l-1.512-0.907c-0.605-0.403-1.31-0.403-1.915,0l-9.776,5.645
	C167.311,211.859,167.311,212.767,167.916,213.17z M181.623,205.308l1.512,0.907c0.604,0.403,1.31,0.403,1.915,0l9.776-5.644
	c0.604-0.403,0.604-1.311,0-1.713l-1.512-0.907c-0.605-0.403-1.311-0.403-1.915,0l-9.777,5.644
	C180.917,203.998,180.917,204.905,181.623,205.308z M281.707,195.33c-13.304-23.081-12.901-48.177,0.907-56.14
	c0.403-0.202,0.706-0.403,1.109-0.605c0.302-0.202,0.604-0.302,1.008-0.403c0.101,0,0.202-0.101,0.403-0.101
	c0.302-0.101,0.604-0.202,0.907-0.302c0.101,0,0.302-0.101,0.403-0.101c0.302-0.101,0.604-0.202,0.907-0.202
	c0.202,0,0.403-0.101,0.604-0.101c0.302-0.101,0.504-0.101,0.806-0.101c0.202,0,0.403-0.101,0.706-0.101
	c0.202,0,0.504-0.101,0.706-0.101c0.303,0,0.504,0,0.807-0.101c0.202,0,0.403,0,0.706,0c0.302,0,0.604,0,0.907,0
	c0.202,0,0.403,0,0.605,0c0.302,0,0.706,0,1.008,0.101c0.202,0,0.302,0,0.504,0c0.403,0,0.706,0.101,1.109,0.101
	c0.101,0,0.302,0,0.403,0.101c0.403,0.101,0.807,0.101,1.209,0.202c0.101,0,0.202,0,0.303,0.101
	c0.504,0.101,0.907,0.202,1.411,0.302c0.101,0,0.101,0,0.202,0.101c0.504,0.101,1.008,0.302,1.513,0.403h0.1
	c0.504,0.202,1.008,0.403,1.613,0.605l0,0c10.482,4.132,21.468,13.909,29.33,27.616c13.304,23.081,12.9,48.177-0.907,56.14
	C316.983,230.606,295.011,218.411,281.707,195.33z M284.73,193.617c11.792,20.359,31.144,31.144,43.238,24.089
	c12.196-7.056,12.498-29.229,0.807-49.488s-31.144-31.043-43.239-24.089C273.341,151.184,272.938,173.358,284.73,193.617z
	 M140.702,228.893l1.512,0.907c0.605,0.403,1.311,0.403,1.915,0l9.777-5.645c0.706-0.403,0.706-1.31,0-1.713l-1.512-0.907
	c-0.604-0.403-1.31-0.403-1.915,0l-9.776,5.645C139.997,227.583,139.997,228.591,140.702,228.893z M302.167,354.174
	c-0.202-0.302-0.403-0.705-0.504-1.008c6.148-3.124,5.946-12.396,4.637-19.049l9.574-5.543l22.678-13.104
	c2.117-1.209,4.838-1.31,7.056-0.302c0.201,0.101,0.403,0.202,0.604,0.302l5.745,3.326c2.52,1.512,2.52,5.141,0,6.652l-6.35,3.629
	l-29.632,17.134L302.167,354.174z M338.652,321.922l0.706,1.915h0.101c0-0.101,0.101-0.303,0.202-0.403
	c0.101-0.101,0.201-0.201,0.302-0.303c0.202-0.101,0.403-0.201,0.604-0.101c0.202,0,0.303,0.101,0.403,0.303
	c0.102,0.201,0.102,0.403,0.102,0.504c-0.102,0.201-0.202,0.302-0.403,0.403c-0.202,0.101-0.303,0.101-0.504,0.101
	c-0.202,0-0.303,0-0.504-0.101h-0.102l0.403,0.807c0.202,0,0.403,0,0.604-0.102c0.202-0.101,0.403-0.101,0.605-0.303
	c0.403-0.201,0.705-0.504,0.806-0.906c0.102-0.403,0.102-0.706-0.101-1.109c-0.201-0.303-0.504-0.604-0.806-0.705
	c-0.303-0.102-0.605,0-1.009,0.201c-0.101,0-0.101,0.102-0.201,0.102s-0.101,0.1-0.201,0.201l-0.202-0.504l1.311-0.705l-0.403-0.706
	L338.652,321.922z M335.932,325.953c0,0.201,0.101,0.504,0.201,0.605c0.202,0.402,0.504,0.604,0.907,0.705
	c0.403,0.101,0.706,0,1.108-0.201c0.403-0.202,0.605-0.504,0.706-0.908c0.101-0.402,0.101-0.705-0.202-1.107
	c-0.201-0.303-0.402-0.504-0.705-0.605c-0.303-0.101-0.604-0.101-0.907,0.102c-0.101,0-0.101,0.1-0.201,0.1
	c-0.102,0-0.102,0.102-0.102,0.102l0.102-1.613l-0.907,0.504l-0.101,1.008C335.932,325.248,335.932,325.65,335.932,325.953z
	 M329.582,328.574c0.101,0.201,0.302,0.402,0.504,0.504c0.201,0.101,0.504,0,0.907-0.102c0.302-0.101,0.402-0.101,0.504-0.101
	c0.101,0,0.201,0.101,0.201,0.202c0.101,0.101,0.101,0.201,0,0.303c0,0.1-0.101,0.201-0.201,0.302
	c-0.102,0.101-0.303,0.101-0.504,0.101c-0.202,0-0.403,0-0.605-0.101v0.907c0.303,0.101,0.504,0.101,0.706,0.101
	c0.201,0,0.403-0.101,0.705-0.202l0.303,0.504l0.303-0.201l-0.303-0.604c0.303-0.202,0.504-0.504,0.604-0.807
	c0.101-0.302,0-0.604-0.201-0.907c-0.101-0.101-0.202-0.302-0.303-0.302c-0.101-0.101-0.201-0.202-0.403-0.202
	c-0.201-0.101-0.504,0-0.907,0.102l0,0c-0.201,0.101-0.302,0.101-0.402,0.101c-0.102,0-0.202-0.101-0.202-0.101
	c0-0.102-0.101-0.202,0-0.303c0-0.102,0.101-0.201,0.202-0.201c0.101-0.102,0.201-0.102,0.402-0.102c0.102,0,0.303,0,0.403,0
	l-0.101-0.807c-0.201,0-0.303,0-0.504,0s-0.303,0.102-0.403,0.102l-0.201-0.303l-0.303,0.201l0.202,0.303
	c-0.303,0.201-0.504,0.504-0.605,0.807C329.38,327.969,329.48,328.271,329.582,328.574z M154.309,221.031l1.512,0.907
	c0.604,0.403,1.31,0.403,1.915,0l9.776-5.644c0.706-0.403,0.706-1.311,0-1.713L166,213.674c-0.605-0.302-1.311-0.302-1.915,0
	l-9.777,5.644C153.704,219.721,153.704,220.729,154.309,221.031z M504.451,382.193L504.451,382.193
	c-0.101,0.202-0.101,0.504-0.201,0.706c0,0.101-0.101,0.202-0.101,0.403c-0.202,0.504-0.504,0.906-0.807,1.411
	c-0.101,0.101-0.201,0.201-0.302,0.403c-0.303,0.402-0.706,0.806-1.109,1.108c-0.101,0.101-0.201,0.101-0.302,0.202
	c-0.202,0.201-0.504,0.402-0.807,0.504L372.82,460.81c-0.201,0.101-0.403,0.202-0.604,0.303c-0.202,0.101-0.403,0.201-0.504,0.302
	c-0.101,0.102-0.202,0.102-0.303,0.102c-0.201,0.101-0.403,0.201-0.504,0.201s-0.201,0.101-0.403,0.101
	c-0.201,0.101-0.302,0.101-0.504,0.202c-1.209,0.402-2.419,0.604-3.628,0.705h-0.101c-0.202,0-0.504,0-0.706,0
	c-0.101,0-0.302,0-0.403,0c-0.201,0-0.403,0-0.705,0c-0.101,0-0.101,0-0.202,0c-1.209-0.101-2.52-0.302-3.729-0.705
	c-0.202-0.102-0.403-0.102-0.504-0.202h-0.102c-0.604-0.201-1.209-0.504-1.813-0.806c-0.202-0.102-0.303-0.202-0.504-0.202
	l-46.666-26.911l-0.201-11.893l25.499,14.715c4.233,2.419,9.374,2.419,13.506,0l94.642-54.627l1.108,0.1l1.411,0.102l1.411,0.101
	h1.411h1.411l1.411-0.101l1.411-0.102l1.411-0.1l1.411-0.202l1.411-0.202l1.31-0.201l1.311-0.303l1.311-0.302l1.209-0.403
	l1.21-0.403l1.209-0.403l1.21-0.504l1.108-0.504l1.108-0.504l1.109-0.604l1.008-0.604l0.907-0.605l0.906-0.705l0.807-0.705
	l0.706-0.706l0.705-0.706l0.604-0.705l0.605-0.705l0.504-0.706l0.402-0.806l0.403-0.706l0.303-0.806l0.201-0.807l0.202-0.807
	l0.101-0.807l0.101-0.807v-4.535c0-0.201,0-0.402,0-0.604l22.174,12.8C504.049,375.542,505.258,379.069,504.451,382.193z
	 M437.527,403.763l-3.023-1.713c-1.21-0.706-2.722-0.706-4.032,0l-33.563,19.352c-1.311,0.806-1.311,2.721,0,3.427l3.023,1.713
	c1.21,0.706,2.722,0.706,3.931,0l33.563-19.352C438.838,406.484,438.838,404.569,437.527,403.763z M313.254,408.5
	c0,0-1.21,0.705-3.427,1.411c0,0,0,0-0.101,0c-0.303,0.101-0.605,0.201-0.907,0.302c-1.21,0.403-2.722,0.706-4.334,1.009
	c0,0,0,0-0.101,0c-0.504,0.101-1.109,0.201-1.714,0.201c-0.101,0-0.202,0-0.302,0c-0.504,0.101-1.109,0.101-1.613,0.101
	c-0.101,0-0.201,0-0.403,0c-0.504,0-1.108,0.101-1.713,0.101c-0.101,0-0.302,0-0.403,0c-0.706,0-1.411,0-2.218,0
	c-10.885-0.402-15.924-3.931-15.924-3.931s-1.613,2.722-1.613,7.257l-159.449-92.121c-0.302-0.202-0.504-0.303-0.806-0.505
	c-0.101-0.1-0.202-0.1-0.302-0.201c-1.008-0.807-1.713-1.814-2.117-2.822c-0.101-0.101-0.101-0.201-0.101-0.402
	c-0.101-0.202-0.202-0.504-0.202-0.706l0,0c-0.807-3.124,0.403-6.651,3.527-8.466l127.902-73.879c4.737-2.722,10.482-2.722,15.219,0
	l53.52,30.942l6.249,3.628l4.132,2.318l44.247,25.5l4.133,2.318l6.248,3.628l2.521,1.513l15.723,9.07l5.04,2.923l7.659,4.435
	l3.125,1.814L428.658,332c-2.016,0.706-4.032,1.513-5.745,2.521c-0.303,0.202-0.604,0.302-0.807,0.504l-151.99-87.788
	c-4.133-2.419-9.374-2.419-13.506,0l-113.892,65.714c-4.536,2.621-4.536,9.071,0,11.691l138.787,80.128
	c1.008-4.838,0.302-11.894,0.302-11.894s0-0.1,0-0.302l0,0c-0.101-1.411-0.403-7.56-0.706-13.808c0-0.202,0-0.404,0-0.605
	c-0.302-5.745-0.605-11.389-0.706-13.404c-0.101-0.706,0-1.412,0.101-2.117c0.202-1.411,0.706-2.721,1.209-3.629l0,0
	c0.101-0.201,0.202-0.302,0.303-0.504l0,0c0.101-0.1,0.202-0.302,0.302-0.402l0,0c0.101-0.102,0.202-0.202,0.202-0.303l0,0
	c0.101-0.101,0.101-0.201,0.202-0.303l0,0c0.101-0.101,0.201-0.201,0.302-0.302c0,0,0,0,0.101-0.101l0,0l0.101-0.102
	c-0.202,0.202-2.016,1.916-3.729,5.342l-0.403-0.302l-4.637-2.722c-2.52-1.411-2.52-5.141,0-6.652l2.822-1.612
	c1.713,3.528,3.931,5.14,6.047,5.846l0,0l0,0c0.706,0.202,1.31,0.303,1.915,0.403h0.101c0.303,0,0.504,0,0.706,0
	c0.101,0,0.101,0,0.202,0c0.202,0,0.403,0,0.504,0c0.202,0,0.303,0,0.403,0s0.101,0,0.202,0c0.706-0.101,1.108-0.201,1.209-0.303
	l0,0c5.241,8.869,18.142,0,18.142,0l4.838,2.218c-0.201-0.101-0.402-0.101-0.806-0.202l0,0l0,0l0,0l0,0l0,0l0,0l0,0
	c-0.101,0-0.101,0-0.202,0c-0.101,0-0.101,0-0.201,0l0,0c-0.403,0.102-1.008,0.303-1.512,0.706c0,0-0.101,0-0.101,0.101
	c-0.202,0.102-0.303,0.303-0.504,0.403c0,0,0,0-0.102,0.101c-0.101,0.102-0.101,0.102-0.201,0.201
	c-0.101,0.102-0.101,0.102-0.202,0.202c-0.101,0.101-0.101,0.101-0.201,0.202c-0.101,0.101-0.201,0.302-0.403,0.402
	c-0.101,0.102-0.101,0.102-0.201,0.202s-0.202,0.302-0.303,0.403c-0.101,0.101-0.101,0.201-0.201,0.201
	c-0.102,0.201-0.303,0.403-0.403,0.705c-3.024,5.242,1.814,12.7,1.814,12.7s-1.109,12.497-0.303,17.638
	C308.315,398.118,313.254,408.5,313.254,408.5z M176.785,284.327l1.814,1.008c0.706,0.403,1.613,0.403,2.419,0l19.956-11.49
	c0.807-0.504,0.807-1.613,0-2.016l-1.814-1.008c-0.706-0.403-1.613-0.403-2.419,0l-19.957,11.49
	C175.979,282.815,175.979,283.924,176.785,284.327z M367.579,377.256l-0.403,0.201l1.411,2.418l-1.915,1.109l-4.232-7.357
	l2.116-1.209c0.807-0.505,1.411-0.807,1.814-0.908c0.403-0.101,0.705-0.101,1.108-0.101c0.403,0.101,0.807,0.202,1.108,0.504
	c0.303,0.303,0.605,0.604,0.907,1.009c0.303,0.402,0.403,0.906,0.504,1.31c0.102,0.403,0,0.806-0.101,1.21
	c-0.101,0.302-0.303,0.504-0.504,0.806c-0.201,0.202-0.705,0.504-1.311,0.907L367.579,377.256z M367.579,374.836
	c0.102-0.201,0.102-0.504-0.101-0.807c-0.201-0.302-0.403-0.504-0.705-0.504c-0.303,0-0.605,0.102-1.109,0.404l-0.402,0.201
	l1.008,1.713l0.402-0.201C367.075,375.34,367.378,375.037,367.579,374.836z M376.247,373.93l-2.822,1.612l0.403,1.512l-2.016,1.108
	l-1.713-8.869l2.52-1.411l6.854,5.946l-2.016,1.109L376.247,373.93z M375.038,372.72l-2.117-2.016
	c-0.101-0.101-0.201-0.202-0.302-0.303s-0.303-0.302-0.504-0.504c0.101,0.202,0.101,0.403,0.201,0.604
	c0.101,0.202,0.101,0.403,0.101,0.504l0.706,2.822L375.038,372.72z M382.396,372.014l-1.915-3.326l0.303-5.543l-2.318,1.311
	l0.101,2.419c0,0,0,0,0,0.101c0,0.303,0,0.504,0.101,0.705c-0.101-0.201-0.302-0.302-0.504-0.402c0,0,0,0-0.101,0l-2.116-1.311
	l-2.318,1.311l4.938,2.52l1.915,3.326L382.396,372.014z M280.699,326.256c-0.302,1.008-0.403,2.217-0.302,3.527l-1.411,0.807
	l-23.484,13.506c-1.915,1.108-4.233,1.311-6.249,0.604c-0.504-0.202-0.907-0.403-1.411-0.604l-5.745-3.326
	c-2.52-1.411-2.52-5.141,0-6.652l7.156-4.133l29.632-17.134l27.415-15.824c2.419-1.411,5.24-1.411,7.659,0l1.915,1.108l3.83,2.217
	c2.521,1.513,2.521,5.141,0,6.652l-3.83,2.218l-16.227,9.373c-0.101,0-0.101,0-0.202,0c-4.636-0.605-9.777,2.621-9.777,2.621
	C286.746,319.402,282.11,321.217,280.699,326.256z M307.206,306.299l0.403,0.706l1.512-0.907l0.403,0.705l0.807-0.402l-0.403-0.705
	l0.403-0.202l-0.403-0.706l-0.403,0.202l-1.108-1.915l-1.008,0.604L307.206,306.299z M303.578,307.105L303.578,307.105l0.807-0.402
	l0,0c-0.102-0.202-0.102-0.303-0.102-0.504c0-0.102,0.102-0.202,0.202-0.303c0.101-0.102,0.201-0.102,0.403-0.102
	c0.101,0,0.201,0.102,0.302,0.202c0,0.101,0.101,0.202,0.101,0.302c0,0.102,0,0.202,0,0.404l-0.504,2.62l2.521-1.513l-0.403-0.705
	l-1.008,0.605l0.201-1.008c0.101-0.303,0.101-0.504,0.101-0.706s-0.101-0.403-0.201-0.504c-0.202-0.302-0.403-0.504-0.806-0.604
	c-0.303-0.102-0.706,0-1.109,0.201s-0.605,0.504-0.705,0.807C303.275,306.4,303.377,306.703,303.578,307.105z M297.631,310.633
	c0.101,0.202,0.302,0.404,0.504,0.504c0.202,0.102,0.504,0,0.907-0.1c0.302-0.102,0.403-0.102,0.504-0.102
	c0.101,0,0.202,0.102,0.202,0.201c0.101,0.102,0.101,0.202,0,0.303c0,0.102-0.101,0.201-0.202,0.303
	c-0.101,0.101-0.302,0.101-0.504,0.101s-0.403,0-0.605-0.101v0.906c0.303,0.102,0.504,0.102,0.706,0.102
	c0.202,0,0.403-0.102,0.706-0.201l0.303,0.504l0.302-0.202l-0.302-0.604c0.302-0.201,0.504-0.504,0.604-0.807
	c0.102-0.303,0-0.604-0.201-0.906c-0.101-0.102-0.202-0.303-0.303-0.303c-0.101-0.102-0.202-0.202-0.403-0.202
	c-0.201-0.101-0.504,0-0.907,0.101l0,0c-0.202,0.102-0.303,0.102-0.403,0.102s-0.202-0.102-0.202-0.102c0-0.101-0.101-0.201,0-0.302
	c0-0.101,0.101-0.202,0.202-0.202c0.101-0.101,0.202-0.101,0.403-0.101c0.101,0,0.302,0,0.403,0l-0.101-0.806
	c-0.202,0-0.302,0-0.504,0s-0.302,0.101-0.403,0.101l-0.202-0.303l-0.302,0.202l0.202,0.302c-0.302,0.202-0.504,0.504-0.605,0.807
	C297.43,310.129,297.43,310.331,297.631,310.633z M300.655,347.623c0,0.201,0,3.023,1.008,5.442
	C300.655,350.646,300.655,348.026,300.655,347.623z M272.333,414.043l-56.946-32.857c-0.604-0.302-1.209-0.302-1.814,0l-2.822,1.613
	c0.504-0.303,1.209-0.303,1.814,0l57.047,32.958c1.109,0.604,1.814,1.814,1.814,3.124v3.125c0,0.705-0.403,1.209-0.907,1.512
	l2.721-1.612h0.101l0,0c0.504-0.303,0.806-0.907,0.806-1.512v-3.125C274.248,415.958,273.543,414.648,272.333,414.043z
	 M267.294,422.61c-0.202,0.202-0.403,0.403-0.605,0.504l-0.504,0.303l-43.541,25.097l-13.708,7.861l-18.142,10.482
	c-1.512,0.806-3.326,0.806-4.838,0l-50.294-29.027c-1.612-0.907-1.612-3.226,0-4.233l17.034-9.776l14.211-8.164l42.937-24.795
	l1.411-0.807l0.403-0.201c1.512-0.807,3.326-0.807,4.838,0l50.294,29.027C268,419.688,268.201,421.502,267.294,422.61z
	 M206.014,449.018l-38.804-22.376c-0.504-0.302-1.109-0.302-1.713,0l-1.311,0.807c-0.604,0.303-0.604,1.108,0,1.411l38.804,22.375
	c0.504,0.303,1.209,0.303,1.713,0l1.31-0.806C206.619,450.227,206.619,449.421,206.014,449.018z M219.52,441.257l-38.804-22.376
	c-0.504-0.302-1.109-0.302-1.714,0l-1.31,0.807c-0.504,0.303-0.504,1.108,0,1.411l38.804,22.375c0.504,0.303,1.108,0.303,1.713,0
	l1.31-0.806C220.023,442.466,220.023,441.66,219.52,441.257z M232.925,433.496l-38.804-22.376c-0.504-0.302-1.109-0.302-1.713,0
	l-1.31,0.807c-0.605,0.303-0.605,1.108,0,1.411l38.804,22.375c0.504,0.303,1.109,0.303,1.713,0l1.311-0.806
	C233.529,434.705,233.529,433.898,232.925,433.496z M246.33,425.836l-38.804-22.477c-0.504-0.302-1.108-0.302-1.713,0l-1.31,0.807
	c-0.504,0.303-0.504,1.108,0,1.411l38.804,22.476c0.504,0.303,1.109,0.303,1.714,0l1.31-0.806
	C246.935,426.944,246.935,426.138,246.33,425.836z M163.48,357.5v0.102l-0.101,0.101l-0.101,0.101l-0.101,0.102l-0.101,0.1
	l-0.101,0.102l1.512-0.807l0.101-0.101l0.101-0.101l0.101-0.102l0.101-0.101l0.101-0.101l0.101-0.101v-0.101v-0.202v-3.931v-0.201
	v-0.102l-0.101-0.101l-0.101-0.101l-0.101-0.101l-0.101-0.101l-0.101-0.102l-0.101-0.101l-9.575-5.544l-0.101-0.1h-0.101
	l-0.101-0.102h-0.101h-0.302l-0.101,0.102h-0.101l-0.101,0.1l-1.411,0.807h0.101h0.202h0.101h0.101h0.202h0.101l0.101,0.102
	l9.575,5.543l0.101,0.101l0.101,0.101l0.101,0.102l0.101,0.101l0.101,0.101l0.101,0.101v0.101v0.202v3.931v0.201H163.48z
	 M180.212,360.928l-0.101-0.102l-0.101-0.101l-0.101-0.101l-0.101-0.102l-0.101-0.1l-0.101-0.102l-9.575-5.543l-0.101-0.102
	l-0.101-0.1h-0.201h-0.101h-0.101h-0.101l-0.201,0.1l-0.101,0.102l-1.31,0.705h0.101h0.101h0.101h0.202h0.101l0.101,0.102l0.101,0.1
	l9.575,5.544l0.101,0.101l0.101,0.102l0.101,0.101l0.101,0.101l0.101,0.101v0.101v0.102v0.101v3.931v0.201v0.102l-0.101,0.101
	l-0.101,0.101l-0.101,0.102l-0.101,0.1l-0.101,0.102l-0.101,0.101l1.512-0.806l0.101-0.102l0.101-0.101l0.101-0.101l0.101-0.102
	l0.101-0.101v-0.101v-0.101v-0.202v-3.931v-0.101L180.212,360.928z"></path>
<path id="color_x5F_1_1_" fill="#04374B" d="M302.167,354.174c-1.512-2.62-1.512-6.35-1.512-6.551l0,0
	c-1.713-0.303-3.528-4.737-3.528-6.854c-0.101-2.016,1.31-3.125,2.822-2.722c1.511,0.403,2.117,3.124,2.117,3.124l0.303-3.225l0,0
	l0,0l0,0c0,0,0.1,0,0.1-0.101c0,0,0,0,0.102,0l0.101-0.101c0,0,0,0,0.101-0.102c0,0,0.102-0.101,0.201-0.201c0,0,0,0,0.102-0.102
	c0.101-0.1,0.101-0.1,0.201-0.201c0,0,0,0,0.102-0.101c0.302-0.302,0.604-0.806,1.008-1.31l0.101-0.102
	c0.101-0.101,0.101-0.201,0.201-0.303v-0.1c0,0,0-0.102,0.101-0.102c0.102-0.101,0.102-0.201,0.202-0.402
	c0-0.102,0.101-0.102,0.101-0.202c0.102-0.101,0.102-0.303,0.201-0.403c0-0.101,0-0.101,0.102-0.201
	c0.101-0.202,0.101-0.303,0.201-0.504v-0.102c0.102-0.402,0.303-0.906,0.303-1.41l0,0c0.101-0.605,0.201-1.311,0.201-2.017
	c0.202-5.543-1.814-10.481-6.249-11.188c-0.101,0-0.101,0-0.202,0c-4.636-0.604-9.777,2.62-9.777,2.62
	c-3.023-1.813-7.559-0.1-8.97,5.04c-0.302,1.008-0.403,2.218-0.302,3.527c0.202,4.838,2.217,10.986,1.411,15.421
	c-0.504,2.621-1.713,3.729-2.923,4.133c-1.311,0.402-2.52,0.101-2.52,0.101c0.202,0.604,0.403,1.108,0.706,1.612
	c1.713,3.527,3.931,5.141,6.047,5.846l0,0c0.706,0.202,1.311,0.303,1.915,0.403h0.101c0.302,0,0.504,0,0.706,0
	c0.101,0,0.101,0,0.201,0c0.202,0,0.403,0,0.504,0c0.101,0,0.303,0,0.403,0c0.101,0,0.101,0,0.202,0
	c0.706-0.101,1.109-0.202,1.209-0.302l0,0c5.241,8.869,18.143,0,18.143,0C304.485,356.896,303.074,355.686,302.167,354.174z"></path>
</svg>