<?xml version="1.0" standalone="no"?>
<svg version="1.1" id="Layer_1_1_" xmlns="http://www.w3.org/2000/svg" xmlns:xlink="http://www.w3.org/1999/xlink" x="0px" y="0px" viewBox="0 0 2000 2000" enable-background="new 0 0 2000 2000" xml:space="preserve">
<path id="color_x5F_7" fill="#FFFFFF" d="M1545.6,1327.5l0.4,130.6l-535.1-307.8l-0.4-129.7l-48.4-27.7l-125,72.7l0.4,1.1l-1.8,62.2
	c0,0-1.2,1-3.4,1.9l-1,5.4c-0.8,0.6-1.8,1-2.9,1.2c-0.1,9.7-1,27.4-6,31.3c0,0-1.3,0.3-0.8-3.5c0,0-3.6,9.5-4.3,2.3
	c0,0-5.5,6.7-4.6,0c0,0-6,7.7-7.4,3.3c-1.4-4.5,5.7-8.7,6.2-17.5c0,0-9.6,3.8-10.1-2.2c0,0,11-6.8,12-9c0.7-1.7,2.5-1.6,3.6-6.2
	c-0.6-0.2-0.9-0.3-0.9-0.3v-5.8c-0.5-0.3-1-0.5-1.5-0.8l-4.4-38.6v-9.1l-18.6,10.8c1.8,5.4,3.5,8.5,3.5,8.5s-0.8,0.4-2.2,1.1
	c0.2,3.5,0.5,9,0.9,15.8l0,0l0,0l0,0c1.1,17.6,3.1,43.3,6.1,60.4c0.3,1.7,0.6,3.3,0.9,4.8c0,0.1,0,0.1,0,0.2
	c0.1,0.3,0.1,0.6,0.2,0.9c0,0.1,0,0.2,0.1,0.3c0.1,0.3,0.1,0.6,0.2,0.9c0,0,0,0,0,0.1c0.1,0.6,0.3,1.1,0.4,1.6
	c0,0.2,0.1,0.3,0.1,0.5c0.1,0.2,0.1,0.4,0.2,0.6c0,0.2,0.1,0.4,0.1,0.5c0,0.2,0.1,0.3,0.1,0.5c0.1,0.2,0.1,0.4,0.2,0.6
	c0,0.1,0.1,0.3,0.1,0.4c0.1,0.3,0.2,0.6,0.3,0.9c0,0.1,0.1,0.2,0.1,0.3c0.1,0.2,0.1,0.4,0.2,0.6c0,0.1,0.1,0.2,0.1,0.3
	c0.1,0.2,0.1,0.4,0.2,0.5c0,0.1,0.1,0.2,0.1,0.2c0.1,0.2,0.2,0.5,0.3,0.7c0,0-10.6,8-25.5,9.9c-1,4.9-1.6,7.8-1.6,7.8
	s-0.1,0.8-0.2,2.1c1.5,4,4.6,9,10.5,13.3c11.8,8.6,22.2,15.9,29.3,33.1s25.2,29.5,30.5,31.3c1,0.4,2.4,0.9,3.9,1.6
	c8.9-0.8,15.7,13.7,15.5,18.7c-0.1,5-4.8,9.5-10.7,17.4s-4.2,29.4-21.5,33.9c-17.2,4.5-19.1-0.1-22.6-9.2c-2.1-5.4,2.6-9.1,6.6-14.3
	c0.1-0.1,0.2-0.3,0.3-0.4s0.2-0.2,0.3-0.3c0.1-0.1,0.2-0.3,0.3-0.4s0.2-0.3,0.3-0.4s0.2-0.3,0.3-0.4s0.2-0.3,0.3-0.5
	c0.1-0.1,0.2-0.2,0.2-0.4c0.2-0.2,0.3-0.5,0.4-0.8c0.1-0.1,0.1-0.2,0.2-0.3c0.1-0.2,0.2-0.4,0.3-0.7c0.1-0.1,0.1-0.2,0.2-0.4
	c0.1-0.2,0.2-0.4,0.3-0.6c0.1-0.1,0.1-0.3,0.2-0.4c0.1-0.1,0.1-0.3,0.2-0.4c0.1-0.2,0.2-0.4,0.2-0.6c0-0.1,0.1-0.2,0.1-0.4
	c0.1-0.2,0.2-0.5,0.2-0.7v-0.1c0.2-0.7,0.3-1.3,0.4-2l0,0c0-0.1,0-0.2,0-0.2c0-0.3,0.1-0.5,0.1-0.8c0-0.1,0-0.3,0-0.4
	c0-0.3,0-0.5,0-0.8c0-0.1,0-0.3,0-0.4c0-0.4,0-0.8,0-1.3c-0.1-1.4-0.1-2.7-0.1-3.9c0-1.7,0.1-3.2,0.2-4.5c0-0.2,0-0.3,0.1-0.5l0,0
	c0-0.4,0.1-0.8,0.1-1.1c0.1-0.7,0.2-1.3,0.3-1.9c0.1-0.5,0.2-0.9,0.3-1.3c0.1-0.5,0.2-0.9,0.4-1.3c0.1-0.2,0.1-0.4,0.2-0.6
	c0.1-0.4,0.3-0.7,0.4-1c0.1-0.3,0.3-0.6,0.4-0.8c0.1-0.1,0.1-0.2,0.2-0.4c0.1-0.2,0.2-0.4,0.4-0.6c0.2-0.4,0.4-0.6,0.6-0.8
	c0.1-0.1,0.1-0.2,0.2-0.2c0.1-0.1,0.1-0.1,0.1-0.1c0.2,0,0.3,0,0.4,0c-0.1-0.7-0.3-1.3-0.5-1.9c-1.8-5.2-33.4-29.9-44.4-42.6
	c0.9,11.2,0.8,23.3-0.3,26.6c-1.9,5.6-11.7,43.9-10.4,51.2c0,0-2.1,11.3-0.8,14.5c0.2,0.4,0.4,0.9,0.6,1.5
	c2.1,0.6,10.9,4.6,5.1,26.9c0,0-1.2,1.8-10.4,5.1c-9.3,3.3-22.1,18.9-27,18.4c-4.8-0.5-19.7,1.2-24.2-8.2s6.1-10.6,12.7-17
	c0.2-0.2,0.3-0.3,0.5-0.5c1.2-1.2,2.5-2.6,3.9-4.2c0.5-0.6,1.1-1.3,1.6-1.9c0,0,0,0,0-0.1c0.5-0.7,1.1-1.3,1.7-2
	c0.4-0.5,0.8-1,1.2-1.4c1.2-1.5,2.4-3,3.6-4.4l0,0c0.3-0.3,0.6-0.7,0.8-1l0,0c2.6-3.1,5-5.8,6.8-7l0,0l0,0c0.2-0.1,0.3-0.2,0.5-0.3
	l0,0c0.1-0.1,0.3-0.2,0.4-0.2c0,0,0,0,0.1,0s0.2-0.1,0.3-0.1s0.2-0.1,0.3-0.1l0,0l0,0l0,0c0.1,0,0.2,0,0.3,0c0-0.2,0-0.4,0-0.5
	c-0.1-2.8,0.6-53.4,0.6-53.4l1.1-61.9c0,0-0.1-5.3-0.3-12.3c-2.7-2.1-6.3-6.2-11.1-14c-4.3-7-7.9-20.8-10.8-36.1
	c-7.7-2-15.2-4.9-17.1-8.7l1.3-12.7l0,0l0,0l2.1-21.2l-177,102.9c0.2,14,0.2,23.3,0.2,23.9l0,0l-5.2,118l-5.3,120.1
	c0.9,0.8,1.5,1.4,1.5,1.4s40.5,0.2,29.2,13.8c-11.3,13.5-49.3,9.7-51.8,8.7c-2.2-0.9-0.7-15.6-0.2-20.7
	c-0.8-9.9-17.7-211.8-20.9-215.5c0,0-0.1,0-0.1-0.1c-3-0.7-7.4,150.1-8.6,178.7c6.5-0.2,18.5,0,17.2,3.7c-1.8,5-14.5,27-24.4,28.8
	s-16-0.7-16.3-2.4c-0.2-1.1,1-11.9,1.9-20.3l-10.5-183.9l-212.5,123.5l805,461.7l729.4-423.9L1545.6,1327.5z M813.2,1121.4
	L813.2,1121.4L813.2,1121.4L813.2,1121.4z M1032,1802.2l-351.3-201.5V1586l175.2-101.8l351.1,201.6v14.7L1032,1802.2z
	 M1265.4,1651.8l-91.4-52.4l-50.4,29.3L956.8,1533v-7l44.3-25.8l-87-49.9l-0.8-270l25.9-15.2l351.3,201.5l0.8,270L1265.4,1651.8z"></path>
<path id="color_x5F_6" fill="#F7F7EA" d="M700.7,1094.6l-4.9,4.1c-5.6-2.3-11.1-10.5-11.1-10.5l2.9-4.9
	C689.3,1086.2,693,1090.8,700.7,1094.6z M704.3,1091.6l0.7-0.6l-0.1-0.1L704.3,1091.6z M816,1129.7v5.8c0,0,10.5,4.3,15.3,0.6l1-5.4
	C828.8,1132.1,823,1133.3,816,1129.7z M623.2,1103.3l-5.1,3.5l18.3,10.4l5.1-3.4L623.2,1103.3z M1079.9,1127.7
	c14.2,0,25.6-20,25.5-44.6s-11.6-44.5-25.8-44.5s-25.6,20-25.5,44.6C1054.2,1107.8,1065.8,1127.8,1079.9,1127.7z M1056.3,975.7
	c-0.1-24.6,11.4-44.6,25.5-44.6c14.2,0,25.7,19.9,25.8,44.5c0.1,24.6-11.4,44.6-25.5,44.6S1056.4,1000.4,1056.3,975.7z M1056,875.6
	c-0.1-24.6,11.4-44.6,25.5-44.6s25.7,19.9,25.8,44.5c0.1,24.6-11.4,44.6-25.5,44.6C1067.6,920.1,1056.1,900.2,1056,875.6z
	 M1117.7,1107.7l257.9,141.9c1.5,0.8,2,2.7,1.2,4.2l-5.6,10.3c-0.8,1.5-2.7,2-4.2,1.2l-257.9-141.9c-1.5-0.8-2-2.7-1.2-4.2l5.6-10.3
	C1114.3,1107.5,1116.2,1106.9,1117.7,1107.7z M1147.4,1008.1l257.9,141.9c1.5,0.8,2,2.7,1.2,4.2l-5.6,10.3c-0.8,1.5-2.7,2-4.2,1.2
	l-257.9-141.9c-1.5-0.8-2-2.7-1.2-4.2l5.6-10.3C1144,1007.8,1145.9,1007.3,1147.4,1008.1z M1128.3,1074.4l245.6,135.1
	c1.5,0.8,2,2.7,1.2,4.2l-5.6,10.3c-0.8,1.5-2.7,2-4.2,1.2l-245.6-135.1c-1.5-0.8-2-2.7-1.2-4.2l5.6-10.3
	C1124.9,1074.1,1126.8,1073.6,1128.3,1074.4z M1143.9,966.9l245.6,135.1c1.5,0.8,2,2.7,1.2,4.2l-5.6,10.3c-0.8,1.5-2.7,2-4.2,1.2
	l-245.6-135.1c-1.5-0.8-2-2.7-1.2-4.2l5.6-10.3C1140.5,966.7,1142.4,966.1,1143.9,966.9z M1133.4,1039.3l195.6,107.6
	c1.5,0.8,2,2.7,1.2,4.2l-5.6,10.3c-0.8,1.5-2.7,2-4.2,1.2L1124.8,1055c-1.5-0.8-2-2.7-1.2-4.2l5.6-10.3
	C1130,1039,1131.9,1038.5,1133.4,1039.3z M1140.4,929.2l173.1,95.2c1.5,0.8,2,2.7,1.2,4.2l-5.6,10.3c-0.8,1.5-2.7,2-4.2,1.2
	l-173.1-95.2c-1.5-0.8-2-2.7-1.2-4.2l5.6-10.3C1137,928.9,1138.9,928.4,1140.4,929.2z M1370.9,559.8c0.3,6,0.5,12.1,0.5,18.2
	c0.3,115.6-53.3,209.4-119.8,209.6c-66.5,0.2-120.7-93.3-121-208.9s53.3-209.4,119.8-209.6c52.5-0.1,97.4,58.2,114.1,139.8l-99.8,49
	l-37.6-61l-48.8,19.7l71.2,121.9L1370.9,559.8z M748.7,1197l0.2-8.9c8.8,2.4,33.6,6.7,50.9-10.2c1.2,6.9,2.6,12.4,4.1,15.5
	C803.9,1193.3,777,1213.8,748.7,1197z M750.3,1168.9l-1.3,13.6c0,0-32.5-3.8-36.9-12.4l1.3-12.7l0,0
	C713.5,1157.4,729.2,1171.1,750.3,1168.9z M821.8,1333c0.5-1.3,0.9-2.6,1.1-4.1c5.8-1.3,10.6,0.6,13.7,2.7c-0.3,0.7-0.7,1.5-1,2.2
	C830.6,1331.1,825.1,1332,821.8,1333z M840.6,1314.6c-0.1,0.9-0.2,1.8-0.3,2.7c-7.5-3.5-16,0.6-16,0.6s-0.5,0-1.2,0
	c0.1-1.3,0.2-2.5,0.4-3.6c0.7-0.3,1.6-0.6,2.5-0.9C832,1311.2,837.1,1312.6,840.6,1314.6z M744.1,1378.8c0,0-1.2,0.8-3,1.7
	c-2.6-5.1-6.8-5.3-9.1-4.9c1.1-1.3,2.2-2.6,3.3-4c3.3,0.7,7.1,4.2,9.3,6.6L744.1,1378.8z M752.3,1370l-3.4,3.7
	c-0.2-0.5-0.5-1-0.8-1.7c-2.1-5-5.5-6-8.1-6c0.7-0.8,1.3-1.5,1.9-2.3l1.2-1.2C746.7,1364,750.6,1368.2,752.3,1370z M1243.2,1386
	l0.7,236.8L935.7,1446l-0.7-236.8L1243.2,1386z M787.7,700l24.3,14v26.1l-24.3-14V700z M787.7,770.8v-26.1l24.3,14v26.1L787.7,770.8
	z M839.6,700.5c7.2,15.2,12.5,29,15.7,41c3.2,12.1,4.9,24,4.9,35.4c0,11-1.6,20.7-4.6,29c-3,8.2-8.4,16.4-15.9,24.3l-13.4-7.7
	c9.1-16.4,13.7-35.1,13.7-55.5c0-10.8-1-21.7-2.9-32.4c-2.2-12.1-5.9-26.2-10.8-41.7L839.6,700.5z"></path>
<path id="color_x5F_5" fill="#fcc2d7" stroke="#F8C09C" stroke-miterlimit="10" d="M850.9,1292.6c-0.1,0-0.2,0-0.3,0
	c0,0-2.3,6.3-9.6,10.2c-0.9,0.5-1.8,0.9-2.8,1.3h-0.1c-0.4,0.2-0.9,0.3-1.4,0.5c-0.1,0-0.2,0.1-0.3,0.1c-0.5,0.1-0.9,0.3-1.4,0.4
	c-0.1,0-0.1,0-0.2,0c-0.6,0.1-1.1,0.2-1.7,0.3c-0.1,0-0.2,0-0.3,0c-0.5,0.1-1,0.1-1.5,0.2c-0.2,0-0.4,0-0.6,0.1
	c-0.4,0-0.9,0.1-1.4,0.1c-0.2,0-0.4,0-0.6,0c-0.5,0-1,0-1.6,0c-0.1-0.7-0.3-1.3-0.5-1.9c-1.8-5.2-33.4-29.9-44.4-42.6
	c0.9,11.2,0.8,23.3-0.3,26.6c-1.9,5.6-11.7,43.9-10.4,51.2c0,0-2.1,11.3-0.8,14.5c0.2,0.4,0.4,0.9,0.6,1.5c-0.3-0.1-0.4-0.1-0.4-0.1
	c0,4-6.5,6.8-11.1,7.1c-0.1,0-0.2,0-0.2,0c-3.5,0.1-5.7-3.3-8.3-4.6c0,0,0,0-0.1,0c-0.2-0.1-0.3-0.1-0.5-0.2c0,0-0.1,0-0.1-0.1
	c-0.2-0.1-0.3-0.1-0.5-0.1c-0.1,0-0.1,0-0.2,0c-0.1,0-0.2,0-0.3,0c0-0.2,0-0.4,0-0.5c-0.1-2.8,0.6-53.4,0.6-53.4l1.1-61.9
	c0,0-0.1-5.3-0.3-12.3c-2.7-2.1-6.3-6.2-11.1-14c-4.3-7-7.9-20.8-10.8-36.1c9.7,2.5,19.8,3.7,19.8,3.7l-0.4,14.5
	c10.5,6.3,20.9,7.3,29.7,6.2c-1,4.9-1.6,7.8-1.6,7.8s-0.1,0.8-0.2,2.1c1.5,4,4.6,9,10.5,13.3c11.8,8.6,22.2,15.9,29.3,33.1
	s25.2,29.5,30.5,31.3C848,1291.3,849.4,1291.8,850.9,1292.6z M684.7,1088.2c-2,3-3.4,4.9-3.4,4.9s-16.4,4.2-19,3.5
	c-2.7-0.8-1.3,7,11.3,4.7c0,0-14.8,15.8-19.5,17.8s-1,3.7,5.9,1.6c0,0-5.4,6.4-2.9,6.2c2.5-0.1,9.7-4.2,9.7-4.2s-6.1,8.6-3.4,7.9
	c2.7-0.7,6.8-4.8,6.8-4.8s-3.8,6.1-1.4,6.8c2.4,0.6,10.5-11.2,10.5-11.2s14.5-15.9,14.5-19.9c0-0.5,0.6-1.5,1.6-2.9
	C689.9,1095.9,685,1088.5,684.7,1088.2z M778.1,936.4c0,0-0.8,1.3-2.3,3.2c-0.6,6-1.6,19.4-1,26.4c-5.2,11.3-19.1,18.1-24.6,13.6
	c-4-3.3-3.1-12.8-2.1-19c-0.4,0.1-0.8,0.1-1.2,0.2c-0.4,0.1-0.9,0.1-1.3,0.1c-0.6,0-1.1,0-1.7,0c-0.2,0-0.3,0-0.5,0
	c-0.4,0-0.7,0-1.1-0.1c-0.2,0-0.4-0.1-0.6-0.1c-0.3-0.1-0.6-0.1-0.9-0.2c-0.2,0-0.4-0.1-0.5-0.1c-0.3-0.1-0.6-0.2-0.9-0.3
	c-0.2-0.1-0.3-0.1-0.5-0.2c-0.3-0.1-0.6-0.3-0.9-0.4c-0.1-0.1-0.3-0.1-0.4-0.2c-0.3-0.2-0.6-0.3-0.9-0.5c-0.1-0.1-0.2-0.1-0.3-0.2
	c-0.8-0.5-1.5-1.2-2.2-1.9l0,0l0,0c-6.9-7.4-7.7-23.2-6.3-38.3c1.9-21,23.2-28.8,31.8-26.1s25.9,6.5,19.9,32.6
	c-0.1,0.4,8.2-6.4,8.8,2.5C789.1,936.3,778.1,936.4,778.1,936.4z M756.3,963c0.3-2,0.8-4.1,1.4-6.2c-2.3,1.4-4.7,2.5-7.2,3.2
	C752.8,961.1,754.8,962.2,756.3,963z M816.9,1135.9c-1.1,4.5-2.9,4.5-3.6,6.2c-0.9,2.2-12,9-12,9c0.5,6,10.1,2.2,10.1,2.2
	c-0.5,8.8-7.6,13-6.2,17.5c1.4,4.5,7.4-3.3,7.4-3.3c-0.9,6.7,4.6,0,4.6,0c0.6,7.2,4.3-2.3,4.3-2.3c-0.5,3.8,0.8,3.5,0.8,3.5
	c5-3.9,5.9-21.6,6-31.3C824.3,1138.3,819,1136.6,816.9,1135.9z M443.4,1259.5v-0.5c0,0-0.1-3.3-0.2-9.1l-5.7-2.1
	c-2,5.8-5.6,16.3-4.4,22.3c0.8,4.3,6.8,9.8,11.8,13.1L443.4,1259.5z M534.3,1043.3c-1.6,2.1-3.8-0.1-2.9-5.7c0.4-2.8,2.5-3.8,4.5-4
	c-2.4-11-5.7-21.5-5.7-21.5c0.5,4.7-12,7.7-18.5,10.3c-6.5,2.6-2,17.3-2,17.3h-3.5l-0.1-5.2c0,0,1.8-5.6-8.8-11
	c-10.6-5.4-0.9,12.2-0.9,12.2c-2.5,9-10.8,5-17.9,4.9c2.4,4.5,4.8,8.2,5.8,10.4c0.6,1.4,2.7,2.7,5.8,4v5.4l23.5,3.8
	c-0.3-1.3-0.6-2.7-0.9-3.9c10.7,1.3,20.9,0.9,23.7-2.3c1.9-2.3,2-7.7,1.2-14C536.5,1043.7,535.3,1041.9,534.3,1043.3z"></path>
<path id="color_x5F_4" fill="#12b886" d="M494.6,1471c-1.8,5-14.5,27-24.4,28.8s-16-0.7-16.3-2.4c-0.2-1.1,1-11.9,1.9-20.3v0.1
	c8.1,10.4,20.8-6.7,21.3-5.3c0,0.1,0.1-1.5,0.3-4.7C483.9,1467.2,495.9,1467.3,494.6,1471z M529.8,1502.5c0,0-0.6-0.6-1.5-1.4v0.6
	c0,0-8.5,10.9-21.3,2.9c0,0,0-0.1,0-0.4c-0.5,5.2-2,19.8,0.2,20.7c2.5,1.1,40.5,4.9,51.8-8.7
	C570.3,1502.7,529.8,1502.5,529.8,1502.5z M604.9,1152.5c-7.9,13.9-31.1,52.8-47.8,58.7c-7.8,2.8-14.2,1.2-18.9-1.9
	c0.4,30,0.6,53.7,0.6,53.7l-0.1,2.5c-32.8,7.6-70.6,4.1-95,0l-0.4-6.4c0,0-0.1-3.3-0.2-9.1l-8.8-3.2c0,0,5.4-98.5,8-137.8
	s17.2-38.9,19.9-40.9l0,0c16.6-10.9,28.1-1.9,28.1-1.9v-5.7l23.5,3.8c1,4.2,2,8,2,8s12.4,4.1,17.1,12.4l0.2-0.3
	c0.9,0.5,28,12.2,25.3,82.3l21.1-20.7l18.4,10.5L604.9,1152.5z M537.5,1261c-0.2-23.4-1.5-164.6-5-173.3c-0.5-1.2-1.1-2.3-1.9-3.3
	c-14.1,13.3-18.8,35.7-21.3,55.8c-3.5,28.5-5.7,58.7,6.1,84.9C521.1,1237.6,529.3,1249.7,537.5,1261z M962.9,936.6l-1.4-0.8
	L852,936.9l55.4-32.1l-222-127.4l-0.5-192l277.6,159.2L962.9,936.6z M812,758.7l-24.3-14v26.1l24.3,14V758.7z M812,714l-24.3-14
	v26.1l24.3,14V714z M860.2,776.9c0-11.4-1.6-23.3-4.9-35.4c-3.2-12-8.5-25.8-15.7-41l-13.5-7.7c4.9,15.6,8.6,29.6,10.8,41.7
	c1.9,10.7,2.9,21.6,2.9,32.4c0,20.5-4.6,39.1-13.7,55.5l13.4,7.7c7.5-8,12.9-16.1,15.9-24.3C858.6,797.6,860.2,787.9,860.2,776.9z"></path>
<path id="color_x5F_3" fill="#e64980" d="M1767.2,1505.7l-729.4,423.9l-805-461.7l-0.1-51.1l805,461.7l729.4-423.9L1767.2,1505.7z
	 M823.2,1316c0.9-7.7,3.6-10.2,3.6-10.2c6.1,0.2,10.7-1.2,14.2-3c0.1,2.9,0.1,7.1-0.4,11.8c-3.5-2-8.6-3.4-14.6-1.2
	c-0.9,0.3-1.8,0.6-2.5,0.9C823.4,1314.8,823.3,1315.4,823.2,1316z M823,1328.8c5.8-1.3,10.6,0.6,13.7,2.7c1.9-4.5,3-9.5,3.6-14.2
	c-7.5-3.5-16,0.6-16,0.6s-0.5,0-1.2,0c0-0.7,0.1-1.3,0.2-1.9c-0.3,2.4-0.4,5.4-0.1,8.9C823.2,1326.3,823.1,1327.6,823,1328.8z
	 M840.6,1314.6c-0.1,0.9-0.2,1.7-0.3,2.6C840.4,1316.4,840.5,1315.5,840.6,1314.6z M821.8,1333L821.8,1333c-0.9,2.3-2.2,4.2-3.6,6
	c3.4,3.9,8.7,6.7,14.5-0.8c1.1-1.4,2-2.9,2.8-4.5C830.6,1331.1,825.1,1332,821.8,1333z M836.6,1331.6c-0.2,0.5-0.4,0.9-0.7,1.4
	C836.2,1332.6,836.4,1332.1,836.6,1331.6z M744.1,1378.8L744.1,1378.8L744.1,1378.8z M749.4,1357c-0.4,0-1,0.3-1.6,0.8l-5.9,6
	l1.2-1.2c3.7,1.4,7.6,5.6,9.3,7.4l-3.4,3.7c-0.2-0.5-0.5-1-0.8-1.7c-2.1-5-5.5-6-8.1-6c0.7-0.8,1.3-1.5,1.9-2.3
	c-2.1,2.4-4.3,5.2-6.5,7.9l0,0c3.3,0.7,7.1,4.2,9.3,6.6l-0.5,0.6l15.5-16.7C755.2,1362.1,752.9,1356.9,749.4,1357z M732,1375.6
	L732,1375.6c-1.4,1.6-2.7,3.1-3.9,4.2c-0.2,1.6,0,3.4,1.7,4.1c2.3,1,7.8-1.6,11.3-3.5C738.6,1375.3,734.4,1375.2,732,1375.6z
	 M744.1,1378.8c0,0-0.1,0.1-0.2,0.1C744,1378.8,744,1378.8,744.1,1378.8z M743.9,1378.9c-0.4,0.2-1.1,0.7-2.1,1.2
	C742.8,1379.6,743.5,1379.1,743.9,1378.9z M741.2,1380.5c0.2-0.1,0.4-0.2,0.6-0.3C741.6,1380.2,741.4,1380.3,741.2,1380.5z
	 M733.6,1373.7C733.6,1373.7,733.7,1373.6,733.6,1373.7C733.7,1373.6,733.6,1373.7,733.6,1373.7z M1545.9,1458.1l-535.1-307.8
	l-3-1079.9L1542.9,381L1545.9,1458.1z M1131.8,944.9l173.1,95.2c1.5,0.8,3.4,0.3,4.2-1.2l5.6-10.3c0.8-1.5,0.3-3.4-1.2-4.2
	l-173.1-95.2c-1.5-0.8-3.4-0.3-4.2,1.2l-5.6,10.3C1129.7,942.2,1130.3,944.1,1131.8,944.9z M1143.9,966.9c-1.5-0.8-3.4-0.3-4.2,1.2
	l-5.6,10.3c-0.8,1.5-0.3,3.4,1.2,4.2l245.6,135.1c1.5,0.8,3.4,0.3,4.2-1.2l5.6-10.3c0.8-1.5,0.3-3.4-1.2-4.2L1143.9,966.9z
	 M1124.8,1055l195.6,107.6c1.5,0.8,3.4,0.3,4.2-1.2l5.6-10.3c0.8-1.5,0.3-3.4-1.2-4.2l-195.6-107.6c-1.5-0.8-3.4-0.3-4.2,1.2
	l-5.6,10.3C1122.7,1052.3,1123.3,1054.2,1124.8,1055z M1119.7,1090.1l245.6,135.1c1.5,0.8,3.4,0.3,4.2-1.2l5.6-10.3
	c0.8-1.5,0.3-3.4-1.2-4.2l-245.6-135.1c-1.5-0.8-3.4-0.3-4.2,1.2l-5.6,10.3C1117.6,1087.4,1118.2,1089.3,1119.7,1090.1z M1056,875.6
	c0.1,24.6,11.6,44.5,25.8,44.5c14.2,0,25.6-20,25.5-44.6s-11.6-44.5-25.8-44.5S1055.9,851,1056,875.6z M1081.8,931.1
	c-14.2,0-25.6,20-25.5,44.6s11.6,44.5,25.8,44.5s25.6-20,25.5-44.6C1107.5,951,1096,931.1,1081.8,931.1z M1105.4,1083.1
	c-0.1-24.6-11.6-44.5-25.8-44.5c-14.2,0-25.6,20-25.5,44.6s11.6,44.5,25.8,44.5S1105.5,1107.7,1105.4,1083.1z M1375.6,1249.6
	l-257.9-141.9c-1.5-0.8-3.4-0.3-4.2,1.2l-5.6,10.3c-0.8,1.5-0.3,3.4,1.2,4.2l257.9,141.9c1.5,0.8,3.4,0.3,4.2-1.2l5.6-10.3
	C1377.6,1252.3,1377.1,1250.4,1375.6,1249.6z M1405.2,1150l-257.9-141.9c-1.5-0.8-3.4-0.3-4.2,1.2l-5.6,10.3
	c-0.8,1.5-0.3,3.4,1.2,4.2l257.9,141.9c1.5,0.8,3.4,0.3,4.2-1.2l5.6-10.3C1407.3,1152.7,1406.7,1150.8,1405.2,1150z M1468.9,496.3
	l-0.1-38.6l-104.3,51.2c-16.7-81.5-61.5-139.9-114.1-139.8c-66.5,0.2-120.1,94-119.8,209.6c0.3,115.6,54.5,209.1,121,208.9
	c66.5-0.2,120.1-94,119.8-209.6c0-6.1-0.2-12.2-0.5-18.2L1468.9,496.3z M814.4,997.1c0,0-3.8-14.2-17.2-19.3
	c-13.3-5.1-21.1-15.9-21.1-15.9c-3.3,13.6-19.9,22.7-26,17.6c-4-3.3-3.1-12.8-2.1-19c-0.8,0.2-1.6,0.3-2.5,0.3
	c-6.5,0.4-10.9-2.5-13.7-7.5c-0.8,0.6-1.9,1.6-3.4,3.6c-0.6,0.8-1,2.5-1.2,4.8c0,0,0,0,0-0.1c-3,5.6-7.2,19.9-6,55.8
	c0,0-1.6,14.9-7.6,21.6s-27.4,40.9-27.4,40.9s1.6,8.5,15.1,14.9l19.6-22.3c-2.5,11.1-4.6,19.4-4.6,19.4c32.8,33.8,78.6,8.6,78.6,8.6
	s-7.9-14.5-7.2-34.6c0.7-20.2,8.3-34.1,8.3-34.1c9,13.1,14,33.8,14,33.8l-0.1,24.7l4.4,38.6c12.2,7.2,21.2-0.1,21.2-0.1l1.8-62.2
	L814.4,997.1z M680.8,1585.9l351.3,201.5l175.1-101.7l-351.1-201.6L680.8,1585.9z M1265.4,1382.5L914.1,1181l0.8,270l86.1,49.4
	l-44.1,25.6l166.8,95.7l44.1-25.6l98.4,56.4L1265.4,1382.5z M935.7,1446.1l-0.7-236.8l308.2,176.8l0.7,236.8L935.7,1446.1z"></path>
<path id="color_x5F_2" fill="#364fc7" d="M540,1042.3c-2.2,4.3-4.1-1.1-5.7,1s-3.8-0.1-2.9-5.7c0.9-5.6,8.5-3.9,8.5-3.9
	S542.2,1038,540,1042.3z M509.3,1140.1c-3.5,28.5-5.7,58.7,6.1,84.9c5.6,12.6,13.9,24.7,22.1,36c-0.2-23.4-1.5-164.6-5-173.3
	c-0.5-1.2-1.1-2.3-1.9-3.3C516.5,1097.7,511.8,1120.1,509.3,1140.1z M478.6,1040.6c-7.1-0.1-6.5-6.4-9.4-13.6
	c-2.9-7.2-2.3-8.3,1.3-24.3c3.6-16,26.8-15.8,26.8-15.8s16-13.3,29.8-1.7c13.9,11.7,3.2,27,3.2,27c0.5,4.7-12,7.7-18.5,10.3
	s-2,17.3-2,17.3h-3.5l-0.1-5.2c0,0,1.8-5.6-8.8-11c-10.6-5.4-0.9,12.2-0.9,12.2C494,1044.7,485.7,1040.6,478.6,1040.6z
	 M656.6,1122.4l-58.7,34.1l-39.3-22.5l58.7-34.1l5.8,3.4l-5.1,3.5l18.3,10.4l5.1-3.4l-15.3-8.8L656.6,1122.4z M538.7,1265.5l0.1-2.5
	l-10.5,238.7c0,0-8.5,10.9-21.3,2.9c0,0-17.6-212.1-21-215.8c-3.3-3.8-8.5,184.7-9,183.3c-0.5-1.4-13.2,15.7-21.3,5.3l-12.4-218.2
	l0.4,6.4C468.1,1269.6,505.9,1273.1,538.7,1265.5z M538.8,1263L538.8,1263L538.8,1263z"></path>
<path id="color_x5F_1" fill="#4c6ef5" d="M1178.3,516.6l48.8-19.7l37.6,61l204.1-100.2l0.1,38.6l-219.4,142.3L1178.3,516.6z
	 M719.8,1095.1l-6.3,62.3c0,0,15.7,13.7,36.8,11.5l-1.3,13.6l-0.4,14.5l0.2-8.9c8.8,2.4,33.6,6.7,50.9-10.2l0,0
	c-4.1-23.7-6.3-63.8-6.9-76.2C783.8,1105.9,747.9,1120.2,719.8,1095.1z M771,1355c0,4-6.5,6.8-11.1,7.1c-0.1,0-0.2,0-0.2,0l0,0
	l-15.5,16.7c0,0-10.9,6.7-14.3,5.2c-1.7-0.7-1.9-2.5-1.7-4.1l0,0c-0.2,0.2-0.3,0.3-0.5,0.5c-6.6,6.4-17.2,7.6-12.7,17
	s19.3,7.6,24.2,8.2c4.8,0.5,17.7-15.1,27-18.4s10.4-5.1,10.4-5.1C783.1,1356.8,771,1355,771,1355z M741.9,1363.8l5.9-6
	c-1.7,1.2-4.1,3.9-6.8,7C741.3,1364.4,741.6,1364.1,741.9,1363.8z M740.1,1365.8c0.3-0.3,0.6-0.7,0.8-1
	C740.7,1365.1,740.4,1365.5,740.1,1365.8z M748.2,1357.4c0.1-0.1,0.3-0.2,0.4-0.2C748.5,1357.3,748.4,1357.4,748.2,1357.4z
	 M749.4,1357L749.4,1357L749.4,1357L749.4,1357z M747.8,1357.7c0.2-0.1,0.3-0.2,0.5-0.3C748.1,1357.5,747.9,1357.6,747.8,1357.7z
	 M749.1,1357.1c-0.1,0-0.2,0.1-0.3,0.1C748.9,1357.1,749,1357.1,749.1,1357.1z M736.5,1370.2c1.2-1.5,2.4-3,3.6-4.4
	C738.9,1367.2,737.7,1368.7,736.5,1370.2z M750.8,1357.2c0,0-0.1,0-0.1-0.1C750.7,1357.2,750.8,1357.2,750.8,1357.2z M750.2,1357.1
	c-0.1,0-0.1,0-0.2,0C750.1,1357,750.2,1357.1,750.2,1357.1z M751.3,1357.4C751.3,1357.4,751.3,1357.5,751.3,1357.4
	C751.3,1357.5,751.3,1357.4,751.3,1357.4z M732.1,1375.4C732.1,1375.4,732.2,1375.4,732.1,1375.4
	C732.2,1375.4,732.1,1375.4,732.1,1375.4z M733,1374.4L733,1374.4L733,1374.4z M733.9,1373.4L733.9,1373.4L733.9,1373.4z
	 M823,1328.6c0-0.3,0.1-0.5,0.1-0.8C823,1328.1,823,1328.4,823,1328.6z M823.1,1326.6c0,0.3,0,0.6,0,0.8
	C823.1,1327.1,823.1,1326.9,823.1,1326.6z M822.4,1331.4c-0.1,0.3-0.2,0.5-0.2,0.8C822.2,1331.9,822.3,1331.7,822.4,1331.4z
	 M822.8,1329.8c0.1-0.3,0.1-0.5,0.1-0.8C822.9,1329.3,822.8,1329.5,822.8,1329.8z M822.7,1330.1c-0.1,0.4-0.2,0.7-0.3,1
	C822.6,1330.8,822.6,1330.5,822.7,1330.1z M823.1,1326.2c0-0.4,0-0.8,0-1.3c-0.1-1.4-0.1-2.7-0.1-3.9c0,1.2,0,2.5,0.1,3.9
	C823.1,1325.4,823.1,1325.8,823.1,1326.2z M850.6,1292.6c0,0-2.3,6.3-9.6,10.2l0,0c0.2,7.9-0.3,25.3-8.2,35.4
	c-5.9,7.5-11.1,4.7-14.5,0.8l0,0c-4,5.2-8.7,8.9-6.6,14.3c3.6,9.1,5.4,13.7,22.6,9.2c17.2-4.5,15.6-26,21.5-33.9
	s10.5-12.4,10.7-17.4S859.6,1291.4,850.6,1292.6z M826.7,1306c0,0.1-0.1,0.1-0.2,0.2C826.6,1306.1,826.7,1306,826.7,1306z
	 M825.6,1307.6c0.1-0.2,0.2-0.4,0.4-0.6C825.8,1307.2,825.7,1307.4,825.6,1307.6z M823.4,1314.9c-0.1,0.5-0.1,1.1-0.2,1.6
	C823.2,1316,823.3,1315.4,823.4,1314.9z M825.4,1308c-0.1,0.3-0.3,0.5-0.4,0.8C825.1,1308.5,825.3,1308.2,825.4,1308z M824,1311.7
	c-0.1,0.4-0.2,0.9-0.3,1.3C823.8,1312.5,823.9,1312.1,824,1311.7z M835,1305.1c-0.1,0-0.1,0-0.2,0
	C834.9,1305.1,835,1305.1,835,1305.1z M830.8,1305.7c0.2,0,0.4,0,0.6-0.1C831.2,1305.7,831,1305.7,830.8,1305.7z M821.8,1333.1
	c0.1-0.2,0.2-0.4,0.2-0.6C821.9,1332.7,821.8,1332.9,821.8,1333.1z M833.1,1305.4c-0.1,0-0.2,0-0.3,0
	C832.9,1305.5,833,1305.5,833.1,1305.4z M828.8,1305.8c0.2,0,0.4,0,0.6,0C829.2,1305.8,829,1305.8,828.8,1305.8z M838.2,1304.1h-0.1
	C838.1,1304.1,838.2,1304.1,838.2,1304.1z M836.5,1304.7c0.1,0,0.2-0.1,0.3-0.1C836.6,1304.6,836.5,1304.6,836.5,1304.7z
	 M818.6,1338.6c0.1-0.1,0.2-0.2,0.3-0.3C818.8,1338.3,818.7,1338.4,818.6,1338.6z M819.1,1337.8c0.1-0.1,0.2-0.3,0.3-0.4
	C819.3,1337.5,819.2,1337.7,819.1,1337.8z M821.6,1333.5c-0.1,0.2-0.2,0.4-0.3,0.6C821.4,1333.9,821.5,1333.7,821.6,1333.5z
	 M821.2,1334.5c-0.1,0.2-0.2,0.4-0.3,0.7C820.9,1334.9,821.1,1334.7,821.2,1334.5z M819.7,1337c0.1-0.1,0.2-0.3,0.3-0.5
	C819.9,1336.7,819.8,1336.9,819.7,1337z M820.7,1335.4c-0.1,0.3-0.3,0.5-0.4,0.8C820.4,1335.9,820.5,1335.7,820.7,1335.4z
	 M723.2,889.7c0,0,1.3,6.9,6.3,9.1c0,0-11.9,16.2-2.3,30.2c0,0,2.9-22.4,6.4-24.6c0,0,5,16.9,35.6,5.2c0,0,5.2,12.5,2.4,23.8
	c0,0,6-4.2,5.1-7.8c0,0,3,2.6,6.6,0s5.9-18.8-3.8-25.6c0,0,1.2-8.5-7.6-11.1c-8.7-2.6-35.5,0.8-39.6-3.7c-4.1-4.4-4.9-8.1-4.9-8.1
	s-3.1,7.3,0.5,12.6C727.9,889.8,726.2,892.3,723.2,889.7z M1207.1,1685.7L1032,1787.4l-351.3-201.5v14.7l351.3,201.5l175.1-101.7
	V1685.7z M1291.4,1636.6l-25.9,15.2l-0.8-270l-351.3-201.5l25.9-15.2l351.3,201.5L1291.4,1636.6z M1173.8,1599.5l-50.1,29.1
	l-166.8-95.7v-7l166.8,95.7l44.1-25.6L1173.8,1599.5z"></path>
</svg>