<?xml version="1.0" standalone="no"?>
<svg version="1.1" id="Layer_2" xmlns="http://www.w3.org/2000/svg" xmlns:xlink="http://www.w3.org/1999/xlink" x="0px" y="0px" viewBox="0 0 2000 2000" enable-background="new 0 0 2000 2000" xml:space="preserve">
<path id="color_x5F_7" fill="#dbe4ff" d="M1043.6,732.9l43.7,25.1l-21,12.7l-44.7-24.1L1043.6,732.9z M784.1,721.5
	c0,8.9-9.5,14.7-17.4,10.6l-115.8-60.2l-90.1,54.4l43.3,24.9l1.7-1l18.3,10.6l1,0.6l0,0l12.1,7l-1.6,0.9l34.7,19.9V782l31.9-46.5
	l59.5,35.8c0,0,1.2,19.3,0,20.9l-12.5,17.5l109.4-68.6L784.1,699V721.5z M1251.1,376.3L922.7,574.4l418.4,240.5l324.2-203.4
	L1251.1,376.3z"></path>
<path id="color_x5F_6" fill="#91a7ff" d="M1271.5,911.7l-65.6,37.9v-75.7L1271.5,911.7z M1481,862.6c0,0.2,0,0.4,0,0.6
	C1481,863,1481,862.8,1481,862.6z M1480.9,861.3c0-0.1,0-0.2,0-0.4C1480.9,861,1480.9,861.1,1480.9,861.3z M1481.1,864.8
	c0-0.2,0-0.4,0-0.6C1481.1,864.4,1481.1,864.6,1481.1,864.8z M1479.9,845.3c0-0.2,0-0.5,0-0.7
	C1479.9,844.9,1479.9,845.1,1479.9,845.3z M1479.5,838.6c0,0.3,0,0.5,0,0.8C1479.5,839.1,1479.5,838.9,1479.5,838.6z M1480.5,855
	L1480.5,855L1480.5,855z M1480.7,857.2c0-0.1,0-0.3,0-0.4C1480.7,856.9,1480.7,857,1480.7,857.2z M1480.8,858.9v0.1
	C1480.8,859,1480.8,859,1480.8,858.9z M1525.2,785c0.1-0.2,0.1-0.4,0.1-0.6c0.6-0.1,1.2-0.2,1.6-0.3
	C1525.9,784.6,1525.2,785.1,1525.2,785z M1066.3,770.7l-0.3,126l41.2-24.5V769.5l-19.9-11.5L1066.3,770.7z M1095.8,808.6l5-2.1v23.9
	l-5,1.7V808.6z M1110.2,870.5l35.8-21.2v-57.6l-35.8-20.5V870.5z M1114.5,797.1l5-2.1v23.9l-5,1.7V797.1z M974.2,693l69.4,39.9
	l-22,13.7v119.6L974.2,895V693z M1534.4,935.9c-0.8-2.9-3.2-13-2.7-27.8c0.7-17.5,7.3-29.6,7.3-29.6c7.8,11.4,12.1,29.5,12.1,29.5
	l-0.1,21.5l3.7,33.5c0.4,0.3,0.9,0.5,1.3,0.7v5.1c0,0,0.3,0.1,0.8,0.3c-1,3.4-2.4,3.4-3,4.8c-0.8,1.9-10.4,7.8-10.4,7.8
	c0.1,1.2,0.7,2,1.4,2.4l-7.9,4.8c3.4-27.7-1.4-53.6-1.4-53.6C1535.1,935.5,1534.7,935.7,1534.4,935.9z M1500.7,815.2
	c1.8-0.6,3.5-1.5,5.2-2.5c-0.5,1.8-0.9,3.7-1.2,5.4c-1-0.6-2.4-1.3-3.9-2.1L1500.7,815.2z M1566.9,970.4c0.5-0.1,0.9-0.3,1.4-0.4
	l-1.4,0.8C1566.9,970.6,1566.9,970.5,1566.9,970.4z M1479.7,842.6c0,0.3,0,0.5,0,0.8C1479.8,843.2,1479.8,842.9,1479.7,842.6z
	 M1665.3,611.4v299.8l-96,58.1l0.9-4.7c1.9-0.8,3-1.6,3-1.6l1.7-54l-19.9-60.5c0,0-3.3-12.4-14.9-16.8s-18.3-13.9-18.3-13.9
	l-1.1-6.2c0.2-5.2,0.7-10.6,1-13.8c1.3-1.7,2-2.8,2-2.8s9.5-0.1,9.1-7.8c-0.3-4.4-2.8-4.4-4.8-3.6c5.7-4.4,2.4-19.1,2.4-19.1
	c2.4,0.2,6-8.2,4.1-6.5s-6.8,0.6-6.8,0.6s-7.3-3.4-21.5-6.1s-21.7,8.2-21.7,8.2c-8.7,9.5-5.1,27.5-5.1,27.5c0.1-0.4,0.2-0.9,0.3-1.4
	c-0.3,9.1,0.7,17.7,4,23.3c-0.7,0.4-1.8,1.3-3.3,3.3c-0.5,0.7-0.9,2.1-1.1,4.2c0,0,0,0,0-0.1c-2.7,4.9-6.3,17.3-5.4,48.5
	c0,0-1.5,12.9-6.7,18.7s-23.9,35.5-23.9,35.5s0.2,1.1,1.1,2.8l-1.4,2.3c-2.3,3.4-4,5.7-4,5.7s-14.3,3.7-16.6,3
	c-2.3-0.7-1.1,6.1,9.8,4.1c0,0-12.9,13.7-17,15.4s-0.9,3.2,5.1,1.4c0,0-4.7,5.5-2.5,5.4c2.1-0.1,8.4-3.7,8.4-3.7s-5.4,7.4-3,6.8
	c2.4-0.6,5.9-4.2,5.9-4.2s-3.3,5.3-1.3,5.9s9.2-9.8,9.2-9.8s12.7-13.8,12.7-17.2c0-0.3,0.4-1.1,1.1-2.1c0.2,0.1,0.4,0.2,0.6,0.3
	l4.3-3.6c0.2,0.1,0.4,0.2,0.6,0.3l2.6-2.9l0.6-0.5l-0.1-0.1l14.1-15.9c-2.2,9.6-4,16.8-4,16.8c1.4,1.4,2.8,2.7,4.2,3.9
	c0,0.2,0,0.5,0,0.7c-4,29.5,2.5,65.2,7.4,87.5l-141.3,85.5l1.3-293.4L1665.3,611.4z M1479.1,820.7c0,0.2,0,0.5,0,0.7
	C1479.1,821.2,1479.1,821,1479.1,820.7z M1479.7,841.4c0-0.3,0-0.6,0-0.8C1479.6,840.9,1479.7,841.1,1479.7,841.4z M1479.2,819.3
	c0,0.2,0,0.4,0,0.7C1479.2,819.8,1479.2,819.6,1479.2,819.3z M1479.1,823c0-0.3,0-0.5,0-0.8C1479.1,822.4,1479.1,822.7,1479.1,823z
	 M1473.9,912.4c-0.1,0.5-0.2,1-0.3,1.4C1473.7,913.3,1473.8,912.9,1473.9,912.4z M1479.1,823.8c0,0.3,0,0.6,0,1
	C1479.1,824.4,1479.1,824.1,1479.1,823.8z M1474.2,911c-0.1,0.4-0.2,0.9-0.3,1.3C1474,911.9,1474.1,911.5,1474.2,911z M1474.3,910.7
	c0.1-0.4,0.2-0.7,0.2-1.1C1474.5,910,1474.4,910.3,1474.3,910.7z M1479.3,818c0,0.2,0,0.4-0.1,0.6
	C1479.3,818.5,1479.3,818.3,1479.3,818z M1479.2,831.7c0,0.3,0,0.6,0,0.9C1479.2,832.3,1479.2,832,1479.2,831.7z M1479.1,828.8
	c0-0.3,0-0.6,0-0.8C1479.1,828.2,1479.1,828.5,1479.1,828.8z M1479.1,829.8c0,0.3,0,0.6,0,0.9
	C1479.2,830.4,1479.2,830.1,1479.1,829.8z M1479.1,827c0-0.3,0-0.6,0-0.8C1479.1,826.4,1479.1,826.7,1479.1,827z M1479.5,837.4
	c0-0.2,0-0.4,0-0.5C1479.4,837,1479.4,837.2,1479.5,837.4z M1479.3,833.6c0,0.3,0,0.6,0,0.9C1479.3,834.2,1479.3,833.9,1479.3,833.6
	z M1474.6,909.2L1474.6,909.2L1474.6,909.2L1474.6,909.2z M1520.7,820.5l1.1-2.7c-0.3,1.1-0.6,2.1-1.1,3.1
	C1520.7,820.8,1520.7,820.6,1520.7,820.5z M728,940v0.3l0.3-0.2L728,940z M749.1,809.8l-9.1,12.8l-0.4,110.7l-0.6,0.4l119.5-72.4
	V741.2L749.1,809.8z"></path>
<path id="color_x5F_5" fill="#FFD2BB" d="M1525.3,784.4c0,0.2-0.1,0.4-0.1,0.6c0,0.1,0.7-0.4,1.8-1c0.4-0.1,0.6-0.2,0.6-0.2
	c0.1-0.1,0.3-0.2,0.4-0.3c2.1-0.8,4.6-0.9,4.8,3.6c0.5,7.7-9.1,7.8-9.1,7.8s-0.7,1.1-2,2.8c-0.3,3.2-0.8,8.6-1,13.8l-0.2-1
	c0,0-1.7,5.5-12.3,8.9c0,0-0.1,6.1-0.1,11.1c-3-0.5-5.4-1.3-7.3-2.2l0.6-8.8l-0.6-3.7c1.5,0.7,2.8,1.5,3.9,2.1
	c0.3-1.7,0.7-3.6,1.2-5.4c-1.8,1.1-3.7,2-5.6,2.6c-1.6,0.5-3.2,0.8-4.8,0.9c-4.3,0.3-7.6-1.2-9.9-3.8c-0.3-0.3-0.6-0.7-0.8-1
	c-0.1-0.1-0.1-0.2-0.2-0.3c-3.9-5.5-5-14.7-4.7-24.4c1.9-6,9.8-15.8,9.8-15.8s4.8,5.8,9.5,10.3c4.8,4.5,16.6-0.2,16.6-0.2
	c1.8,2.5,2,14.3,2,14.3c4.9-5.2,3.3-12.9,4-11.5C1522,784.7,1523.8,784.6,1525.3,784.4z M1556.8,969.1c-1,3.4-2.4,3.4-3,4.8
	c-0.8,1.9-10.4,7.8-10.4,7.8c0.4,5.2,8.8,1.9,8.8,1.9c-0.5,7.6-6.6,11.3-5.4,15.2s6.4-2.8,6.4-2.8c-0.8,5.8,4,0,4,0
	c0.5,6.3,3.7-2,3.7-2c-0.4,3.3,0.7,3,0.7,3c4.3-3.3,5.2-18.2,5.3-26.7C1563.4,971.2,1558.7,969.8,1556.8,969.1z M1497.5,1162.5h0.1
	c0.1,0,0.3,0.1,0.4,0.1h0.1c0.1,0.1,0.3,0.1,0.4,0.2c0,0,0,0,0.1,0c2.2,1.1,4.2,4.1,7.3,4.1c0.1,0,0.1,0,0.2,0
	c4-0.2,9.8-2.7,9.8-6.2c0,0,0.7,0.1,1.7,0.7c-0.3-0.7-0.5-1.4-0.7-1.9c-2.8,1.8-8.4,2.7-19-1c0,0.8,0,1.4,0,1.6
	C1498.1,1160.9,1497.8,1161.7,1497.5,1162.5L1497.5,1162.5z M1565.1,1113.5c0,0-0.7-0.6-2-1.6c1.1,1.2,1.8,2.2,2,2.8
	c0.2,0.7,0.4,1.6,0.6,2.7c0.6,0,1.2,0,1.7,0c0.2,0,0.3,0,0.5,0c0.4,0,0.8,0,1.2-0.1c0.2,0,0.3,0,0.5,0c0.5,0,0.9-0.1,1.3-0.2
	c0.1,0,0.2,0,0.2,0c0.5-0.1,1-0.2,1.5-0.3c0.1,0,0.1,0,0.2,0c0.4-0.1,0.9-0.2,1.3-0.3c0.1,0,0.2-0.1,0.3-0.1
	c0.4-0.1,0.8-0.3,1.2-0.4h0.1c0.9-0.3,1.7-0.7,2.5-1.1c6.5-3.5,8.5-9,8.5-9c0.3,0,0.7-0.1,1,0c-1.9-1.1-3.7-1.8-5-2.2
	c-0.8-0.3-2.1-0.9-3.6-1.8C1576.9,1105.5,1572.4,1111.5,1565.1,1113.5z M1442,927.3l1.2-2c-2.3,3.4-4,5.7-4,5.7s-14.3,3.7-16.6,3
	c-2.3-0.7-1.1,6.1,9.8,4.1c0,0-12.9,13.7-17,15.4s-0.9,3.2,5.1,1.4c0,0-4.7,5.5-2.5,5.4c2.1-0.1,8.4-3.7,8.4-3.7s-5.4,7.4-3,6.8
	c2.4-0.6,5.9-4.2,5.9-4.2s-3.3,5.3-1.3,5.9s9.2-9.8,9.2-9.8s12.7-13.8,12.7-17.2c0-0.3,0.4-1.1,1.1-2.1
	C1446.3,933.8,1442,927.3,1442,927.3z M467.1,896.6c-4-2.6-8.7-7.1-9.4-10.5c-0.9-4.8,1.9-13.2,3.6-17.8l4.6,1.7
	c0.1,4.3,0.2,6.9,0.2,7.2c0,0,0,0,0-0.1c0,0.1,0,0.1,0,0.1L467.1,896.6z M540.7,696.9c-1.9-8.8-4.5-17.2-4.5-17.2
	c0.4,3.7-9.6,6.2-14.8,8.2s-1.6,13.8-1.6,13.8H517l-0.1-4.1c0,0,1.5-4.5-7-8.8s-0.7,9.7-0.7,9.7c-2,7.2-8.7,4-14.3,3.9
	c1.9,3.6,3.8,6.6,4.6,8.4c0.5,1.1,2.2,2.2,4.6,3.2v4.3l18.8,3.1c-0.2-1.1-0.5-2.1-0.7-3.2c8.6,1,16.8,0.8,19-1.8
	c1.6-1.8,1.6-6.1,1-11.2c-1-0.2-1.9-1.6-2.8-0.5c-1.3,1.7-3-0.1-2.3-4.6C537.4,697.9,539.1,697.1,540.7,696.9z"></path>
<path id="color_x5F_4" fill="#12b886" d="M911.6,1056.4l-18.1-10.4v-8.9L918,1052l24.5-13.5L911.6,1056.4z M762.4,1078.2l25.7,14.6
	l40.2-23l-29.7-17.2l-16.5,9.2l0.2,5.4L762.4,1078.2z M993,1021.4l167.2,101.3l-232.5,133.4l-168.9-95.8L993,1021.4z M983.1,1295.6
	c-1.9,0-3.4,1-3.4,2.3s1.5,2.3,3.4,2.3s3.4-1,3.4-2.3S985,1295.6,983.1,1295.6z M1357.3,1222.5c0,1.3-1.5,2.3-3.4,2.3
	s-3.4-1-3.4-2.3s1.5-2.3,3.4-2.3S1357.3,1221.2,1357.3,1222.5z M1105.4,1367.2c0,1.3-1.5,2.3-3.4,2.3s-3.4-1-3.4-2.3
	s1.5-2.3,3.4-2.3S1105.4,1365.9,1105.4,1367.2z M1238.5,1153.3c0,1.3-1.5,2.3-3.4,2.3s-3.4-1-3.4-2.3s1.5-2.3,3.4-2.3
	C1236.9,1151.1,1238.5,1152.1,1238.5,1153.3z M812.3,1113.7l-3.4,2l-61.2-36.5v-4L812.3,1113.7z M741.3,660.1l-41.6-120
	c-2-5.6-9.6-6.4-12.6-1.2l-41.6,72c-1.9,3.3-0.8,7.6,2.6,9.5l83.1,48C736.8,671.6,743.4,666.2,741.3,660.1z M697.9,636l-16.4-9.5
	v-16.7l16.4,9.5V636z M698.7,585.2l-3.3,28.6l-11-6.3l-3.2-32.4v-15.3l17.5,10.1V585.2z M1535.9,937.8
	C1535.9,937.9,1535.9,937.9,1535.9,937.8C1535.9,937.9,1535.9,937.9,1535.9,937.8z M1536.1,938.8L1536.1,938.8L1536.1,938.8z
	 M1535.8,937.1L1535.8,937.1L1535.8,937.1z M1534,934.5c-0.1-0.3-0.1-0.5-0.2-0.9C1533.8,933.9,1533.9,934.2,1534,934.5z
	 M1534.2,935.3c-0.1-0.2-0.1-0.5-0.2-0.7C1534.1,934.8,1534.1,935.1,1534.2,935.3z M1535.5,935.4
	C1535.5,935.3,1535.5,935.3,1535.5,935.4C1535.5,935.3,1535.5,935.3,1535.5,935.4z M1531.6,913.3c0-0.7,0-1.4,0-2.1l0,0
	C1531.6,911.9,1531.6,912.6,1531.6,913.3z M1533.5,932.5c0.1,0.3,0.1,0.6,0.2,0.9C1533.7,933.2,1533.6,932.9,1533.5,932.5z
	 M1535.7,936.4v0.1V936.4z M1535.6,935.6L1535.6,935.6L1535.6,935.6z M1535.6,936C1535.6,936,1535.6,935.9,1535.6,936
	C1535.6,935.9,1535.6,936,1535.6,936z M1533.3,931.3c0.1,0.4,0.1,0.8,0.2,1.1C1533.4,932.1,1533.4,931.7,1533.3,931.3z M1531.7,916
	c0,0.7,0.1,1.4,0.1,2.1C1531.7,917.4,1531.7,916.7,1531.7,916z M1531.8,918.5c0,0.7,0.1,1.3,0.1,1.9
	C1531.8,919.8,1531.8,919.1,1531.8,918.5z M1531.3,938.6c0.1,0,0.1-0.1,0.2-0.1C1531.4,938.6,1531.3,938.6,1531.3,938.6z
	 M1531.9,920.8c0,0.6,0.1,1.2,0.2,1.8C1532,922,1532,921.4,1531.9,920.8z M1531.8,938.4c0.1,0,0.1-0.1,0.2-0.1
	C1531.9,938.3,1531.8,938.3,1531.8,938.4z M1531.6,913.7c0,0.7,0,1.5,0,2.2C1531.6,915.2,1531.6,914.5,1531.6,913.7z M1533,929.8
	c0.1,0.4,0.1,0.8,0.2,1.2C1533.2,930.7,1533.1,930.3,1533,929.8z M1532.8,928.3c0.1,0.4,0.1,0.9,0.2,1.3
	C1532.9,929.2,1532.9,928.8,1532.8,928.3z M1532.5,926.3c-0.1-0.5-0.1-1-0.2-1.6C1532.4,925.3,1532.4,925.8,1532.5,926.3z
	 M1532.5,926.7c0.1,0.5,0.1,1,0.2,1.5C1532.7,927.7,1532.6,927.2,1532.5,926.7z M1529.7,939.4c0,0-0.1,0-0.1,0.1
	C1529.6,939.4,1529.6,939.4,1529.7,939.4z M1510,945.1L1510,945.1L1510,945.1z M1511.1,945C1511.2,945,1511.2,945,1511.1,945
	C1511.2,945,1511.2,945,1511.1,945z M1512.4,944.8h-0.1C1512.3,944.8,1512.3,944.8,1512.4,944.8z M1556,968.8L1556,968.8L1556,968.8
	z M1513.4,944.6h0.1H1513.4z M1556.8,969.1L1556.8,969.1c-0.1,0-0.2-0.1-0.3-0.1C1556.6,969,1556.7,969,1556.8,969.1z M1557.6,969.4
	c0.2,0.1,0.4,0.1,0.5,0.2C1557.9,969.5,1557.7,969.4,1557.6,969.4z M1558.8,969.7c-0.1,0-0.2-0.1-0.3-0.1
	C1558.6,969.7,1558.7,969.7,1558.8,969.7z M1556.2,968.9L1556.2,968.9L1556.2,968.9z M1530.7,938.9c0.1,0,0.1-0.1,0.2-0.1
	C1530.8,938.8,1530.8,938.9,1530.7,938.9z M1514.7,944.4c-0.1,0-0.1,0-0.2,0C1514.5,944.4,1514.6,944.4,1514.7,944.4z M1560.5,970.2
	L1560.5,970.2L1560.5,970.2z M1515.8,944.2c-0.1,0-0.1,0-0.2,0C1515.6,944.2,1515.7,944.2,1515.8,944.2z M1528.3,940L1528.3,940
	L1528.3,940z M1521.7,942.5L1521.7,942.5L1521.7,942.5z M1532.2,938.1c0.1,0,0.1-0.1,0.2-0.1
	C1532.3,938.1,1532.3,938.1,1532.2,938.1z M1530.3,939.1c0,0-0.1,0-0.1,0.1C1530.2,939.1,1530.2,939.1,1530.3,939.1z M1529,939.7
	C1529,939.7,1528.9,939.7,1529,939.7C1528.9,939.7,1529,939.7,1529,939.7z M1517.7,943.7c0.1,0,0.1,0,0.2,0
	C1517.8,943.7,1517.8,943.7,1517.7,943.7z M1516.7,944c0.1,0,0.1,0,0.2,0C1516.8,943.9,1516.7,943.9,1516.7,944z M1520.8,942.8
	L1520.8,942.8L1520.8,942.8z M1519.8,943.1h0.1H1519.8z M1518.9,943.4h-0.1H1518.9z M1509.3,1161h-0.1
	C1509.3,1161,1509.3,1161,1509.3,1161z M1439.8,930.1c-0.3,0.4-0.5,0.7-0.6,0.8C1439.3,930.7,1439.5,930.5,1439.8,930.1z
	 M1505.1,1160.5L1505.1,1160.5L1505.1,1160.5z M1500,1159.2L1500,1159.2L1500,1159.2z M1501.8,1159.7L1501.8,1159.7L1501.8,1159.7z
	 M1450.9,936.2L1450.9,936.2L1450.9,936.2c-0.7,1-1.1,1.7-1.1,2.1C1449.8,937.9,1450.2,937.2,1450.9,936.2z M1444.5,923l-1.4,2.3
	c-1.4,2.1-2.7,3.8-3.4,4.8c0.7-1,1.9-2.7,3.4-4.8l-1.2,2L1444.5,923z M1472.8,943.7C1472.8,943.7,1472.8,943.8,1472.8,943.7
	C1472.8,943.8,1472.8,943.7,1472.8,943.7z M1473.4,938c0,0.1,0,0.1,0,0.2C1473.3,938.1,1473.4,938,1473.4,938z M1471.4,932.5
	c0.1,0.1,0.2,0.2,0.4,0.3C1471.7,932.7,1471.6,932.6,1471.4,932.5z M1473.7,934.6L1473.7,934.6c0,0.2,0,0.5,0,0.7v0.1
	C1473.7,935.1,1473.7,934.9,1473.7,934.6C1473.8,934.6,1473.7,934.6,1473.7,934.6z M1472.4,955.5c0-0.1,0-0.1,0-0.2
	C1472.4,955.3,1472.4,955.4,1472.4,955.5z M1557,969.2c0.1,0,0.2,0.1,0.3,0.1C1557.2,969.2,1557.1,969.2,1557,969.2z M1532.7,937.9
	l0.1-0.1C1532.8,937.8,1532.7,937.9,1532.7,937.9z M1511.7,1161c-0.1,0-0.1,0-0.2,0C1511.6,1161,1511.6,1161,1511.7,1161z
	 M1515.1,1160.4c0.1,0,0.1-0.1,0.2-0.1C1515.2,1160.3,1515.2,1160.4,1515.1,1160.4z M1515.8,1160.1c0.1,0,0.1-0.1,0.2-0.1
	C1515.9,1160.1,1515.9,1160.1,1515.8,1160.1z M1512.7,1160.9c-0.1,0-0.1,0-0.2,0C1512.6,1161,1512.6,1160.9,1512.7,1160.9z
	 M1510.4,1161.1h0.1C1510.5,1161.1,1510.5,1161.1,1510.4,1161.1z M1513.5,1160.8c0.1,0,0.1,0,0.2,0
	C1513.6,1160.8,1513.5,1160.8,1513.5,1160.8z M1508,1160.9L1508,1160.9L1508,1160.9z M1472.7,946.7c0-0.1,0-0.1,0-0.2
	C1472.7,946.6,1472.7,946.6,1472.7,946.7z M1506.6,1160.7L1506.6,1160.7L1506.6,1160.7z M1514.5,1160.6c-0.1,0-0.1,0-0.2,0.1
	C1514.4,1160.6,1514.5,1160.6,1514.5,1160.6z M1503.5,1160.1L1503.5,1160.1L1503.5,1160.1z M1534.5,936.8
	C1534.6,936.8,1534.6,936.8,1534.5,936.8C1534.6,936.8,1534.6,936.8,1534.5,936.8z M1534.6,936.7v-0.1
	C1534.6,936.6,1534.6,936.7,1534.6,936.7z M1534.6,936.8L1534.6,936.8L1534.6,936.8z M1534.4,936.9L1534.4,936.9L1534.4,936.9z
	 M1482.9,940.7C1483,940.7,1483,940.7,1482.9,940.7C1483,940.7,1483,940.7,1482.9,940.7z M1534.2,935.3c0.1,0.2,0.1,0.4,0.2,0.6
	c0.1,0.3,0.1,0.5,0.2,0.6C1534.5,936.3,1534.3,935.9,1534.2,935.3z M1533.1,937.7c0.1,0,0.1-0.1,0.1-0.1
	C1533.2,937.6,1533.1,937.6,1533.1,937.7z M1533.5,937.4c0,0-0.1,0-0.1,0.1C1533.5,937.4,1533.5,937.4,1533.5,937.4z M1533.8,937.2
	c0,0-0.1,0-0.1,0.1C1533.8,937.3,1533.8,937.2,1533.8,937.2z M1497.6,945.2L1497.6,945.2L1497.6,945.2z M1534.2,937
	C1534.2,937,1534.3,937,1534.2,937C1534.3,937,1534.2,937,1534.2,937z M1534,937.1c0,0,0.1,0,0.1-0.1
	C1534.1,937.1,1534,937.1,1534,937.1z M1491.1,943.9c-0.1,0-0.2,0-0.3-0.1C1491,943.8,1491.1,943.8,1491.1,943.9z M1493.6,944.5
	c0.1,0,0.2,0,0.2,0C1493.7,944.5,1493.6,944.5,1493.6,944.5z M1492.2,944.2c0.1,0,0.2,0,0.2,0.1
	C1492.4,944.2,1492.3,944.2,1492.2,944.2z M1495.1,944.8c-0.1,0-0.1,0-0.2,0C1495,944.8,1495,944.8,1495.1,944.8z M1496.4,945h-0.1
	C1496.3,945,1496.3,945,1496.4,945z M1485.7,942c-0.1,0-0.1-0.1-0.2-0.1C1485.6,941.9,1485.7,942,1485.7,942z M1486.9,942.4
	c0.1,0,0.2,0.1,0.2,0.1C1487,942.5,1486.9,942.5,1486.9,942.4z M1489.5,943.4c0.1,0,0.2,0.1,0.3,0.1
	C1489.7,943.5,1489.6,943.4,1489.5,943.4z M1484.4,941.4c-0.1,0-0.1-0.1-0.2-0.1C1484.3,941.3,1484.3,941.4,1484.4,941.4z
	 M1488.2,942.9c0.1,0,0.2,0.1,0.3,0.1C1488.4,943,1488.3,943,1488.2,942.9z M1532.1,922.8c0.1,0.6,0.1,1.1,0.2,1.6
	C1532.2,923.9,1532.1,923.4,1532.1,922.8z M1475.9,995.8L1475.9,995.8L1475.9,995.8z M1476.4,998.8c0-0.1,0-0.2-0.1-0.3
	C1476.4,998.6,1476.4,998.7,1476.4,998.8z M1474.1,981.9c0-0.1,0-0.2,0-0.3C1474,981.7,1474,981.8,1474.1,981.9z M1475.1,990.2
	c0,0.1,0,0.2,0,0.3C1475.1,990.4,1475.1,990.3,1475.1,990.2z M1474.4,984.8c0-0.1,0-0.2,0-0.4
	C1474.4,984.5,1474.4,984.6,1474.4,984.8z M1475.5,992.8c0,0.2,0,0.3,0.1,0.5C1475.5,993.1,1475.5,993,1475.5,992.8z M1478.6,1011.1
	c0,0.2,0.1,0.3,0.1,0.5C1478.7,1011.4,1478.7,1011.2,1478.6,1011.1z M1478.2,1008.7c0,0.2,0.1,0.4,0.1,0.6
	C1478.2,1009.1,1478.2,1008.9,1478.2,1008.7z M1477.7,1006.4c0,0.1,0,0.2,0.1,0.3C1477.8,1006.5,1477.8,1006.4,1477.7,1006.4z
	 M1479.2,1013.9v-0.1C1479.2,1013.8,1479.2,1013.9,1479.2,1013.9z M1476.9,1001.5c0-0.2-0.1-0.4-0.1-0.6
	C1476.8,1001.1,1476.8,1001.3,1476.9,1001.5z M1477.3,1003.9c0-0.1,0-0.3-0.1-0.4C1477.3,1003.7,1477.3,1003.8,1477.3,1003.9z
	 M566.9,832.5c0.1-0.1,0.2-0.2,0.4-0.3C567.2,832.3,567,832.4,566.9,832.5z M566,833.4c-0.1,0.1-0.3,0.2-0.4,0.4
	C565.7,833.6,565.9,833.5,566,833.4z M568.5,831c-0.1,0.1-0.2,0.2-0.2,0.2C568.3,831.1,568.4,831,568.5,831z M573.4,825.5
	L573.4,825.5L573.4,825.5z M564.7,834.5c-0.1,0.1-0.3,0.2-0.4,0.4C564.4,834.8,564.6,834.6,564.7,834.5z M563,835.9
	c0.1-0.1,0.3-0.2,0.4-0.3C563.3,835.7,563.1,835.8,563,835.9z M1472.8,967.1L1472.8,967.1L1472.8,967.1z M1473.2,972.9
	c0,0.1,0,0.2,0,0.2C1473.2,973.1,1473.2,973,1473.2,972.9z M1473.4,975.8c0,0.1,0,0.1,0,0.2C1473.4,975.9,1473.4,975.9,1473.4,975.8
	z M562.2,836.5c-0.1,0.1-0.3,0.2-0.4,0.3C561.9,836.7,562,836.6,562.2,836.5z M1472.6,964.3c0-0.1,0-0.1,0-0.2
	C1472.6,964.1,1472.6,964.2,1472.6,964.3z M1543.5,982.6c-0.1-0.3-0.1-0.5-0.2-0.9C1543.4,982,1543.5,982.3,1543.5,982.6z
	 M1563.6,1112.3C1563.6,1112.3,1563.6,1112.2,1563.6,1112.3C1563.6,1112.2,1563.6,1112.3,1563.6,1112.3z M1565,1113.4
	C1565,1113.4,1564.9,1113.3,1565,1113.4C1564.9,1113.3,1565,1113.4,1565,1113.4z M1565.1,1113.5
	C1565.1,1113.5,1565.1,1113.4,1565.1,1113.5C1565.1,1113.4,1565.1,1113.5,1565.1,1113.5z M1568.9,1111.9c-0.1,0-0.1,0.1-0.2,0.1
	C1568.8,1112,1568.9,1112,1568.9,1111.9z M1567.5,1112.6c0.1-0.1,0.2-0.1,0.4-0.2C1567.7,1112.5,1567.6,1112.6,1567.5,1112.6z
	 M574.5,824.2c0.1-0.1,0.2-0.2,0.3-0.3C574.7,823.9,574.6,824.1,574.5,824.2z M1544.3,983.7L1544.3,983.7L1544.3,983.7z
	 M1479.7,1016.5c0-0.2-0.1-0.3-0.1-0.5C1479.6,1016.1,1479.7,1016.3,1479.7,1016.5z M1566.3,1113.1c0.1,0,0.2-0.1,0.4-0.1
	C1566.5,1113,1566.4,1113,1566.3,1113.1z M974.2,693l69.4,39.9l43.7,25.1l19.9,11.5L974.2,693z M1578.7,1102.3
	C1578.7,1102.4,1578.7,1102.4,1578.7,1102.3C1578.7,1102.4,1578.7,1102.4,1578.7,1102.3z M1543.8,983c0,0.1,0.1,0.1,0.1,0.2
	C1543.8,983.2,1543.8,983.1,1543.8,983z M1576.3,1105.8c0-0.1,0.1-0.1,0.1-0.2C1576.4,1105.6,1576.4,1105.7,1576.3,1105.8z
	 M1577.1,1104.8c0,0.1-0.1,0.1-0.1,0.2C1577,1104.9,1577,1104.8,1577.1,1104.8z M1516.5,1159.8c0.1,0,0.1-0.1,0.2-0.1
	C1516.6,1159.8,1516.5,1159.8,1516.5,1159.8z M1480.1,1018.1c0,0.2,0.1,0.3,0.1,0.5C1480.1,1018.4,1480.1,1018.3,1480.1,1018.1z
	 M1577.6,1104L1577.6,1104L1577.6,1104z M1572,1110c0.1-0.1,0.2-0.1,0.3-0.2C1572.1,1109.9,1572,1109.9,1572,1110z M1573.1,1109.1
	l0.1-0.1L1573.1,1109.1z M1571.3,1110.5c-0.1,0.1-0.2,0.1-0.3,0.2C1571.1,1110.6,1571.2,1110.6,1571.3,1110.5z M1574.1,1108.1
	c-0.1,0.1-0.2,0.2-0.2,0.2C1574,1108.3,1574.1,1108.2,1574.1,1108.1z M1578.2,1103.2L1578.2,1103.2L1578.2,1103.2z M1574.7,1107.6
	c0.1-0.1,0.1-0.1,0.2-0.2C1574.9,1107.4,1574.8,1107.5,1574.7,1107.6z M1570.2,1111.2c-0.1,0.1-0.2,0.1-0.3,0.2
	C1570.1,1111.3,1570.2,1111.2,1570.2,1111.2z M985.5,1296.2c-0.6-0.4-1.5-0.7-2.4-0.7c-1,0-1.8,0.3-2.4,0.7c0.6-0.4,1.5-0.7,2.4-0.7
	C984,1295.6,984.9,1295.8,985.5,1296.2z M782.1,1061.9L782.1,1061.9l16.5-9.2l29.7,17.2l-29.7-17.2L782.1,1061.9z M983.1,1300.2
	c-1.4,0-2.6-0.6-3.2-1.4C980.4,1299.6,981.6,1300.2,983.1,1300.2c1.4,0,2.6-0.6,3.2-1.4C985.7,1299.6,984.5,1300.2,983.1,1300.2z
	 M1356.3,1220.9c-0.6-0.4-1.5-0.7-2.4-0.7s-1.8,0.3-2.4,0.7c0.6-0.4,1.5-0.7,2.4-0.7S1355.7,1220.4,1356.3,1220.9z M635.5,769.3
	l1.6-0.9l-24,13.9L635.5,769.3z M782.3,1067.2L782.3,1067.2l-0.1-2.7L782.3,1067.2z M1353.9,1224.8c-1.4,0-2.6-0.6-3.2-1.4
	C1351.2,1224.2,1352.5,1224.8,1353.9,1224.8s2.6-0.6,3.2-1.4C1356.5,1224.2,1355.3,1224.8,1353.9,1224.8z M1356.3,1220.9
	c0.3,0.2,0.6,0.5,0.7,0.7C1356.9,1221.3,1356.6,1221.1,1356.3,1220.9z M1105.4,1367.2c0,1-0.9,1.8-2.1,2.1
	C1104.5,1368.9,1105.4,1368.1,1105.4,1367.2c0-0.5-0.2-0.9-0.6-1.3C1105.2,1366.3,1105.4,1366.7,1105.4,1367.2z M1098.5,1367.2
	c0-0.5,0.2-0.9,0.6-1.3C1098.7,1366.3,1098.5,1366.7,1098.5,1367.2c0,1,0.9,1.8,2.1,2.1C1099.4,1368.9,1098.5,1368.1,1098.5,1367.2z
	 M766.7,732.1l-37-19.2l0,0L766.7,732.1z M594.1,795c-0.1,0.2-0.3,0.5-0.4,0.8C593.8,795.5,593.9,795.2,594.1,795z M594.8,793.7
	c-0.2,0.3-0.3,0.5-0.5,0.8C594.5,794.2,594.7,794,594.8,793.7z M595.6,792.3c-0.2,0.3-0.4,0.7-0.6,1.1
	C595.3,793,595.5,792.6,595.6,792.3L595.6,792.3z M588.4,794.6L588.4,794.6l1.7,1L588.4,794.6z M466.1,877.1L466.1,877.1
	L466.1,877.1C466.1,877.2,466.1,877.1,466.1,877.1z M635.4,767.4l1.7,1L635.4,767.4L635.4,767.4z M590.2,801.4
	c0.1-0.2,0.3-0.5,0.4-0.7C590.5,801,590.4,801.2,590.2,801.4z M593.3,796.3c-0.1,0.2-0.3,0.5-0.4,0.7
	C593,796.8,593.2,796.6,593.3,796.3z M591.6,799.2c-0.1,0.2-0.3,0.5-0.4,0.7C591.3,799.7,591.5,799.4,591.6,799.2z M592.1,798.5
	c0.1-0.2,0.3-0.5,0.4-0.7C592.3,798,592.2,798.2,592.1,798.5z M578.3,819.3c0.1-0.2,0.3-0.4,0.4-0.5
	C578.5,818.9,578.4,819.1,578.3,819.3z M587.6,805.6c-0.1,0.2-0.2,0.3-0.3,0.5C587.4,805.9,587.5,805.8,587.6,805.6z M589.7,802.3
	c-0.1,0.2-0.3,0.4-0.4,0.7C589.4,802.7,589.6,802.5,589.7,802.3z M588.7,803.9c-0.1,0.2-0.3,0.4-0.4,0.6
	C588.4,804.4,588.6,804.1,588.7,803.9z M492.8,1044.8c0,0.1,0,0.2,0,0.3C492.8,1044.9,492.8,1044.9,492.8,1044.8z M492.8,1045.6
	c0,0.1,0,0.2,0,0.3C492.8,1045.8,492.8,1045.7,492.8,1045.6z M492.7,1046.3c0,0.2,0,0.4,0,0.5
	C492.7,1046.7,492.7,1046.5,492.7,1046.3z M582.3,813.6c-0.1,0.2-0.2,0.3-0.3,0.5C582.1,813.9,582.2,813.8,582.3,813.6z
	 M576.1,822.2c-0.1,0.1-0.2,0.3-0.3,0.4C575.8,822.5,575.9,822.3,576.1,822.2z M577,821c0.1-0.2,0.3-0.3,0.4-0.5
	C577.2,820.7,577.1,820.8,577,821z M581.1,815.3c-0.1,0.2-0.3,0.4-0.4,0.5C580.9,815.7,581,815.5,581.1,815.3z M579.9,817
	c-0.1,0.2-0.3,0.4-0.4,0.5C579.6,817.4,579.8,817.2,579.9,817z M583.2,812.3c0.1-0.1,0.2-0.3,0.3-0.4
	C583.4,812.1,583.3,812.2,583.2,812.3z M465.9,871.5c0-0.1,0-0.1,0-0.2C465.9,871.4,465.9,871.4,465.9,871.5z M492.7,1047.7
	c0,0,0-0.1,0-0.2C492.7,1047.6,492.7,1047.6,492.7,1047.7z M492.6,1047.7C492.6,1047.8,492.6,1047.8,492.6,1047.7
	C492.6,1047.8,492.6,1047.8,492.6,1047.7z M466,872.9c0-0.1,0-0.1,0-0.2C466,872.8,466,872.8,466,872.9z M492.7,1047.4
	c0-0.1,0-0.2,0-0.2C492.7,1047.2,492.7,1047.3,492.7,1047.4z M1861.2,1101.5L1041,1575l-902.2-520.9l322.2-186l4.9,1.8l-4.6-1.7
	c-1.6,4.6-4.5,13.1-3.6,17.8c0.6,3.4,5.4,7.8,9.4,10.5l-1-19.4l9.5,174.7v-0.1c-0.8,6.7-1.8,15.4-1.6,16.2c0.3,1.4,5.1,3.4,13.1,2
	s18.2-19,19.6-23c1-2.9-8.6-3.1-13.8-3l0,0c1-23,5-145.7,7.4-143c2.6,3,16.1,170,16.3,172.8c0,0,0-0.1,0-0.3
	c-0.4,4.1-1.6,15.9,0.1,16.6c2,0.9,32.4,4,41.5-6.8s-23.3-11.1-23.3-11.1s-0.5-0.5-1.2-1.1l8.9-190.6c0,0-0.1-18.9-0.4-43
	c3.8,2.5,8.8,3.7,15.1,1.5c1.2-0.4,2.4-1,3.6-1.8l-0.1,0.1v6.1l109.5,63.4v1.5l54.1,29.6l-5.5-3l9.2,5.3l0.3-0.2l-0.2-0.1l0.4,0.2
	l10.4-6.6L858.5,861V741.2L784.1,699v-17.5l138.5-80v265.2l51.5,29.8V895l47.5-28.7v6.3l44.4,24.2l41.2-24.5v0.5l2.9-1.2v-1
	l35.8-21.2v-57.6l143.7,82.6l-0.9,204.4l51.1,29.6l141.3-85.5v-0.1c2.5,11.6,4.6,19.6,4.6,21.3c0,5.1,10.6,10.6,10.6,10.6
	c-1.4,4.4,0.3,103.5,0.3,103.5c0.5,0.2,1,0.3,1.5,0.5l0,0c0,0.8,0,1.4,0,1.6c0,0.8-0.2,1.6-0.5,2.4c-0.2,0-0.4,0-0.5,0l0,0
	c-0.1,0-0.2,0-0.3,0.1c-0.1,0-0.2,0.1-0.3,0.1h-0.1c-0.2,0.1-0.5,0.3-0.8,0.5l0,0l0,0c-1.5,1.1-3.7,3.4-6,6.2l0,0
	c-0.2,0.3-0.5,0.6-0.7,0.9l0,0c-1.1,1.4-2.3,2.8-3.5,4.2c-0.2,0.2-0.3,0.4-0.5,0.6l0,0c-0.1,0.1-0.2,0.2-0.3,0.3
	c-0.5,0.6-1,1.2-1.5,1.8l0,0c-0.5,0.6-1,1.1-1.4,1.7c-1.2,1.4-2.4,2.7-3.4,3.7c-0.1,0.1-0.3,0.3-0.4,0.4c-5.9,5.7-15.3,6.7-11.3,15
	c3.9,8.3,17.1,6.8,21.4,7.3s15.7-13.3,23.9-16.2c8.2-2.9,9.3-4.5,9.3-4.5c4.4-16.5-0.4-21.7-3.2-23.3c-0.3-0.7-0.5-1.4-0.7-1.9l0,0
	c3-1.9,3-4.9,3-4.9s7.7-36.2,8.7-74.7c7.4,10,27.9,26.8,34.3,32c1.1,1.2,1.8,2.2,2,2.8c0.2,0.7,0.4,1.6,0.6,2.7c0,0,0,0-0.1,0
	c0,0-0.4,0.4-0.9,1.3c-0.6,0.9-1.2,2.5-1.8,4.8c-0.1,0.5-0.2,0.9-0.3,1.4l0,0c0,0.1,0,0.3-0.1,0.4c0,0.2-0.1,0.3-0.1,0.5
	c0,0.1,0,0.3-0.1,0.4c0,0.2,0,0.4-0.1,0.6c0,0.3-0.1,0.7-0.1,1v0.1c0,0,0,0,0,0.1l0,0c-0.1,1.2-0.1,2.4-0.1,3.8l0,0
	c0,0.8,0,1.5,0.1,2.4c0,0.4,0,0.8,0,1.1c0,0.1,0,0.2,0,0.3c0,0.2,0,0.5,0,0.7c0,0.1,0,0.3,0,0.4c0,0.2,0,0.5-0.1,0.7
	c0,0.1,0,0.1,0,0.2c-0.1,0.6-0.2,1.3-0.4,1.9l0,0c-0.2,0.6-0.3,1.1-0.6,1.6c0,0.1-0.1,0.2-0.1,0.3c0,0.1-0.1,0.2-0.1,0.3
	c-0.1,0.2-0.2,0.3-0.2,0.5c-0.1,0.1-0.1,0.2-0.2,0.3c-0.1,0.2-0.2,0.4-0.3,0.6c-0.1,0.1-0.1,0.2-0.2,0.3c-0.1,0.2-0.3,0.4-0.4,0.7
	c-0.1,0.1-0.1,0.2-0.2,0.3c-0.1,0.1-0.2,0.3-0.3,0.4c-0.1,0.1-0.2,0.2-0.2,0.4c-0.1,0.1-0.2,0.2-0.2,0.3c-0.1,0.1-0.2,0.2-0.3,0.4
	c-0.1,0.1-0.1,0.2-0.2,0.3c-0.1,0.1-0.2,0.3-0.3,0.4c-3.5,4.6-7.7,7.9-5.9,12.7c3.1,8.1,4.7,12.1,20,8.2s13.9-23,19.1-29.9
	s9.4-11,9.5-15.4c0.1-4.2-5.5-16.5-13-16.6l0,0c-1.9-1.1-3.7-1.8-5-2.2c-0.8-0.3-2.1-0.9-3.6-1.8c1.2-2.1,1.8-3.7,1.8-3.7
	c-7.4-1.3-46.3-58.2-54.6-64.6c-2.1-27.3,4.7-10.2,9.5-37.1c0.4-2.4,0.8-4.9,1.1-7.3l7.9-4.8l0,0c2.5,1.4,7.4-0.5,7.4-0.5
	c-0.5,7.6-6.6,11.3-5.4,15.2s6.4-2.8,6.4-2.8c-0.8,5.8,4,0,4,0c0.5,6.3,3.7-2,3.7-2c-0.4,3.3,0.7,3,0.7,3c4.3-3.3,5.2-18.2,5.3-26.7
	l0,0c0,0.1,0,0.2,0,0.4l1.4-0.8l0,0c0.3-0.2,0.7-0.3,1-0.6l0,0l30.8-18.6L1861.2,1101.5z M1205.9,949.6l65.6-37.9l-65.6-37.8V949.6z
	 M1009,987.5l65.6,37.6l131.3-75.6v-75.6L1009,987.5z M893.5,1046l18.1,10.4l30.9-17.8l-24.5,13.5l24.5-13.5l12.4-7.1l-25-14.4
	l-36.4,20V1046z M927.6,1284.6l262.4-151.4v-10.6l-196.8-113.3l-130.6,75.3l-52.1-29.7l0.8-0.5c1.5-0.9,2.5-2.5,2.5-4.2v-11.9
	c0-3.7-4-6.1-7.3-4.2l-66.2,37.5c-1.5,0.9-2.5,2.5-2.5,4.2v12.2c0,3.7,4,6.1,7.3,4.2l12.4-7.1l-10-6l61.2,36.5l3.1-1.8l-81.2,46.8
	v10.6L927.6,1284.6z M1365.2,1222.9l-130.8-75.9l-262.6,151.3l131,76L1365.2,1222.9z M466,874.1c0,0,0-0.1,0-0.2
	C466,874,466,874,466,874.1z"></path>
<path id="color_x5F_3" fill="#e64980" d="M635.5,769.3l34.7,19.9v117.7l-109.5-63.4v-6.1c12.9-8,29.1-35,34.9-45.1L635.5,769.3z
	 M728,940.3V940l-9.2-5L728,940.3z M604.1,751.2l-43.3-24.9v49.9L604.1,751.2z M575.4,787.1l-14.6-8.4v22.6L575.4,787.1z
	 M1074.6,1025.1l131.3-75.6v-75.6L1009,987.5L1074.6,1025.1z M1114.5,797.1v23.5l5-1.7V795L1114.5,797.1z M1107.2,872.8l2.9-1.2
	V771.2l-2.9-1.7V872.8z M1021.6,746.6v125.9l44.4,24.2l0.3-126L1021.6,746.6z M922.7,574.4v292.4l51.5,29.8V693l133.1,76.5l0,0
	l2.9,1.7l0,0l179.5,103.1l-0.9,204.4l51.1,29.6l1.3-293.4L922.7,574.4z M1095.8,808.6v23.5l5-1.7v-23.9L1095.8,808.6z"></path>
<path id="color_x5F_2" fill="#FBC02D" d="M761.6,771.4l-33.1,46.9v122.1l-58.3-31.9V782.1l31.9-46.5L761.6,771.4z M747.6,1075.1
	l49.4-28l65.7,37.5l-50.4,29L747.6,1075.1z M782.1,1061.9l0.2,5.4l-19.8,11l25.7,14.6l40.2-23l-29.7-17.2L782.1,1061.9z
	 M942.5,1038.6l12.4-7.1l-25-14.4l-36.4,20L918,1052L942.5,1038.6z M766.7,732.1L629.9,661c-3.9-2.1-6.4-6.1-6.4-10.6V483.3
	c0-9.2,10-15,18-10.3l136.8,80.5c3.6,2.1,5.9,6.1,5.9,10.3v157.8C784.1,730.5,774.7,736.3,766.7,732.1z M741.3,660.1l-41.6-120
	c-2-5.6-9.6-6.4-12.6-1.2l-41.6,72c-1.9,3.3-0.8,7.6,2.6,9.5l83.1,48C736.8,671.6,743.4,666.2,741.3,660.1z M927.6,1274
	l-196.9-113.3v10.6l196.9,113.3l262.4-151.4v-10.6L927.6,1274z M1520.9,1184.7c0,0-1,1.6-9.3,4.5c-8.2,2.9-19.7,16.7-23.9,16.2
	c-4.3-0.5-17.5,1-21.4-7.3s5.4-9.4,11.3-15c0.1-0.1,0.3-0.3,0.4-0.4c1-1,2.2-2.3,3.4-3.7c0.5-0.5,1-1.1,1.4-1.7l0,0
	c0.5-0.6,1-1.2,1.5-1.8c0.1-0.1,0.2-0.2,0.3-0.3l0,0c0.2-0.2,0.3-0.4,0.5-0.6c1.2-1.4,2.4-2.9,3.5-4.2l0,0c0.3-0.3,0.5-0.6,0.7-0.9
	l0,0c2.3-2.8,4.5-5.1,6-6.2l0,0l0,0c0.3-0.2,0.5-0.4,0.8-0.5h0.1c0.1,0,0.2-0.1,0.3-0.1c0.1,0,0.2,0,0.3-0.1l0,0l0,0l0,0
	c0.2,0,0.4,0,0.6,0h0.1c0.1,0,0.3,0.1,0.4,0.1h0.1c0.1,0.1,0.3,0.1,0.4,0.2c0,0,0,0,0.1,0c2.2,1.1,4.2,4.1,7.3,4.1l0,0
	c0.1,0,0.1,0,0.2,0c4-0.2,9.8-2.7,9.8-6.2C1516.1,1160.8,1526.8,1162.4,1520.9,1184.7z M1586.7,1105.7c0,0-2,5.6-8.5,9
	c-0.8,0.4-1.6,0.8-2.5,1.1h-0.1c-0.4,0.1-0.8,0.3-1.2,0.4c-0.1,0-0.2,0.1-0.3,0.1c-0.4,0.1-0.8,0.2-1.3,0.3c-0.1,0-0.1,0-0.2,0
	c-0.5,0.1-1,0.2-1.5,0.3c-0.1,0-0.2,0-0.2,0c-0.4,0.1-0.9,0.1-1.3,0.2c-0.2,0-0.3,0-0.5,0c-0.4,0-0.8,0.1-1.2,0.1
	c-0.2,0-0.3,0-0.5,0c-0.6,0-1.2,0-1.8,0c0,0-0.4,0.4-0.9,1.3c-0.6,0.9-1.2,2.5-1.8,4.8c-0.1,0.5-0.2,0.9-0.3,1.4l0,0
	c0,0.1,0,0.3-0.1,0.4c0,0.2-0.1,0.3-0.1,0.5c0,0.1,0,0.3-0.1,0.4c0,0.2,0,0.4-0.1,0.6c0,0.3-0.1,0.7-0.1,1v0.1c0,0,0,0,0,0.1l0,0
	c-0.1,1.2-0.1,2.4-0.1,3.8l0,0c0,0.8,0,1.5,0.1,2.4c0,0.4,0,0.8,0,1.1c0,0.1,0,0.2,0,0.3c0,0.2,0,0.5,0,0.7c0,0.1,0,0.3,0,0.4
	c0,0.2,0,0.5-0.1,0.7c0,0.1,0,0.1,0,0.2c-0.1,0.6-0.2,1.3-0.4,1.9l0,0c-0.2,0.6-0.3,1.1-0.6,1.6c0,0.1-0.1,0.2-0.1,0.3
	c0,0.1-0.1,0.2-0.1,0.3c-0.1,0.2-0.2,0.3-0.2,0.5c-0.1,0.1-0.1,0.2-0.2,0.3c-0.1,0.2-0.2,0.4-0.3,0.6c-0.1,0.1-0.1,0.2-0.2,0.3
	c-0.1,0.2-0.3,0.4-0.4,0.7c-0.1,0.1-0.1,0.2-0.2,0.3c-0.1,0.1-0.2,0.3-0.3,0.4c-0.1,0.1-0.2,0.2-0.2,0.4c-0.1,0.1-0.2,0.2-0.2,0.3
	c-0.1,0.1-0.2,0.2-0.3,0.4c-0.1,0.1-0.1,0.2-0.2,0.3c-0.1,0.1-0.2,0.3-0.3,0.4c-3.5,4.6-7.7,7.9-5.9,12.7c3.1,8.1,4.7,12.1,20,8.2
	s13.9-23,19.1-29.9s9.4-11,9.5-15.4C1600.8,1117.9,1594.7,1104.7,1586.7,1105.7z M1574.8,909l-1.7,54c0,0-1.1,0.9-3,1.6l-0.9,4.7
	c-4.2,3.2-13.3-0.6-13.3-0.6v-5.1c-0.4-0.2-0.9-0.5-1.3-0.7l-3.7-33.5l0.1-21.5c0,0-4.3-18.1-12.1-29.5c0,0-6.6,12.1-7.3,29.6
	c-0.7,17.5,2.9,28.6,2.9,28.6s-36.6,23.3-65.1-6.1c0,0,1.8-7.2,4-16.8l-14.1,15.9l0.1,0.1l-0.6,0.5l-2.6,2.9
	c-0.2-0.1-0.4-0.2-0.6-0.3l-4.3,3.6c-4.9-2-9.6-9.2-9.6-9.2l2.6-4.3c-0.9-1.7-1.1-2.8-1.1-2.8s18.7-29.7,23.9-35.5
	s6.7-18.7,6.7-18.7c-0.9-31.2,2.7-43.6,5.4-48.5c0,0,0,0,0,0.1c0.2-2,0.6-3.5,1.1-4.2c1.5-2,2.6-2.9,3.3-3.3
	c2.4,4.1,6.2,6.6,11.7,6.2c1.8-0.1,3.5-0.5,5.2-1.1l0.7,4.5l-3.4,1.4l0,0l3.4-1.4l-0.6,8.8c1.9,0.9,4.3,1.7,7.3,2.2
	c0-4.9,0.1-11.1,0.1-11.1c10.6-3.3,12.3-8.9,12.3-8.9l1.3,7.1l-2.1,5.1c0.9-1.6,1.6-3.3,2.1-5.1c0,0,6.7,9.4,18.3,13.9
	s14.9,16.8,14.9,16.8L1574.8,909z M1496.7,825.9v-2.6C1496.6,824.1,1496.6,825,1496.7,825.9z M1496.9,828c-0.1-0.7-0.2-1.4-0.2-2.2
	C1496.7,826.6,1496.8,827.4,1496.9,828z M1512.1,831c0.5-0.3,1-0.7,1.5-1.1C1513.1,830.3,1512.6,830.7,1512.1,831L1512.1,831z
	 M1508.1,833.2c-0.1,0.1-0.3,0.1-0.4,0.2C1507.8,833.3,1507.9,833.3,1508.1,833.2L1508.1,833.2z M1508.3,833.1c0,0-0.1,0-0.1,0.1
	c0,0,0,0-0.1,0C1508.2,833.2,1508.2,833.1,1508.3,833.1z M1509.9,832.4C1509.9,832.4,1509.8,832.4,1509.9,832.4
	c-0.2,0.1-0.3,0.2-0.4,0.2C1509.6,832.5,1509.7,832.5,1509.9,832.4z M1510.2,832.2c-0.1,0-0.1,0.1-0.2,0.1c0,0,0,0-0.1,0
	C1510,832.3,1510.1,832.3,1510.2,832.2z M1511.7,831.3C1511.7,831.3,1511.6,831.4,1511.7,831.3c-0.2,0.1-0.3,0.2-0.4,0.3
	C1511.4,831.5,1511.5,831.4,1511.7,831.3z M1511.7,831.3L1511.7,831.3L1511.7,831.3L1511.7,831.3z M558.1,1083.4
	c-9.1,10.8-39.5,7.7-41.5,6.8c-1.7-0.7-0.5-12.5-0.1-16.6c0,0.2,0,0.3,0,0.3c10.2,6.4,17.1-2.3,17.1-2.3v-0.5
	c0.7,0.6,1.2,1.1,1.2,1.1S567.2,1072.6,558.1,1083.4z M492.8,1044c-0.1,2.5-0.2,3.8-0.2,3.7c-0.4-1.1-10.6,12.5-17.1,4.2v-0.1
	c-0.8,6.7-1.8,15.4-1.6,16.2c0.3,1.4,5.1,3.4,13.1,2s18.2-19,19.6-23C507.7,1044.1,498.1,1043.9,492.8,1044z M590.1,795.5l-14.7-8.5
	l-17,16.5c2.3-56.1-19.3-65.6-20.1-66l-0.2,0.2c-3.8-6.6-13.7-9.9-13.7-9.9s-0.8-3.1-1.6-6.4l-18.8-3.1v4.6c0,0-9.1-7.2-22.5,1.5
	l0,0c-2.2,1.5-13.9,1.2-16,32.7s-6.7,110.3-6.7,110.3l7,2.6c0.1,4.6,0.2,7.3,0.2,7.3l0.3,5.2c19.5,3.4,49.8,6.2,76.1,0.2l0.1-2
	c0,0-0.1-18.9-0.4-43c3.8,2.5,8.8,3.7,15.1,1.5c13.4-4.7,32-35.8,38.4-46.9L590.1,795.5z"></path>
<path id="color_x5F_1" fill="#4c6ef5" d="M1861.2,1101.5v57.4L1041,1632.4l-902.2-520.9v-57.4L1041,1575L1861.2,1101.5z
	 M747.6,1079.1v-4l49.4-28l13.6,7.8l0.8-0.5c1.5-0.9,2.5-2.5,2.5-4.2v-11.9c0-3.7-4-6.1-7.3-4.2l-66.2,37.5
	c-1.5,0.9-2.5,2.5-2.5,4.2v12.2c0,3.7,4,6.1,7.3,4.2l12.4-7.1L747.6,1079.1z M993.3,1009.4l-262.5,151.3L927.6,1274l262.4-151.4
	L993.3,1009.4z M758.7,1160.2L993,1021.4l167.2,101.3l-232.5,133.4L758.7,1160.2z M1234.5,1147l-262.6,151.3l131,76l262.4-151.3
	L1234.5,1147z M983.1,1300.2c-1.9,0-3.4-1-3.4-2.3s1.5-2.3,3.4-2.3s3.4,1,3.4,2.3C986.5,1299.1,985,1300.2,983.1,1300.2z
	 M1101.9,1369.5c-1.9,0-3.4-1-3.4-2.3s1.5-2.3,3.4-2.3s3.4,1,3.4,2.3C1105.4,1368.4,1103.8,1369.5,1101.9,1369.5z M1235,1155.6
	c-1.9,0-3.4-1-3.4-2.3s1.5-2.3,3.4-2.3s3.4,1,3.4,2.3S1236.9,1155.6,1235,1155.6z M1353.9,1224.8c-1.9,0-3.4-1-3.4-2.3
	s1.5-2.3,3.4-2.3s3.4,1,3.4,2.3S1355.8,1224.8,1353.9,1224.8z M739.9,822.6l-0.4,110.7l-11,7v-122l33.1-46.9c0,0,1.2,19.3,0,20.9
	L739.9,822.6z M681.5,626.6v-16.7l16.4,9.5v16.7L681.5,626.6z M697.5,619.6l-15.4-8.9v15.5l15.4,8.9V619.6 M682,626.3v-15.5
	l15.4,8.9v15.5L682,626.3z M681.6,575.3v-14.7l16.5,9.5v14.7l-3.3,28l-10.1-5.8L681.6,575.3z M698.7,585.2l-3.3,28.6l-11-6.3
	l-3.2-32.4v-15.3l17.5,10.1V585.2z M684.8,607.1l10.1,5.8l3.3-28v-14.7l-16.5-9.5v14.7L684.8,607.1 M1526.3,1033.4
	c-2.1-27.3,4.7-10.2,9.5-37.1c5.4-30.3-0.3-60.9-0.3-60.9c-0.4,0.2-0.8,0.4-1.2,0.6c0.2,0.5,0.2,0.8,0.2,0.8s-33.1,21.1-60.8-2.2
	c-6.4,44.9,11.9,104.3,11.9,109.3c0,5.1,10.6,10.6,10.6,10.6c-1.4,4.4,0.3,103.5,0.3,103.5c23.2,8.5,23.5-3.4,23.5-3.4
	s7.7-36.2,8.7-74.7c8.8,11.9,36.3,33.5,36.3,33.5c11.2-3.1,15.9-15.5,15.9-15.5C1573.6,1096.6,1534.7,1039.7,1526.3,1033.4z
	 M1484.5,760.6c0,0,7.5-10.9,21.7-8.2s21.5,6.1,21.5,6.1s4.9,1.1,6.8-0.6c1.9-1.7-1.7,6.7-4.1,6.5c0,0,3.4,15.4-2.8,19.4
	c0,0-5.2,1.5-5.9,0c-0.7-1.5,0.9,6.2-4,11.5c0,0-0.2-11.8-2-14.3c0,0-11.8,4.8-16.6,0.2c-4.8-4.5-9.5-10.3-9.5-10.3
	s-9.2,11.4-10.1,17.1C1479.4,788.1,1475.8,770.2,1484.5,760.6z M558.7,777.4l31.4,18.1l47.1-27.2l-31.4-18.1L558.7,777.4z
	 M466.1,877.2c0,0,0,0,0-0.1C466.1,877.2,466.1,877.2,466.1,877.2z M542.5,880.6L542.5,880.6L542.5,880.6z M466.4,882.4l-0.3-5.2
	l9.5,174.7c6.4,8.3,16.7-5.3,17.1-4.2s4.9-149.7,7.6-146.7s16.3,172.8,16.3,172.8c10.2,6.4,17.1-2.3,17.1-2.3l9-191l-0.1,2
	C516.2,888.6,485.9,885.7,466.4,882.4z M494.8,702.4c-5.7-0.1-5.2-5.2-7.5-10.9c-2.3-5.8-1.8-6.7,1.1-19.5s21.5-12.6,21.5-12.6
	s12.8-10.6,23.9-1.3c11.1,9.4,2.5,21.6,2.5,21.6c0.4,3.7-9.6,6.2-14.8,8.2s-1.6,13.8-1.6,13.8H517l-0.1-4.1c0,0,1.5-4.5-7-8.8
	s-0.7,9.7-0.7,9.7C507.1,705.7,500.5,702.5,494.8,702.4z M543.9,703.9c-1.8,3.4-3.2-0.9-4.5,0.8s-3-0.1-2.3-4.6s6.9-3.1,6.9-3.1
	S545.7,700.5,543.9,703.9z"></path>
</svg>