<?xml version="1.0" standalone="no"?>
<svg version="1.1" id="Layer_1_1_" xmlns="http://www.w3.org/2000/svg" xmlns:xlink="http://www.w3.org/1999/xlink" x="0px" y="0px" viewBox="0 0 2000 2000" enable-background="new 0 0 2000 2000" xml:space="preserve">
<path id="color_x5F_8" fill="#E5E7EA" d="M1615.6,1138.3L1615.6,1138.3c0,0.1,0,0.1,0,0.2s0,0.1,0,0.2s0,0.1,0,0.2s0,0.1,0,0.2v0.1
	l0,0v0.1c0,0.1,0,0.1-0.1,0.2c0,0.1,0,0.1-0.1,0.2c0,0.1-0.1,0.1-0.1,0.2l0,0l0,0c0,0.1-0.1,0.2-0.1,0.3c0,0.1-0.1,0.1-0.1,0.2
	l-0.1,0.1c-0.1,0.1-0.3,0.3-0.4,0.4l-9.9,5.7l-0.5,190.4c0,0,0,0,0,0.1c0,0.4,0,0.8,0,1.2v0.1c0,0.1,0,0.3,0,0.4c0,0.2,0,0.5,0,0.7
	c0,0.1,0,0.1,0,0.2c0,0.2,0,0.4-0.1,0.5c0,0.2,0,0.3-0.1,0.5c0,0.1,0,0.2,0,0.3c0,0.2-0.1,0.4-0.1,0.6c0,0.1,0,0.3-0.1,0.4
	c0,0.1,0,0.2-0.1,0.3c0,0.2-0.1,0.4-0.1,0.6c0,0.1,0,0.2-0.1,0.3c0,0.1-0.1,0.2-0.1,0.3c-0.1,0.2-0.1,0.5-0.2,0.7
	c0,0.1-0.1,0.2-0.1,0.3c0,0.1,0,0.1-0.1,0.2c-0.1,0.3-0.2,0.6-0.3,0.8c0,0.1-0.1,0.2-0.1,0.3v0.1c-0.2,0.5-0.4,0.9-0.6,1.3l0,0v0.1
	c-0.3,0.6-0.6,1.1-0.9,1.6v0.1l0,0c-0.3,0.4-0.5,0.8-0.8,1.2c-0.1,0.1-0.1,0.2-0.2,0.3c-0.3,0.3-0.6,0.7-0.9,1c0,0,0,0-0.1,0.1
	c-0.3,0.3-0.7,0.6-1,0.9c-0.1,0.1-0.2,0.1-0.3,0.2c-0.4,0.3-0.7,0.5-1.1,0.8l-14.1,8.2l0.1-0.1l0,0c-4.7,2.8-11.2,2.4-18.4-1.7
	c-14.2-8.2-25.7-28.1-25.7-44.5l0.6-200.5l-7-4.1c-2.2-1.2-3.9-4.3-3.9-6.8l0.1-32.8l-322.2-186c5.1,6.3,9.9,12.7,10.6,15.2
	c1.5,5.5,15.1,22.7,15.1,22.7s12.2,2.6,14.1,1.9c1.9-0.6,1.2,5.1-8.1,3.9c0,0,11.5,11.1,15,12.4c3.5,1.3,0.9,2.7-4.3,1.4
	c0,0,4.2,4.5,2.4,4.5s-7.3-2.8-7.3-2.8s4.8,6.1,2.8,5.7c-2-0.4-5.1-3.3-5.1-3.3s3,4.4,1.3,4.9s-8.1-7.9-8.1-7.9
	s-11.2-11.2-11.4-14.1c-0.1-2-15.3-17.1-25.1-26.6l-1.7-6.3l0,0l0,0l0,0l5.5,20.9c0,0-0.4,0.7-1.2,1.7l0,0
	c1.4,9.6,1.2,19.5,1.2,19.5h-0.1l-0.2-0.9l0,0l15.4,58.3c0,0-6.4,6.9-18.8,12c-2.6,1.1-4.8,1-6.7,0.2c0,0,0.1,0,0.1,0.1
	c-1.6,6.2-3.5,11.4-5.5,14.8c-3.9,6.4-6.9,9.7-9.1,11.5c-0.1,5.7-0.2,10.1-0.2,10.1l1,50.8c0,0,0.7,41.4,0.6,43.8s2.1,4.6,2.3,7
	c0.2,2.4,20.1,19.1,22.6,21.9c2.6,2.8,0.4,7.4,0.4,7.4s-11.4,7.1-21.4-2.3s-14.2-8.7-20.2-10.8c-5.9-2.2-5.5-5.5-5.5-9.8
	s3.3-13,4.3-15.7s-0.7-11.9-0.7-11.9c1-5.9-7.1-37.3-8.7-41.9c-0.9-2.7-1.1-12.6-0.3-21.8c-9,10.4-34.9,30.8-36.3,35.1
	c-1.7,5.1-0.6,20.3,4.7,27.6c5.4,7.3,4.9,15.6,4.9,15.6c-21.2,5.6-27.8-16.7-30.4-23.3c-2.6-6.6-6.9-1.3-9.4-12.4
	c-2.6-11.1,13.7-13.3,18-14.8s14.8-15,20.6-29.1c5.8-14.1,14.4-20.1,24-27.2c4.9-3.6,7.3-7.7,8.6-11c-0.1-1.1-0.2-1.7-0.2-1.7
	s-0.5-2.6-1.4-6.9c-12.1,6.7-16.8,3.9-16.8,3.9s4.3-9-1.7-34.3c-0.8-3.4-1.3-6.6-1.5-9.7l0,0c-2.3,1.5-7.1-0.4-7.1-0.4
	c0.4,7.2,6.3,10.7,5.1,14.3c-1.2,3.7-6.1-2.7-6.1-2.7c0.7,5.5-3.8,0-3.8,0c-0.5,5.9-3.5-1.8-3.5-1.8c0.4,3.1-0.7,2.9-0.7,2.9
	c-5.8-4.5-5-31-5-31s-8.4-50.8-4.8-54.6c1.5-1.6,5.4-11.4,9.6-22.9l0,0c-4.3-2.9-8-6.3-8.1-9.4c0,0,5.1-3,7-5.6
	c1.6-2.3,10.8-17.9,12.6-21L948.8,736.7l-38.5,22.2l172.1,99.4v50.2l-391.4,226L475.4,1010l-369.5,213.3l927.1,535.3l331.6-191.5
	c-2.2-26.8-17.6-209.1-20.7-212.6c-3-3.4-7.5,149.8-8.7,178.6c6.5-0.2,18.5,0,17.2,3.7c-1.8,5-14.5,27-24.4,28.8s-16-0.7-16.3-2.4
	c-0.2-1.1,1-11.9,1.9-20.3v0.1l-12.4-217.8v-0.5v0.5l1.4,23.7c-4.9-3.3-10.9-8.8-11.8-13.1c-1.1-6,2.4-16.5,4.4-22.3l5.7,2.1
	l-8.8-3.2c0,0,5.4-98.5,8-137.8s17.2-38.9,19.9-40.9l0,0c16.6-10.9,28.1-1.9,28.1-1.9v-5.7l19.3,3.1l-19.3-3.1v-5.4
	c-3-1.3-5.1-2.6-5.8-4c-1-2.2-3.4-6-5.8-10.4l0,0c-7.1-0.1-6.5-6.4-9.4-13.6s-2.3-8.3,1.3-24.3c3.6-16,26.8-15.8,26.8-15.8
	s16-13.3,29.8-1.7c13.9,11.7,3.2,27,3.2,27s3.3,10.4,5.7,21.5c2-0.3,4,0.2,4,0.2s2.3,4.3,0,8.6c-0.8,1.5-1.5,1.8-2.2,1.7l0,0
	c0.8,6.4,0.7,11.8-1.2,14c-2.8,3.2-13,3.6-23.7,2.3c0.3,1.3,0.6,2.6,0.9,3.9l0,0c1,4.2,2,8,2,8s12.4,4.1,17.1,12.4l0.2-0.3
	c0.9,0.5,28,12.2,25.3,82.3l21.1-20.7l18.4,10.5l-39.3-22.5l58.7-34.1l5.8,3.4l-5.1,3.5l18.3,10.4l5.1-3.4l-15.3-8.8l30.4,17.5
	l-51.8,30.1c-7.9,13.9-31.1,52.8-47.8,58.7c-7.8,2.8-14.2,1.2-18.9-1.9c0.4,30,0.6,53.7,0.6,53.7l-9.9,225.5l489.1-282.4
	l-260.3-150.3L1615.6,1138.3z M1227.8,1640.6c-1.2,0.7-2.5,1.4-3.8,2c-0.4,0.2-0.9,0.4-1.4,0.6c-0.8,0.3-1.5,0.7-2.4,1
	c-0.1,0.1-0.3,0.1-0.4,0.2c-0.3,0.1-0.6,0.2-0.9,0.3c-1,0.4-2.1,0.7-3.2,1.1c-0.4,0.1-0.7,0.2-1.1,0.3c-0.2,0.1-0.5,0.2-0.7,0.2
	c-1,0.3-2.1,0.6-3.2,0.8c-0.2,0.1-0.5,0.1-0.7,0.2c-0.5,0.1-1,0.2-1.6,0.4c-0.4,0.1-0.9,0.1-1.3,0.2c-0.9,0.2-1.8,0.3-2.8,0.5
	c-0.4,0.1-0.7,0.1-1.1,0.2s-0.8,0.1-1.2,0.1c-0.9,0.1-1.7,0.2-2.6,0.3c-0.4,0-0.8,0.1-1.2,0.1c-0.4,0-0.8,0-1.2,0.1
	c-0.9,0.1-1.8,0.1-2.6,0.1c-0.4,0-0.9,0.1-1.3,0.1s-0.7,0-1.1,0c-1,0-1.9,0-2.9,0c-0.5,0-0.9,0-1.4,0s-1,0-1.4-0.1
	c-0.3,0-0.5,0-0.8,0c-1.2-0.1-2.4-0.2-3.6-0.3c-0.2,0-0.4-0.1-0.7-0.1c-0.4,0-0.7-0.1-1.1-0.1c-1.2-0.1-2.4-0.3-3.6-0.5
	c-0.3,0-0.6-0.1-0.9-0.1c-0.1,0-0.3,0-0.4-0.1c-0.6-0.1-1.1-0.2-1.7-0.4c-1-0.2-1.9-0.4-2.9-0.6c-0.7-0.2-1.4-0.4-2-0.6
	c-0.9-0.2-1.8-0.5-2.7-0.8c-0.2-0.1-0.4-0.1-0.6-0.2c-1.1-0.3-2.1-0.7-3.2-1.1c-0.1-0.1-0.3-0.1-0.4-0.2c-1.1-0.4-2.3-0.9-3.3-1.4
	c-0.3-0.1-0.6-0.3-1-0.5c-1.2-0.6-2.4-1.2-3.5-1.8v-16.7v-3.7l0,0l0.1,23.4L905.2,1499v-7.8v7.8l-10.1,5.8c-0.4,0.2-0.7,0.4-1.1,0.5
	c0,0,0,0-0.1,0s-0.1,0-0.2,0.1c-0.2,0.1-0.5,0.2-0.7,0.2c-0.1,0-0.3,0.1-0.4,0.1c-0.1,0-0.2,0-0.2,0.1c-0.1,0-0.1,0-0.2,0
	c-0.3,0.1-0.5,0.1-0.8,0.1c-0.1,0-0.2,0-0.3,0s-0.1,0-0.2,0c-0.1,0-0.2,0-0.3,0c-0.3,0-0.5,0-0.8,0c-0.1,0-0.2,0-0.2,0
	c-0.1,0-0.1,0-0.2,0c-0.1,0-0.2,0-0.4,0c-0.3,0-0.6,0-0.9-0.1H888c-0.1,0-0.2,0-0.2,0c-0.2,0-0.5-0.1-0.7-0.1
	c-0.1,0-0.2-0.1-0.3-0.1c-0.3-0.1-0.5-0.1-0.8-0.2c-0.1,0-0.3-0.1-0.4-0.1c-0.1,0-0.2-0.1-0.3-0.1s-0.2-0.1-0.3-0.1
	c-0.4-0.2-0.8-0.3-1.1-0.5l-42.8-24.8c-1.4,0.4-2.9,0.8-4.3,1.3c-1,0.3-2.1,0.6-3.1,0.9c-0.7,0.2-1.4,0.4-2.1,0.6
	c-2.6,0.7-5.2,1.4-7.9,2c-0.4,0.1-0.8,0.2-1.2,0.3c-2.3,0.6-4.6,1.1-6.9,1.6c-0.8,0.2-1.6,0.3-2.4,0.5c-0.7,0.2-1.5,0.3-2.2,0.5
	c-1.7,0.4-3.4,0.7-5.1,1c-0.2,0-0.4,0.1-0.7,0.1c-2.7,0.5-5.4,1-8.1,1.4c-0.7,0.1-1.3,0.2-2,0.3c-2.7,0.4-5.3,0.9-8,1.2
	c-0.1,0-0.2,0-0.3,0c0,0,0,0-0.1,0c-2.7,0.4-5.5,0.7-8.2,1.1c-0.6,0.1-1.3,0.2-1.9,0.2c-2.7,0.3-5.5,0.6-8.2,0.9
	c-0.4,0-0.7,0.1-1.1,0.1c-1.5,0.1-3,0.3-4.4,0.4c-1,0.1-2.1,0.2-3.1,0.2c-0.6,0-1.1,0.1-1.7,0.1c-2.7,0.2-5.5,0.4-8.2,0.5
	c-0.6,0-1.1,0.1-1.7,0.1c-2.5,0.1-5,0.2-7.6,0.3c-0.4,0-0.8,0-1.2,0c-0.2,0-0.4,0-0.6,0c-2.6,0.1-5.2,0.1-7.8,0.1c-0.7,0-1.3,0-2,0
	c-2.5,0-5,0-7.5,0c-0.4,0-0.8,0-1.2,0c-2.3,0-4.5-0.1-6.8-0.2c-0.5,0-1,0-1.5-0.1c-0.8,0-1.6-0.1-2.3-0.1c-2.2-0.1-4.4-0.2-6.7-0.3
	c-0.7,0-1.4-0.1-2.1-0.1c-2.8-0.2-5.6-0.4-8.4-0.6c-0.5,0-1.1-0.1-1.6-0.1c-1.5-0.1-3-0.3-4.6-0.4c-0.7-0.1-1.4-0.2-2.1-0.2
	c-1.1-0.1-2.2-0.2-3.4-0.4c-1.9-0.2-3.7-0.4-5.5-0.7c-1.1-0.1-2.2-0.3-3.3-0.4c-2-0.3-3.9-0.6-5.9-0.8c-0.9-0.1-1.9-0.3-2.8-0.4
	c-2.8-0.4-5.7-0.9-8.5-1.4h-0.1l0,0c-2.7-0.5-5.4-1-8.1-1.6c-0.6-0.1-1.3-0.3-1.9-0.4c-2.7-0.6-5.3-1.1-7.9-1.7
	c-0.3-0.1-0.6-0.1-0.9-0.2c-2.4-0.6-4.8-1.2-7.2-1.8c-0.6-0.1-1.2-0.3-1.7-0.4c-2.6-0.7-5.1-1.4-7.7-2.1c-0.5-0.1-0.9-0.3-1.4-0.4
	c-2.2-0.7-4.5-1.3-6.7-2c-0.5-0.2-1-0.3-1.5-0.5c-0.3-0.1-0.6-0.2-0.9-0.3c-2.2-0.7-4.3-1.4-6.5-2.2c-0.2-0.1-0.5-0.2-0.7-0.2
	c-2.6-0.9-5.2-1.9-7.8-2.8c-0.8-0.3-1.6-0.6-2.4-0.9c-1.8-0.7-3.5-1.4-5.3-2.1c-0.9-0.4-1.9-0.8-2.8-1.2c-1.6-0.7-3.1-1.3-4.7-2
	c-1-0.4-1.9-0.9-2.9-1.3c-1.5-0.7-3.1-1.4-4.6-2.2c-0.9-0.4-1.8-0.9-2.7-1.3c-1.6-0.8-3.2-1.6-4.8-2.5c-0.8-0.4-1.5-0.8-2.3-1.2
	c-2.3-1.2-4.6-2.5-6.9-3.8c-1-0.6-2-1.2-3-1.8c-0.2-0.1-0.4-0.3-0.7-0.4c-0.8-0.5-1.5-0.9-2.3-1.4c-0.7-0.4-1.4-0.9-2-1.3
	c-0.7-0.5-1.5-1-2.2-1.4s-1.3-0.9-2-1.3c-0.7-0.5-1.4-1-2.1-1.5c-0.6-0.4-1.3-0.9-1.9-1.3c-0.7-0.5-1.4-1-2.1-1.5
	c-0.6-0.4-1.2-0.9-1.8-1.3c-0.7-0.5-1.3-1-2-1.5c-0.6-0.4-1.2-0.9-1.7-1.3c-0.7-0.5-1.3-1-2-1.6c-0.6-0.4-1.1-0.9-1.7-1.3
	c-0.6-0.5-1.3-1.1-1.9-1.6c-0.5-0.4-1.1-0.9-1.6-1.3c-0.6-0.6-1.2-1.1-1.9-1.7c-0.4-0.4-0.9-0.8-1.3-1.2l-0.1-0.1
	c-1.3-1.2-2.5-2.4-3.7-3.6c-0.3-0.3-0.6-0.6-0.9-1c-0.9-0.9-1.8-1.8-2.7-2.8c-0.4-0.4-0.7-0.8-1.1-1.1c-1-1-1.9-2.1-2.8-3.1
	c-0.2-0.2-0.4-0.4-0.5-0.6c-1.1-1.2-2.1-2.5-3.1-3.7c-0.1-0.1-0.2-0.2-0.3-0.3c-0.2-0.3-0.5-0.6-0.7-0.9c-0.6-0.7-1.1-1.4-1.6-2.1
	c-0.3-0.5-0.7-0.9-1-1.4c-0.5-0.7-1-1.4-1.5-2.1c-0.3-0.5-0.6-0.9-0.9-1.4c-0.5-0.7-0.9-1.4-1.4-2.1c-0.3-0.5-0.6-0.9-0.8-1.4
	c-0.5-0.8-0.9-1.5-1.4-2.3c-0.2-0.3-0.4-0.6-0.6-0.9c0-0.1-0.1-0.2-0.1-0.3c-0.4-0.7-0.7-1.4-1.1-2.1c-0.2-0.4-0.5-0.9-0.7-1.3
	c-0.4-0.8-0.8-1.6-1.2-2.3c-0.2-0.3-0.3-0.7-0.5-1c-0.5-1.1-1-2.3-1.5-3.4c-0.1-0.2-0.1-0.4-0.2-0.5c-0.4-1-0.8-1.9-1.2-2.9v-0.1
	c-0.2-0.4-0.3-0.8-0.4-1.3c-0.2-0.7-0.5-1.3-0.7-2c-0.2-0.5-0.3-1-0.5-1.5c-0.2-0.6-0.4-1.3-0.6-1.9c-0.1-0.5-0.3-1-0.4-1.5
	c-0.2-0.6-0.3-1.3-0.5-1.9c-0.1-0.5-0.2-1-0.4-1.5c-0.1-0.6-0.3-1.2-0.4-1.9c0-0.1-0.1-0.2-0.1-0.3c-0.1-0.4-0.1-0.8-0.2-1.2
	c-0.1-0.6-0.2-1.3-0.3-1.9c-0.1-0.5-0.2-1.1-0.2-1.6c-0.1-0.6-0.2-1.2-0.3-1.9c-0.1-0.5-0.1-1.1-0.2-1.6c-0.1-0.6-0.1-1.2-0.2-1.9
	c0-0.5-0.1-1.1-0.1-1.6c0-0.6-0.1-1.2-0.1-1.9c0-0.2,0-0.4,0-0.6c0-0.7,0-1.4,0-2.2l-0.1-23.4c0,0.3,0,0.7,0,1l0,0
	c-0.5-36.9,23.7-74,72.5-102.2c96.3-55.6,251.8-55.6,347.5,0c52,30.2,75.6,70.7,70.8,110.2v12.9c0,16.9-5.1,33.8-15.3,49.8l30.9,18
	c3.1,1.8,3.1,4.7,0,6.5l-10.1,5.9l0,0l248.3,144.3c9.4,5.5,14.5,12.5,15.1,19.7c0-0.5,0.1-1,0.1-1.5l0.1,23.4
	C1243.2,1626.9,1238.1,1634.7,1227.8,1640.6z"></path>
<path id="color_x5F_7" fill="#E5E7EA" d="M853.9,973.7l-0.4-217.9l188.9,109.1L853.9,973.7z M673.4,859.8l75.3-43.5v218.2l49.4-28.5
	V787.8l55.4-32l-340,196.4l159.7,92.2L673.4,859.8z M1734,510.3v59.9c0,2.8,1.5,5.3,3.9,6.7l51.9,30c5.2,3,11.6-0.7,11.6-6.7
	l0.1-59.9c0-2.8-1.5-5.3-3.9-6.7l-52-30C1740.5,500.6,1734,504.3,1734,510.3z M1152.4,259.8v-70.2l-2-1.2v545l294.2,169.9
	c-0.4-5.2-0.7-10.3-0.7-15.3c0.1-38.3,13.7-65.3,35.6-77.9c-0.1,0-0.1,0.1-0.2,0.1l14.1-8.2c0.7-0.4,1.5-0.8,2.2-1.2
	c0.2-0.1,0.5-0.3,0.8-0.4c0.5-0.3,1-0.5,1.5-0.8c0.3-0.1,0.6-0.3,0.9-0.4c0.5-0.2,1-0.4,1.4-0.6c0.3-0.1,0.7-0.3,1-0.4
	c0.5-0.2,1-0.4,1.4-0.5c0.2-0.1,0.3-0.1,0.5-0.2c0.2-0.1,0.4-0.1,0.6-0.2c0.3-0.1,0.6-0.2,0.9-0.3c0.4-0.1,0.9-0.3,1.3-0.4
	c0.3-0.1,0.6-0.2,0.9-0.3c0.5-0.1,0.9-0.3,1.4-0.4c0.3-0.1,0.6-0.2,0.9-0.2c0.5-0.1,1-0.2,1.5-0.3c0.3-0.1,0.5-0.1,0.8-0.2h0.1
	c0.1,0,0.2,0,0.4-0.1c0.9-0.2,1.8-0.3,2.6-0.5c0.3,0,0.6-0.1,0.9-0.1c0.9-0.1,1.8-0.2,2.7-0.3c0.1,0,0.2,0,0.4,0h0.1
	c0.9-0.1,1.9-0.2,2.9-0.2c0.2,0,0.5,0,0.7,0c0.7,0,1.5,0,2.2-0.1c0.1,0,0.2,0,0.4,0c0.3,0,0.6,0,0.8,0c0.5,0,1,0,1.5,0
	c0.4,0,0.8,0,1.3,0s1,0,1.5,0.1c0.2,0,0.4,0,0.6,0c0.3,0,0.5,0,0.8,0.1c0.4,0,0.9,0.1,1.3,0.1c0.5,0,0.9,0.1,1.4,0.1
	c0.4,0,0.9,0.1,1.3,0.2c0.2,0,0.4,0,0.6,0.1c0.3,0,0.6,0.1,0.9,0.1c0.4,0.1,0.8,0.1,1.2,0.2c0.5,0.1,1,0.2,1.5,0.3
	c0.4,0.1,0.8,0.1,1.2,0.2c0.1,0,0.3,0,0.4,0.1c0.4,0.1,0.9,0.2,1.3,0.3c0.3,0.1,0.6,0.1,0.9,0.2c0.8,0.2,1.6,0.4,2.4,0.5
	c0.1,0,0.2,0.1,0.4,0.1l0,0c0.9,0.2,1.8,0.5,2.7,0.7c0.3,0.1,0.6,0.2,0.8,0.2c0.5,0.1,1,0.3,1.5,0.4c0.1,0,0.3,0.1,0.4,0.1
	c0.3,0.1,0.6,0.2,0.9,0.3c0.6,0.2,1.2,0.4,1.8,0.6c0.3,0.1,0.7,0.2,1,0.3c0.2,0.1,0.4,0.1,0.7,0.2c0.4,0.1,0.8,0.3,1.3,0.5
	c0.3,0.1,0.6,0.2,0.9,0.3c0.9,0.3,1.8,0.7,2.8,1.1l0,0l0,0c0.9,0.4,1.8,0.8,2.8,1.2c0.3,0.1,0.6,0.3,0.9,0.4
	c0.4,0.2,0.8,0.3,1.2,0.5c0.3,0.1,0.5,0.2,0.8,0.3s0.6,0.3,1,0.4c0.7,0.3,1.3,0.6,2,0.9c0.3,0.1,0.6,0.3,0.9,0.4
	c0.1,0.1,0.2,0.1,0.3,0.2c0.8,0.4,1.7,0.8,2.5,1.3c0.1,0,0.2,0.1,0.2,0.1c0.7,0.4,1.5,0.8,2.2,1.2c0.1,0.1,0.2,0.1,0.3,0.2
	c1.2,0.6,2.4,1.3,3.5,2c0.4,0.2,0.8,0.5,1.2,0.7c0.2,0.1,0.3,0.2,0.5,0.3c1.5,0.9,3.1,1.8,4.6,2.8l0,0l0.1,0.1c1.5,1,3,2,4.5,3
	c0.2,0.1,0.3,0.2,0.5,0.3c0.1,0.1,0.2,0.1,0.3,0.2c1.5,1.1,3.1,2.1,4.6,3.3c0.1,0.1,0.3,0.2,0.4,0.3c0.2,0.1,0.3,0.2,0.5,0.3
	c1.6,1.2,3.1,2.3,4.7,3.6c0.1,0.1,0.1,0.1,0.2,0.2c0.5,0.4,1,0.8,1.5,1.2c0.3,0.3,0.7,0.5,1,0.8c0.8,0.6,1.5,1.2,2.3,1.9
	c0.2,0.2,0.4,0.3,0.6,0.5l0,0l0.1,0.1c1.7,1.4,3.4,2.9,5,4.4c0.1,0.1,0.2,0.2,0.3,0.2l0.1,0.1c1.6,1.5,3.2,3,4.8,4.5
	c0.1,0.1,0.3,0.2,0.4,0.4c0.1,0.1,0.1,0.1,0.2,0.2c1.5,1.5,3,2.9,4.5,4.4c0.1,0.1,0.3,0.3,0.4,0.4c0.1,0.1,0.2,0.2,0.3,0.4
	c1.4,1.5,2.9,3,4.3,4.5c0.1,0.1,0.2,0.2,0.3,0.3c0.1,0.1,0.3,0.3,0.4,0.5c1.4,1.5,2.8,3,4.2,4.6c0.1,0.1,0.1,0.1,0.2,0.2
	c0.1,0.1,0.2,0.3,0.3,0.4c1.4,1.6,2.9,3.3,4.3,5l0.1,0.1l0,0c1.5,1.8,2.9,3.5,4.3,5.3c0.1,0.1,0.2,0.3,0.3,0.4
	c0,0.1,0.1,0.1,0.1,0.2c3,3.8,5.9,7.7,8.7,11.8c0.2,0.3,0.5,0.6,0.7,1c1.1,1.6,2.2,3.2,3.3,4.8c0.1,0.1,0.1,0.2,0.2,0.3
	s0.2,0.3,0.3,0.4c1.4,2.1,2.8,4.2,4.1,6.3c0.2,0.3,0.3,0.5,0.5,0.8c1.3,2.1,2.6,4.3,3.9,6.4c0.1,0.1,0.2,0.2,0.2,0.4
	c0.1,0.2,0.3,0.4,0.4,0.7c0.8,1.4,1.6,2.8,2.4,4.1c0.1,0.2,0.2,0.4,0.4,0.6c0.9,1.6,1.7,3.1,2.6,4.7c0.1,0.2,0.2,0.3,0.3,0.5
	c0.1,0.2,0.2,0.3,0.3,0.5c1.1,2.1,2.2,4.3,3.3,6.4c0.1,0.1,0.1,0.3,0.2,0.4c0.1,0.2,0.2,0.4,0.3,0.6c0.9,1.9,1.9,3.8,2.7,5.7
	c0,0.1,0.1,0.1,0.1,0.2c0.1,0.2,0.1,0.3,0.2,0.5c0.7,1.6,1.4,3.1,2.1,4.7c0.1,0.2,0.2,0.4,0.3,0.7c0.1,0.1,0.1,0.3,0.2,0.4
	c0.7,1.7,1.5,3.4,2.2,5c0,0.1,0.1,0.2,0.1,0.3c0.1,0.2,0.2,0.4,0.3,0.7c0.6,1.5,1.3,3.1,1.9,4.6c0.1,0.2,0.2,0.4,0.2,0.6
	c0,0.1,0.1,0.2,0.1,0.2c0.7,1.7,1.3,3.5,1.9,5.2c0.1,0.2,0.1,0.3,0.2,0.5s0.1,0.4,0.2,0.6c0.7,1.8,1.3,3.7,1.9,5.5c0,0,0,0,0,0.1
	s0,0.1,0.1,0.2c0.6,1.8,1.2,3.6,1.7,5.4c0.1,0.2,0.1,0.4,0.2,0.6c0,0.1,0.1,0.3,0.1,0.4c0.6,1.9,1.1,3.7,1.6,5.6
	c0,0.2,0.1,0.3,0.1,0.5c0.1,0.2,0.1,0.4,0.2,0.6c0.5,1.9,1,3.8,1.5,5.7v0.1c0,0.1,0.1,0.2,0.1,0.3c0.4,1.8,0.9,3.6,1.3,5.4
	c0,0.2,0.1,0.4,0.1,0.6c0,0.1,0,0.2,0.1,0.3c0.4,1.8,0.8,3.7,1.1,5.5c0,0.2,0.1,0.3,0.1,0.5s0.1,0.4,0.1,0.6
	c0.3,1.8,0.7,3.6,0.9,5.4v0.1c0,0.1,0,0.2,0,0.3c0.3,1.7,0.5,3.4,0.7,5.1c0,0.2,0.1,0.4,0.1,0.6c0,0.1,0,0.3,0,0.4
	c0.2,1.7,0.4,3.4,0.6,5.2c0,0.1,0,0.3,0,0.4c0,0.2,0,0.4,0.1,0.6c0.1,1.6,0.3,3.2,0.4,4.8c0,0.1,0,0.3,0,0.4c0,0.1,0,0.1,0,0.2
	c0.1,1.7,0.2,3.4,0.2,5.1c0,0.2,0,0.4,0,0.6c0,0.2,0,0.4,0,0.6c0,1.6,0.1,3.3,0.1,4.9c0,0.1,0,0.2,0,0.3s0,0.2,0,0.4
	c0,1.7-0.1,3.3-0.1,4.9c0,0.2,0,0.4,0,0.6c0,0.1,0,0.2,0,0.3c-0.1,1.7-0.2,3.4-0.3,5c0,0.2,0,0.3,0,0.5s0,0.3-0.1,0.5
	c-0.1,1.7-0.3,3.4-0.5,5c0,0.1,0,0.1,0,0.2c-0.1,0.5-0.1,1.1-0.2,1.6c-0.1,0.4-0.1,0.8-0.2,1.2c-0.1,0.8-0.2,1.5-0.4,2.3
	c0,0.3-0.1,0.5-0.1,0.8c0,0,0,0,0,0.1c-0.1,0.7-0.2,1.3-0.4,2c-0.1,0.3-0.1,0.7-0.2,1c-0.2,1-0.4,2-0.6,2.9l194.7,112.4V687.4
	L1152.4,259.8z M1603.7,793.4l-256.4-148.1l-128.2-74V522l384.7,222.1v49.3H1603.7z M1722.2,855.6c0,6.7-7.3,10.9-13.1,7.5
	l-93.4-53.9c-2.7-1.6-4.4-4.4-4.4-7.5v-43.8c0-6.7,7.3-10.9,13.1-7.5l93.4,53.9c2.7,1.6,4.4,4.4,4.4,7.5V855.6z"></path>
<path id="color_x5F_6" fill="#FFFFFF" d="M853.5,755.8l0.4,217.9l-55.8,32.2V787.8L853.5,755.8z M673.4,859.8l-0.3,184.6l29.2,16.9
	l46.3-26.8V816.3L673.4,859.8z M575.6,1265.3c-10,8.2-17.8,17.1-23.4,26.3l345.7-11.4c-7.2-8.8-16.6-17.1-28.1-24.7L575.6,1265.3z
	 M541.6,1329.7c-0.2,14.6,4.6,29.3,14.6,42.9c3.5,4.5,4,5.1,4.5,5.7c0.2,0.2,0.3,0.4,0.5,0.6s0.3,0.4,0.5,0.6s0.4,0.4,0.5,0.6
	c0.2,0.2,0.4,0.4,0.5,0.6c6.4,7.1,14.2,13.9,23.5,20.2l297.4-9.8c25.9-22,36.3-48.3,31.3-73.7L541.6,1329.7z M1219.1,522v49.4
	l128.2,74l256.4,148.1v-49.4L1219.1,522z M1472.9,911.4c0.5,10.2,2.2,20.7,4.9,31.3l128-57.2c-7.5-8.5-15.5-16.2-24-22.8
	L1472.9,911.4z M1492.3,981.8c4.6,9.5,10,18.7,19.2,32.1c0.5,0.7,1.1,1.5,2.1,2.8c10.1,13.6,21.5,25.7,33.9,35.6l110.1-49.2
	c-1.7-27.3-11.7-56.7-27-83.1L1492.3,981.8z M1132.2,884.6l8.6-12.3c0,0-0.1,8.2,5.2,24.9c12.4-10.4,37.3-11.8,47.8-11.9
	c0.1-3.8,1.1-7.7,4.5-10.5c8.7-7.1,5.6-18.5,5.6-18.5c-4.7-5.3-7.1-7.7-7.1-7.7c-23.5-0.8-57.2,15-57.2,15l1.2,8.6L1132.2,884.6
	L1132.2,884.6z"></path>
<path id="color_x5F_5" fill="#FFD2BB" stroke="#F6BF9B" stroke-miterlimit="10" d="M1301.3,1325.4v-0.5c0,0-0.1-3.3-0.2-9.1
	l-5.7-2.1c-2,5.8-5.6,16.3-4.4,22.3c0.8,4.3,6.8,9.8,11.8,13.1L1301.3,1325.4z M1392.2,1109.2c-1.6,2.1-3.8-0.1-2.9-5.7
	c0.4-2.8,2.5-3.8,4.5-4c-2.4-11-5.7-21.5-5.7-21.5c0.5,4.7-12,7.7-18.5,10.3c-6.5,2.6-2,17.3-2,17.3h-3.5l-0.1-5.2
	c0,0,1.8-5.6-8.8-11s-0.9,12.2-0.9,12.2c-2.5,9-10.8,5-17.9,4.9c2.4,4.5,4.8,8.2,5.8,10.4c0.6,1.4,2.7,2.7,5.8,4v5.4l23.5,3.8
	c-0.3-1.3-0.6-2.7-0.9-3.9c10.7,1.3,20.9,0.9,23.7-2.3c1.9-2.3,2-7.7,1.2-14C1394.4,1109.6,1393.3,1107.8,1392.2,1109.2z
	 M1143.4,931.6c-0.4,2.5-1,5.8-1.4,9.9c13.3,7.1,24.7,8.7,33.9,7.8c0.1-1.3,23.7-9.8,23.7-9.8c1.1-0.9,1.7-1.6,1.7-1.6l0.2,0.9h0.1
	c0,0,0.2-10-1.2-19.5c-2.6,3.5-9.9,11.2-22.7,12.7c-6.2,0.7-11.5,1-16,0.5c-0.5,0-0.9-0.1-1.4-0.2c-0.6-0.1-1.2-0.2-1.7-0.3
	c-0.1,0-0.3-0.1-0.4-0.1c-0.6-0.1-1.2-0.3-1.7-0.4c-4.5-1.3-7.8-3.8-9.9-7.9C1145.2,926.1,1143.9,928.6,1143.4,931.6z M1113.2,954.5
	c0,0-0.8,26.5,5,31c0,0,1.1,0.3,0.7-2.9c0,0,3,7.8,3.5,1.8c0,0,4.5,5.5,3.8,0c0,0,4.9,6.3,6.1,2.7c1.2-3.7-4.7-7.1-5.1-14.3
	c0,0,4.8,1.9,7.1,0.4c-0.1-1-0.1-2-0.1-3c-2.6-1.6-7.9-5.2-8.5-6.5c-0.8-1.8-3-1.2-3.6-9.4c-0.6-8.3,3.5-17.5,2.4-41
	c0,0-1.2-11.5-0.9-14.6c0.2-1.7,3.7-8.3,7.6-14.5c-2.3-1-8.2-3.8-13.1-7.1c-4.2,11.4-8.1,21.3-9.6,22.9
	C1104.9,903.7,1113.2,954.5,1113.2,954.5z M1197.8,903c9.8,9.6,25,24.7,25.1,26.6c0.1,2.9,11.4,14.1,11.4,14.1s6.4,8.5,8.1,7.9
	c1.7-0.5-1.3-4.9-1.3-4.9s3.1,2.9,5.1,3.3c2,0.4-2.8-5.7-2.8-5.7s5.5,2.8,7.3,2.8s-2.4-4.5-2.4-4.5c5.1,1.3,7.8-0.1,4.3-1.4
	c-3.5-1.3-15-12.4-15-12.4c9.3,1.3,10.1-4.5,8.1-3.9c-1.9,0.6-14.1-1.9-14.1-1.9s-13.6-17.2-15.1-22.7c-1.1-3.9-12.4-17.5-18.8-25
	c-2.9,2.7-3.8,6.4-3.9,9.9l0,0c-0.1,5.1,1.7,10,2.2,11.1l0,0c0,0.1,0,0.1,0.1,0.1l0,0l0,0l0,0L1197.8,903z M1167.7,832.1
	c3.2,0.2,4.8-1.4,5.6-3.3c0.8-1.9,0.8-4.1,0.8-4.9c0-0.4,0-0.9,0-1.6c-1.2-1.7-1.9-3.2-2.1-4.7c-0.2-1.6-0.6-3.4-1.1-5.2
	c2.7,1.4,5.5,2.3,8.3,2.5c1.9,0.1,3.6-0.1,5.1-0.7c0-0.2-0.1-0.4-0.1-0.5c0,0,6.9-3.1,8-11.6c1.2-8.5,0.7-19.8,0.7-19.8
	s-4.9-5.4-4.8-11.2c0,0-11.1,19.8-30,19.4c0,0-0.8,26.6,8.1,41.4C1166.8,832,1167.3,832,1167.7,832.1z M1084.7,1103.9
	c2.6,11.1,6.9,5.8,9.4,12.4c2.6,6.6,9.2,28.9,30.4,23.3c0,0,0.4-8.4-4.9-15.6c-5.4-7.3-6.4-22.5-4.7-27.6
	c1.4-4.3,27.3-24.6,36.3-35.1c-0.7,9.2-0.6,19.1,0.3,21.8c1.6,4.6,9.7,36,8.7,41.9c0,0,1.8,9.2,0.7,11.9c-1,2.7-4.3,11.4-4.3,15.7
	c0,4.3-0.5,7.6,5.5,9.8c5.9,2.2,10.2,1.4,20.2,10.8s21.4,2.3,21.4,2.3s2.2-4.6-0.4-7.4s-22.4-19.5-22.6-21.9s-2.4-4.7-2.3-7
	s-0.6-43.8-0.6-43.8l-1-50.8c0,0,0.1-4.4,0.2-10.1c2.2-1.7,5.2-5.1,9.1-11.5c2-3.3,3.9-8.5,5.5-14.8c-6.7-2.4-10.7-12.4-23.8-4.1
	l0,0c-0.5,0.3-1,0.6-1.5,1c0,0-0.1,0-0.1,0.1c-0.5,0.3-1,0.7-1.5,1.1c-0.6,0.4-1.1,0.8-1.6,1.2c-0.2,0.1-0.4,0.3-0.6,0.4
	c-0.3,0.2-0.7,0.5-1,0.7c-0.2,0.2-0.4,0.3-0.6,0.5c-0.3,0.2-0.6,0.4-0.9,0.6c-0.2,0.2-0.5,0.3-0.7,0.5c-0.2,0.1-0.4,0.3-0.6,0.4
	c-0.6,0.4-1.1,0.7-1.7,1.1c-0.1,0.1-0.2,0.1-0.3,0.2c-0.3,0.2-0.7,0.4-1,0.6c-0.1,0-0.2,0.1-0.2,0.1c-0.3,0.2-0.7,0.4-1,0.6
	c0.9,4.3,1.4,6.9,1.4,6.9s0.1,0.6,0.2,1.7c-1.2,3.3-3.7,7.4-8.6,11c-9.6,7.1-18.2,13.1-24,27.2s-16.3,27.6-20.6,29.1
	C1098.4,1090.7,1082.1,1092.8,1084.7,1103.9z"></path>
<path id="color_x5F_4" fill="#12b886" d="M1335.3,1533.2c-0.1,3.1-0.2,4.8-0.3,4.7c-0.5-1.4-13.2,15.7-21.3,5.3v-0.1
	c-1,8.3-2.2,19.2-1.9,20.3c0.4,1.8,6.4,4.2,16.3,2.4c9.9-1.8,22.7-23.9,24.4-28.8C1353.9,1533.2,1341.8,1533,1335.3,1533.2z
	 M1417,1582.1c-11.3,13.5-49.3,9.7-51.8,8.7c-2.2-0.9-0.7-15.6-0.2-20.7c0,0.2,0,0.4,0,0.4c12.8,8,21.3-2.9,21.3-2.9v-0.6
	c0.9,0.8,1.5,1.4,1.5,1.4S1428.3,1568.6,1417,1582.1z M1455.9,1222.4l-18.4-10.5l-21.1,20.7c2.6-70.1-24.4-81.8-25.3-82.3l-0.2,0.3
	c-4.7-8.3-17.1-12.4-17.1-12.4s-1-3.8-2-8l-23.5-3.8v5.7c0,0-11.4-9-28.1,1.9l0,0c-2.7,1.9-17.3,1.5-19.9,40.9
	c-2.6,39.3-8,137.8-8,137.8l8.8,3.2c0.1,5.8,0.2,9.1,0.2,9.1l0.4,6.4c24.4,4.1,62.2,7.6,95,0l0.1-2.5c0,0-0.2-23.7-0.6-53.7
	c4.7,3.1,11,4.6,18.9,1.9c16.7-5.9,39.9-44.8,47.8-58.7L1455.9,1222.4z"></path>
<path id="color_x5F_3" fill="#e64980" d="M1875.9,1272v59L1033,1817.6l-927.1-535.3v-59l927.1,535.3L1875.9,1272z M1082.4,858.3
	v50.2l-391.4,226L473.5,1009v-50.2L691,1084.3L1082.4,858.3z M576.3,1418.4c-51-29.7-70.8-70.5-59.4-109c0.3-1,0.6-2,0.9-3
	c0.7-2,1.4-3.9,2.2-5.9c1.2-2.9,2.7-5.8,4.3-8.7c1.1-1.9,2.2-3.8,3.5-5.7c1.9-2.8,3.9-5.6,6.1-8.4c1.5-1.8,3.1-3.7,4.7-5.5
	c9.9-10.9,22.8-21,38.6-30.2c25-14.4,54.6-24.6,86.1-30.5c8.3-1.5,16.7-2.8,25.2-3.7c6.8-0.8,13.6-1.3,20.5-1.7
	c1.7-0.1,3.4-0.2,5.1-0.2c3.4-0.1,6.9-0.2,10.3-0.3c6.9-0.1,13.8,0,20.6,0.3c5.1,0.2,10.3,0.5,15.4,1c1.7,0.1,3.4,0.3,5.1,0.5
	c42.5,4.2,83.2,15.7,115.9,34.8c41.9,24.3,62.7,56.2,62.5,88.1c0,1,0,2-0.1,3c-0.2,4.8-0.9,9.6-2.1,14.3c-0.1,0.4-0.2,0.8-0.3,1.2
	c-1.5,5.7-3.7,11.4-6.6,16.9c-5.5,10.6-13.4,20.9-23.9,30.5c-1.9,1.7-3.9,3.5-5.9,5.2c-7.2,6-15.4,11.7-24.6,17
	c-11.9,6.8-24.7,12.7-38.4,17.6c-9.1,3.3-18.5,6.1-28.1,8.6c-3.2,0.8-6.5,1.6-9.7,2.3c-4.9,1.1-9.9,2-14.8,2.9
	c-5,0.9-10,1.6-15.1,2.2c-6.8,0.9-13.6,1.5-20.4,2c-3.4,0.2-6.9,0.4-10.3,0.6C683.6,1457.1,622.1,1445,576.3,1418.4z M860.9,1407
	c32.8-18.9,51-43.1,54.6-67.9c0-0.1,0-0.1,0-0.2c0.1-0.7,0.2-1.4,0.3-2.2c0-0.1,0-0.2,0-0.3c0.1-0.7,0.1-1.4,0.2-2.1
	c0-0.1,0-0.2,0-0.3c0-0.7,0.1-1.4,0.1-2.1c0-0.1,0-0.2,0-0.4c0-0.7,0-1.4,0-2.1c0-0.1,0-0.1,0-0.2c0-0.7,0-1.5-0.1-2.2
	c0,0,0,0,0-0.1c-1.3-26.6-19.4-53-54.3-73.4c-72.9-42.4-191.5-42.4-264.8,0c-8,4.6-15.1,9.5-21.3,14.7c-10,8.2-17.8,17.1-23.4,26.3
	c-6.8,11.2-10.3,23-10.3,35.1h-0.3c-0.2,14.6,4.6,29.3,14.6,42.9c1.2,1.5,2,2.6,2.6,3.4c0.1,0.2,0.2,0.3,0.4,0.5
	c0.2,0.3,0.4,0.5,0.8,1c0.3,0.4,0.5,0.6,0.6,0.8c0.2,0.2,0.3,0.4,0.5,0.6s0.3,0.4,0.5,0.6s0.4,0.4,0.5,0.6c0.2,0.2,0.4,0.4,0.5,0.6
	l0,0l0,0c0.8,0.9,1.6,1.7,2.4,2.6l0,0c0.8,0.8,1.6,1.7,2.5,2.5l0.1,0.1c1.6,1.5,3.2,3,4.9,4.5c4.1,3.6,8.6,7.1,13.6,10.4l0,0
	c3.1,2.1,6.3,4.1,9.8,6.1C668.9,1449.4,787.5,1449.4,860.9,1407 M1243.2,1595.7c0,2.4-0.5,4.9-1.5,7.2c-2.2,5.2-6.8,10.2-13.9,14.3
	c-1.2,0.7-2.5,1.4-3.8,2c-0.4,0.2-0.9,0.4-1.4,0.6c-0.9,0.4-1.8,0.8-2.8,1.2c-0.3,0.1-0.6,0.2-0.9,0.3c-1,0.4-2.1,0.7-3.2,1.1
	c-0.4,0.1-0.7,0.2-1.1,0.3c-1.3,0.4-2.6,0.7-3.9,1.1c-0.2,0.1-0.5,0.1-0.7,0.2c-0.9,0.2-1.9,0.4-2.9,0.6c-0.9,0.2-1.8,0.3-2.8,0.5
	c-0.8,0.1-1.6,0.2-2.3,0.3c-0.9,0.1-1.7,0.2-2.6,0.3c-0.8,0.1-1.6,0.1-2.4,0.2c-0.9,0.1-1.8,0.1-2.6,0.1c-0.8,0-1.6,0.1-2.4,0.1
	c-1,0-1.9,0-2.9,0s-1.9,0-2.9-0.1c-0.3,0-0.5,0-0.8,0c-1.4-0.1-2.8-0.2-4.2-0.4c-0.4,0-0.7-0.1-1.1-0.1c-1.2-0.1-2.4-0.3-3.6-0.5
	c-0.3,0-0.6-0.1-0.9-0.1c-0.7-0.1-1.4-0.3-2.1-0.4c-1-0.2-1.9-0.4-2.9-0.6c-0.7-0.2-1.4-0.4-2.1-0.6c-0.9-0.2-1.8-0.5-2.7-0.8
	c-1.3-0.4-2.5-0.8-3.7-1.3c-0.2-0.1-0.3-0.1-0.4-0.2c-1.1-0.4-2.2-0.9-3.3-1.4c-0.3-0.1-0.6-0.3-1-0.5c-1.2-0.6-2.4-1.2-3.5-1.8
	l0.1,23.4c1.1,0.7,2.3,1.3,3.5,1.8c0.3,0.2,0.6,0.3,1,0.5c1.1,0.5,2.2,1,3.3,1.4c0.1,0.1,0.3,0.1,0.4,0.2c1,0.4,2.1,0.8,3.2,1.1
	c0.2,0.1,0.4,0.1,0.6,0.2c0.9,0.3,1.8,0.5,2.7,0.8c0.7,0.2,1.4,0.4,2,0.6c0.9,0.2,1.9,0.4,2.9,0.6c0.6,0.1,1.1,0.3,1.7,0.4
	c0.1,0,0.3,0,0.4,0.1c0.3,0.1,0.6,0.1,0.9,0.1c1.2,0.2,2.4,0.4,3.6,0.5c0.4,0,0.7,0.1,1.1,0.1c0.2,0,0.4,0.1,0.7,0.1
	c1.2,0.1,2.4,0.2,3.6,0.3c0.3,0,0.5,0,0.8,0c0.5,0,1,0.1,1.4,0.1c0.5,0,0.9,0,1.4,0c1,0,1.9,0,2.9,0c0.4,0,0.7,0,1.1,0
	s0.9-0.1,1.3-0.1c0.9,0,1.8-0.1,2.6-0.1c0.4,0,0.8,0,1.2-0.1c0.4,0,0.8-0.1,1.2-0.1c0.9-0.1,1.7-0.2,2.6-0.3
	c0.4-0.1,0.8-0.1,1.2-0.1c0.4-0.1,0.7-0.1,1.1-0.2c0.9-0.1,1.8-0.3,2.8-0.5c0.4-0.1,0.9-0.1,1.3-0.2c0.5-0.1,1.1-0.2,1.6-0.4
	c0.2-0.1,0.5-0.1,0.7-0.2c1.1-0.3,2.1-0.5,3.2-0.8c0.3-0.1,0.5-0.2,0.7-0.2c0.4-0.1,0.7-0.2,1.1-0.3c1.1-0.3,2.1-0.7,3.2-1.1
	c0.3-0.1,0.6-0.2,0.9-0.3c0.1-0.1,0.3-0.1,0.4-0.2c0.8-0.3,1.6-0.7,2.4-1c0.4-0.2,0.9-0.4,1.4-0.6c1.3-0.6,2.6-1.3,3.8-2
	c10.3-5.9,15.4-13.7,15.4-21.5L1243.2,1595.7z M905.1,1475.6L905.1,1475.6L905.1,1475.6l-10.1,5.8c-0.4,0.2-0.8,0.4-1.2,0.6
	c-0.1,0-0.1,0-0.2,0.1c-0.4,0.1-0.7,0.2-1.1,0.3c-0.1,0-0.2,0-0.2,0.1c-0.4,0.1-0.8,0.2-1.3,0.2c-0.1,0-0.1,0-0.2,0
	c-0.4,0-0.9,0.1-1.3,0.1c-0.1,0-0.1,0-0.2,0c-0.4,0-0.9,0-1.3-0.1c-0.1,0-0.2,0-0.2,0c-0.3,0-0.6-0.1-1-0.2
	c-0.3-0.1-0.5-0.1-0.8-0.2s-0.5-0.1-0.7-0.2c-0.1,0-0.2-0.1-0.3-0.1c-0.4-0.2-0.8-0.3-1.1-0.5l0.1,23.4c0.3,0.2,0.7,0.4,1.1,0.5
	c0.1,0,0.2,0.1,0.3,0.1s0.2,0.1,0.3,0.1s0.3,0.1,0.4,0.1c0.3,0.1,0.5,0.1,0.8,0.2c0.1,0,0.2,0.1,0.3,0.1c0.2,0,0.5,0.1,0.7,0.1
	c0.1,0,0.2,0,0.2,0h0.1c0.3,0,0.6,0,0.9,0.1c0.1,0,0.2,0,0.4,0c0.1,0,0.1,0,0.2,0c0.1,0,0.2,0,0.2,0c0.3,0,0.5,0,0.8,0
	c0.1,0,0.2,0,0.3,0s0.1,0,0.2,0c0.1,0,0.2,0,0.3,0c0.3,0,0.5-0.1,0.8-0.1c0.1,0,0.1,0,0.2,0c0.1,0,0.2,0,0.2-0.1
	c0.1,0,0.3-0.1,0.4-0.1c0.2-0.1,0.5-0.2,0.7-0.2c0.1,0,0.1,0,0.2-0.1c0,0,0,0,0.1,0c0.4-0.2,0.8-0.3,1.1-0.5l10.1-5.8v-7.8v7.8
	l248.9,144.6l-0.1-23.4L905.1,1475.6z M959,1402.8c10.3-16,15.4-32.9,15.3-49.8v-12.9c-2.3,19.3-11.4,38.3-27.2,55.8L959,1402.8z
	 M841.5,1456.9c-92.7,27.8-209.2,19.1-286.6-25.8c-47.1-27.4-70.9-63.2-71.4-99.1c0-0.3,0-0.7,0-1l0.1,23.4c0,0.7,0,1.4,0,2.2
	c0,0.2,0,0.4,0,0.6c0,0.6,0.1,1.2,0.1,1.9c0,0.5,0.1,1.1,0.1,1.6c0,0.6,0.1,1.2,0.2,1.9c0.1,0.5,0.1,1.1,0.2,1.6
	c0.1,0.6,0.2,1.2,0.3,1.9c0.1,0.5,0.1,1.1,0.2,1.6c0.1,0.6,0.2,1.3,0.3,1.9c0.1,0.4,0.1,0.8,0.2,1.2c0,0.1,0.1,0.2,0.1,0.3
	c0.1,0.6,0.3,1.2,0.4,1.9c0.1,0.5,0.2,1,0.4,1.5c0.2,0.6,0.3,1.3,0.5,1.9c0.1,0.5,0.3,1,0.4,1.5c0.2,0.6,0.4,1.3,0.6,1.9
	c0.2,0.5,0.3,1,0.5,1.5c0.2,0.7,0.5,1.3,0.7,2c0.2,0.4,0.3,0.8,0.4,1.3v0.1c0.4,1,0.8,1.9,1.2,2.9c0.1,0.2,0.1,0.4,0.2,0.5
	c0.5,1.1,1,2.3,1.5,3.4c0.2,0.3,0.3,0.7,0.5,1c0.4,0.8,0.8,1.6,1.2,2.3c0.2,0.4,0.5,0.9,0.7,1.3c0.4,0.7,0.7,1.4,1.1,2.1
	c0,0.1,0.1,0.2,0.1,0.3c0.2,0.3,0.4,0.6,0.6,0.9c0.4,0.8,0.9,1.5,1.4,2.3c0.3,0.5,0.6,0.9,0.8,1.4c0.5,0.7,0.9,1.4,1.4,2.1
	c0.3,0.5,0.6,0.9,0.9,1.4c0.5,0.7,1,1.4,1.5,2.1c0.3,0.5,0.7,0.9,1,1.4c0.5,0.7,1.1,1.4,1.6,2.1c0.2,0.3,0.5,0.6,0.7,0.9
	c0.1,0.1,0.2,0.2,0.3,0.3c1,1.3,2,2.5,3.1,3.7c0.2,0.2,0.4,0.4,0.5,0.6c0.9,1,1.8,2.1,2.8,3.1c0.3,0.4,0.7,0.8,1.1,1.1
	c0.9,0.9,1.8,1.9,2.7,2.8c0.3,0.3,0.6,0.6,0.9,1c1.2,1.2,2.5,2.4,3.7,3.6l0.1,0.1c0.4,0.4,0.9,0.8,1.3,1.2c0.6,0.6,1.2,1.1,1.9,1.7
	c0.5,0.4,1,0.9,1.6,1.3c0.6,0.5,1.3,1.1,1.9,1.6c0.5,0.4,1.1,0.9,1.7,1.3c0.6,0.5,1.3,1.1,2,1.6c0.6,0.4,1.2,0.9,1.7,1.3
	c0.7,0.5,1.3,1,2,1.5c0.6,0.4,1.2,0.9,1.8,1.3c0.7,0.5,1.4,1,2.1,1.5c0.6,0.4,1.3,0.9,1.9,1.3c0.7,0.5,1.4,1,2.1,1.5
	c0.7,0.4,1.3,0.9,2,1.3c0.7,0.5,1.5,1,2.2,1.4s1.4,0.9,2,1.3c0.8,0.5,1.5,0.9,2.3,1.4c0.2,0.1,0.4,0.3,0.7,0.4c1,0.6,2,1.2,3,1.8
	c2.3,1.3,4.6,2.6,6.9,3.8c0.8,0.4,1.5,0.8,2.3,1.2c1.6,0.8,3.2,1.7,4.8,2.5c0.9,0.5,1.8,0.9,2.7,1.3c1.5,0.7,3,1.5,4.6,2.2
	c1,0.4,1.9,0.9,2.9,1.3c1.6,0.7,3.1,1.4,4.7,2c0.9,0.4,1.9,0.8,2.8,1.2c1.7,0.7,3.5,1.4,5.3,2.1c0.8,0.3,1.6,0.6,2.4,0.9
	c2.6,1,5.2,1.9,7.8,2.8c0.2,0.1,0.5,0.2,0.7,0.2c2.1,0.7,4.3,1.5,6.5,2.2c0.3,0.1,0.6,0.2,0.9,0.3c0.5,0.2,1,0.3,1.5,0.5
	c2.2,0.7,4.5,1.4,6.7,2c0.5,0.1,0.9,0.3,1.4,0.4c2.5,0.7,5.1,1.4,7.7,2.1c0.6,0.2,1.2,0.3,1.7,0.4c2.4,0.6,4.8,1.2,7.2,1.8
	c0.3,0.1,0.6,0.1,0.9,0.2c2.6,0.6,5.3,1.2,7.9,1.7c0.6,0.1,1.3,0.3,1.9,0.4c2.7,0.5,5.4,1.1,8.1,1.6l0,0h0.1c2.8,0.5,5.6,1,8.5,1.4
	c0.9,0.1,1.9,0.3,2.8,0.4c2,0.3,3.9,0.6,5.9,0.8c1.1,0.1,2.2,0.3,3.3,0.4c1.8,0.2,3.7,0.5,5.5,0.7c1.1,0.1,2.2,0.2,3.4,0.4
	c0.7,0.1,1.4,0.2,2.1,0.2c1.5,0.2,3,0.3,4.6,0.4c0.5,0,1.1,0.1,1.6,0.1c2.8,0.2,5.6,0.4,8.4,0.6c0.7,0,1.4,0.1,2.1,0.1
	c2.2,0.1,4.4,0.2,6.7,0.3c0.8,0,1.6,0.1,2.3,0.1c0.5,0,1,0,1.5,0.1c2.3,0.1,4.5,0.1,6.8,0.2c0.4,0,0.8,0,1.2,0c2.5,0,5,0.1,7.5,0
	c0.7,0,1.3,0,2,0c2.6,0,5.2-0.1,7.8-0.1c0.2,0,0.4,0,0.6,0c0.4,0,0.8,0,1.2,0c2.5-0.1,5-0.2,7.6-0.3c0.6,0,1.1,0,1.7-0.1
	c2.8-0.1,5.5-0.3,8.2-0.5c0.6,0,1.1-0.1,1.7-0.1c1-0.1,2.1-0.2,3.1-0.2c1.5-0.1,3-0.3,4.4-0.4c0.4,0,0.7-0.1,1.1-0.1
	c2.8-0.3,5.5-0.6,8.2-0.9c0.6-0.1,1.3-0.1,1.9-0.2c2.7-0.3,5.5-0.7,8.2-1.1c0,0,0,0,0.1,0s0.2,0,0.3,0c2.7-0.4,5.3-0.8,8-1.2
	c0.7-0.1,1.3-0.2,2-0.3c2.7-0.5,5.4-0.9,8.1-1.4c0.2,0,0.4-0.1,0.7-0.1c1.7-0.3,3.4-0.7,5.1-1c0.7-0.2,1.5-0.3,2.2-0.5
	c0.8-0.2,1.6-0.3,2.4-0.5c2.3-0.5,4.6-1,6.9-1.6c0.4-0.1,0.8-0.2,1.2-0.3c2.6-0.6,5.3-1.3,7.9-2c0.7-0.2,1.4-0.4,2.1-0.6
	c1-0.3,2.1-0.6,3.1-0.9c1.4-0.4,2.9-0.8,4.3-1.3l42.8,24.8l-0.1-23.3L841.5,1456.9z M1459,896.6c-0.2,67.5,47.2,149.6,105.9,183.5
	c58.7,33.9,106.4,6.7,106.6-60.8c0.2-67.4-47.2-149.6-105.9-183.5C1506.9,802,1459.1,829.2,1459,896.6z M1564.9,1064.3
	c-19-11-36.7-27.8-51.8-48.2c-0.5-0.7-1.1-1.5-4.8-6.9c-5.9-8.8-11.3-18-15.9-27.5c-12.4-25.3-19.7-52.4-19.6-77.2
	c0.2-58.7,41.7-82.4,92.8-52.9c51.1,29.5,92.4,101,92.2,159.7C1657.6,1070.1,1616,1093.8,1564.9,1064.3 M1700.5,1014.9
	c0-0.2,0-0.4,0-0.6c0-0.2,0-0.4,0-0.6c-0.1-1.7-0.1-3.4-0.2-5.1c0-0.1,0-0.1,0-0.2c0-0.1,0-0.3,0-0.4c-0.1-1.6-0.2-3.2-0.4-4.8
	c0-0.2,0-0.4-0.1-0.6c0-0.1,0-0.3,0-0.4c-0.2-1.7-0.4-3.4-0.6-5.2c0-0.1,0-0.3,0-0.4c0-0.2-0.1-0.4-0.1-0.6
	c-0.2-1.7-0.5-3.4-0.7-5.1c0-0.1,0-0.2,0-0.3v-0.1c-0.3-1.8-0.6-3.6-0.9-5.4c0-0.2-0.1-0.4-0.1-0.6c0-0.2-0.1-0.3-0.1-0.5
	c-0.3-1.8-0.7-3.7-1.1-5.5c0-0.1,0-0.2-0.1-0.3c0-0.2-0.1-0.4-0.1-0.6c-0.4-1.8-0.8-3.6-1.3-5.4c0-0.1-0.1-0.2-0.1-0.3v-0.1
	c-0.5-1.9-1-3.8-1.5-5.7c-0.1-0.2-0.1-0.4-0.2-0.6c0-0.2-0.1-0.3-0.1-0.5c-0.5-1.9-1.1-3.7-1.6-5.6c0-0.1-0.1-0.3-0.1-0.4
	c-0.1-0.2-0.1-0.4-0.2-0.6c-0.6-1.8-1.1-3.6-1.7-5.4c0-0.1,0-0.1-0.1-0.2c0,0,0,0,0-0.1c-0.6-1.8-1.3-3.7-1.9-5.5
	c-0.1-0.2-0.1-0.4-0.2-0.6c-0.1-0.2-0.1-0.3-0.2-0.5c-0.6-1.7-1.3-3.5-1.9-5.2c0-0.1-0.1-0.2-0.1-0.2c-0.1-0.2-0.2-0.4-0.2-0.6
	c-0.6-1.6-1.2-3.1-1.9-4.6c-0.1-0.2-0.2-0.4-0.3-0.7c0-0.1-0.1-0.2-0.1-0.3c-0.7-1.7-1.4-3.4-2.2-5c-0.1-0.1-0.1-0.3-0.2-0.4
	c-0.1-0.2-0.2-0.4-0.3-0.7c-0.7-1.6-1.4-3.1-2.1-4.7c-0.1-0.2-0.1-0.3-0.2-0.5c0-0.1-0.1-0.1-0.1-0.2c-0.9-1.9-1.8-3.8-2.7-5.7
	c-0.1-0.2-0.2-0.4-0.3-0.6c-0.1-0.1-0.1-0.3-0.2-0.4c-1.1-2.1-2.2-4.3-3.3-6.4c-0.1-0.2-0.2-0.3-0.3-0.5c-0.1-0.2-0.2-0.3-0.3-0.5
	c-0.8-1.6-1.7-3.1-2.6-4.7c-0.1-0.2-0.2-0.4-0.4-0.6c-0.8-1.4-1.6-2.8-2.4-4.1c-0.1-0.2-0.3-0.4-0.4-0.7c-0.1-0.1-0.2-0.2-0.2-0.4
	c-1.3-2.2-2.6-4.3-3.9-6.4c-0.2-0.3-0.3-0.5-0.5-0.8c-1.3-2.1-2.7-4.3-4.1-6.3c-0.1-0.1-0.2-0.3-0.3-0.4c-0.1-0.1-0.1-0.2-0.2-0.3
	c-1.1-1.6-2.2-3.2-3.3-4.8c-0.2-0.3-0.5-0.6-0.7-1c-2.8-4-5.7-7.9-8.7-11.8c0-0.1-0.1-0.1-0.1-0.2c-0.1-0.1-0.2-0.3-0.3-0.4
	c-1.4-1.8-2.9-3.6-4.3-5.3l0,0l-0.1-0.1c-1.4-1.7-2.8-3.3-4.3-5c-0.1-0.1-0.2-0.3-0.3-0.4c-0.1-0.1-0.1-0.1-0.2-0.2
	c-1.4-1.6-2.8-3.1-4.2-4.6c-0.1-0.2-0.3-0.3-0.4-0.5c-0.1-0.1-0.2-0.2-0.3-0.3c-1.4-1.5-2.9-3-4.3-4.5c-0.1-0.1-0.2-0.2-0.3-0.4
	c-0.1-0.1-0.3-0.3-0.4-0.4c-1.5-1.5-3-3-4.5-4.4c-0.1-0.1-0.1-0.1-0.2-0.2c-0.1-0.1-0.3-0.2-0.4-0.4c-1.6-1.5-3.2-3-4.8-4.5
	l-0.1-0.1c-0.1-0.1-0.2-0.2-0.3-0.2c-1.7-1.5-3.3-3-5-4.4l-0.1-0.1l0,0c-0.2-0.2-0.4-0.3-0.6-0.5c-0.8-0.6-1.5-1.3-2.3-1.9
	c-0.3-0.3-0.7-0.5-1-0.8c-0.5-0.4-1-0.8-1.5-1.2c-0.1-0.1-0.1-0.1-0.2-0.2c-1.5-1.2-3.1-2.4-4.7-3.6c-0.2-0.1-0.3-0.2-0.5-0.3
	c-0.1-0.1-0.3-0.2-0.4-0.3c-1.5-1.1-3-2.2-4.6-3.3c-0.1-0.1-0.2-0.1-0.3-0.2c-0.2-0.1-0.3-0.2-0.5-0.3c-1.5-1-3-2-4.5-3l-0.1-0.1
	l0,0c-1.5-1-3-1.9-4.6-2.8c-0.2-0.1-0.3-0.2-0.5-0.3c-0.4-0.2-0.8-0.5-1.2-0.7l0,0c-1.2-0.7-2.4-1.3-3.5-2c-0.1-0.1-0.2-0.1-0.3-0.2
	c-0.7-0.4-1.5-0.8-2.2-1.2c-0.1,0-0.2-0.1-0.2-0.1c-0.8-0.4-1.7-0.9-2.5-1.3c-0.1-0.1-0.2-0.1-0.3-0.2c-0.3-0.1-0.6-0.3-0.9-0.4
	c-0.7-0.3-1.3-0.6-2-0.9c-0.3-0.2-0.6-0.3-1-0.4c-0.3-0.1-0.5-0.2-0.8-0.3c-0.4-0.2-0.8-0.4-1.2-0.5c-0.3-0.1-0.6-0.3-0.9-0.4
	c-0.9-0.4-1.9-0.8-2.8-1.2l0,0l0,0c-0.9-0.4-1.8-0.7-2.8-1.1c-0.3-0.1-0.6-0.2-0.9-0.3c-0.4-0.2-0.8-0.3-1.3-0.5
	c-0.2-0.1-0.4-0.1-0.7-0.2c-0.3-0.1-0.7-0.2-1-0.3c-0.6-0.2-1.2-0.4-1.8-0.6c-0.3-0.1-0.6-0.2-0.9-0.3c-0.1,0-0.3-0.1-0.4-0.1
	c-0.5-0.2-1-0.3-1.5-0.4c-0.3-0.1-0.6-0.2-0.8-0.2c-0.9-0.2-1.8-0.5-2.7-0.7l0,0c-0.1,0-0.2-0.1-0.4-0.1c-0.8-0.2-1.6-0.4-2.4-0.5
	c-0.3-0.1-0.6-0.1-0.9-0.2c-0.4-0.1-0.9-0.2-1.3-0.3c-0.1,0-0.3-0.1-0.4-0.1c-0.4-0.1-0.8-0.1-1.2-0.2c-0.5-0.1-1-0.2-1.5-0.3
	c-0.4-0.1-0.8-0.1-1.2-0.2c-0.3,0-0.6-0.1-0.9-0.1c-0.2,0-0.4,0-0.6-0.1c-0.4-0.1-0.9-0.1-1.3-0.2c-0.5-0.1-0.9-0.1-1.4-0.1
	c-0.4,0-0.9-0.1-1.3-0.1c-0.3,0-0.5,0-0.8-0.1c-0.2,0-0.4,0-0.6,0c-0.5,0-1-0.1-1.5-0.1c-0.4,0-0.8,0-1.3,0s-1,0-1.5,0
	c-0.3,0-0.6,0-0.8,0c-0.1,0-0.2,0-0.4,0c-0.7,0-1.5,0-2.2,0.1c-0.2,0-0.5,0-0.7,0c-1,0-1.9,0.1-2.9,0.2h-0.1c-0.1,0-0.2,0-0.4,0
	c-0.9,0.1-1.8,0.2-2.7,0.3c-0.3,0-0.6,0.1-0.9,0.1c-0.9,0.1-1.8,0.3-2.6,0.5c-0.1,0-0.3,0-0.4,0.1h-0.1c-0.3,0.1-0.5,0.1-0.8,0.2
	c-0.5,0.1-1,0.2-1.5,0.3c-0.3,0.1-0.6,0.2-0.9,0.2c-0.5,0.1-0.9,0.2-1.4,0.4c-0.3,0.1-0.6,0.2-0.9,0.3c-0.4,0.1-0.9,0.3-1.3,0.4
	c-0.3,0.1-0.6,0.2-0.9,0.3c-0.2,0.1-0.4,0.1-0.6,0.2c-0.2,0.1-0.3,0.1-0.5,0.2c-0.5,0.2-1,0.4-1.4,0.5c-0.3,0.1-0.7,0.3-1,0.4
	c-0.5,0.2-1,0.4-1.4,0.6c-0.3,0.1-0.6,0.3-0.9,0.4c-0.5,0.2-1,0.5-1.5,0.8c-0.3,0.1-0.5,0.2-0.8,0.4c-0.8,0.4-1.5,0.8-2.2,1.2
	l-14.1,8.2c0.7-0.4,1.5-0.8,2.2-1.2c0.2-0.1,0.5-0.3,0.8-0.4c0.5-0.3,1-0.5,1.5-0.8c0.3-0.1,0.6-0.3,0.9-0.4c0.5-0.2,1-0.4,1.4-0.6
	c0.3-0.1,0.7-0.3,1-0.4c0.5-0.2,1-0.4,1.4-0.5s0.8-0.3,1.1-0.4c0.3-0.1,0.6-0.2,0.9-0.3c0.4-0.1,0.9-0.3,1.3-0.4
	c0.3-0.1,0.6-0.2,0.9-0.3c0.5-0.1,0.9-0.3,1.4-0.4c0.3-0.1,0.6-0.2,0.9-0.2c0.5-0.1,1-0.2,1.5-0.3c0.3-0.1,0.5-0.1,0.8-0.2
	c0.2,0,0.3-0.1,0.5-0.1c0.9-0.2,1.8-0.3,2.6-0.5c0.3,0,0.6-0.1,0.9-0.1c0.9-0.1,1.8-0.2,2.7-0.3c0.2,0,0.3,0,0.5-0.1
	c0.9-0.1,1.9-0.2,2.9-0.2c0.2,0,0.5,0,0.7,0c0.7,0,1.5,0,2.2-0.1c0.4,0,0.8,0,1.2,0c0.5,0,1,0,1.5,0c0.4,0,0.8,0,1.3,0s1,0,1.5,0.1
	c0.4,0,0.9,0.1,1.3,0.1s0.9,0.1,1.3,0.1c0.5,0,0.9,0.1,1.4,0.1c0.4,0,0.9,0.1,1.3,0.2c0.5,0.1,1,0.1,1.5,0.2
	c0.4,0.1,0.8,0.1,1.2,0.2c0.5,0.1,1,0.2,1.5,0.3c0.4,0.1,0.8,0.1,1.2,0.2c0.6,0.1,1.2,0.2,1.7,0.4c0.3,0.1,0.6,0.1,0.9,0.2
	c0.8,0.2,1.6,0.4,2.4,0.5c0.1,0,0.2,0.1,0.4,0.1c0.9,0.2,1.8,0.5,2.7,0.7c0.3,0.1,0.6,0.2,0.8,0.2c0.6,0.2,1.3,0.4,1.9,0.6
	c0.3,0.1,0.6,0.2,0.9,0.3c0.6,0.2,1.2,0.4,1.8,0.6c0.3,0.1,0.7,0.2,1,0.3c0.6,0.2,1.3,0.4,1.9,0.7c0.3,0.1,0.6,0.2,0.9,0.3
	c0.9,0.3,1.8,0.7,2.8,1.1l0,0c0.9,0.4,1.8,0.8,2.8,1.2c0.3,0.1,0.6,0.2,0.9,0.4c0.7,0.3,1.3,0.6,2,0.9c0.3,0.1,0.6,0.3,1,0.4
	c0.7,0.3,1.3,0.6,2,1c0.3,0.1,0.6,0.3,0.8,0.4c0.9,0.5,1.9,0.9,2.8,1.4c0.1,0,0.2,0.1,0.2,0.1c0.8,0.4,1.7,0.9,2.5,1.3
	c1.2,0.6,2.4,1.3,3.5,2l0,0c0.6,0.3,1.1,0.7,1.7,1c1.5,0.9,3.1,1.8,4.6,2.8l0.1,0.1c1.5,1,3,2,4.5,3c0.3,0.2,0.5,0.4,0.8,0.6
	c1.5,1.1,3.1,2.1,4.6,3.2c0.3,0.2,0.6,0.4,0.8,0.6c1.6,1.2,3.1,2.3,4.7,3.6c0.6,0.5,1.1,0.9,1.7,1.4c0.3,0.3,0.7,0.5,1,0.8
	c0.8,0.6,1.5,1.2,2.3,1.9c0.2,0.2,0.4,0.3,0.6,0.5l0.1,0.1c1.7,1.4,3.4,2.9,5,4.4c0.1,0.1,0.3,0.2,0.4,0.3c1.6,1.5,3.2,3,4.8,4.5
	c0.2,0.2,0.4,0.4,0.6,0.6c1.5,1.5,3,2.9,4.5,4.4c0.2,0.3,0.5,0.5,0.7,0.8c1.4,1.5,2.9,3,4.3,4.5c0.2,0.3,0.5,0.5,0.7,0.8
	c1.4,1.5,2.8,3,4.2,4.6c0.2,0.2,0.3,0.4,0.5,0.5c1.4,1.6,2.9,3.3,4.3,5c0,0.1,0.1,0.1,0.1,0.2c1.5,1.8,2.9,3.5,4.3,5.3
	c0.2,0.2,0.3,0.4,0.5,0.6c1.8,2.3,3.5,4.6,5.2,6.9l0,0c1.2,1.6,2.3,3.2,3.5,4.9c0.2,0.3,0.5,0.6,0.7,1c1.1,1.6,2.2,3.2,3.3,4.8
	c0.2,0.2,0.3,0.5,0.5,0.7c1.4,2.1,2.8,4.2,4.1,6.3c0.2,0.3,0.3,0.5,0.5,0.8c1.3,2.1,2.6,4.3,3.9,6.4c0.2,0.3,0.4,0.7,0.6,1
	c0.8,1.4,1.6,2.8,2.4,4.1c0.1,0.2,0.2,0.4,0.4,0.6c0.9,1.6,1.7,3.1,2.6,4.7c0.2,0.3,0.4,0.7,0.5,1c1.1,2.1,2.2,4.3,3.3,6.4
	c0.2,0.3,0.3,0.6,0.5,1c0.9,1.9,1.8,3.8,2.7,5.7c0.1,0.2,0.2,0.4,0.3,0.7c0.7,1.6,1.4,3.1,2.1,4.7c0.2,0.4,0.3,0.7,0.5,1.1
	c0.7,1.7,1.5,3.3,2.2,5c0.1,0.3,0.3,0.7,0.4,1c0.6,1.5,1.3,3.1,1.9,4.6c0.1,0.3,0.2,0.6,0.3,0.8c0.7,1.7,1.3,3.5,1.9,5.2
	c0.1,0.4,0.3,0.8,0.4,1.1c0.7,1.8,1.3,3.7,1.9,5.5c0,0.1,0.1,0.2,0.1,0.2c0.6,1.8,1.2,3.6,1.7,5.4c0.1,0.3,0.2,0.7,0.3,1
	c0.6,1.8,1.1,3.7,1.6,5.5c0.1,0.4,0.2,0.7,0.3,1.1c0.5,1.9,1,3.8,1.5,5.7c0,0.1,0.1,0.3,0.1,0.4c0.4,1.8,0.9,3.6,1.3,5.4
	c0.1,0.3,0.1,0.6,0.2,0.9c0.4,1.8,0.8,3.7,1.1,5.5c0.1,0.4,0.1,0.8,0.2,1.1c0.3,1.8,0.7,3.6,0.9,5.4c0,0.1,0,0.3,0.1,0.4
	c0.3,1.7,0.5,3.4,0.7,5.1c0,0.3,0.1,0.7,0.1,1c0.2,1.7,0.4,3.4,0.6,5.2c0,0.3,0.1,0.7,0.1,1c0.1,1.6,0.3,3.2,0.4,4.8
	c0,0.2,0,0.4,0,0.6c0.1,1.7,0.2,3.4,0.2,5.1c0,0.4,0,0.8,0,1.2c0,1.6,0.1,3.2,0.1,4.9c0,0.2,0,0.5,0,0.7c0,1.7-0.1,3.3-0.1,4.9
	c0,0.3,0,0.6,0,0.9c-0.1,1.7-0.2,3.4-0.3,5c0,0.3-0.1,0.6-0.1,1c-0.1,1.7-0.3,3.4-0.5,5c-0.1,0.6-0.2,1.2-0.2,1.8
	c-0.1,0.4-0.1,0.8-0.2,1.1c-0.1,0.8-0.2,1.5-0.4,2.3c0,0.3-0.1,0.5-0.1,0.8c-0.1,0.7-0.2,1.3-0.4,2c-0.1,0.3-0.1,0.7-0.2,1
	c-0.2,1-0.4,2-0.6,2.9c0,0,0,0,0,0.1c-0.2,1-0.5,2-0.7,3c-0.1,0.3-0.2,0.6-0.3,1c-0.2,0.7-0.4,1.3-0.5,2c-0.1,0.3-0.2,0.6-0.3,0.8
	c-0.2,0.7-0.5,1.5-0.7,2.2c-0.1,0.4-0.2,0.7-0.4,1.1c-0.2,0.6-0.4,1.3-0.7,1.9c-0.1,0.3-0.3,0.7-0.4,1c-0.3,0.9-0.7,1.8-1,2.6
	c-0.1,0.2-0.2,0.4-0.3,0.6c-0.4,1-0.9,2.1-1.4,3.1c-0.2,0.5-0.5,0.9-0.7,1.4c-0.1,0.3-0.3,0.5-0.4,0.8c-0.3,0.6-0.7,1.3-1,1.9
	c-0.1,0.1-0.1,0.2-0.2,0.4c-0.4,0.7-0.8,1.4-1.2,2.2c-0.1,0.2-0.3,0.4-0.4,0.6c-0.3,0.5-0.6,0.9-0.9,1.4c-0.6,1-1.2,1.9-1.9,2.8
	c-0.2,0.2-0.3,0.4-0.5,0.6c-0.6,0.8-1.2,1.6-1.8,2.4c-0.1,0.1-0.2,0.3-0.3,0.4c-0.7,0.9-1.4,1.7-2.1,2.5c-0.2,0.2-0.3,0.4-0.5,0.6
	c-0.7,0.7-1.4,1.4-2.1,2.1c-0.1,0.1-0.2,0.2-0.3,0.3c-0.8,0.8-1.6,1.5-2.4,2.2c-0.2,0.2-0.4,0.3-0.6,0.5c-0.8,0.7-1.6,1.3-2.4,1.9
	c-0.1,0-0.1,0.1-0.2,0.1c-0.8,0.6-1.7,1.3-2.6,1.9c-0.2,0.1-0.4,0.3-0.6,0.4c-0.9,0.6-1.8,1.2-2.7,1.7l14.1-8.2
	c0.9-0.5,1.8-1.1,2.7-1.7c0.2-0.1,0.4-0.3,0.6-0.4c0.9-0.6,1.7-1.2,2.6-1.9c0.1,0,0.1-0.1,0.2-0.1c0.8-0.6,1.6-1.3,2.4-1.9
	c0.2-0.2,0.4-0.3,0.6-0.5c0.8-0.7,1.6-1.4,2.4-2.2c0.1-0.1,0.2-0.2,0.3-0.3c0.7-0.7,1.4-1.4,2.1-2.1c0.2-0.2,0.4-0.4,0.5-0.6
	c0.7-0.8,1.4-1.6,2.1-2.5c0.1-0.1,0.2-0.3,0.3-0.4c0.6-0.8,1.2-1.6,1.8-2.4c0.2-0.2,0.3-0.4,0.5-0.6c0.7-0.9,1.3-1.8,1.9-2.8
	l0.1-0.1c0.3-0.4,0.5-0.8,0.8-1.3c0.1-0.2,0.3-0.4,0.4-0.6c0.4-0.7,0.8-1.4,1.2-2.2c0.1-0.1,0.1-0.2,0.2-0.4c0.3-0.6,0.7-1.2,1-1.9
	c0.1-0.3,0.3-0.5,0.4-0.8c0.2-0.4,0.4-0.8,0.6-1.2c0-0.1,0.1-0.2,0.1-0.2c0.5-1,0.9-2,1.4-3.1c0.1-0.2,0.2-0.4,0.3-0.6
	c0.4-0.9,0.7-1.7,1-2.6c0.1-0.2,0.1-0.3,0.2-0.5s0.1-0.4,0.2-0.5c0.2-0.6,0.4-1.3,0.7-1.9c0.1-0.4,0.2-0.7,0.4-1.1
	c0.2-0.7,0.5-1.5,0.7-2.2c0.1-0.2,0.1-0.5,0.2-0.7c0-0.1,0-0.1,0-0.2c0.2-0.6,0.4-1.3,0.5-2c0.1-0.3,0.2-0.6,0.3-1
	c0.3-1,0.5-2,0.7-3l0,0c0.2-1,0.4-2,0.6-3c0.1-0.3,0.1-0.7,0.2-1c0.1-0.6,0.3-1.3,0.4-2c0,0,0,0,0-0.1c0-0.3,0.1-0.5,0.1-0.8
	c0.1-0.7,0.2-1.5,0.4-2.3c0.1-0.4,0.1-0.8,0.2-1.2c0.1-0.5,0.2-1.1,0.2-1.6c0-0.1,0-0.1,0-0.2c0.2-1.6,0.4-3.3,0.5-5
	c0-0.2,0-0.3,0.1-0.5c0-0.2,0-0.3,0-0.5c0.1-1.7,0.2-3.3,0.3-5c0-0.1,0-0.2,0-0.3c0-0.2,0-0.4,0-0.6c0.1-1.6,0.1-3.3,0.1-4.9
	c0-0.1,0-0.2,0-0.4c0-0.1,0-0.2,0-0.3C1700.6,1018.2,1700.5,1016.6,1700.5,1014.9z M1601.6,1112l-0.1,34.4c0,2.5-1.8,3.5-3.9,2.2
	l-7.1-4.1l-0.6,200.5c0,0.5,0,1,0,1.4l0,0c0,0.2,0,0.5,0,0.7s0,0.4,0,0.6l0,0c0,0.3-0.1,0.5-0.1,0.8c0,0.2,0,0.4-0.1,0.5l0,0
	c0,0.3-0.1,0.6-0.1,0.8c0,0.1,0,0.3-0.1,0.4l0,0c-0.1,0.3-0.1,0.6-0.2,0.9c0,0.1-0.1,0.2-0.1,0.4l0,0c-0.1,0.3-0.2,0.6-0.2,0.9
	c0,0.1-0.1,0.2-0.1,0.3l0,0c-0.1,0.3-0.2,0.6-0.3,0.8c0,0.1-0.1,0.3-0.1,0.4l0,0c-0.4,1.1-0.9,2.1-1.5,3l0,0c0,0,0,0.1-0.1,0.1l0,0
	c-0.3,0.5-0.6,0.9-1,1.3c0,0,0,0-0.1,0.1l0,0c-0.3,0.3-0.5,0.6-0.8,0.9c0,0,0,0-0.1,0.1c0,0,0,0-0.1,0.1l0,0c-0.4,0.4-0.8,0.7-1.2,1
	c0,0-0.1,0-0.1,0.1l0,0c-0.3,0.2-0.7,0.5-1,0.7l-0.1,0.1l14.1-8.2c0.4-0.2,0.8-0.5,1.1-0.8c0.1-0.1,0.2-0.1,0.3-0.2
	c0.4-0.3,0.7-0.6,1-0.9c0,0,0,0,0.1-0.1c0.3-0.3,0.6-0.6,0.9-1c0.1-0.1,0.1-0.2,0.2-0.3c0.3-0.4,0.6-0.8,0.8-1.2l0,0v-0.1
	c0.3-0.5,0.6-1,0.9-1.6v-0.1l0,0c0.2-0.4,0.4-0.9,0.6-1.3v-0.1c0-0.1,0.1-0.2,0.1-0.3c0.1-0.3,0.2-0.5,0.3-0.8
	c0-0.1,0.1-0.1,0.1-0.2s0.1-0.2,0.1-0.3c0.1-0.2,0.1-0.5,0.2-0.7c0-0.1,0.1-0.2,0.1-0.3c0-0.1,0-0.2,0.1-0.3c0-0.2,0.1-0.4,0.1-0.6
	c0-0.1,0-0.2,0.1-0.3c0-0.1,0-0.3,0.1-0.4c0-0.2,0.1-0.4,0.1-0.6c0-0.1,0-0.2,0-0.3c0-0.2,0-0.3,0.1-0.5c0-0.2,0-0.4,0.1-0.5
	c0-0.1,0-0.1,0-0.2c0-0.2,0-0.5,0-0.7c0-0.1,0-0.3,0-0.4v-0.1c0-0.4,0-0.8,0-1.2c0,0,0,0,0-0.1l0.5-190.4l9.9-5.7
	c0.2-0.1,0.3-0.2,0.4-0.4l0.1-0.1c0-0.1,0.1-0.1,0.1-0.2c0.1-0.1,0.1-0.2,0.1-0.3l0,0l0,0c0-0.1,0.1-0.1,0.1-0.2s0-0.1,0.1-0.2
	c0-0.1,0-0.1,0.1-0.2v-0.1l0,0v-0.1c0-0.1,0-0.1,0-0.2s0-0.1,0-0.2s0-0.1,0-0.2s0-0.1,0-0.2l0,0l0.1-24.4
	C1611.1,1113.6,1606.4,1113,1601.6,1112z M1146.3,898.2c5.7,17.3,0,25.1,0,25.1c4.5,9.3,14.7,10.7,31.4,8.8
	c16.7-1.9,23.9-14.5,23.9-14.5l-5.5-20.9c0,0-2.4-5.5-2.3-11.4c-10.6,0-35.5,1.5-47.8,11.9C1146.1,897.5,1146.2,897.8,1146.3,898.2z
	 M1109.9,867.6c0.3,7.7,22.3,16.9,22.3,16.9l8.6-12.3l-1.2-8.6c0,0,33.7-15.8,57.2-15c0,0,2.5,2.4,7.1,7.7l3.3-4.3
	c-5.2-2.1-9-9.6-9-9.6s-0.1-0.1-0.2-0.4c-0.1,0.8-0.1,1.6-0.1,2.5c0,0-4.9-5-3.6-12.9c1.3-7.8-3-13-3-13s-2,8.2-11.9,16.3
	c0,0,4.8-11,5.1-17.9c-4.9-0.3-10.3-0.1-10.3-0.1s-0.2,5.1-0.2,6.8s-0.1,8.7-6.4,8.2c-0.4,0-0.9-0.1-1.3-0.2
	c0.5,0.9,1.1,1.8,1.8,2.6c0,0-7.4-1.1-12.4-7.9c0,0,2.9,6.4-2.7,12.3c-5.6,5.9-11.7,1.9-15.6,5.1c-4,3.2-3.4,4.5-3.4,4.5
	s-1.8-4.8-4-8.6c-0.1,0.4-0.2,0.6-0.2,0.6s-11.1,19-13,21.5C1115.1,864.6,1109.9,867.6,1109.9,867.6z"></path>
<path id="color_x5F_2" fill="#4c6ef5" d="M864.9,732.8l-391.4,226L691,1084.3l391.4-226L864.9,732.8z M513.5,952.2l340.1-196.3
	L1042.5,865l-340.1,196.3L513.5,952.2z M552.2,1291.6l345.7-11.4c-7.2-8.8-16.6-17.1-28.1-24.7l-294.2,9.7
	c6.3-5.2,13.4-10.1,21.3-14.7c73.4-42.4,191.9-42.4,264.8,0c35,20.3,53.1,46.7,54.3,73.3c-0.2-3.2-0.5-6.3-1.2-9.5l-373.3,12.3
	C541.8,1314.8,545.3,1303,552.2,1291.6z M883.6,1391.1c17.8-15.1,28.3-32.3,31.5-49.7c-4.4,24-22.4,47.3-54.2,65.6
	c-73.4,42.4-192,42.4-264.8,0c-3.4-2-6.7-4-9.8-6.1L883.6,1391.1z M1228,1577.5l-248.3-144.3l0,0l10.1-5.9c3.1-1.8,3.1-4.7,0-6.5
	l-42.8-24.9c48.2-53.6,33.7-121.1-43.6-166.1c-95.6-55.6-251.2-55.6-347.5,0s-96.8,145.7-1.1,201.3c77.3,44.9,193.9,53.6,286.6,25.8
	l42.8,24.9c3.1,1.8,8.1,1.8,11.2,0l10.1-5.9l0,0l248.3,144.3c20.3,11.8,53.3,11.8,73.8,0C1248.2,1608.4,1248.3,1589.3,1228,1577.5z
	 M881,1418.7c-84.4,48.7-220.8,48.7-304.6,0c-83.9-48.7-83.4-127.7,1-176.5c84.4-48.7,220.8-48.7,304.6,0
	C965.9,1291,965.4,1370,881,1418.7z M1624.5,750.3l93.4,53.9c2.7,1.6,4.4,4.4,4.4,7.5v43.8c0,6.7-7.3,10.9-13.1,7.5l-93.4-53.9
	c-2.7-1.6-4.4-4.4-4.4-7.5v-43.8C1611.5,751.1,1618.7,747,1624.5,750.3z M1581.8,862.7l-108.9,48.7c0.1,1.2,0.1,2.5,0.2,3.7
	c-0.3-3.5-0.4-7.1-0.4-10.5c0.2-58.7,41.7-82.4,92.8-52.9c6.7,3.8,13.1,8.4,19.4,13.5C1583.9,864.4,1582.9,863.5,1581.8,862.7z
	 M1656.5,992.8c0.8,6.3,1.3,12.5,1.3,18.6c-0.2,58.7-41.7,82.4-92.8,52.9c-6.7-3.9-13.3-8.5-19.6-13.7c0.7,0.6,1.4,1.2,2.1,1.7
	l110.1-49.2C1657.3,999.7,1657,996.3,1656.5,992.8z M1603,882.5c25.9,28.2,45.5,66.1,52.2,102.4c-4-21.8-12.8-44.3-24.7-64.8
	l-138.2,61.8c-7.5-15.3-13.1-31.2-16.4-46.9c0.5,2.6,1.2,5.2,1.8,7.9l128-57.2C1604.9,884.5,1603.9,883.5,1603,882.5z M1565.6,818.7
	c-67-38.7-121.4-7.6-121.6,69.3c-0.2,62.2,35.2,135.4,84.1,181.6l0,0l-0.1,34.4c0,2.5,1.7,5.5,3.9,6.8l7,4.1l-0.6,200.5
	c0,16.4,11.5,36.3,25.7,44.5s25.8,1.6,25.9-14.7l0.6-200.5l7.1,4.1c2.2,1.2,3.9,0.2,3.9-2.2l0.1-34.4c49,10.4,84.7-21.8,84.9-84
	C1686.7,951.1,1632.6,857.4,1565.6,818.7z M1564.9,1080.1c-58.7-33.9-106.1-116-105.9-183.5c0.2-67.4,47.9-94.7,106.6-60.8
	s106.1,116,105.9,183.5S1623.6,1114,1564.9,1080.1z M1894.1,610.8v77.8l-741.7-428.8v-77.4L1734,518.3v51.9c0,2.8,1.5,5.3,3.9,6.7
	l51.9,30c5.2,3,11.6-0.7,11.6-6.7v-42.9l8.2,4.7v53.4c0,2.8,1.5,5.3,3.9,6.7l51.9,30c5.2,3,11.6-0.7,11.6-6.7V601L1894.1,610.8z
	 M1185.7,757.4c0,0,12.1,6.3,13,19.1c0.9,12.7-5.4,10.3,4,23c9.3,12.7,10.9,20.5,7,28.4c-4,7.9-12.3,7.7-11.6,16.7
	c0,0-4.9-5-3.6-12.9c1.3-7.8-3-13-3-13s-2,8.2-11.9,16.3c0,0,6.7-15.5,4.8-21.3c0,0,6.9-3.1,8-11.6c1.2-8.5,0.7-19.8,0.7-19.8
	s-4.9-5.4-4.8-11.2c0,0-11.1,19.8-30,19.4c0,0-0.9,30,9.9,44c0,0-7.4-1.1-12.4-7.9c0,0,2.9,6.4-2.7,12.3c-5.6,5.9-11.7,1.9-15.6,5.1
	c-4,3.2-3.4,4.5-3.4,4.5s-3-7.9-5.8-11.4s-4.8-10.1-3.9-13.7c1-3.6-0.4-11.6,7.9-19.7s3.7-20.7,3.7-20.7s-3-13,0.5-19.3
	s13.1-9.1,25.9-13.8S1185.7,757.4,1185.7,757.4z M1201.3,937.9c0,0-22.3,23.6-59.5,3.4c0,0-12,16.3-6,41.6s1.7,34.3,1.7,34.3
	s7.3,4.3,27-10.7s21,6.9,33.4,1.7c12.4-5.1,18.8-12,18.8-12L1201.3,937.9z"></path>
<path id="color_x5F_1" fill="#4c6ef5" d="M1397.9,1108.2c-2.2,4.3-4.1-1.1-5.7,1s-3.8-0.1-2.9-5.7s8.5-3.9,8.5-3.9
	S1400.2,1103.9,1397.9,1108.2z M1809.7,555.4v59.9c0,2.8,1.5,5.3,3.9,6.7l51.9,30c5.2,3,11.6-0.7,11.6-6.7l0.1-59.9
	c0-2.8-1.5-5.3-3.9-6.7l-52-30C1816.2,545.7,1809.7,549.5,1809.7,555.4z M1367.3,1206c-3.5,28.5-5.7,58.7,6.1,84.9
	c5.6,12.6,13.9,24.7,22.1,36c-0.2-23.4-1.5-164.6-5-173.3c-0.5-1.2-1.1-2.3-1.9-3.3C1374.5,1163.6,1369.8,1185.9,1367.3,1206z
	 M1336.6,1106.5c-7.1-0.1-6.5-6.4-9.4-13.6s-2.3-8.3,1.3-24.3c3.6-16,26.8-15.8,26.8-15.8s16-13.3,29.8-1.7c13.9,11.7,3.2,27,3.2,27
	c0.5,4.7-12,7.7-18.5,10.3c-6.5,2.6-2,17.3-2,17.3h-3.5l-0.1-5.2c0,0,1.8-5.6-8.8-11c-10.6-5.4-0.9,12.2-0.9,12.2
	C1352,1110.5,1343.6,1106.5,1336.6,1106.5z M1514.6,1188.3l-58.7,34.1l-39.3-22.5l58.7-34.1l5.8,3.4l-5.1,3.5l18.3,10.4l5.1-3.4
	l-15.3-8.8L1514.6,1188.3z M1396.7,1331.4l0.1-2.5l-10.5,238.7c0,0-8.5,10.9-21.3,2.9c0,0-17.6-212.1-21-215.8
	c-3.3-3.8-8.5,184.7-9,183.3c-0.5-1.4-13.2,15.7-21.3,5.3l-12.4-218.2l0.4,6.4C1326.1,1335.4,1363.9,1338.9,1396.7,1331.4z
	 M1396.8,1328.9C1396.8,1328.9,1396.8,1328.8,1396.8,1328.9C1396.8,1328.8,1396.8,1328.9,1396.8,1328.9z"></path>
</svg>